<?xml version="1.0" encoding="iso-8859-1"?>
<!-- Generator: Adobe Illustrator 19.0.0, SVG Export Plug-In . SVG Version: 6.00 Build 0)  -->
<svg version="1.1" xmlns="http://www.w3.org/2000/svg" xmlns:xlink="http://www.w3.org/1999/xlink" x="0px" y="0px"
	 viewBox="0 0 470.689 320.638" style="enable-background:new 0 0 470.689 320.638;" xml:space="preserve">
<g id="easy_x5F_to_x5F_use">
	<g id="XMLID_1753_">
		<g id="XMLID_1802_">
			<path id="XMLID_2022_" style="fill:#C6C1C1;" d="M467.582,309.685c5.259,6.049,3.69,10.953-3.553,10.953H17.324
				c-7.245,0-9.274-4.904-4.576-10.953l49.099-67.358c4.119-6.048,11.585-10.951,16.718-10.951l297.179-24.087
				c5.134,0-1.663-4.977,2.945,1.07L467.582,309.685z"/>
			<path id="XMLID_2020_" style="fill:#483C91;" d="M447.317,302.473c0,5.119-4.035,9.27-9.01,9.27H9.009
				c-4.975,0-9.009-4.152-9.009-9.27v-1.391c0-5.12,4.034-9.271,9.009-9.271h429.298c4.975,0,9.01,4.151,9.01,9.271V302.473z"/>
			<path id="XMLID_2015_" style="fill:#B4B4EF;" d="M443.826,292.338c5.098,5.34,3.577,9.67-3.444,9.67H7.366
				c-7.023,0-8.99-4.329-4.435-9.67l47.594-59.463c3.993-5.339,11.23-9.668,16.206-9.668h306.769c4.977,0,12.595,4.329,17.061,9.668
				L443.826,292.338z"/>
			<path id="XMLID_2013_" style="fill:#FFFAFF;" d="M288.498,290.367c1.212,2.702-0.091,4.912-2.896,4.912H160.525
				c-2.805,0-4.244-2.275-3.199-5.056l5.305-14.131c1.045-2.781,4.193-5.059,6.998-5.059h105.103c2.804,0,6.091,2.212,7.303,4.917
				L288.498,290.367z"/>
			<path id="XMLID_2011_" style="fill:#040026;" d="M393.786,213.95c0,5.228-4.277,9.467-9.554,9.467H63.086
				c-5.277,0-9.558-4.239-9.558-9.467V9.468C53.528,4.239,57.809,0,63.086,0h321.146c5.278,0,9.554,4.239,9.554,9.468V213.95z"/>
			<path id="XMLID_2009_" style="fill:#040026;" d="M258.318,0H63.086c-5.277,0-9.558,4.239-9.558,9.468v147.711L258.318,0z"/>
			<rect id="XMLID_2008_" x="67.973" y="14.767" style="fill:#0E003F;" width="311.371" height="193.884"/>
			<path id="XMLID_2006_" style="fill:#7972C4;" d="M387.73,222.616c0,1.729-2.799,3.129-6.249,3.129H65.835
				c-3.451,0-6.249-1.4-6.249-3.129l0,0c0-1.728,2.798-3.129,6.249-3.129H381.48C384.931,219.486,387.73,220.888,387.73,222.616
				L387.73,222.616z"/>
			<circle id="XMLID_2001_" style="fill:#29157F;" cx="223.658" cy="7.223" r="2.756"/>
			<path id="XMLID_1999_" style="fill:#29157F;" d="M302.343,222.616c0,2.376-1.341,4.303-2.998,4.303H147.969
				c-1.656,0-2.997-1.927-2.997-4.303l0,0c0-2.376,1.342-4.302,2.997-4.302h151.377C301.002,218.313,302.343,220.24,302.343,222.616
				L302.343,222.616z"/>
			<path id="XMLID_1997_" style="fill:#0E003F;" d="M284.853,290.938c1.144,2.389-0.087,4.341-2.734,4.341h-118.12
				c-2.649,0-4.008-2.011-3.023-4.469l5.011-12.483c0.986-2.459,3.96-4.469,6.608-4.469h99.255c2.649,0,5.753,1.953,6.897,4.34
				L284.853,290.938z"/>
			<path id="XMLID_1995_" style="fill:#FFFAFF;" d="M228.05,228.663H72.803c-4.371,0-10.73,3.711-14.236,8.291l-41.808,50.983
				c-4.003,4.582-2.275,8.293,3.896,8.293h29.367C52.494,287.847,72.347,248.139,228.05,228.663z"/>
			<path id="XMLID_1992_" style="fill:#7972C4;" d="M399.869,262.614c1.769,2.363,0.945,4.298-1.831,4.298H48.089
				c-2.777,0-3.755-2.062-2.176-4.586l18.483-29.503c1.58-2.525,5.144-4.588,7.92-4.588h296.786c2.776,0,6.493,1.934,8.263,4.3
				L399.869,262.614z"/>
			<path id="XMLID_1990_" style="fill:#0E003F;" d="M391.726,263.202c1.688,2.04,0.902,3.71-1.747,3.71H56.138
				c-2.648,0-3.581-1.78-2.075-3.958l17.632-25.466c1.506-2.178,4.907-3.961,7.556-3.961h283.122c2.649,0,6.196,1.671,7.883,3.712
				L391.726,263.202z"/>
			<g id="XMLID_1949_">
				<rect id="XMLID_1989_" x="83.858" y="238.826" style="fill:#42B9E0;" width="11.283" height="3.85"/>
				<rect id="XMLID_1987_" x="101.339" y="238.826" style="fill:#FFFAFF;" width="11.283" height="3.85"/>
				<rect id="XMLID_1985_" x="118.82" y="238.826" style="fill:#42B9E0;" width="11.283" height="3.85"/>
				<rect id="XMLID_1983_" x="136.301" y="238.826" style="fill:#FFFAFF;" width="11.283" height="3.85"/>
				<rect id="XMLID_1981_" x="153.782" y="238.826" style="fill:#42B9E0;" width="11.283" height="3.85"/>
				<rect id="XMLID_1979_" x="171.262" y="238.826" style="fill:#FFFAFF;" width="11.283" height="3.85"/>
				<rect id="XMLID_1977_" x="188.742" y="238.826" style="fill:#42B9E0;" width="11.284" height="3.85"/>
				<rect id="XMLID_1974_" x="206.224" y="238.826" style="fill:#FFFAFF;" width="11.282" height="3.85"/>
				<rect id="XMLID_1972_" x="223.706" y="238.826" style="fill:#42B9E0;" width="11.282" height="3.85"/>
				<rect id="XMLID_1969_" x="241.185" y="238.826" style="fill:#42B9E0;" width="11.284" height="3.85"/>
				<rect id="XMLID_1967_" x="258.667" y="238.826" style="fill:#FFFAFF;" width="11.28" height="3.85"/>
				<rect id="XMLID_1965_" x="276.146" y="238.826" style="fill:#42B9E0;" width="11.282" height="3.85"/>
				<rect id="XMLID_1963_" x="293.627" y="238.826" style="fill:#FFFAFF;" width="11.284" height="3.85"/>
				<rect id="XMLID_1960_" x="311.108" y="238.826" style="fill:#FFFAFF;" width="11.283" height="3.85"/>
				<rect id="XMLID_1957_" x="328.587" y="238.826" style="fill:#42B9E0;" width="11.284" height="3.85"/>
				<rect id="XMLID_1953_" x="346.069" y="238.826" style="fill:#42B9E0;" width="11.283" height="3.85"/>
			</g>
			<g id="XMLID_1897_">
				<rect id="XMLID_1943_" x="74.936" y="246.97" style="fill:#FFFAFF;" width="11.283" height="3.852"/>
				<rect id="XMLID_1939_" x="92.417" y="246.97" style="fill:#42B9E0;" width="11.284" height="3.852"/>
				<rect id="XMLID_1935_" x="109.897" y="246.97" style="fill:#42B9E0;" width="11.283" height="3.852"/>
				<rect id="XMLID_1928_" x="127.378" y="246.97" style="fill:#FFFAFF;" width="11.283" height="3.852"/>
				<rect id="XMLID_1926_" x="144.859" y="246.97" style="fill:#42B9E0;" width="11.284" height="3.852"/>
				<rect id="XMLID_1924_" x="162.34" y="246.97" style="fill:#42B9E0;" width="11.282" height="3.852"/>
				<rect id="XMLID_1922_" x="179.82" y="246.97" style="fill:#FFFAFF;" width="11.283" height="3.852"/>
				<rect id="XMLID_1920_" x="197.301" y="246.97" style="fill:#42B9E0;" width="11.282" height="3.852"/>
				<rect id="XMLID_1918_" x="214.781" y="246.97" style="fill:#42B9E0;" width="11.284" height="3.852"/>
				<rect id="XMLID_1916_" x="232.263" y="246.97" style="fill:#FFFAFF;" width="11.282" height="3.852"/>
				<rect id="XMLID_1912_" x="249.744" y="246.97" style="fill:#42B9E0;" width="11.28" height="3.852"/>
				<rect id="XMLID_1910_" x="267.223" y="246.97" style="fill:#42B9E0;" width="11.284" height="3.852"/>
				<rect id="XMLID_1908_" x="284.704" y="246.97" style="fill:#42B9E0;" width="11.284" height="3.852"/>
				<rect id="XMLID_1905_" x="302.185" y="246.97" style="fill:#42B9E0;" width="11.285" height="3.852"/>
				<rect id="XMLID_1903_" x="319.666" y="246.97" style="fill:#FFFAFF;" width="11.283" height="3.852"/>
				<rect id="XMLID_1901_" x="354.991" y="246.97" style="fill:#FFFAFF;" width="11.283" height="3.852"/>
				<rect id="XMLID_1899_" x="337.147" y="246.97" style="fill:#42B9E0;" width="11.282" height="3.852"/>
			</g>
			<g id="XMLID_1821_">
				<rect id="XMLID_1895_" x="84.09" y="256.279" style="fill:#42B9E0;" width="11.285" height="3.852"/>
				<rect id="XMLID_1893_" x="101.572" y="256.279" style="fill:#FFFAFF;" width="11.283" height="3.852"/>
				<rect id="XMLID_1891_" x="119.053" y="256.279" style="fill:#42B9E0;" width="11.283" height="3.852"/>
				<rect id="XMLID_1889_" x="66.413" y="256.279" style="fill:#42B9E0;" width="11.283" height="3.852"/>
				<rect id="XMLID_1887_" x="136.533" y="256.279" style="fill:#42B9E0;" width="11.283" height="3.852"/>
				<rect id="XMLID_1885_" x="154.014" y="256.279" style="fill:#FFFAFF;" width="11.282" height="3.852"/>
				<rect id="XMLID_1882_" x="171.495" y="256.279" style="fill:#42B9E0;" width="11.282" height="3.852"/>
				<rect id="XMLID_1880_" x="188.975" y="256.279" style="fill:#FFFAFF;" width="11.283" height="3.852"/>
				<rect id="XMLID_1876_" x="206.456" y="256.279" style="fill:#42B9E0;" width="11.281" height="3.852"/>
				<rect id="XMLID_1858_" x="223.937" y="256.279" style="fill:#FFFAFF;" width="11.282" height="3.852"/>
				<rect id="XMLID_1856_" x="241.418" y="256.279" style="fill:#42B9E0;" width="11.282" height="3.852"/>
				<rect id="XMLID_1854_" x="258.898" y="256.279" style="fill:#42B9E0;" width="11.282" height="3.852"/>
				<rect id="XMLID_1852_" x="276.378" y="256.279" style="fill:#42B9E0;" width="11.282" height="3.852"/>
				<rect id="XMLID_1842_" x="293.859" y="256.279" style="fill:#FFFAFF;" width="11.282" height="3.852"/>
				<rect id="XMLID_1837_" x="311.34" y="256.279" style="fill:#42B9E0;" width="11.283" height="3.852"/>
				<rect id="XMLID_1832_" x="328.821" y="256.279" style="fill:#42B9E0;" width="11.283" height="3.852"/>
				<rect id="XMLID_1827_" x="363.514" y="256.279" style="fill:#42B9E0;" width="11.283" height="3.852"/>
				<rect id="XMLID_1822_" x="346.301" y="256.279" style="fill:#FFFAFF;" width="11.281" height="3.852"/>
			</g>
			<path id="XMLID_1820_" style="fill:#483C91;" d="M247.547,303.067c0,2.087-1.692,3.779-3.78,3.779h-42.505
				c-2.088,0-3.78-1.692-3.78-3.779l0,0c0-2.089,1.693-3.781,3.78-3.781h42.505C245.855,299.286,247.547,300.977,247.547,303.067
				L247.547,303.067z"/>
			<rect id="XMLID_1819_" x="67.973" y="197.364" style="fill:#29157F;" width="311.371" height="11.287"/>
			<rect id="XMLID_1818_" x="72.511" y="200.474" style="fill:#0E003F;" width="14.105" height="5.337"/>
			<g id="XMLID_1803_">
				<rect id="XMLID_1817_" x="96.064" y="200.474" style="fill:#0E003F;" width="7.006" height="5.337"/>
				<rect id="XMLID_1815_" x="107.506" y="200.474" style="fill:#0E003F;" width="7.006" height="5.337"/>
				<rect id="XMLID_1814_" x="118.949" y="200.474" style="fill:#0E003F;" width="7.005" height="5.337"/>
				<rect id="XMLID_1812_" x="130.39" y="200.474" style="fill:#0E003F;" width="7.005" height="5.337"/>
				<rect id="XMLID_1807_" x="141.832" y="200.474" style="fill:#0E003F;" width="7.006" height="5.337"/>
				<rect id="XMLID_1806_" x="153.274" y="200.474" style="fill:#0E003F;" width="7.006" height="5.337"/>
			</g>
		</g>
		<g id="XMLID_1793_">
			<g id="XMLID_1795_">
				<polygon id="XMLID_1801_" style="fill:#FFFAFF;" points="287.008,109.21 277.271,103.357 279.741,114.358 281.832,111.242 
					285.197,115.768 286.617,114.713 283.272,110.215 				"/>
				<path id="XMLID_1796_" style="fill:#040026;" d="M285.152,116.072l-3.311-4.454l-2.2,3.279l-2.692-11.987l10.608,6.377
					l-3.921,1.054l3.284,4.416L285.152,116.072z M281.823,110.867l3.419,4.598l1.072-0.797l-3.406-4.58l3.552-0.955l-8.866-5.33
					l2.248,10.015L281.823,110.867z"/>
			</g>
		</g>
		<linearGradient id="XMLID_2_" gradientUnits="userSpaceOnUse" x1="223.6587" y1="14.7669" x2="223.6587" y2="174.367">
			<stop  offset="0" style="stop-color:#29157F"/>
			<stop  offset="0.7645" style="stop-color:#29157F;stop-opacity:0"/>
		</linearGradient>
		<rect id="XMLID_1791_" x="177.138" y="14.767" style="opacity:0.7;fill:url(#XMLID_2_);" width="93.042" height="159.6"/>
		<path id="XMLID_1790_" style="fill:#FF7857;" d="M184.225,163.467c-3.589,0-6.508-2.919-6.508-6.508
			c0-3.589,2.919-6.508,6.508-6.508h78.867c3.589,0,6.508,2.919,6.508,6.508c0,3.589-2.919,6.508-6.508,6.508H184.225z"/>
		<path id="XMLID_1789_" style="fill:#0E003F;" d="M263.092,161.625h-78.867c-2.566,0-4.666-2.1-4.666-4.666l0,0
			c0-2.566,2.1-4.666,4.666-4.666h78.867c2.566,0,4.666,2.1,4.666,4.666l0,0C267.758,159.525,265.659,161.625,263.092,161.625z"/>
		<path id="XMLID_1788_" style="fill:#FFE49A;" d="M239.545,156.37c-0.279-1.581-1.777-2.658-3.383-2.658h-51.449
			c-1.605,0-3.103,1.077-3.383,2.658c-0.362,2.048,1.211,3.835,3.194,3.835h51.825C238.333,160.205,239.907,158.418,239.545,156.37z
			"/>
		<path id="XMLID_1787_" style="fill:#FF7857;" d="M205.803,83.875c-0.039-0.12-0.082-0.238-0.119-0.358
			C205.721,83.637,205.763,83.755,205.803,83.875z"/>
		<path id="XMLID_1786_" style="fill:#FF7857;" d="M209.945,90.86c0.34,0.364,0.695,0.712,1.062,1.047
			C210.64,91.572,210.285,91.223,209.945,90.86z"/>
		<path id="XMLID_1785_" style="fill:#FF7857;" d="M211.706,63.544c-1.392,1.149-2.616,2.494-3.629,3.994
			C209.09,66.038,210.314,64.693,211.706,63.544z"/>
		<path id="XMLID_1783_" style="fill:#FF7857;" d="M205.299,82.02c-0.026-0.12-0.051-0.241-0.075-0.362
			C205.248,81.779,205.273,81.899,205.299,82.02z"/>
		<path id="XMLID_1781_" style="fill:#FF7857;" d="M206.439,85.553c-0.067-0.152-0.129-0.307-0.192-0.462
			C206.31,85.246,206.373,85.4,206.439,85.553z"/>
		<path id="XMLID_1779_" style="fill:#FF7857;" d="M204.981,80.069c-0.01-0.094-0.016-0.188-0.025-0.282
			C204.965,79.88,204.971,79.975,204.981,80.069z"/>
		<path id="XMLID_1777_" style="fill:#FF7857;" d="M208.336,88.895c-0.145-0.204-0.287-0.409-0.424-0.618
			C208.048,88.486,208.191,88.69,208.336,88.895z"/>
		<path id="XMLID_1776_" style="fill:#FF7857;" d="M205.713,72.456c0.366-1.177,0.845-2.304,1.423-3.369
			C206.558,70.152,206.079,71.279,205.713,72.456z"/>
		<path id="XMLID_1775_" style="fill:#FF7857;" d="M209.577,90.455c-0.272-0.308-0.534-0.626-0.786-0.952
			C209.043,89.829,209.304,90.146,209.577,90.455z"/>
		<path id="XMLID_1774_" style="fill:#FF7857;" d="M207.272,87.223c-0.101-0.179-0.196-0.363-0.291-0.546
			C207.076,86.861,207.171,87.043,207.272,87.223z"/>
		<g id="XMLID_1754_">
			<path id="XMLID_1771_" style="fill:#0E003F;" d="M248.054,61.059c0.001,0.001,0.002,0.002,0.003,0.003
				c-0.55-0.626-1.132-1.223-1.741-1.792c-0.084-0.079-0.171-0.155-0.256-0.233c-0.512-0.466-1.044-0.91-1.594-1.333
				c-0.168-0.129-0.338-0.256-0.509-0.38c-0.451-0.329-0.914-0.642-1.387-0.941c-0.274-0.173-0.551-0.342-0.832-0.505
				c-0.303-0.176-0.609-0.349-0.92-0.512c-0.461-0.242-0.932-0.465-1.409-0.679c-0.234-0.104-0.468-0.208-0.705-0.305
				c-0.563-0.231-1.137-0.439-1.72-0.63c-0.19-0.062-0.38-0.12-0.572-0.178c-0.635-0.19-1.28-0.358-1.935-0.498
				c-0.142-0.03-0.285-0.056-0.428-0.084c-0.707-0.138-1.422-0.251-2.149-0.328c-0.086-0.009-0.173-0.013-0.258-0.021
				c-0.785-0.075-1.578-0.12-2.383-0.12c-3.456,0-6.748,0.701-9.743,1.967c-1.497,0.634-2.92,1.408-4.252,2.308
				c-0.666,0.45-1.309,0.931-1.927,1.441c-1.854,1.53-3.484,3.322-4.834,5.32c-0.45,0.666-0.868,1.354-1.254,2.064
				c-0.771,1.419-1.408,2.92-1.896,4.488c-0.731,2.351-1.125,4.851-1.125,7.443c0,0.784,0.046,1.556,0.117,2.322
				c0.012,0.125,0.02,0.251,0.033,0.376c0.077,0.716,0.187,1.421,0.323,2.118c0.032,0.161,0.065,0.321,0.1,0.482
				c0.146,0.674,0.313,1.341,0.513,1.994c0.049,0.161,0.106,0.318,0.158,0.477c0.18,0.549,0.377,1.089,0.593,1.62
				c0.084,0.206,0.166,0.412,0.255,0.615c0.223,0.509,0.466,1.007,0.721,1.498c0.127,0.244,0.253,0.488,0.388,0.727
				c0.269,0.478,0.553,0.945,0.852,1.403c0.182,0.279,0.372,0.553,0.565,0.824c0.196,0.275,0.4,0.544,0.606,0.811
				c0.336,0.434,0.684,0.857,1.046,1.268c0.161,0.182,0.324,0.362,0.49,0.54c0.453,0.484,0.925,0.949,1.415,1.395
				c0.138,0.126,0.273,0.253,0.413,0.376c0.318,0.277,0.641,0.549,0.972,0.81c-0.014-0.016-0.026-0.034-0.041-0.051
				c3.212,2.544,7.05,4.318,11.261,5.04v15.806h-3.824c-0.737,0-1.341,0.603-1.341,1.341c0,0.737,0.603,1.341,1.341,1.341h3.824
				v1.415h-1.651c-0.737,0-1.341,0.603-1.341,1.341s0.603,1.341,1.341,1.341h1.651v1.415h-3.824c-0.737,0-1.341,0.603-1.341,1.341
				c0,0.738,0.603,1.341,1.341,1.341h3.824v0.596c0,2.335,1.911,4.246,4.246,4.246c2.335,0,4.246-1.911,4.246-4.246v-27.278
				c11.797-2.02,20.783-12.27,20.783-24.643C254.29,71.225,251.929,65.462,248.054,61.059z M211.117,78.179
				c-0.007-0.21-0.032-0.415-0.032-0.627c0-8.434,5.752-15.505,13.541-17.557c1.482-0.391,3.03-0.619,4.635-0.619
				c10.038,0,18.176,8.138,18.176,18.176s-8.138,18.176-18.176,18.176C219.435,95.728,211.45,87.924,211.117,78.179z"/>
			<g id="XMLID_1755_">
				<path id="XMLID_1770_" style="fill:#FF7857;" d="M231.776,51.395c0.224,0.092,0.445,0.19,0.666,0.288
					C232.221,51.585,232.001,51.487,231.776,51.395z"/>
				<path id="XMLID_1769_" style="fill:#FF7857;" d="M233.772,52.324c0.294,0.154,0.582,0.318,0.869,0.484
					C234.354,52.642,234.067,52.478,233.772,52.324z"/>
				<path id="XMLID_1768_" style="fill:#FF7857;" d="M229.612,50.633c0.181,0.054,0.361,0.109,0.54,0.168
					C229.973,50.743,229.794,50.687,229.612,50.633z"/>
				<path id="XMLID_1767_" style="fill:#FF7857;" d="M225.109,49.755c0.081,0.008,0.163,0.012,0.244,0.02
					C225.272,49.766,225.19,49.762,225.109,49.755z"/>
				<path id="XMLID_1766_" style="fill:#FF7857;" d="M227.382,50.084c0.135,0.026,0.27,0.05,0.404,0.079
					C227.652,50.135,227.516,50.111,227.382,50.084z"/>
				<path id="XMLID_1765_" style="fill:#FF7857;" d="M246.491,73.272c0-6.82-2.906-12.948-7.528-17.261
					c0.575,0.537,1.124,1.101,1.643,1.692c-4.021-3.169-9.085-5.075-14.603-5.075c-13.051,0-23.631,10.58-23.631,23.631
					c0,5.971,2.232,11.409,5.885,15.569c-0.313-0.247-0.618-0.503-0.918-0.765c3.197,2.792,7.147,4.728,11.512,5.476v-1.112
					c0-1.081,0.437-2.061,1.139-2.784c-8.18-1.887-14.291-9.301-14.291-18.177c0-0.203,0.024-0.4,0.03-0.601
					c-0.007-0.198-0.03-0.392-0.03-0.592c0-7.963,5.431-14.639,12.785-16.576c1.763-0.571,3.639-0.885,5.589-0.885
					c10.148,0,18.374,8.352,18.374,18.655c0,9.63-7.188,17.551-16.413,18.546c0.515,0.674,0.834,1.506,0.834,2.415v1.112
					C238.006,94.631,246.491,84.954,246.491,73.272z"/>
				<path id="XMLID_1764_" style="fill:#FF7857;" d="M235.426,53.285c0.446,0.282,0.884,0.578,1.309,0.889
					C236.309,53.863,235.874,53.567,235.426,53.285z"/>
				<path id="XMLID_1763_" style="fill:#FF7857;" d="M209.647,53.677c1.257-0.849,2.601-1.581,4.014-2.179
					C212.247,52.096,210.904,52.828,209.647,53.677z"/>
				<path id="XMLID_1762_" style="fill:#FF7857;" d="M237.216,54.533c0.519,0.399,1.021,0.819,1.505,1.259
					C238.236,55.352,237.736,54.931,237.216,54.533z"/>
				<path id="XMLID_1761_" style="fill:#FF7857;" d="M226.034,93.011c-0.645,0.069-1.298,0.109-1.961,0.109
					c-1.406,0-2.769-0.175-4.084-0.478c-0.702,0.723-1.139,1.704-1.139,2.784v1.112v14.924h1.618c0.696,0,1.266,0.57,1.266,1.266
					c0,0.696-0.57,1.266-1.266,1.266h-1.618v1.336h3.669c0.696,0,1.266,0.57,1.266,1.266s-0.57,1.266-1.266,1.266h-3.669v1.336
					h1.618c0.696,0,1.266,0.57,1.266,1.266c0,0.696-0.57,1.266-1.266,1.266h-1.618v0.563c0,2.205,1.804,4.009,4.009,4.009
					c2.205,0,4.009-1.804,4.009-4.009V96.538v-1.112C226.868,94.517,226.55,93.686,226.034,93.011z"/>
				<path id="XMLID_1760_" style="fill:#FF7857;" d="M221.734,120.464c0-0.696-0.57-1.266-1.266-1.266h-1.618h-3.61
					c-0.696,0-1.266,0.57-1.266,1.266c0,0.696,0.57,1.266,1.266,1.266h3.61h1.618C221.164,121.73,221.734,121.161,221.734,120.464z"
					/>
				<path id="XMLID_1759_" style="fill:#FF7857;" d="M221.734,112.728c0-0.696-0.57-1.266-1.266-1.266h-1.618h-3.61
					c-0.696,0-1.266,0.57-1.266,1.266c0,0.696,0.57,1.266,1.266,1.266h3.61h1.618C221.164,113.994,221.734,113.424,221.734,112.728z
					"/>
				<path id="XMLID_1758_" style="fill:#FF7857;" d="M223.785,116.596c0-0.696-0.57-1.266-1.266-1.266h-3.669h-1.559
					c-0.696,0-1.266,0.57-1.266,1.266s0.57,1.266,1.266,1.266h1.559h3.669C223.216,117.862,223.785,117.292,223.785,116.596z"/>
				<path id="XMLID_1757_" style="fill:#FFE49A;" d="M226.034,93.011c9.225-0.995,16.413-8.916,16.413-18.546
					c0-10.303-8.226-18.655-18.374-18.655c-1.95,0-3.826,0.314-5.589,0.885c1.399-0.369,2.861-0.585,4.376-0.585
					c9.478,0,17.161,7.683,17.161,17.161s-7.683,17.161-17.161,17.161c-9.278,0-16.816-7.367-17.131-16.569
					c-0.006,0.201-0.03,0.398-0.03,0.601c0,8.876,6.111,16.289,14.291,18.177c1.315,0.304,2.678,0.478,4.084,0.478
					C224.736,93.12,225.39,93.081,226.034,93.011z"/>
				<path id="XMLID_1756_" style="fill:#FFE49A;" d="M202.372,76.259c0-13.051,10.58-23.631,23.631-23.631
					c5.518,0,10.581,1.906,14.603,5.075c-0.519-0.591-1.069-1.155-1.643-1.692c-0.08-0.074-0.161-0.146-0.242-0.22
					c-0.484-0.44-0.986-0.859-1.505-1.259c-0.159-0.122-0.319-0.241-0.481-0.359c-0.426-0.311-0.863-0.606-1.309-0.889
					c-0.259-0.164-0.52-0.323-0.785-0.477c-0.287-0.166-0.575-0.329-0.869-0.484c-0.435-0.228-0.88-0.439-1.33-0.641
					c-0.221-0.098-0.442-0.196-0.666-0.288c-0.532-0.218-1.074-0.415-1.624-0.594c-0.179-0.058-0.359-0.114-0.54-0.168
					c-0.6-0.18-1.208-0.338-1.827-0.47c-0.134-0.029-0.269-0.053-0.404-0.079c-0.667-0.13-1.342-0.237-2.029-0.309
					c-0.081-0.009-0.163-0.013-0.244-0.02c-0.741-0.07-1.49-0.114-2.25-0.114c-3.263,0-6.371,0.661-9.198,1.857
					c-1.414,0.598-2.757,1.33-4.014,2.179c-0.629,0.425-1.236,0.879-1.819,1.361c-1.751,1.445-3.29,3.137-4.564,5.022
					c-0.425,0.629-0.82,1.279-1.184,1.948c-0.728,1.339-1.329,2.757-1.79,4.237c-0.69,2.22-1.062,4.58-1.062,7.027
					c0,0.74,0.044,1.469,0.111,2.192c0.011,0.118,0.019,0.237,0.031,0.355c0.073,0.676,0.176,1.342,0.305,1.999
					c0.03,0.152,0.062,0.304,0.094,0.455c0.138,0.637,0.296,1.266,0.484,1.882c0.046,0.152,0.1,0.3,0.149,0.45
					c0.17,0.518,0.356,1.028,0.56,1.53c0.079,0.194,0.157,0.389,0.241,0.581c0.211,0.481,0.44,0.951,0.681,1.414
					c0.12,0.23,0.239,0.461,0.366,0.687c0.254,0.451,0.522,0.893,0.805,1.325c0.172,0.263,0.351,0.522,0.533,0.778
					c0.185,0.26,0.378,0.514,0.573,0.765c0.317,0.41,0.645,0.809,0.988,1.197c0.152,0.172,0.306,0.342,0.463,0.509
					c0.428,0.457,0.874,0.896,1.336,1.317c0.13,0.119,0.258,0.239,0.39,0.355c0.3,0.262,0.605,0.518,0.918,0.765
					C204.604,87.668,202.372,82.23,202.372,76.259z"/>
			</g>
		</g>
	</g>
</g>
<g id="Layer_1">
</g>
</svg>
