<?xml version="1.0" encoding="iso-8859-1"?>
<!-- Generator: Adobe Illustrator 19.0.0, SVG Export Plug-In . SVG Version: 6.00 Build 0)  -->
<svg version="1.1" xmlns="http://www.w3.org/2000/svg" xmlns:xlink="http://www.w3.org/1999/xlink" x="0px" y="0px"
	 viewBox="0 0 356.752 393.584" style="enable-background:new 0 0 356.752 393.584;" xml:space="preserve">
<g id="extremely_x5F_secure">
	<g id="XMLID_1543_">
		<g id="XMLID_1620_">
			<g id="XMLID_1622_">
				<path id="XMLID_1706_" style="fill:#C6C1C1;" d="M99.708,262.967c-0.009,0.014-0.019,0.028-0.028,0.041l0.009-0.022
					L99.708,262.967z"/>
				<path id="XMLID_1705_" style="fill:#C6C1C1;" d="M87.969,164.693l-0.358,0.02c-0.732,0.04-1.364-0.525-1.405-1.258
					L78.802,29.623c-0.041-0.732,0.525-1.364,1.258-1.405l0.358-0.02c0.732-0.041,1.364,0.525,1.405,1.258l7.404,133.832
					C89.267,164.021,88.701,164.653,87.969,164.693z"/>
				<path id="XMLID_1704_" style="fill:#C6C1C1;" d="M288.389,319.851l-0.358,0.02c-0.732,0.04-1.364-0.525-1.405-1.258
					l-7.404-133.832c-0.04-0.732,0.525-1.364,1.258-1.405l0.358-0.02c0.732-0.04,1.364,0.525,1.405,1.258l7.404,133.832
					C289.687,319.178,289.121,319.811,288.389,319.851z"/>
				<path id="XMLID_1703_" style="fill:#7F7979;" d="M111.231,77.492l-0.358,0.02c-0.732,0.041-1.364-0.525-1.405-1.258
					l-2.665-48.179c-0.041-0.732,0.525-1.364,1.258-1.405l0.358-0.02c0.732-0.041,1.364,0.525,1.405,1.258l2.665,48.179
					C112.53,76.819,111.964,77.451,111.231,77.492z"/>
				<path id="XMLID_1702_" style="fill:#7F7979;" d="M125.803,368.266l-0.358,0.02c-0.732,0.04-1.364-0.525-1.405-1.258
					l-2.665-48.179c-0.041-0.732,0.525-1.364,1.258-1.405l0.358-0.02c0.732-0.041,1.364,0.525,1.405,1.258l2.665,48.179
					C127.101,367.593,126.535,368.226,125.803,368.266z"/>
				<path id="XMLID_1701_" style="fill:#C6C1C1;" d="M331.439,225.123l-0.358,0.02c-0.732,0.041-1.364-0.525-1.405-1.258
					l-4.882-88.247c-0.04-0.732,0.525-1.364,1.258-1.405l0.358-0.02c0.732-0.041,1.364,0.525,1.405,1.258l4.882,88.247
					C332.737,224.45,332.171,225.082,331.439,225.123z"/>
				<path id="XMLID_1700_" style="fill:#C6C1C1;" d="M35.139,190.461l-0.358,0.02c-0.732,0.041-1.364-0.525-1.405-1.258
					l-5.161-93.282c-0.041-0.732,0.525-1.364,1.258-1.405l0.358-0.02c0.732-0.041,1.364,0.525,1.405,1.258l5.161,93.282
					C36.437,189.788,35.871,190.42,35.139,190.461z"/>
				<path id="XMLID_1699_" style="fill:#7F7979;" d="M48.542,321.476l-0.358,0.02c-0.732,0.041-1.364-0.525-1.405-1.258
					l-2.986-53.976c-0.041-0.732,0.525-1.364,1.258-1.405l0.358-0.02c0.732-0.04,1.364,0.525,1.405,1.258l2.986,53.976
					C49.84,320.803,49.274,321.436,48.542,321.476z"/>
				<path id="XMLID_1698_" style="fill:#C6C1C1;" d="M81.089,341.562l-0.358,0.02c-0.732,0.04-1.364-0.525-1.405-1.258
					l-1.106-19.993c-0.041-0.732,0.525-1.364,1.258-1.405l0.358-0.02c0.732-0.04,1.364,0.525,1.405,1.258l1.106,19.993
					C82.387,340.89,81.821,341.522,81.089,341.562z"/>
				<path id="XMLID_1697_" style="fill:#C6C1C1;" d="M59.324,232.254l-0.358,0.02c-0.732,0.041-1.364-0.525-1.405-1.258
					l-0.166-3.001c-0.041-0.732,0.525-1.364,1.258-1.405l0.358-0.02c0.732-0.041,1.364,0.525,1.405,1.258l0.166,3.001
					C60.622,231.581,60.056,232.214,59.324,232.254z"/>
				<path id="XMLID_1694_" style="fill:#C6C1C1;" d="M250.642,161.447l-0.358,0.02c-0.732,0.041-1.364-0.525-1.405-1.258
					l-0.166-3.001c-0.041-0.732,0.525-1.364,1.258-1.405l0.358-0.02c0.732-0.041,1.364,0.525,1.405,1.258l0.166,3.001
					C251.94,160.774,251.374,161.407,250.642,161.447z"/>
				<path id="XMLID_1693_" style="fill:#C6C1C1;" d="M236.118,365.004l-0.358,0.02c-0.732,0.04-1.364-0.525-1.405-1.258
					l-0.166-3.001c-0.041-0.732,0.525-1.364,1.258-1.405l0.358-0.02c0.732-0.04,1.364,0.525,1.405,1.258l0.166,3.001
					C237.416,364.331,236.85,364.963,236.118,365.004z"/>
				<path id="XMLID_1692_" style="fill:#7F7979;" d="M308.896,89.774l-0.358,0.02c-0.732,0.041-1.364-0.525-1.405-1.258
					l-0.166-3.001c-0.04-0.732,0.525-1.364,1.258-1.405l0.358-0.02c0.732-0.041,1.364,0.525,1.405,1.258l0.166,3.001
					C310.194,89.102,309.628,89.734,308.896,89.774z"/>
				<path id="XMLID_1677_" style="fill:#FF7857;" d="M269.699,132.206l-0.358,0.02c-0.732,0.041-1.364-0.525-1.405-1.258
					l-0.479-8.665c-0.041-0.732,0.525-1.364,1.258-1.405l0.358-0.02c0.732-0.041,1.364,0.525,1.405,1.258l0.479,8.665
					C270.997,131.533,270.431,132.166,269.699,132.206z"/>
				<path id="XMLID_1676_" style="fill:#C6C1C1;" d="M321.531,46.04l-0.358,0.02c-0.732,0.041-1.364-0.525-1.405-1.258l-0.479-8.665
					c-0.041-0.732,0.525-1.364,1.258-1.405l0.358-0.02c0.732-0.041,1.364,0.525,1.405,1.258l0.479,8.665
					C322.83,45.367,322.264,45.999,321.531,46.04z"/>
				<path id="XMLID_1675_" style="fill:#C6C1C1;" d="M355.492,197.782l-0.358,0.02c-0.732,0.041-1.364-0.525-1.405-1.258
					l-0.479-8.665c-0.041-0.732,0.525-1.364,1.258-1.405l0.358-0.02c0.732-0.041,1.364,0.525,1.405,1.258l0.479,8.665
					C356.79,197.11,356.224,197.742,355.492,197.782z"/>
				<path id="XMLID_1674_" style="fill:#C6C1C1;" d="M34.934,241.526l-0.358,0.02c-0.732,0.041-1.364-0.525-1.405-1.258
					l-0.479-8.665c-0.041-0.732,0.525-1.364,1.258-1.405l0.358-0.02c0.732-0.04,1.364,0.525,1.405,1.258l0.479,8.665
					C36.232,240.853,35.666,241.486,34.934,241.526z"/>
				<path id="XMLID_1673_" style="fill:#C6C1C1;" d="M54.022,365.771l-0.358,0.02c-0.732,0.04-1.364-0.525-1.405-1.258l-0.479-8.665
					c-0.041-0.732,0.525-1.364,1.258-1.405l0.358-0.02c0.732-0.04,1.364,0.525,1.405,1.258l0.479,8.665
					C55.32,365.098,54.754,365.73,54.022,365.771z"/>
				<path id="XMLID_1672_" style="fill:#C6C1C1;" d="M196.36,22.173l-0.358,0.02c-0.732,0.041-1.364-0.525-1.405-1.258l-0.479-8.665
					c-0.041-0.732,0.525-1.364,1.258-1.405l0.358-0.02c0.732-0.041,1.364,0.525,1.405,1.258l0.479,8.665
					C197.659,21.5,197.093,22.132,196.36,22.173z"/>
				<path id="XMLID_1671_" style="fill:#7F7979;" d="M323.023,261.267l-0.358,0.02c-0.732,0.041-1.364-0.525-1.405-1.258
					l-0.166-3.001c-0.04-0.732,0.525-1.364,1.258-1.405l0.358-0.02c0.732-0.041,1.364,0.525,1.405,1.258l0.166,3.001
					C324.321,260.595,323.755,261.227,323.023,261.267z"/>
				<path id="XMLID_1670_" style="fill:#7F7979;" d="M99.141,311.859l-0.358,0.02c-0.732,0.04-1.364-0.525-1.405-1.258l-0.166-3.001
					c-0.041-0.732,0.525-1.364,1.258-1.405l0.358-0.02c0.732-0.04,1.364,0.525,1.405,1.258l0.166,3.001
					C100.439,311.187,99.873,311.819,99.141,311.859z"/>
				<path id="XMLID_1669_" style="fill:#C6C1C1;" d="M1.931,74.574l-0.358,0.02c-0.732,0.041-1.364-0.525-1.405-1.258l-0.166-3.001
					c-0.041-0.732,0.525-1.364,1.258-1.405l0.358-0.02c0.732-0.041,1.364,0.525,1.405,1.258l0.166,3.001
					C3.229,73.901,2.663,74.533,1.931,74.574z"/>
				<path id="XMLID_1668_" style="fill:#C6C1C1;" d="M250.562,29.76l-0.358,0.02c-0.732,0.041-1.364-0.525-1.405-1.258l-0.166-3.001
					c-0.04-0.732,0.525-1.364,1.258-1.405l0.358-0.02c0.732-0.041,1.364,0.525,1.405,1.258l0.166,3.001
					C251.861,29.087,251.295,29.72,250.562,29.76z"/>
				<path id="XMLID_1667_" style="fill:#C6C1C1;" d="M224.337,97.293l-0.358,0.02c-0.732,0.041-1.364-0.525-1.405-1.258
					l-0.166-3.001c-0.04-0.732,0.525-1.364,1.258-1.405l0.358-0.02c0.732-0.041,1.364,0.525,1.405,1.258l0.166,3.001
					C225.635,96.62,225.069,97.252,224.337,97.293z"/>
				<path id="XMLID_1666_" style="fill:#7F7979;" d="M110.344,159.085l-0.358,0.02c-0.732,0.041-1.364-0.525-1.405-1.258
					l-0.166-3.001c-0.041-0.732,0.525-1.364,1.258-1.405l0.358-0.02c0.732-0.041,1.364,0.525,1.405,1.258l0.166,3.001
					C111.642,158.412,111.076,159.044,110.344,159.085z"/>
				<path id="XMLID_1665_" style="fill:#C6C1C1;" d="M238.412,324.313l-0.358,0.02c-0.732,0.04-1.364-0.525-1.405-1.258
					l-1.063-19.219c-0.041-0.732,0.525-1.364,1.258-1.405l0.358-0.02c0.732-0.04,1.364,0.525,1.405,1.258l1.063,19.219
					C239.71,323.641,239.144,324.273,238.412,324.313z"/>
				<path id="XMLID_1662_" style="fill:#FF7857;" d="M21.803,221.536l-0.358,0.02c-0.732,0.041-1.364-0.525-1.405-1.258
					l-1.063-19.219c-0.041-0.732,0.525-1.364,1.258-1.405l0.358-0.02c0.732-0.041,1.364,0.525,1.405,1.258l1.063,19.219
					C23.101,220.863,22.535,221.495,21.803,221.536z"/>
				<path id="XMLID_1661_" style="fill:#C6C1C1;" d="M47.229,41.009l-0.358,0.02c-0.732,0.041-1.364-0.525-1.405-1.258
					l-1.063-19.219c-0.041-0.732,0.525-1.364,1.258-1.405l0.358-0.02c0.732-0.041,1.364,0.525,1.405,1.258l1.063,19.219
					C48.527,40.336,47.961,40.968,47.229,41.009z"/>
				<path id="XMLID_1660_" style="fill:#7F7979;" d="M128.856,21.883l-0.358,0.02c-0.732,0.041-1.364-0.525-1.405-1.258
					L126.03,1.427c-0.041-0.732,0.525-1.364,1.258-1.405l0.358-0.02c0.732-0.041,1.364,0.525,1.405,1.258l1.063,19.219
					C130.154,21.211,129.588,21.843,128.856,21.883z"/>
				<path id="XMLID_1657_" style="fill:#FF7857;" d="M249.259,136.452l-0.358,0.02c-0.732,0.04-1.364-0.525-1.405-1.258
					l-3.727-67.366c-0.041-0.732,0.525-1.364,1.258-1.405l0.358-0.02c0.732-0.041,1.364,0.525,1.405,1.258l3.727,67.366
					C250.558,135.779,249.992,136.412,249.259,136.452z"/>
				<path id="XMLID_1656_" style="fill:#7F7979;" d="M235.752,180.393l-0.358,0.02c-0.732,0.04-1.364-0.525-1.405-1.258
					l-1.009-18.236c-0.04-0.732,0.525-1.364,1.258-1.405l0.358-0.02c0.732-0.041,1.364,0.525,1.405,1.258l1.009,18.236
					C237.05,179.72,236.484,180.353,235.752,180.393z"/>
				<path id="XMLID_1655_" style="fill:#C6C1C1;" d="M176.846,360.906l-0.358,0.02c-0.732,0.04-1.364-0.525-1.405-1.258
					l-1.009-18.236c-0.041-0.732,0.525-1.364,1.258-1.405l0.358-0.02c0.732-0.04,1.364,0.525,1.405,1.258l1.009,18.236
					C178.144,360.234,177.579,360.866,176.846,360.906z"/>
				<path id="XMLID_1652_" style="fill:#FF7857;" d="M100.631,393.562l-0.358,0.02c-0.732,0.04-1.364-0.525-1.405-1.258
					l-2.99-54.042c-0.041-0.732,0.525-1.364,1.258-1.405l0.358-0.02c0.732-0.041,1.364,0.525,1.405,1.258l2.99,54.042
					C101.929,392.889,101.363,393.521,100.631,393.562z"/>
				<path id="XMLID_1651_" style="fill:#7F7979;" d="M310.757,123.424l-0.358,0.02c-0.732,0.041-1.364-0.525-1.405-1.258
					l-1.009-18.236c-0.04-0.732,0.525-1.364,1.258-1.405l0.358-0.02c0.732-0.041,1.364,0.525,1.405,1.258l1.009,18.236
					C312.056,122.751,311.49,123.383,310.757,123.424z"/>
				<path id="XMLID_1650_" style="fill:#7F7979;" d="M12.191,177.881l-0.358,0.02c-0.732,0.041-1.364-0.525-1.405-1.258
					l-1.009-18.236c-0.041-0.732,0.525-1.364,1.258-1.405l0.358-0.02c0.732-0.041,1.364,0.525,1.405,1.258l1.009,18.236
					C13.489,177.208,12.924,177.84,12.191,177.881z"/>
				<path id="XMLID_1649_" style="fill:#C6C1C1;" d="M314.702,350.468l-0.358,0.02c-0.732,0.04-1.364-0.525-1.405-1.258
					l-1.009-18.236c-0.04-0.732,0.525-1.364,1.258-1.405l0.358-0.02c0.732-0.04,1.364,0.525,1.405,1.258l1.009,18.236
					C316,349.795,315.434,350.428,314.702,350.468z"/>
				<path id="XMLID_1648_" style="fill:#7F7979;" d="M305.498,291.94l-0.358,0.02c-0.732,0.041-1.364-0.525-1.405-1.258
					l-3.216-58.128c-0.04-0.732,0.525-1.364,1.258-1.405l0.358-0.02c0.732-0.041,1.364,0.525,1.405,1.258l3.216,58.128
					C306.796,291.267,306.23,291.899,305.498,291.94z"/>
				<path id="XMLID_1645_" style="fill:#FF7857;" d="M267.199,357.857l-0.358,0.02c-0.732,0.041-1.364-0.525-1.405-1.258
					l-3.216-58.128c-0.04-0.732,0.525-1.364,1.258-1.405l0.358-0.02c0.732-0.041,1.364,0.525,1.405,1.258l3.216,58.128
					C268.497,357.184,267.931,357.817,267.199,357.857z"/>
				<path id="XMLID_1642_" style="fill:#FF7857;" d="M341.306,153.591l-0.358,0.02c-0.732,0.041-1.364-0.525-1.405-1.258
					l-4.396-79.464c-0.04-0.732,0.525-1.364,1.258-1.405l0.358-0.02c0.732-0.041,1.364,0.525,1.405,1.258l4.396,79.464
					C342.604,152.918,342.038,153.55,341.306,153.591z"/>
				<path id="XMLID_1641_" style="fill:#C6C1C1;" d="M18.457,318.52l-0.358,0.02c-0.732,0.041-1.364-0.525-1.405-1.258
					l-4.396-79.464c-0.041-0.732,0.525-1.364,1.258-1.405l0.358-0.02c0.732-0.041,1.364,0.525,1.405,1.258l4.396,79.464
					C19.755,317.848,19.189,318.48,18.457,318.52z"/>
				<path id="XMLID_1640_" style="fill:#C6C1C1;" d="M288.812,117.819l-0.568,0.031c-1.162,0.064-2.165-0.834-2.23-1.996
					l-4.175-75.469c-0.064-1.162,0.834-2.165,1.996-2.23l0.568-0.031c1.162-0.064,2.165,0.834,2.23,1.996l4.175,75.469
					C290.872,116.751,289.974,117.754,288.812,117.819z"/>
				<path id="XMLID_1635_" style="fill:#FF7857;" d="M65.748,177.191l-0.568,0.031c-1.162,0.064-2.165-0.834-2.23-1.996
					l-3.107-56.158c-0.064-1.162,0.834-2.165,1.996-2.23l0.568-0.031c1.162-0.064,2.165,0.834,2.23,1.996l3.107,56.158
					C67.808,176.123,66.91,177.126,65.748,177.191z"/>
				<path id="XMLID_1629_" style="fill:#FF7857;" d="M308.12,186.139l-0.568,0.031c-1.162,0.064-2.165-0.834-2.23-1.996
					l-1.299-23.485c-0.064-1.162,0.834-2.165,1.996-2.23l0.568-0.031c1.162-0.064,2.165,0.834,2.23,1.996l1.299,23.485
					C310.18,185.071,309.282,186.074,308.12,186.139z"/>
				<path id="XMLID_1626_" style="fill:#FF7857;" d="M67.209,203.615l-0.568,0.031c-1.162,0.064-2.165-0.834-2.23-1.996l-0.533-9.63
					c-0.064-1.162,0.834-2.165,1.996-2.23l0.568-0.031c1.162-0.064,2.165,0.834,2.23,1.996l0.533,9.63
					C69.27,202.547,68.371,203.551,67.209,203.615z"/>
				<path id="XMLID_1625_" style="fill:#C6C1C1;" d="M283.918,29.365l-0.568,0.031c-1.162,0.064-2.165-0.834-2.23-1.996l-0.38-6.867
					c-0.064-1.162,0.834-2.165,1.996-2.23l0.568-0.031c1.162-0.064,2.165,0.834,2.23,1.996l0.38,6.867
					C285.979,28.297,285.08,29.3,283.918,29.365z"/>
				<path id="XMLID_1624_" style="fill:#C6C1C1;" d="M342.063,296.479l-0.568,0.031c-1.162,0.064-2.165-0.834-2.23-1.996
					l-1.646-29.758c-0.064-1.162,0.834-2.165,1.996-2.23l0.568-0.031c1.162-0.064,2.165,0.834,2.23,1.996l1.646,29.758
					C344.123,295.412,343.225,296.415,342.063,296.479z"/>
				<path id="XMLID_1623_" style="fill:#C6C1C1;" d="M89.274,188.289l-0.358,0.02c-0.732,0.04-1.364-0.525-1.405-1.258l-0.551-9.961
					c-0.041-0.732,0.525-1.364,1.258-1.405l0.358-0.02c0.732-0.041,1.364,0.525,1.405,1.258l0.551,9.961
					C90.573,187.616,90.007,188.248,89.274,188.289z"/>
			</g>
			<path id="XMLID_1621_" style="fill:#C6C1C1;" d="M223.355,79.532l-0.358,0.02c-0.732,0.041-1.364-0.525-1.405-1.258
				l-2.493-45.071c-0.041-0.732,0.525-1.364,1.258-1.405l0.358-0.02c0.732-0.041,1.364,0.525,1.405,1.258l2.493,45.071
				C224.653,78.859,224.087,79.491,223.355,79.532z"/>
		</g>
		<path id="XMLID_1619_" style="fill:#C6C1C1;" d="M260.762,274.6l-0.611-0.74c-14.465-3.184-15.546-31.177-15.534-40.028
			c-0.729-0.959-1.555-1.776-2.544-2.284c-0.525-0.27-0.987-0.572-1.41-0.892l-6.073-0.77l-27.654-57.576
			c-1.911-4.045-6.758-6.413-11.23-6.615l-2.646-0.12c-4.529-0.205-8.394-3.113-9.845-7.409l-0.184-0.543l12.919-10.513
			c0.523-0.425,0.822-1.036,0.822-1.678v-13.817c5.106,0.075,9.551-6.135,9.993-14.082c0.433-7.8-3.151-14.393-8.089-15.135
			c-2.65-16.382-14.563-29.444-29.886-33.043l1.751-8.303c0.394-1.869-0.42-3.786-2.021-4.743c-0.392-0.235-0.831-0.472-1.297-0.706
			l4.937-21.687l0.133-0.582l-0.088,0.171l0.375-3.477l-2.269-5.673l-8.59-1.414c-3.026-0.315-5.814,0.197-8.198,1.006l-0.042,0.005
			l-0.048,0.026c-3.538,1.219-6.141,3.081-7.199,3.923l-0.008,0.005l0,0.001c-0.333,0.266-0.528,0.438-0.528,0.438l6.907,27.501
			c-0.308,0.179-0.616,0.371-0.926,0.578c-0.115,0.077-0.23,0.153-0.346,0.234c-0.418,0.292-0.837,0.601-1.257,0.947
			c-1.036,0.853-1.604,2.141-1.595,3.465c0.001,0.221,0.019,0.442,0.053,0.663c0.034,0.221,0.085,0.441,0.152,0.658l1.482,4.758
			l0.746,2.395l-0.001,0c-0.926,0.239-1.838,0.513-2.737,0.82c-0.019,0.006-0.037,0.013-0.056,0.02
			c-0.889,0.305-1.765,0.642-2.624,1.011c-0.004,0.002-0.009,0.003-0.013,0.005c-0.871,0.374-1.726,0.781-2.564,1.218
			c-0.006,0.003-0.012,0.006-0.018,0.009c-0.832,0.435-1.647,0.899-2.443,1.393c-0.008,0.005-0.016,0.009-0.023,0.014
			c-1.603,0.995-3.132,2.107-4.577,3.324c-0.007,0.006-0.014,0.011-0.02,0.017c-1.446,1.22-2.807,2.546-4.073,3.968
			c-0.004,0.004-0.007,0.008-0.011,0.012c-5.079,5.705-8.617,12.934-9.931,20.966c-0.004,0-0.007,0-0.011,0
			c-0.653,0.039-1.285,0.179-1.889,0.411c-0.605,0.232-1.182,0.555-1.727,0.959c-0.545,0.404-1.057,0.89-1.531,1.446
			c-0.711,0.834-1.335,1.829-1.852,2.948c-0.345,0.747-0.643,1.549-0.888,2.396c-0.245,0.847-0.437,1.741-0.57,2.669
			c-0.2,1.393-0.267,2.865-0.183,4.382c0.028,0.506,0.073,1.004,0.132,1.495c0.106,0.871,0.268,1.712,0.466,2.525
			c0.136,0.56,0.286,1.111,0.462,1.638c1.152,3.448,3.12,6.149,5.465,7.496c0.586,0.337,1.196,0.59,1.822,0.748
			c0.627,0.159,1.269,0.223,1.922,0.184c0,0,0,0,0,0c0.092-0.006,0.182-0.018,0.273-0.027v13.839c0,0.642,0.299,1.253,0.821,1.678
			l12.073,9.825l-0.416,1.232c-1.331,3.94-4.701,6.686-8.744,7.276l-1.896,0.169l-1.851,0.084c-0.735,0.033-1.48,0.131-2.222,0.279
			l-0.011,0.001l-0.002,0.001c-3.76,0.756-7.4,2.958-8.995,6.334l-27.654,57.576l-10.069,1.276
			c-0.002,0.31,4.048,26.674-4.376,38.444c1.116,0.4,1.646,1.372,1.526,2.379c1.141,0.151,1.372,1.551,0.743,2.353
			c0.052,0.019,0.107,0.033,0.155,0.055c2.683-0.004,5.267,0.209,7.406,0.611c1.092,0.205,1.325,1.617,0.698,2.371
			c2.658,0.13,5.291,0.354,7.887,0.69l0.91-2.976c2.989-7.914,8.914-19.387,19.456-25.23l0.472-0.261l-4.875-9.932l20.934-35.002
			l0.591,1.208l9.5,40.237c0,0.001-9.304,34.831-9.304,59.223l6.563,34.12c0,0,4.041,12.958,14.324-18.994l1.943-14.664
			c0.028-0.214,0.077-0.421,0.147-0.625c3.965-11.567,8.037-25.344,10.163-32.712l4.543,14.944c0.089,0.293,0.229,0.563,0.392,0.817
			l20.135,17.471c0,0,14.508,4.554,13.02-20.07c0,0-10.319-27.322-13.855-37.123l11.27-39.729l19.083,32.086l-1.08,8.188
			c12.576,6.971,27.847,22.844,30.201,30.236c0.478-0.232,1.078-0.214,1.605,0.261c0.191,0.173,0.326,0.307,0.446,0.44
			c0.683,0.619,1.473,1.063,2.325,1.375c2.735,0.047,5.469,0.115,8.203,0.216c0.857,0.032,1.381,0.789,1.422,1.521
			c1.356-1.573,2.667-3.966,3.856-7.463C261.037,275.287,260.893,274.947,260.762,274.6z"/>
		<polygon id="XMLID_1618_" style="fill:#040026;" points="132.021,165.033 132.019,165.035 132.018,165.035 		"/>
		<path id="XMLID_1617_" style="fill:#EFEAEA;" d="M265.665,282.529c-3.639-3.55-5.249-8.327-6.515-13.142
			c-1.341-5.101-3.688-9.583-5.622-14.473c-1.991-5.034-2.4-10.317-5.311-14.971c-1.692-2.706-3.216-6.891-6.144-8.394
			c-7.012-3.598-4.692-12.098,0.76-14.996l-23.425-48.772c-1.911-4.045-6.758-6.413-11.23-6.615l-2.646-0.12
			c-4.529-0.205-8.394-3.113-9.845-7.409l-0.184-0.543l12.919-10.514c0.523-0.425,0.822-1.036,0.822-1.678v-13.817
			c5.106,0.075,9.551-6.135,9.993-14.082c0.433-7.8-3.151-14.393-8.089-15.135c-2.65-16.382-14.562-29.444-29.886-33.043
			l1.751-8.303c0.394-1.868-0.42-3.786-2.021-4.743c-0.392-0.234-0.831-0.472-1.297-0.706l4.937-21.687l0.133-0.582l-0.088,0.17
			l0.375-3.477l-2.269-5.673l-8.59-1.414c-3.026-0.315-5.814,0.197-8.198,1.006l-0.042,0.005l-0.048,0.026
			c-3.538,1.218-6.141,3.081-7.199,3.923l-0.008,0.005l0,0.001c-0.334,0.265-0.529,0.438-0.529,0.438l6.907,27.501
			c-0.308,0.179-0.616,0.371-0.926,0.578c-0.115,0.076-0.23,0.153-0.346,0.234c-0.418,0.292-0.837,0.601-1.257,0.947
			c-1.036,0.853-1.604,2.141-1.595,3.465c0.001,0.221,0.019,0.443,0.053,0.664c0.034,0.22,0.085,0.44,0.152,0.657l1.482,4.758
			l0.746,2.395h-0.001c-0.926,0.239-1.838,0.513-2.736,0.82c-0.019,0.006-0.037,0.013-0.056,0.02
			c-0.889,0.305-1.765,0.641-2.624,1.011c-0.004,0.001-0.008,0.003-0.013,0.005c-0.871,0.375-1.726,0.781-2.564,1.218
			c-0.006,0.003-0.012,0.006-0.018,0.009c-0.832,0.434-1.646,0.899-2.443,1.393c-0.008,0.005-0.016,0.009-0.023,0.014
			c-1.603,0.995-3.132,2.107-4.577,3.324c-0.007,0.006-0.013,0.011-0.02,0.017c-1.446,1.22-2.806,2.546-4.073,3.968
			c-0.004,0.004-0.007,0.008-0.011,0.011c-5.079,5.705-8.617,12.935-9.931,20.966h-0.011c-0.653,0.039-1.284,0.18-1.889,0.411
			c-0.605,0.231-1.182,0.555-1.727,0.959c-0.545,0.404-1.057,0.89-1.531,1.446c-0.711,0.835-1.335,1.829-1.852,2.949
			c-0.345,0.746-0.643,1.548-0.888,2.396c-0.245,0.848-0.437,1.741-0.57,2.669c-0.2,1.393-0.267,2.865-0.183,4.382
			c0.028,0.506,0.073,1.004,0.132,1.495c0.106,0.871,0.268,1.712,0.466,2.525c0.136,0.561,0.286,1.111,0.462,1.638
			c1.152,3.448,3.12,6.149,5.465,7.497c0.586,0.337,1.196,0.589,1.822,0.748c0.627,0.159,1.269,0.223,1.922,0.185h0
			c0.092-0.006,0.182-0.018,0.273-0.027v13.839c0,0.642,0.299,1.253,0.822,1.678l12.073,9.825l-0.416,1.232
			c-1.331,3.94-4.536,7.104-8.579,7.694l-1.595,0.39l-1.082-0.314c-0.735,0.033-2.644,0.591-3.385,0.74l0.187-0.041
			c-3.76,0.756-7.672,2.3-9.267,5.676l-27.654,57.576l-8.743,3.87c-0.002,0.31-0.279,22.708-8.781,34.437l-3.033,3.221
			c-0.061,0.049-0.123,0.099-0.185,0.146l-4.82,2.298l-1.156,0.887l-1.411,0.875c0,0-4.166,30.705,30.434,7.888l2.574-8.421
			c2.989-7.913,8.914-19.386,19.456-25.23l0.472-0.261l-4.875-9.931l9.474-15.841c-0.792-0.282-1.367-1.145-0.777-2.047
			c1.614-2.47,3.045-5.057,4.682-7.511c1.587-2.379,3.655-4.454,4.672-7.172c0.338-0.903,1.346-4.139,2.062-3.91l0.452-0.535
			l0.959,3.223l9.5,40.236c0,0.001-13.802,37.099-13.802,61.491l-1.411,41.658c0,0,16.109,2.889,26.378-27.57
			c-0.406-0.221-0.727-0.614-0.791-1.18c-0.862-7.6,1.27-14.595,3.555-21.744c1.189-3.717,2.291-7.462,3.59-11.142
			c-0.144-0.272-0.21-0.598-0.144-0.97c0.761-4.27,2.695-11.161,4.63-13.549c0.455-0.561,1.205-0.484,1.704-0.209
			c0.041-0.143,0.086-0.298,0.126-0.436l0.212,0.697c0.234,0.243,0.406,0.57,0.45,0.981c0.022,0.208,0.021,0.404,0.033,0.607
			l3.849,12.659c0.089,0.293,9.36,26.507,9.36,26.507c0.347,0.958,5.925-3.215,6.894-2.901c0,0,18.782-0.763,17.294-25.387
			c0,0-10.319-27.323-13.855-37.123l4.777-16.841c-0.74-0.167-1.339-0.81-1.013-1.729c2.355-6.634,3.052-13.698,5.82-20.203
			c0.328-0.77,1.009-0.897,1.599-0.653l0.086-0.303l0.325,0.546c0.317,0.252,0.555,0.619,0.62,1.042l18.139,30.498l-4.419,8.744
			l0.472,0.261c12.027,6.667,19.433,26.056,20.658,34.038C244.01,279.773,256.717,287.889,265.665,282.529z"/>
		<g id="XMLID_1606_">
			<g id="XMLID_1615_">
				<path id="XMLID_1616_" style="fill:#7F7979;" d="M69.163,271.091l1.156-1.401c17.124-3.769,15.491-42.311,15.493-42.697l0,0
					l10.069-1.276l27.654-57.576c1.911-4.045,6.758-6.413,11.23-6.615l2.646-0.12c4.529-0.205,8.394-3.113,9.845-7.409l1.511-4.474
					l1.075,0.363l-0.537,4.584c-1.602,4.742-6.966,9.039-11.966,9.265l-2.561,0.095c-4.049,0.184-6.686,1.629-8.418,5.294
					l-27.796,59.089l-10.015,1.012C88.463,233.94,87.225,268.355,69.163,271.091z"/>
			</g>
			<g id="XMLID_1613_">
				<path id="XMLID_1614_" style="fill:#7F7979;" d="M98.186,279.341l-0.178-2.57c0.05-0.245,3.8-22.216,20.847-32.05l-4.329-9.272
					l0.155-0.264l22.168-37.551l2.497-1.485l-23.533,39.348l4.875,9.931l-0.472,0.261
					C103.246,255.097,98.235,279.099,98.186,279.341z"/>
			</g>
			<path id="XMLID_1612_" style="fill:#7F7979;" d="M137.337,201.704l9.643,40.842c0,0,9.454,7.563,21.556,4.538
				c0,0-13.938,0.142-18.854-6.193l-9.236-35.935L137.337,201.704z"/>
			<path id="XMLID_1611_" style="fill:#7F7979;" d="M146.838,241.941c0,0-13.802,37.099-13.802,61.491v36.021l0,0
				c0.936-2.058,1.443-4.286,1.491-6.546l0.636-29.9c0,0,5.356-46.11,14.519-58.721L146.838,241.941z"/>
			<path id="XMLID_1610_" style="fill:#7F7979;" d="M172.176,263.015c0,0-5.947,21.299-11.666,37.986
				c-0.07,0.204-0.118,0.411-0.147,0.625l-1.943,14.664l-0.851-2.742l1.31-12.728c0.025-0.243,0.077-0.48,0.155-0.712
				c6.11-18.004,12.149-40.071,12.149-40.071L172.176,263.015z"/>
			<path id="XMLID_1609_" style="fill:#7F7979;" d="M172.176,263.015l5.93,22.548l-1.461-0.479
				c-0.686-0.422-1.194-1.081-1.429-1.852l-5.025-16.53L172.176,263.015z"/>
			<path id="XMLID_1608_" style="fill:#7F7979;" d="M177.424,290.696l0.484,0.234c0.78,0.377,1.381,1.046,1.672,1.862l3.091,8.654
				l0,0c-0.969-0.314-1.739-1.059-2.086-2.017L177.424,290.696z"/>
			<path id="XMLID_1607_" style="fill:#7F7979;" d="M146.301,158.076c0,0,3.823,17.085,40.199,13.61c0,0-34.534,6.11-41.871-11.907"
				/>
		</g>
		<polygon id="XMLID_1605_" style="fill:#EAE5F7;" points="144.493,160.503 144.491,160.504 144.49,160.504 		"/>
		<path id="XMLID_1604_" style="fill:#EAE5F7;" d="M109.577,253.802c-0.01,0.013-0.02,0.027-0.03,0.04l0.01-0.022L109.577,253.802z"
			/>
		<g id="XMLID_1578_">
			<path id="XMLID_1596_" style="fill:#7F7979;" d="M176.176,48.447c-5.124-2.08-10.399-0.125-10.399-0.125l-6.233-23.75
				c4.822-4.822,11.687-5.194,11.687-5.194l1.551-0.607c-9.022-0.939-16.022,5.405-16.022,5.405l7.446,29.646l13.535-0.006
				l5.612-24.652l-2.078,2.631L176.176,48.447z"/>
		</g>
		<g id="XMLID_1568_">
			<g id="XMLID_1575_">
				<path id="XMLID_1576_" style="fill:#7F7979;" d="M241.618,217.322l-23.621-49.181c-1.911-4.045-6.758-6.413-11.23-6.615
					l-2.646-0.12c-4.529-0.205-8.394-3.113-9.845-7.409l-1.511-4.474l-1.075,0.363l1.511,4.474
					c1.602,4.742,5.869,7.951,10.869,8.177l2.646,0.12c4.049,0.184,7.641,2.575,9.373,6.24l24.446,49.37
					C240.872,217.926,241.235,217.61,241.618,217.322z"/>
			</g>
			<g id="XMLID_1573_">
				<path id="XMLID_1574_" style="fill:#7F7979;" d="M243.345,279.341l0.178-2.57c-0.05-0.245-2.822-22.689-19.868-32.523
					l3.876-7.942l-0.681-1.122l-22.168-37.551l-3.528-1.485l24.108,40.535l-4.419,8.744l0.472,0.261
					C238.285,255.097,243.296,279.099,243.345,279.341z"/>
			</g>
			<path id="XMLID_1572_" style="fill:#7F7979;" d="M193.732,240.892c0.142,1.135,15.032,40.559,15.032,40.559l-3.262-2.978
				l-13.227-33.606L193.732,240.892z"/>
			<polygon id="XMLID_1571_" style="fill:#7F7979;" points="206.732,202.649 194.756,244.866 192.276,244.866 204.943,199.406 			
				"/>
		</g>
		<g id="XMLID_1562_">
			<path id="XMLID_1567_" style="fill:#FF7857;" d="M143.145,112.239c0.45,8.09-3.419,14.901-8.641,15.211
				c-5.222,0.311-9.82-5.996-10.27-14.087c-0.45-8.09,3.419-14.901,8.641-15.211C138.097,97.842,142.695,104.149,143.145,112.239z"
				/>
			<path id="XMLID_1566_" style="fill:#29157F;" d="M198.915,112.239c-0.45,8.09,3.419,14.901,8.641,15.211
				c5.222,0.311,9.82-5.996,10.27-14.087c0.45-8.09-3.419-14.901-8.641-15.211C203.962,97.842,199.364,104.149,198.915,112.239z"/>
			<path id="XMLID_1565_" style="fill:#29157F;" d="M137.409,124.017c-1.491-4.363-2.405-9.069-2.632-13.981
				c-1.515-32.752,16.354-40.785,36.528-40.785s37.545,6.047,36.528,40.785c-0.144,4.912-1.019,9.613-2.487,13.975
				c0.179-0.003,0.355,0.013,0.528,0.046c2.82-5.661,4.425-12.094,4.425-18.925c0-22.612-17.459-40.943-38.995-40.943
				s-38.995,18.331-38.995,40.943c0,6.83,1.596,13.267,4.413,18.928C136.947,124.015,137.177,124,137.409,124.017z"/>
			<path id="XMLID_1564_" style="fill:#29157F;" d="M205.875,124.056c-0.173-0.033-0.35-0.048-0.528-0.046
				c-0.531,0.008-1.072,0.174-1.537,0.543l-15.518,12.313c-0.442,0.351-1.006,0.544-1.59,0.544h-30.793
				c-0.583,0-1.148-0.193-1.59-0.544l-15.518-12.313c-0.423-0.336-0.908-0.503-1.392-0.537c-0.232-0.016-0.462-0.002-0.686,0.042
				c-1.053,0.204-1.946,1.034-1.946,2.192v15.012c0,0.642,0.299,1.253,0.822,1.678l16.753,13.633
				c0.445,0.362,1.019,0.562,1.613,0.562h1.945h30.793h1.945c0.594,0,1.168-0.2,1.613-0.562l16.753-13.633
				c0.523-0.425,0.822-1.036,0.822-1.678V126.25C207.833,125.089,206.934,124.256,205.875,124.056z"/>
			<path id="XMLID_1563_" style="fill:#29157F;" d="M164.414,70.348l4.366,3.206c1.505,1.105,3.528,1.079,5.006-0.064l3.886-3.006
				c0.819-0.633,1.39-1.551,1.607-2.584l2.324-11.017c0.394-1.868-0.42-3.786-2.021-4.743c-3.722-2.225-10.926-4.889-18.443,1.297
				c-1.381,1.137-1.931,3.049-1.39,4.787l3.079,9.888C163.11,69.014,163.666,69.799,164.414,70.348z"/>
		</g>
		<path id="XMLID_1561_" style="fill:#483C91;" d="M175.497,137.41h-19.588c-0.583,0-1.148-0.193-1.59-0.544l-14.979-11.885
			c2.556-2.74,4.098-7.468,3.805-12.742c-0.383-6.893-3.778-12.489-8.005-13.802c2.414-19.71,14.258-27.03,28.572-28.756
			c0.211,0.245,0.44,0.475,0.702,0.667l4.366,3.206c1.505,1.105,3.528,1.079,5.006-0.064l1.711-1.324V50.307
			c-3.882-1.193-9.041-1.246-14.358,3.129c-1.381,1.137-1.931,3.049-1.39,4.786l2.227,7.152
			c-14.923,3.848-26.461,16.71-29.091,32.777c-0.004,0-0.007,0-0.011,0c-5.222,0.311-9.091,7.121-8.641,15.211
			c0.45,8.09,5.047,14.397,10.269,14.087c0.092-0.006,0.183-0.018,0.274-0.027v13.839c0,0.642,0.299,1.253,0.822,1.678
			l16.753,13.633c0.445,0.362,1.019,0.562,1.613,0.562h1.945h19.588V137.41z"/>
		<path id="XMLID_1560_" style="fill:#B4B4EF;" d="M132.307,101.292c-0.001-0.006-0.001-0.012-0.002-0.018
			c-0.052-0.627-0.727-0.992-1.283-0.699c-2.838,1.493-4.877,5.566-4.877,10.368c0,1.185,0.127,2.323,0.357,3.392
			c-0.05-0.519-0.084-1.045-0.084-1.584c0-5.079,2.281-9.347,5.377-10.604C132.133,102.009,132.337,101.656,132.307,101.292z"/>
		<path id="XMLID_1559_" style="fill:#FFFAFF;" d="M135.164,99.741c0.077,0.695,0.136,1.394,0.174,2.096
			c3.484,0.4,6.378,3.983,7.418,8.831C142.199,104.849,139.069,100.291,135.164,99.741z"/>
		<path id="XMLID_1558_" style="fill:#B4B4EF;" d="M137.178,139.452l-0.121-8.451c-0.019-1.338,1.52-2.101,2.574-1.277l9.062,7.092
			c0.392,0.307,0.618,0.779,0.611,1.276l-0.125,9.004c-0.019,1.354-1.612,2.068-2.636,1.181l-8.816-7.645
			C137.384,140.335,137.185,139.906,137.178,139.452z"/>
		<path id="XMLID_1557_" style="fill:#B4B4EF;" d="M153.5,150.617h-0.466c-0.245,0-0.446-0.201-0.446-0.446v-10.699
			c0-0.245,0.201-0.446,0.446-0.446h0.466c0.245,0,0.446,0.201,0.446,0.446v10.699C153.946,150.416,153.745,150.617,153.5,150.617z"
			/>
		<rect id="XMLID_1556_" x="174.818" y="137.41" style="fill:#0E003F;" width="1.358" height="19.726"/>
		<path id="XMLID_1553_" style="fill:#0E003F;" d="M174.818,72.691l1.358-1.051V50.53c-0.435-0.154-0.889-0.293-1.358-0.415V72.691z
			"/>
		<path id="XMLID_1552_" style="fill:#040026;" d="M171.305,69.25c-20.174,0-38.043,8.033-36.528,40.785
			c0.227,4.912,1.141,9.619,2.632,13.981c0.484,0.034,0.969,0.201,1.392,0.537l15.518,12.313c0.442,0.351,1.006,0.544,1.59,0.544
			h30.793c0.583,0,1.148-0.193,1.59-0.544l15.518-12.313c0.465-0.369,1.006-0.535,1.537-0.543c1.468-4.361,2.343-9.062,2.487-13.975
			C208.85,75.298,191.479,69.25,171.305,69.25z"/>
		<path id="XMLID_1551_" style="fill:#FFE49A;" d="M157.884,117.108c2.546,0,4.895,1.071,6.784,2.877
			c0.656,0.627,1.595-0.28,1.125-1.09c-1.872-3.225-4.717-5.285-7.909-5.285s-6.037,2.06-7.909,5.285
			c-0.47,0.81,0.469,1.717,1.125,1.09C152.989,118.179,155.338,117.108,157.884,117.108z"/>
		<path id="XMLID_1550_" style="fill:#FFE49A;" d="M183.533,117.108c2.546,0,4.895,1.071,6.784,2.877
			c0.656,0.627,1.595-0.28,1.125-1.09c-1.872-3.225-4.717-5.285-7.909-5.285s-6.037,2.06-7.909,5.285
			c-0.47,0.81,0.469,1.717,1.125,1.09C178.638,118.179,180.987,117.108,183.533,117.108z"/>
		<polygon id="XMLID_1549_" style="fill:#29157F;" points="143.52,124.44 155.366,134.325 186.605,134.325 199.281,125.119 
			186.077,132.74 155.97,132.74 		"/>
		<path id="XMLID_1548_" style="fill:#29157F;" d="M171.299,72.673c-17.942,0-33.834,7.144-32.487,36.273
			c0.012,0.268,0.034,0.533,0.051,0.8c-0.998-28.446,16.918-32.231,34.704-32.231c15.922,0,27.721,1.005,30.059,23.505
			C201.811,77.105,187.583,72.673,171.299,72.673z"/>
		<path id="XMLID_1547_" style="fill:#B4B4EF;" d="M170.749,51.626c0,0-4.223-0.033-7.586,2.726c-1.021,0.838-1.5,2.182-1.245,3.478
			c0.234,1.192,0.716,2.957,1.7,5.417c1.534,3.834,0.843-1.468,0.319-4.837c-0.228-1.464,0.446-2.919,1.713-3.688L170.749,51.626z"
			/>
		<path id="XMLID_1546_" style="fill:#EAE5F7;" d="M176.627,282.871"/>
		<path id="XMLID_1545_" style="fill:#C6C1C1;" d="M198.424,205.346l-7.736,29.874c-0.263,1.016-1.729,0.942-1.889-0.095
			l-0.152-0.984c-0.021-0.134-0.013-0.271,0.023-0.401l7.887-28.89c0.112-0.411,0.481-0.7,0.907-0.711l0,0
			C198.106,204.123,198.585,204.725,198.424,205.346z"/>
		<path id="XMLID_1544_" style="fill:#C6C1C1;" d="M152.758,252.699c-1.921,5.878-4.88,15.594-6.933,25.414
			c-0.214,1.024-1.738,0.796-1.636-0.245c0.787-8.036,2.668-18.026,7.046-25.816C151.729,251.171,153.072,251.739,152.758,252.699z"
			/>
	</g>
</g>
<g id="Layer_1">
</g>
</svg>
