<?xml version="1.0" encoding="iso-8859-1"?>
<!-- Generator: Adobe Illustrator 19.0.0, SVG Export Plug-In . SVG Version: 6.00 Build 0)  -->
<svg version="1.1" xmlns="http://www.w3.org/2000/svg" xmlns:xlink="http://www.w3.org/1999/xlink" x="0px" y="0px"
	 viewBox="0 0 295.702 68.282" style="enable-background:new 0 0 295.702 68.282;" xml:space="preserve">
<g id="header_x5F_start_x5F_free_x5F_button">
	<g id="XMLID_36_">
		<path id="path-2_2_" style="fill:#040026;" d="M7.455,0h280.793c4.117,0,7.455,3.287,7.455,7.342V60.94
			c0,4.055-3.338,7.342-7.455,7.342H7.455C3.338,68.282,0,64.995,0,60.94V7.342C0,3.287,3.338,0,7.455,0z"/>
		<path id="XMLID_496_" style="fill:#FF7857;" d="M5.231,43.08V19.202C5.231,8.597,13.828,0,24.433,0h246.835
			c10.605,0,19.202,8.597,19.202,19.202V43.08c0,10.605-8.597,19.202-19.202,19.202H24.433C13.828,62.282,5.231,53.685,5.231,43.08z
			"/>
		<g id="XMLID_77_">
			<path id="XMLID_82_" style="fill:#FFE49A;" d="M131.766,47.6h64.452c0.55,0,1-0.45,1-1l0,0c0-0.55-0.45-1-1-1h-64.452
				c-0.55,0-1,0.45-1,1l0,0C130.766,47.15,131.216,47.6,131.766,47.6z"/>
			<path id="XMLID_80_" style="fill:#FFE49A;" d="M112.175,47.6h11.356c0.55,0,1-0.45,1-1l0,0c0-0.55-0.45-1-1-1h-11.356
				c-0.55,0-1,0.45-1,1l0,0C111.175,47.15,111.625,47.6,112.175,47.6z"/>
			<path id="XMLID_79_" style="fill:#FFE49A;" d="M98.918,47.6h5.528c0.55,0,1-0.45,1-1v0c0-0.55-0.45-1-1-1h-5.528
				c-0.55,0-1,0.45-1,1v0C97.918,47.15,98.368,47.6,98.918,47.6z"/>
		</g>
		<path id="XMLID_65_" style="fill:#FFE49A;" d="M13.797,19.899c1.732,0.022,3.256-1.138,3.71-2.809
			c1.508-5.547,4.054-8.745,9.478-11.005c1.177-0.49,0.846-2.232-0.428-2.232h0c-7.348,0-13.647,4.479-16.322,10.856
			c-1.028,2.45,0.825,5.156,3.481,5.189L13.797,19.899z"/>
		<path id="XMLID_64_" style="fill:#FFE49A;" d="M12.541,33.35L12.541,33.35c-1.702,0-3.094-1.392-3.094-3.094v-3.813
			c0-1.702,1.392-3.094,3.094-3.094h0c1.702,0,3.094,1.392,3.094,3.094v3.813C15.635,31.958,14.243,33.35,12.541,33.35z"/>
	</g>
</g>
<g id="Layer_1">
</g>
</svg>
