<?xml version="1.0" encoding="iso-8859-1"?>
<!-- Generator: Adobe Illustrator 19.0.0, SVG Export Plug-In . SVG Version: 6.00 Build 0)  -->
<svg version="1.1" xmlns="http://www.w3.org/2000/svg" xmlns:xlink="http://www.w3.org/1999/xlink" x="0px" y="0px"
	 viewBox="0 0 484.981 280.13" style="enable-background:new 0 0 484.981 280.13;" xml:space="preserve">
<g id="Header_x5F_illustration">
	<g id="XMLID_149_">
		<defs>
			<filter id="Adobe_OpacityMaskFilter" filterUnits="userSpaceOnUse" x="412.674" y="99.389" width="21.522" height="17.164">
				<feColorMatrix  type="matrix" values="1 0 0 0 0  0 1 0 0 0  0 0 1 0 0  0 0 0 1 0"/>
			</filter>
		</defs>
		<mask maskUnits="userSpaceOnUse" x="412.674" y="99.389" width="21.522" height="17.164" id="XMLID_2_">
			<g id="XMLID_645_" style="filter:url(#Adobe_OpacityMaskFilter);">
				<rect id="XMLID_646_" x="588.066" y="-1638.481" style="fill:#FFFFFF;" width="49.217" height="18.597"/>
			</g>
		</mask>
		<g id="XMLID_770_" style="mask:url(#XMLID_2_);">
			<g id="XMLID_775_">
				<circle id="XMLID_776_" style="fill:#29157F;" cx="425.614" cy="107.971" r="8.582"/>
			</g>
			<g id="XMLID_773_">
				<circle id="XMLID_774_" style="fill:#29157F;" cx="415.786" cy="107.581" r="3.112"/>
			</g>
		</g>
		<g id="XMLID_767_">
			<g id="XMLID_768_">
				<path id="XMLID_769_" style="fill:#29157F;" d="M400.288,34.436c-0.203-0.159-0.365-0.375-0.457-0.637
					c-0.254-0.726,0.128-1.521,0.854-1.775c3.076-1.078,5.751-0.998,7.949,0.238c1.843,1.038,2.936,2.678,3.553,3.977
					c1.224-0.769,3.036-1.54,5.142-1.27c2.802,0.359,5.262,2.419,7.311,6.12c0.372,0.673,0.129,1.52-0.544,1.893
					c-0.673,0.373-1.521,0.129-1.893-0.544c-1.595-2.882-3.355-4.465-5.229-4.706c-2.404-0.309-4.412,1.72-4.432,1.74
					c-0.357,0.374-0.891,0.52-1.388,0.38c-0.498-0.141-0.876-0.546-0.983-1.051c-0.005-0.022-0.654-2.86-2.921-4.121
					c-1.467-0.816-3.366-0.826-5.645-0.027C401.142,34.815,400.649,34.717,400.288,34.436z"/>
			</g>
		</g>
		<g id="XMLID_764_">
			<g id="XMLID_765_">
				<path id="XMLID_766_" style="fill:#29157F;" d="M461.994,2.867c-0.307,0.236-0.729,0.306-1.112,0.145
					c-2.176-0.913-3.864-1.03-5.017-0.347c-1.484,0.881-1.715,2.914-1.717,2.935c-0.042,0.41-0.309,0.766-0.688,0.919
					c-0.381,0.155-0.817,0.091-1.133-0.172c-0.012-0.01-1.636-1.313-3.456-1.019c-1.178,0.191-2.247,1.028-3.175,2.488
					c-0.33,0.521-1.018,0.673-1.538,0.343c-0.519-0.33-0.673-1.018-0.343-1.538c1.29-2.032,2.88-3.208,4.726-3.498
					c1.495-0.235,2.841,0.18,3.79,0.634c0.37-0.992,1.066-2.213,2.375-2.998c1.795-1.076,4.163-1.01,7.037,0.196
					c0.567,0.238,0.834,0.891,0.596,1.459C462.263,2.6,462.142,2.753,461.994,2.867z"/>
			</g>
		</g>
		<defs>
			<filter id="Adobe_OpacityMaskFilter_1_" filterUnits="userSpaceOnUse" x="450.206" y="70.291" width="34.775" height="22.369">
				<feColorMatrix  type="matrix" values="1 0 0 0 0  0 1 0 0 0  0 0 1 0 0  0 0 0 1 0"/>
			</filter>
		</defs>
		<mask maskUnits="userSpaceOnUse" x="450.206" y="70.291" width="34.775" height="22.369" id="XMLID_3_">
			<g id="XMLID_566_" style="filter:url(#Adobe_OpacityMaskFilter_1_);">
				<rect id="XMLID_567_" x="633.812" y="-1666.458" style="fill:#FFFFFF;" width="49.03" height="24.237"/>
			</g>
		</mask>
		<g id="XMLID_672_" style="mask:url(#XMLID_3_);">
			<g id="XMLID_679_">
				<circle id="XMLID_763_" style="fill:#29157F;" cx="473.796" cy="81.475" r="11.185"/>
			</g>
			<g id="XMLID_677_">
				<circle id="XMLID_678_" style="fill:#29157F;" cx="459.083" cy="83.879" r="5.389"/>
			</g>
			<g id="XMLID_675_">
				<circle id="XMLID_676_" style="fill:#29157F;" cx="452.58" cy="86.252" r="2.373"/>
			</g>
		</g>
		<defs>
			<filter id="Adobe_OpacityMaskFilter_2_" filterUnits="userSpaceOnUse" x="83.733" y="79.788" width="69.908" height="29.335">
				<feColorMatrix  type="matrix" values="1 0 0 0 0  0 1 0 0 0  0 0 1 0 0  0 0 0 1 0"/>
			</filter>
		</defs>
		<mask maskUnits="userSpaceOnUse" x="83.733" y="79.788" width="69.908" height="29.335" id="XMLID_4_">
			<g id="XMLID_551_" style="filter:url(#Adobe_OpacityMaskFilter_2_);">
				<rect id="XMLID_552_" x="272.274" y="-1659.553" style="fill:#FFFFFF;" width="84.115" height="31.784"/>
			</g>
		</mask>
		<g id="XMLID_657_" style="mask:url(#XMLID_4_);">
			<g id="XMLID_670_">
				<circle id="XMLID_671_" style="fill:#29157F;" cx="122.705" cy="94.455" r="14.667"/>
			</g>
			<g id="XMLID_668_">
				<circle id="XMLID_669_" style="fill:#29157F;" cx="142" cy="97.608" r="7.068"/>
			</g>
			<g id="XMLID_666_">
				<circle id="XMLID_667_" style="fill:#29157F;" cx="103.796" cy="100.72" r="7.068"/>
			</g>
			<g id="XMLID_664_">
				<circle id="XMLID_665_" style="fill:#29157F;" cx="150.529" cy="100.72" r="3.112"/>
			</g>
			<g id="XMLID_662_">
				<circle id="XMLID_663_" style="fill:#29157F;" cx="85.782" cy="100.72" r="2.049"/>
			</g>
			<g id="XMLID_660_">
				<circle id="XMLID_661_" style="fill:#29157F;" cx="95.111" cy="100.72" r="3.112"/>
			</g>
		</g>
		<defs>
			<filter id="Adobe_OpacityMaskFilter_3_" filterUnits="userSpaceOnUse" x="0" y="132.718" width="60.449" height="29.605">
				<feColorMatrix  type="matrix" values="1 0 0 0 0  0 1 0 0 0  0 0 1 0 0  0 0 0 1 0"/>
			</filter>
		</defs>
		<mask maskUnits="userSpaceOnUse" x="0" y="132.718" width="60.449" height="29.605" id="XMLID_5_">
			<g id="XMLID_536_" style="filter:url(#Adobe_OpacityMaskFilter_3_);">
				<rect id="XMLID_537_" x="166.032" y="-1612" style="fill:#FFFFFF;" width="84.889" height="32.076"/>
			</g>
		</mask>
		<g id="XMLID_644_" style="mask:url(#XMLID_5_);">
			<g id="XMLID_655_">
				<circle id="XMLID_656_" style="fill:#29157F;" cx="18.097" cy="147.52" r="14.802"/>
			</g>
			<g id="XMLID_653_">
				<circle id="XMLID_654_" style="fill:#29157F;" cx="36.303" cy="145.425" r="7.133"/>
			</g>
			<g id="XMLID_651_">
				<circle id="XMLID_652_" style="fill:#29157F;" cx="44.91" cy="148.566" r="3.141"/>
			</g>
			<g id="XMLID_649_">
				<circle id="XMLID_650_" style="fill:#29157F;" cx="57.308" cy="148.566" r="3.141"/>
			</g>
			<g id="XMLID_647_">
				<circle id="XMLID_648_" style="fill:#29157F;" cx="2.068" cy="148.566" r="2.068"/>
			</g>
		</g>
		<g id="XMLID_630_">
			<g id="XMLID_635_">
				<g id="XMLID_642_">
					<path id="XMLID_643_" style="fill:#29157F;" d="M154.236,187.073v-8.849c0-4.306-3.491-7.796-7.796-7.796h-18.527v15.003
						c0,0.65-0.165,1.189-0.422,1.643H154.236z"/>
				</g>
				<g id="XMLID_640_">
					<path id="XMLID_641_" style="fill:#29157F;" d="M124.009,193.77c-3.528,0-4.164-4.471-1.927-6.105
						c-0.521-0.533-0.868-1.27-0.868-2.235v-15.003H71.034c-4.306,0-7.796,3.491-7.796,7.796v27.093
						c0.276-0.07,0.568-0.119,0.893-0.119c2.59,0,3.612,2.408,3.093,4.337h22.122c4.317,0,4.309,6.697,0,6.697H63.238v9.167
						c0,4.306,3.49,7.796,7.796,7.796h16.349v-13.241c0-4.317,6.697-4.309,6.697,0v13.241h52.359c4.306,0,7.796-3.491,7.796-7.796
						V193.77H124.009z"/>
				</g>
				<g id="XMLID_638_">
					<path id="XMLID_639_" style="fill:#0E003F;" d="M152.341,187.073v-8.074c0-3.699-2.998-6.697-6.697-6.697h-17.731v13.128
						c0,0.65-0.165,1.189-0.422,1.643H152.341z"/>
				</g>
				<g id="XMLID_636_">
					<path id="XMLID_637_" style="fill:#0E003F;" d="M124.009,193.77c-3.528,0-4.164-4.471-1.927-6.105
						c-0.521-0.533-0.868-1.27-0.868-2.235v-13.128H71.829c-3.699,0-6.697,2.998-6.697,6.697v30.536h24.213
						c4.317,0,4.309,6.697,0,6.697H65.132v8.392c0,3.699,2.998,6.697,6.697,6.697h15.554v-11.366c0-4.317,6.697-4.309,6.697,0
						v11.366h51.563c3.699,0,6.697-2.998,6.697-6.697V193.77H124.009z"/>
				</g>
			</g>
			<g id="XMLID_633_">
				<path id="XMLID_634_" style="fill:#29157F;" d="M142.857,227.324H74.616c-2.393,0-4.333-1.94-4.333-4.333v-42.358
					c0-2.393,1.94-4.333,4.333-4.333h68.241c2.393,0,4.333,1.94,4.333,4.333v42.358C147.19,225.384,145.25,227.324,142.857,227.324z
					"/>
			</g>
			<g id="XMLID_631_">
				<path id="XMLID_632_" style="fill:#0E003F;" d="M99.842,195.426v12.907c0,2.067,2.112,3.461,4.013,2.65l13.395-5.721
					c2.222-0.949,2.359-4.046,0.23-5.188l-13.395-7.186C102.166,191.857,99.842,193.248,99.842,195.426z"/>
			</g>
		</g>
		<g id="XMLID_628_">
			<path id="XMLID_629_" style="fill:#29157F;" d="M260.717,140.127h12.572v-10.425c0-3.976-3.235-7.21-7.21-7.21h-24.105v23.109
				c0,4.317-6.697,4.309-6.697,0v-23.109h-13.752c-3.976,0-7.21,3.235-7.21,7.21v8.668h15.714c4.316,0,4.309,6.697,0,6.697h-15.714
				v13.29c0,3.975,3.235,7.21,7.21,7.21h28.172V152.35c0-4.317,6.697-4.309,6.697,0v13.218h9.685c3.975,0,7.21-3.235,7.21-7.21
				v-11.534h-12.572C256.4,146.825,256.407,140.127,260.717,140.127z"/>
		</g>
		<g id="XMLID_626_">
			<path id="XMLID_627_" style="fill:#0E003F;" d="M215.977,158.905v-29.748c0-2.761,2.239-5,5-5h45.647c2.761,0,5,2.239,5,5v29.748
				c0,2.761-2.239,5-5,5h-45.647C218.216,163.905,215.977,161.666,215.977,158.905z"/>
		</g>
		<g id="XMLID_624_">
			<path id="XMLID_625_" style="fill:#29157F;" d="M266.297,160.577h-44.992c-1.1,0-2-0.9-2-2v-29.092c0-1.1,0.9-2,2-2h44.992
				c1.1,0,2,0.9,2,2v29.092C268.297,159.677,267.397,160.577,266.297,160.577z"/>
		</g>
		<g id="XMLID_622_">
			<path id="XMLID_623_" style="fill:#29157F;" d="M221.524,127.485c-0.347,0-0.671,0.088-0.964,0.231l0.159,0.503l23.851,15.812
				l22.193-15.257l-0.005-1.171c-0.215-0.07-0.441-0.118-0.679-0.118H221.524z"/>
		</g>
		<g id="XMLID_617_">
			<g id="XMLID_620_">
				<line id="XMLID_621_" style="fill:#231F20;" x1="218.612" y1="127.485" x2="243.801" y2="144.559"/>
			</g>
			<g id="XMLID_618_">
				<polygon id="XMLID_619_" style="fill:#0E003F;" points="244.197,146.29 217.678,128.862 219.546,126.107 244.735,143.182 				
					"/>
			</g>
		</g>
		<g id="XMLID_612_">
			<g id="XMLID_615_">
				<line id="XMLID_616_" style="fill:#231F20;" x1="243.801" y1="144.559" x2="269.167" y2="127.12"/>
			</g>
			<g id="XMLID_613_">
				<polygon id="XMLID_614_" style="fill:#0E003F;" points="244.197,146.29 242.858,143.188 268.225,125.749 270.11,128.491 				"/>
			</g>
		</g>
		<g id="XMLID_485_">
			<g id="XMLID_600_">
				<g id="XMLID_603_">
					<g id="XMLID_610_">
						<path id="XMLID_611_" style="fill:#29157F;" d="M270.778,230.914v-9.443c0-4.595,3.725-8.319,8.319-8.319h19.77v16.009
							c0,0.693,0.176,1.269,0.451,1.753H270.778z"/>
					</g>
					<g id="XMLID_608_">
						<path id="XMLID_609_" style="fill:#29157F;" d="M303.032,238.06c3.765,0,4.444-4.771,2.056-6.515
							c0.556-0.569,0.926-1.355,0.926-2.385v-16.009h53.547c4.595,0,8.319,3.725,8.319,8.319v33.411h-27.859
							c-4.606,0-4.598,7.147,0,7.147h27.859v9.782c0,4.595-3.725,8.319-8.319,8.319h-25.073l-1.849-14.129
							c0-4.606,2.33-4.599,2.33,0v14.129h-55.871c-4.595,0-8.319-3.725-8.319-8.319v-33.75H303.032z"/>
					</g>
					<g id="XMLID_606_">
						<path id="XMLID_607_" style="fill:#0E003F;" d="M272.8,230.914v-8.616c0-3.947,3.2-7.146,7.146-7.146h18.921v14.009
							c0,0.693,0.176,1.269,0.451,1.753H272.8z"/>
					</g>
					<g id="XMLID_604_">
						<path id="XMLID_605_" style="fill:#0E003F;" d="M303.032,238.06c3.765,0,4.444-4.771,2.056-6.515
							c0.556-0.569,0.926-1.355,0.926-2.385v-14.009h52.698c3.947,0,7.146,3.199,7.146,7.146v32.584h-25.837
							c-4.606,0-4.598,7.147,0,7.147h25.837v8.955c0,3.947-3.2,7.146-7.146,7.146h-23.744l-3.662-12.129
							c0-4.606,3.662-4.599,3.662,0v12.129h-55.022c-3.947,0-7.146-3.199-7.146-7.146V238.06H303.032z"/>
					</g>
				</g>
				<g id="XMLID_601_">
					<path id="XMLID_602_" style="fill:#29157F;" d="M282.629,273.865h73.399c2.393,0,4.333-1.94,4.333-4.333v-45.781
						c0-2.393-1.94-4.333-4.333-4.333h-73.399c-2.393,0-4.333,1.94-4.333,4.333v45.781
						C278.296,271.924,280.236,273.865,282.629,273.865z"/>
				</g>
			</g>
			<g id="XMLID_586_">
				<g id="XMLID_587_">
					<g id="XMLID_596_">
						<g id="XMLID_597_">
							<g id="XMLID_598_">
								<path id="XMLID_599_" style="fill:#0E003F;" d="M321.353,274.051v-4.862c0-7.488-6.126-13.615-13.615-13.615h-4.113
									c-7.488,0-13.615,6.126-13.615,13.615v4.862H321.353z"/>
							</g>
						</g>
					</g>
					<g id="XMLID_592_">
						<g id="XMLID_593_">
							<g id="XMLID_594_">
								<path id="XMLID_595_" style="fill:#29157F;" d="M305.682,261.503c-7.336,0-13.304-5.968-13.304-13.303
									c0-7.336,5.968-13.305,13.304-13.305c7.336,0,13.304,5.968,13.304,13.305C318.986,255.535,313.018,261.503,305.682,261.503z
									"/>
							</g>
						</g>
					</g>
					<g id="XMLID_588_">
						<g id="XMLID_589_">
							<g id="XMLID_590_">
								<circle id="XMLID_591_" style="fill:#0E003F;" cx="305.682" cy="248.2" r="10.495"/>
							</g>
						</g>
					</g>
				</g>
			</g>
			<g id="XMLID_486_">
				<g id="XMLID_487_">
					<g id="XMLID_582_">
						<g id="XMLID_583_">
							<g id="XMLID_584_">
								<path id="XMLID_585_" style="fill:#0E003F;" d="M349.067,274.334v-3.296c0-5.077-4.153-9.23-9.23-9.23h-2.788
									c-5.076,0-9.23,4.153-9.23,9.23v3.296H349.067z"/>
							</g>
						</g>
					</g>
					<g id="XMLID_522_">
						<g id="XMLID_547_">
							<g id="XMLID_549_">
								<path id="XMLID_581_" style="fill:#29157F;" d="M338.443,265.828c-4.974,0-9.019-4.046-9.019-9.019
									c0-4.974,4.046-9.02,9.019-9.02c4.973,0,9.019,4.046,9.019,9.02C347.463,261.781,343.417,265.828,338.443,265.828z"/>
							</g>
						</g>
					</g>
					<g id="XMLID_488_">
						<g id="XMLID_489_">
							<g id="XMLID_490_">
								<circle id="XMLID_513_" style="fill:#0E003F;" cx="338.443" cy="256.809" r="7.115"/>
							</g>
						</g>
					</g>
				</g>
			</g>
		</g>
		<g id="XMLID_483_">
			<path id="XMLID_484_" style="fill:#0E003F;" d="M258.977,158.545h6.873c0.341,0,0.617-0.276,0.617-0.618v-4.964
				c0-0.504-0.571-0.796-0.979-0.501l-6.873,4.964C258.13,157.778,258.378,158.545,258.977,158.545z"/>
		</g>
		<g id="XMLID_469_">
			<g id="XMLID_481_">
				<path id="XMLID_482_" style="fill:#0E003F;" d="M198.839,214.965v-12.029c0-2.761,2.239-5,5-5h20.841c2.761,0,5,2.239,5,5
					v12.029c0,2.761-2.239,5-5,5h-20.841C201.077,219.965,198.839,217.726,198.839,214.965z"/>
			</g>
			<g id="XMLID_479_">
				<path id="XMLID_480_" style="fill:#29157F;" d="M225.835,218.121h-23.152c-1.1,0-2-0.9-2-2V201.78c0-1.1,0.9-2,2-2h23.152
					c1.1,0,2,0.9,2,2v14.341C227.835,217.221,226.935,218.121,225.835,218.121z"/>
			</g>
			<g id="XMLID_477_">
				<path id="XMLID_478_" style="fill:#29157F;" d="M201.913,199.78c-0.192,0-0.372,0.049-0.534,0.128l0.088,0.279l13.219,8.763
					l12.3-8.456l-0.003-0.649c-0.119-0.039-0.244-0.065-0.376-0.065H201.913z"/>
			</g>
			<g id="XMLID_475_">
				<line id="XMLID_476_" style="fill:#231F20;" x1="200.299" y1="199.78" x2="214.259" y2="209.243"/>
			</g>
			<g id="XMLID_470_">
				<g id="XMLID_473_">
					<line id="XMLID_474_" style="fill:#231F20;" x1="214.259" y1="209.243" x2="228.318" y2="199.578"/>
				</g>
				<g id="XMLID_471_">
					<path id="XMLID_472_" style="fill:#0E003F;" d="M229.783,197.233l-14.913,10.253c-0.378,0.26-0.876,0.261-1.255,0.004
						l-14.784-10.022c-0.509-0.345-1.201-0.212-1.546,0.297h0c-0.348,0.514-0.209,1.214,0.31,1.555l16.295,10.709
						c0.378,0.248,0.869,0.243,1.241-0.013l15.921-10.936c0.507-0.348,0.635-1.041,0.287-1.548l-0.008-0.012
						C230.982,197.014,230.289,196.885,229.783,197.233z"/>
				</g>
			</g>
		</g>
		<g id="XMLID_430_">
			<g id="XMLID_462_">
				<g id="XMLID_467_">
					<path id="XMLID_468_" style="fill:#29157F;" d="M321.932,159.404c-2.534,0.731-5.19-0.737-5.921-3.271l-16.666-57.8
						c-0.731-2.534,0.737-5.19,3.271-5.921l34.607-9.979c1.231-0.355,2.575-0.196,3.687,0.437l15.106,8.574
						c1.092,0.62,1.886,1.627,2.235,2.835l13.224,45.862c0.731,2.534-0.737,5.19-3.271,5.921L321.932,159.404z"/>
				</g>
				<g id="XMLID_465_">
					<path id="XMLID_466_" style="fill:#0E003F;" d="M302.663,98.702l15.96,55.352c0.416,1.442,1.922,2.274,3.364,1.858
						l44.311-12.777c1.442-0.416,2.274-1.922,1.858-3.364l-12.664-43.919c-0.197-0.682-0.652-1.26-1.27-1.61l-14.467-8.212
						c-0.636-0.361-1.391-0.451-2.094-0.248l-33.141,9.556C303.079,95.754,302.247,97.26,302.663,98.702z"/>
				</g>
				<g id="XMLID_463_">
					<path id="XMLID_464_" style="fill:#0E003F;" d="M338.382,85.456l1.516,10.733c0.145,1.023,1.128,1.707,2.137,1.488
						l13.252-2.882L338.382,85.456z"/>
				</g>
			</g>
			<g id="XMLID_460_">
				<path id="XMLID_461_" style="fill:#29157F;" d="M363.244,140.482c-4.312,0.256-4.283-6.443,0-6.697
					c5.568-0.331,11.136-0.136,16.704-0.024v-32.039c0-1.478-0.57-2.876-1.602-3.933l-14.283-14.618
					c-1.051-1.078-2.519-1.696-4.026-1.696h-42.379c-3.103,0-5.628,2.525-5.628,5.628v70.779c0,3.103,2.525,5.628,5.628,5.628
					h35.859v-10.293c0-4.317,6.697-4.309,6.697,0v10.293h14.106c3.103,0,5.628-2.525,5.628-5.628v-17.424
					C374.38,140.346,368.812,140.151,363.244,140.482z"/>
			</g>
			<g id="XMLID_458_">
				<path id="XMLID_459_" style="fill:#0E003F;" d="M314.32,87.103v70.779c0,1.844,1.495,3.339,3.339,3.339h56.662
					c1.844,0,3.339-1.495,3.339-3.339v-56.16c0-0.872-0.341-1.709-0.951-2.333L362.425,84.77c-0.628-0.643-1.489-1.005-2.388-1.005
					h-42.378C315.814,83.764,314.32,85.259,314.32,87.103z"/>
			</g>
			<g id="XMLID_456_">
				<path id="XMLID_457_" style="fill:#29157F;" d="M318.654,157.651c-0.558,0-1.012-0.454-1.012-1.012V88.347
					c0-0.558,0.454-1.012,1.012-1.012h40.889c0.27,0,0.535,0.111,0.723,0.303l13.781,14.107c0.187,0.191,0.289,0.441,0.289,0.708
					v54.186c0,0.558-0.454,1.012-1.012,1.012H318.654z"/>
			</g>
			<g id="XMLID_454_">
				<path id="XMLID_455_" style="fill:#0E003F;" d="M360.362,85.27l-1.784,12.628c-0.17,1.203,0.718,2.297,1.931,2.378l15.922,1.061
					L360.362,85.27z"/>
			</g>
			<g id="XMLID_452_">
				<path id="XMLID_453_" style="fill:#0E003F;" d="M353.732,100.372h-15.486c-0.39,0-0.708-0.319-0.708-0.708v-0.686
					c0-0.39,0.319-0.708,0.708-0.708h15.486c0.39,0,0.708,0.319,0.708,0.708v0.686C354.44,100.053,354.122,100.372,353.732,100.372z
					"/>
			</g>
			<g id="XMLID_450_">
				<path id="XMLID_451_" style="fill:#0E003F;" d="M332.333,149.623h-8.836c-0.39,0-0.708-0.319-0.708-0.708v-0.686
					c0-0.39,0.319-0.708,0.708-0.708h8.836c0.39,0,0.708,0.319,0.708,0.708v0.686C333.041,149.304,332.723,149.623,332.333,149.623z
					"/>
			</g>
			<g id="XMLID_448_">
				<path id="XMLID_449_" style="fill:#0E003F;" d="M368.481,149.623h-14.33c-0.39,0-0.708-0.319-0.708-0.708v-0.686
					c0-0.39,0.319-0.708,0.708-0.708h14.33c0.39,0,0.708,0.319,0.708,0.708v0.686C369.19,149.304,368.871,149.623,368.481,149.623z"
					/>
			</g>
			<g id="XMLID_446_">
				<path id="XMLID_447_" style="fill:#0E003F;" d="M368.481,113.109h-44.984c-0.39,0-0.708-0.319-0.708-0.708v-0.686
					c0-0.39,0.319-0.708,0.708-0.708h44.984c0.39,0,0.708,0.319,0.708,0.708v0.686C369.19,112.79,368.871,113.109,368.481,113.109z"
					/>
			</g>
			<g id="XMLID_444_">
				<path id="XMLID_445_" style="fill:#0E003F;" d="M368.481,136.542h-44.984c-0.39,0-0.708-0.319-0.708-0.708v-0.686
					c0-0.39,0.319-0.708,0.708-0.708h44.984c0.39,0,0.708,0.319,0.708,0.708v0.686C369.19,136.223,368.871,136.542,368.481,136.542z
					"/>
			</g>
			<g id="XMLID_439_">
				<g id="XMLID_442_">
					<path id="XMLID_443_" style="fill:#0E003F;" d="M330.909,120.92h-7.411c-0.39,0-0.708-0.319-0.708-0.708v-0.686
						c0-0.39,0.319-0.708,0.708-0.708h7.411c0.39,0,0.708,0.319,0.708,0.708v0.686C331.617,120.601,331.298,120.92,330.909,120.92z"
						/>
				</g>
				<g id="XMLID_440_">
					<path id="XMLID_441_" style="fill:#0E003F;" d="M364.821,120.92H337.87c-0.39,0-0.708-0.319-0.708-0.708v-0.686
						c0-0.39,0.319-0.708,0.708-0.708h26.951c0.39,0,0.708,0.319,0.708,0.708v0.686C365.529,120.601,365.21,120.92,364.821,120.92z"
						/>
				</g>
			</g>
			<g id="XMLID_431_">
				<g id="XMLID_434_">
					<path id="XMLID_435_" style="fill:#0E003F;" d="M342.966,128.731h-19.469c-0.39,0-0.708-0.319-0.708-0.708v-0.686
						c0-0.39,0.319-0.708,0.708-0.708h19.469c0.39,0,0.708,0.319,0.708,0.708v0.686
						C343.675,128.412,343.356,128.731,342.966,128.731z"/>
				</g>
				<g id="XMLID_432_">
					<path id="XMLID_433_" style="fill:#0E003F;" d="M367.968,128.731h-19.469c-0.39,0-0.708-0.319-0.708-0.708v-0.686
						c0-0.39,0.319-0.708,0.708-0.708h19.469c0.39,0,0.708,0.319,0.708,0.708v0.686
						C368.676,128.412,368.357,128.731,367.968,128.731z"/>
				</g>
			</g>
		</g>
		<g id="XMLID_402_">
			<g id="XMLID_428_">
				<path id="XMLID_429_" style="fill:#29157F;" d="M407.503,198.984h-36.475c-1.288,0-2.331-1.044-2.331-2.331v-17.077
					c0-1.288,1.044-2.331,2.331-2.331h36.475c1.288,0,2.331,1.044,2.331,2.331v17.077
					C409.834,197.94,408.79,198.984,407.503,198.984z"/>
			</g>
			<g id="XMLID_426_">
				<rect id="XMLID_427_" x="390.792" y="177.895" style="fill:#0E003F;" width="0" height="0"/>
			</g>
			<g id="XMLID_424_">
				<path id="XMLID_425_" style="fill:#0E003F;" d="M390.638,177.905c-0.014,0-0.027,0.004-0.042,0.007l0,0
					C390.612,177.908,390.625,177.905,390.638,177.905L390.638,177.905z"/>
			</g>
			<g id="XMLID_422_">
				<path id="XMLID_423_" style="fill:#0E003F;" d="M390.441,177.942c-0.011,0.006-0.021,0.009-0.033,0.012h-0.001
					C390.419,177.951,390.427,177.948,390.441,177.942L390.441,177.942z"/>
			</g>
			<g id="XMLID_420_">
				<path id="XMLID_421_" style="fill:#0E003F;" d="M390.297,177.995c-0.01,0.003-0.021,0.01-0.03,0.013l0,0
					C390.276,178.004,390.287,177.997,390.297,177.995L390.297,177.995z"/>
			</g>
			<g id="XMLID_418_">
				<path id="XMLID_419_" style="fill:#0E003F;" d="M390.159,178.063c-0.006,0.003-0.01,0.007-0.018,0.01l0,0
					C390.148,178.07,390.153,178.066,390.159,178.063L390.159,178.063z"/>
			</g>
			<g id="XMLID_416_">
				<path id="XMLID_417_" style="fill:#0E003F;" d="M390.07,178.123c-0.007,0.004-0.013,0.01-0.018,0.013l0,0
					C390.057,178.132,390.063,178.126,390.07,178.123L390.07,178.123z"/>
			</g>
			<g id="XMLID_414_">
				<rect id="XMLID_415_" x="389.992" y="178.185" style="fill:#0E003F;" width="0" height="0.005"/>
			</g>
			<g id="XMLID_412_">
				<rect id="XMLID_413_" x="389.951" y="178.223" style="fill:#0E003F;" width="0" height="0.009"/>
			</g>
			<g id="XMLID_410_">
				<path id="XMLID_411_" style="fill:#29157F;" d="M394.586,198.023c0,0,5.058,4.657-0.369,10.692
					c-0.794,0.883,0.338,1.364,1.212,0.789c2.436-1.602,6.902-4.992,5.419-11.352"/>
			</g>
			<g id="XMLID_403_">
				<g id="XMLID_408_">
					<circle id="XMLID_409_" style="fill:#0E003F;" cx="378.489" cy="188.114" r="2.687"/>
				</g>
				<g id="XMLID_406_">
					<circle id="XMLID_407_" style="fill:#0E003F;" cx="389.265" cy="188.114" r="2.687"/>
				</g>
				<g id="XMLID_404_">
					<circle id="XMLID_405_" style="fill:#0E003F;" cx="400.042" cy="188.114" r="2.687"/>
				</g>
			</g>
		</g>
		<g id="XMLID_398_">
			<path id="XMLID_399_" style="fill:#29157F;" d="M64.07,212.352c-2.11,0-3.826-1.716-3.826-3.827c0-2.11,1.716-3.827,3.826-3.827
				c2.11,0,3.827,1.717,3.827,3.827C67.897,210.636,66.18,212.352,64.07,212.352z M64.07,206.363c-1.193,0-2.162,0.971-2.162,2.163
				c0,1.193,0.97,2.163,2.162,2.163s2.163-0.97,2.163-2.163C66.233,207.333,65.263,206.363,64.07,206.363z"/>
		</g>
		<g id="XMLID_393_">
			<g id="XMLID_394_">
				<path id="XMLID_395_" style="fill:#0E003F;" d="M120.849,222.264c-2.11,0-3.826-1.716-3.826-3.827
					c0-2.11,1.716-3.827,3.826-3.827c2.11,0,3.827,1.716,3.827,3.827C124.677,220.547,122.96,222.264,120.849,222.264z
					 M120.849,216.274c-1.193,0-2.162,0.97-2.162,2.163c0,1.193,0.969,2.163,2.162,2.163c1.193,0,2.163-0.97,2.163-2.163
					C123.013,217.244,122.042,216.274,120.849,216.274z"/>
			</g>
		</g>
		<g id="XMLID_388_">
			<g id="XMLID_389_">
				<path id="XMLID_390_" style="fill:#29157F;" d="M193.265,176.128c-2.11,0-3.826-1.716-3.826-3.827
					c0-2.11,1.716-3.827,3.826-3.827c2.11,0,3.827,1.716,3.827,3.827C197.092,174.411,195.376,176.128,193.265,176.128z
					 M193.265,170.139c-1.193,0-2.162,0.97-2.162,2.163c0,1.193,0.969,2.163,2.162,2.163c1.193,0,2.163-0.97,2.163-2.163
					C195.429,171.109,194.458,170.139,193.265,170.139z"/>
			</g>
		</g>
		<g id="XMLID_383_">
			<g id="XMLID_384_">
				<path id="XMLID_385_" style="fill:#29157F;" d="M101.223,138.963c-2.11,0-3.826-1.716-3.826-3.827
					c0-2.11,1.716-3.827,3.826-3.827s3.827,1.716,3.827,3.827C105.05,137.247,103.333,138.963,101.223,138.963z M101.223,132.974
					c-1.193,0-2.162,0.97-2.162,2.163c0,1.193,0.97,2.163,2.162,2.163s2.163-0.97,2.163-2.163
					C103.387,133.944,102.416,132.974,101.223,132.974z"/>
			</g>
		</g>
		<g id="XMLID_378_">
			<g id="XMLID_379_">
				<path id="XMLID_380_" style="fill:#29157F;" d="M254.531,95.413c-2.11,0-3.826-1.716-3.826-3.827
					c0-2.11,1.716-3.827,3.826-3.827c2.11,0,3.827,1.716,3.827,3.827C258.358,93.697,256.641,95.413,254.531,95.413z
					 M254.531,89.424c-1.193,0-2.162,0.97-2.162,2.163c0,1.193,0.969,2.163,2.162,2.163c1.193,0,2.163-0.97,2.163-2.163
					C256.694,90.394,255.724,89.424,254.531,89.424z"/>
			</g>
		</g>
		<g id="XMLID_373_">
			<g id="XMLID_374_">
				<path id="XMLID_375_" style="fill:#29157F;" d="M235.732,279.146c-3.025,0-5.484-2.46-5.484-5.485
					c0-3.025,2.46-5.485,5.484-5.485c3.025,0,5.486,2.46,5.486,5.485C241.218,276.686,238.757,279.146,235.732,279.146z
					 M235.732,270.561c-1.71,0-3.099,1.39-3.099,3.1c0,1.71,1.39,3.1,3.099,3.1c1.71,0,3.101-1.39,3.101-3.1
					C238.833,271.952,237.442,270.561,235.732,270.561z"/>
			</g>
		</g>
		<g id="XMLID_334_">
			<g id="XMLID_335_">
				<path id="XMLID_370_" style="fill:#29157F;" d="M160.459,257.563c-2.11,0-3.826-1.716-3.826-3.827
					c0-2.11,1.716-3.827,3.826-3.827c2.11,0,3.827,1.716,3.827,3.827C164.286,255.846,162.569,257.563,160.459,257.563z
					 M160.459,251.573c-1.193,0-2.162,0.97-2.162,2.163c0,1.193,0.969,2.163,2.162,2.163c1.193,0,2.163-0.97,2.163-2.163
					C162.622,252.543,161.652,251.573,160.459,251.573z"/>
			</g>
		</g>
		<g id="XMLID_328_">
			<g id="XMLID_329_">
				<path id="XMLID_330_" style="fill:#29157F;" d="M292.377,191.629c-2.11,0-3.826-1.716-3.826-3.827s1.716-3.827,3.826-3.827
					s3.827,1.716,3.827,3.827S294.487,191.629,292.377,191.629z M292.377,185.64c-1.193,0-2.162,0.97-2.162,2.163
					c0,1.193,0.969,2.163,2.162,2.163s2.163-0.97,2.163-2.163C294.541,186.61,293.57,185.64,292.377,185.64z"/>
			</g>
		</g>
		<g id="XMLID_309_">
			<g id="XMLID_316_">
				<path id="XMLID_322_" style="fill:#29157F;" d="M410.111,156.171c-2.11,0-3.826-1.716-3.826-3.827
					c0-2.11,1.716-3.827,3.826-3.827s3.827,1.716,3.827,3.827C413.938,154.455,412.221,156.171,410.111,156.171z M410.111,150.182
					c-1.193,0-2.162,0.97-2.162,2.163c0,1.193,0.97,2.163,2.162,2.163s2.163-0.97,2.163-2.163
					C412.275,151.152,411.304,150.182,410.111,150.182z"/>
			</g>
		</g>
		<g id="XMLID_307_">
			<path id="XMLID_308_" style="fill:#0E003F;" d="M83.635,190.706H68.568c-0.459,0-0.832-0.373-0.832-0.832
				s0.373-0.832,0.832-0.832h15.067c0.459,0,0.832,0.373,0.832,0.832S84.094,190.706,83.635,190.706z"/>
		</g>
		<g id="XMLID_237_">
			<path id="XMLID_275_" style="fill:#0E003F;" d="M148.156,219.269h-24.311c-0.459,0-0.832-0.373-0.832-0.832
				c0-0.459,0.373-0.832,0.832-0.832h24.311c0.459,0,0.832,0.373,0.832,0.832C148.988,218.896,148.615,219.269,148.156,219.269z"/>
		</g>
		<g id="XMLID_232_">
			<path id="XMLID_233_" style="fill:#0E003F;" d="M148.156,212.049h-17.193c-0.459,0-0.832-0.373-0.832-0.832
				s0.373-0.832,0.832-0.832h17.193c0.459,0,0.832,0.373,0.832,0.832S148.615,212.049,148.156,212.049z"/>
		</g>
		<g id="XMLID_230_">
			<circle id="XMLID_231_" style="fill:#29157F;" cx="177.638" cy="227.139" r="1.476"/>
		</g>
		<g id="XMLID_227_">
			<circle id="XMLID_229_" style="fill:#29157F;" cx="242.858" cy="186.326" r="1.476"/>
		</g>
		<g id="XMLID_223_">
			<circle id="XMLID_224_" style="fill:#29157F;" cx="206.76" cy="236.938" r="1.476"/>
		</g>
		<g id="XMLID_220_">
			<circle id="XMLID_222_" style="fill:#29157F;" cx="292.38" cy="128.731" r="1.476"/>
		</g>
		<g id="XMLID_213_">
			<circle id="XMLID_214_" style="fill:#29157F;" cx="346.681" cy="60.183" r="1.476"/>
		</g>
		<g id="XMLID_211_">
			<circle id="XMLID_212_" style="fill:#29157F;" cx="374.529" cy="47.336" r="1.476"/>
		</g>
		<g id="XMLID_208_">
			<circle id="XMLID_210_" style="fill:#29157F;" cx="341.287" cy="179.613" r="1.476"/>
		</g>
		<g id="XMLID_203_">
			<circle id="XMLID_207_" style="fill:#29157F;" cx="135.857" cy="154.881" r="2.537"/>
		</g>
		<g id="XMLID_198_">
			<circle id="XMLID_199_" style="fill:#29157F;" cx="431.659" cy="66.748" r="2.537"/>
		</g>
		<g id="XMLID_196_">
			<circle id="XMLID_197_" style="fill:#29157F;" cx="353.331" cy="171.226" r="2.537"/>
		</g>
		<g id="XMLID_191_">
			<circle id="XMLID_192_" style="fill:#29157F;" cx="375.32" cy="66.748" r="2.537"/>
		</g>
		<g id="XMLID_170_">
			
				<rect id="XMLID_171_" x="177.366" y="36.624" transform="matrix(0.2716 0.9624 -0.9624 0.2716 238.9352 -88.4774)" style="fill:#29157F;" width="1.109" height="153.98"/>
		</g>
		<g id="XMLID_168_">
			<polygon id="XMLID_169_" style="fill:#29157F;" points="292.935,185.64 291.825,185.64 291.825,128.964 256.307,94.145 
				257.083,93.353 292.935,128.498 			"/>
		</g>
		<g id="XMLID_161_">
			<rect id="XMLID_166_" x="100.669" y="138.963" style="fill:#29157F;" width="1.109" height="31.464"/>
		</g>
		<g id="XMLID_159_">
			<rect id="XMLID_160_" x="296.205" y="187.335" style="fill:#29157F;" width="72.985" height="1.109"/>
		</g>
		<g id="XMLID_156_">
			<rect id="XMLID_157_" x="291.823" y="190.153" style="fill:#29157F;" width="1.109" height="24.037"/>
		</g>
		<g id="XMLID_154_">
			<rect id="XMLID_155_" x="154.236" y="205.681" style="fill:#29157F;" width="47.142" height="1.109"/>
		</g>
		<g id="XMLID_150_">
			<polygon id="XMLID_151_" style="fill:#29157F;" points="243.413,210.766 228.318,210.766 228.318,209.657 242.304,209.657 
				242.304,165.569 243.413,165.569 			"/>
		</g>
	</g>
</g>
<g id="Layer_1">
</g>
</svg>
