<?xml version="1.0" encoding="iso-8859-1"?>
<!-- Generator: Adobe Illustrator 19.0.0, SVG Export Plug-In . SVG Version: 6.00 Build 0)  -->
<svg version="1.1" xmlns="http://www.w3.org/2000/svg" xmlns:xlink="http://www.w3.org/1999/xlink" x="0px" y="0px"
	 viewBox="0 0 127.264 198.13" style="enable-background:new 0 0 127.264 198.13;" xml:space="preserve">
<g id="online_x5F_privacy">
	<g id="XMLID_2026_">
		<g id="XMLID_2121_">
			<g id="XMLID_2294_">
				<path id="XMLID_2299_" style="fill:#040026;" d="M58.712,38.823L50.489,6.082c0,0,15.275-13.864,30.562,0.272l-7.39,32.463
					L58.712,38.823z"/>
				<path id="XMLID_2298_" style="fill:#29157F;" d="M50.489,6.082l8.218,32.72c1.702-0.523,3.121-0.972,3.121-0.972l-2.252-13.732
					C57.705,12.683,69.13,3.296,79.754,7.871c0.292,0.126,0.579,0.259,0.861,0.401l0.437-1.918
					C65.764-7.782,50.489,6.082,50.489,6.082z"/>
			</g>
			<ellipse id="XMLID_2288_" style="fill:#7972C4;" cx="65.684" cy="163.018" rx="48.82" ry="26.892"/>
			<path id="XMLID_2285_" style="fill:#0E003F;" d="M45.199,148.564c0,0-10.667,17.167-10.667,34.333c0,0,9.667,5.667,10.667,5.667
				s17.833,1.5,19.5,1.333c1.667-0.167,4.667-0.333,8-0.5c3.333-0.167,10.333-0.833,11.667-1.167c1.333-0.333,18.5-5.5,18.5-5.5
				l-2.667,1.5c0,0-1.167-26.167-14-37.667C73.119,134.843,45.199,148.564,45.199,148.564z"/>
			<path id="XMLID_2278_" style="fill:#B4B4EF;" d="M66.526,125.48c-32.045,0-58.023,15.278-58.023,34.125
				c0,18.847,25.978,34.125,58.023,34.125c32.045,0,58.023-15.278,58.023-34.125C124.549,140.759,98.571,125.48,66.526,125.48z
				 M66.526,187.048c-30.234,0-54.743-13.279-54.743-29.659c0-16.38,24.509-29.659,54.743-29.659
				c30.234,0,54.743,13.279,54.743,29.659C121.269,173.769,96.76,187.048,66.526,187.048z"/>
			<path id="XMLID_2275_" style="fill:none;" d="M64.836,126.991c-31.621,0-57.733,12.74-61.847,29.26
				c9.052-11.915,29.364-20.223,52.988-20.223c32.045,0,58.023,15.278,58.023,34.125c0,5.405-2.145,10.513-5.948,15.055
				c11.834-6.155,19.212-14.806,19.212-24.395C127.264,142.134,99.314,126.991,64.836,126.991z"/>
			<path id="XMLID_2257_" style="fill:none;" d="M110.721,167.938c0-16.38-24.51-29.659-54.743-29.659
				c-26.293,0-48.248,10.045-53.527,23.436c0.885,18.261,28.466,32.921,62.386,32.921c7.668,0,15.01-0.753,21.797-2.123
				C101.167,187.18,110.721,178.164,110.721,167.938z"/>
			<path id="XMLID_2256_" style="fill:#B4B4EF;" d="M2.331,158.575c-0.683,1.01-1.235,2.095-1.627,3.259
				c-3.924,11.657,8.962,26.517,28.784,33.19c5.297,1.783,10.55,2.794,15.484,3.106c-3.149-0.599-6.359-1.427-9.583-2.513
				C13.238,188.16-1.306,171.74,2.331,158.575z"/>
			<g id="XMLID_2250_">
				<path id="XMLID_2255_" style="fill:#FF7857;" d="M35.452,103.339c0.497,8.935-3.776,16.457-9.544,16.8
					c-5.767,0.343-10.845-6.622-11.342-15.557s3.776-16.457,9.544-16.8C29.877,87.438,34.955,94.404,35.452,103.339z"/>
				<path id="XMLID_2254_" style="fill:#1987BD;" d="M97.044,103.339c-0.497,8.935,3.776,16.457,9.544,16.8
					c5.767,0.343,10.845-6.622,11.342-15.557s-3.776-16.457-9.544-16.8C102.619,87.438,97.541,94.404,97.044,103.339z"/>
				<path id="XMLID_2253_" style="fill:#1987BD;" d="M29.117,116.346c-1.647-4.818-2.656-10.016-2.907-15.441
					c-1.673-36.171,18.062-45.043,40.342-45.043s41.465,6.679,40.342,45.043c-0.159,5.425-1.125,10.617-2.746,15.434
					c0.197-0.003,0.392,0.014,0.584,0.05c3.114-6.252,4.887-13.356,4.887-20.901c0-24.973-19.281-45.218-43.066-45.218
					S23.486,70.515,23.486,95.488c0,7.543,1.763,14.652,4.873,20.904C28.607,116.344,28.861,116.328,29.117,116.346z"/>
				<path id="XMLID_2252_" style="fill:#1987BD;" d="M104.731,116.389c-0.191-0.036-0.386-0.053-0.584-0.05
					c-0.587,0.009-1.184,0.192-1.697,0.6l-17.139,13.598c-0.488,0.387-1.111,0.6-1.756,0.6H49.548c-0.644,0-1.267-0.213-1.756-0.6
					l-17.139-13.598c-0.467-0.371-1.003-0.555-1.537-0.593c-0.256-0.018-0.51-0.002-0.758,0.046
					c-1.163,0.226-2.149,1.142-2.149,2.421v16.579c0,0.709,0.33,1.384,0.907,1.854l18.502,15.057c0.491,0.4,1.125,0.621,1.781,0.621
					h2.148h34.008h2.148c0.656,0,1.289-0.221,1.781-0.621l18.502-15.057c0.577-0.47,0.907-1.145,0.907-1.854v-16.579
					C106.894,117.53,105.9,116.611,104.731,116.389z"/>
				<path id="XMLID_2251_" style="fill:#1987BD;" d="M58.941,57.074l4.821,3.541c1.662,1.221,3.896,1.192,5.529-0.071l4.292-3.32
					c0.904-0.7,1.535-1.713,1.775-2.854l2.566-12.167c0.435-2.063-0.464-4.182-2.232-5.238c-4.111-2.458-12.067-5.399-20.368,1.432
					c-1.525,1.255-2.133,3.367-1.535,5.286l3.401,10.92C57.501,55.601,58.115,56.467,58.941,57.074z"/>
			</g>
			<path id="XMLID_2249_" style="fill:#42B9E0;" d="M71.181,131.137H49.548c-0.644,0-1.267-0.213-1.756-0.6l-16.543-13.126
				c2.822-3.026,4.526-8.248,4.203-14.072c-0.423-7.613-4.173-13.793-8.841-15.243c2.666-21.768,15.746-29.851,31.555-31.758
				c0.233,0.271,0.485,0.524,0.775,0.737l4.821,3.541c1.662,1.221,3.896,1.192,5.529-0.071l1.89-1.462V34.941
				c-4.288-1.317-9.985-1.377-15.857,3.456c-1.525,1.255-2.133,3.367-1.535,5.286l2.46,7.899
				c-16.481,4.249-29.224,18.454-32.128,36.199c-0.004,0-0.008,0-0.012,0c-5.767,0.343-10.04,7.864-9.544,16.8
				c0.496,8.935,5.574,15.9,11.342,15.557c0.102-0.006,0.202-0.02,0.302-0.03v15.284c0,0.709,0.33,1.384,0.907,1.854l18.502,15.057
				c0.491,0.4,1.125,0.621,1.781,0.621h2.148h21.634V131.137z"/>
			<path id="XMLID_2248_" style="fill:#FFFAFF;" d="M23.483,91.249c-0.001-0.007-0.001-0.014-0.002-0.02
				c-0.058-0.692-0.803-1.096-1.417-0.772c-3.135,1.649-5.386,6.147-5.386,11.45c0,1.308,0.141,2.566,0.394,3.747
				c-0.055-0.573-0.093-1.154-0.093-1.749c0-5.61,2.519-10.323,5.938-11.711C23.291,92.04,23.516,91.651,23.483,91.249z"/>
			<path id="XMLID_2247_" style="fill:#FFFAFF;" d="M26.638,89.535c0.085,0.768,0.151,1.539,0.192,2.315
				c3.848,0.442,7.044,4.399,8.192,9.753C34.407,95.177,30.951,90.143,26.638,89.535z"/>
			<path id="XMLID_2246_" style="fill:#29157F;" d="M44.663,161.585c-1.091,3.484-2.331,8.858-2.213,15.044
				c0.003,0.181,0.074,0.351,0.2,0.481c0.866,0.902,4.867,4.315,16.555,5.33c0.861,0.075,1.073-1.169,0.233-1.372
				c-6.16-1.488-13.84-3.756-14.039-5.845l0.626-13.394C46.062,161.012,44.907,160.805,44.663,161.585z"/>
			<path id="XMLID_2245_" style="fill:#FFFAFF;" d="M28.862,133.393l-0.134-9.333c-0.021-1.478,1.679-2.321,2.842-1.41l10.008,7.832
				c0.433,0.339,0.682,0.86,0.675,1.409l-0.138,9.944c-0.021,1.496-1.781,2.284-2.911,1.304l-9.736-8.443
				C29.09,134.368,28.869,133.894,28.862,133.393z"/>
			<path id="XMLID_2244_" style="fill:#FFFAFF;" d="M46.63,145.723L46.63,145.723c-0.413,0-0.75-0.337-0.75-0.75v-11.301
				c0-0.413,0.337-0.75,0.75-0.75h0c0.412,0,0.75,0.337,0.75,0.75v11.301C47.38,145.386,47.043,145.723,46.63,145.723z"/>
			<rect id="XMLID_2241_" x="70.431" y="131.137" style="fill:#006589;" width="1.5" height="21.786"/>
			<path id="XMLID_2240_" style="fill:#006589;" d="M70.431,59.662l1.5-1.16V35.187c-0.48-0.17-0.982-0.323-1.5-0.459V59.662z"/>
			<path id="XMLID_2239_" style="fill:#040026;" d="M66.552,55.862c-22.28,0-42.014,8.872-40.342,45.043
				c0.251,5.424,1.26,10.623,2.907,15.441c0.534,0.038,1.07,0.222,1.537,0.593l17.139,13.598c0.488,0.387,1.111,0.6,1.756,0.6
				h34.008c0.644,0,1.267-0.213,1.756-0.6l17.139-13.598c0.514-0.408,1.111-0.591,1.697-0.6c1.621-4.817,2.588-10.009,2.746-15.434
				C108.016,62.541,88.832,55.862,66.552,55.862z"/>
			<path id="XMLID_2238_" style="fill:#FFFAFF;" d="M51.729,108.716c2.812,0,5.406,1.182,7.492,3.178
				c0.725,0.693,1.762-0.309,1.242-1.204c-2.067-3.562-5.21-5.837-8.735-5.837c-3.525,0-6.667,2.275-8.735,5.837
				c-0.519,0.895,0.518,1.897,1.242,1.204C46.324,109.899,48.918,108.716,51.729,108.716z"/>
			<path id="XMLID_2157_" style="fill:#FFFAFF;" d="M80.056,108.716c2.812,0,5.406,1.182,7.492,3.178
				c0.725,0.693,1.762-0.309,1.242-1.204c-2.067-3.562-5.21-5.837-8.735-5.837s-6.667,2.275-8.735,5.837
				c-0.519,0.895,0.518,1.897,1.242,1.204C74.651,109.899,77.245,108.716,80.056,108.716z"/>
			<polygon id="XMLID_2156_" style="fill:#29157F;" points="35.866,116.814 48.949,127.73 83.449,127.73 97.449,117.564 
				82.866,125.98 49.616,125.98 			"/>
			<path id="XMLID_2142_" style="fill:#29157F;" d="M66.546,59.641c-19.815,0-37.366,7.89-35.878,40.06
				c0.014,0.296,0.038,0.589,0.056,0.883c-1.103-31.416,16.306-39.176,35.95-39.176c17.584,0,32.992,4.689,35.574,29.538
				C100.242,64.537,84.529,59.641,66.546,59.641z"/>
			<path id="XMLID_2141_" style="fill:#FFFAFF;" d="M65.938,36.397c0,0-4.664-0.037-8.378,3.01
				c-1.128,0.925-1.656,2.409-1.375,3.841c0.258,1.316,0.791,3.266,1.878,5.983c1.694,4.234,0.931-1.621,0.352-5.342
				c-0.252-1.617,0.493-3.224,1.892-4.073L65.938,36.397z"/>
		</g>
		<circle id="XMLID_2120_" style="fill:#29157F;" cx="66.657" cy="77.093" r="11.376"/>
		<circle id="XMLID_2112_" style="fill:#040026;" cx="66.657" cy="77.093" r="9.973"/>
		<circle id="XMLID_2111_" style="fill:#0E003F;" cx="66.657" cy="77.093" r="6.639"/>
		<circle id="XMLID_2110_" style="fill:#29157F;" cx="66.657" cy="77.093" r="5.949"/>
		<circle id="XMLID_2109_" style="fill:#1987BD;" cx="66.657" cy="77.093" r="4.75"/>
		<circle id="XMLID_2108_" style="fill:#42B9E0;" cx="66.657" cy="77.093" r="3.171"/>
		<circle id="XMLID_2105_" style="fill:#040026;" cx="66.657" cy="77.093" r="2.352"/>
		<circle id="XMLID_2104_" style="fill:#FFFAFF;" cx="67.396" cy="76.382" r="0.739"/>
		<g id="XMLID_2041_">
			<circle id="XMLID_2099_" style="fill:#B4B4EF;" cx="20.115" cy="27.843" r="19.963"/>
			<circle id="XMLID_2054_" style="fill:#EAE5F7;" cx="20.115" cy="27.843" r="15.941"/>
			<circle id="XMLID_2052_" style="fill:#FFFAFF;" cx="20.115" cy="27.843" r="10.64"/>
			<circle id="XMLID_2047_" style="fill:#7972C4;" cx="20.115" cy="27.843" r="7.894"/>
			<circle id="XMLID_2044_" style="fill:#FFFAFF;" cx="18.549" cy="30.323" r="2.479"/>
		</g>
		<g id="XMLID_2028_">
			<circle id="XMLID_2039_" style="fill:#B4B4EF;" cx="106.557" cy="41.552" r="10.947"/>
			<circle id="XMLID_2037_" style="fill:#EAE5F7;" cx="106.557" cy="41.552" r="8.742"/>
			<circle id="XMLID_2035_" style="fill:#FFFAFF;" cx="106.557" cy="41.552" r="5.834"/>
			<circle id="XMLID_2034_" style="fill:#7972C4;" cx="106.557" cy="41.552" r="4.329"/>
			<circle id="XMLID_2030_" style="fill:#FFFAFF;" cx="108.284" cy="42.633" r="1.36"/>
		</g>
	</g>
</g>
<g id="Layer_1">
</g>
</svg>
