<?xml version="1.0" encoding="iso-8859-1"?>
<!-- Generator: Adobe Illustrator 19.0.0, SVG Export Plug-In . SVG Version: 6.00 Build 0)  -->
<svg version="1.1" xmlns="http://www.w3.org/2000/svg" xmlns:xlink="http://www.w3.org/1999/xlink" x="0px" y="0px"
	 viewBox="0 0 19.536 16.28" style="enable-background:new 0 0 19.536 16.28;" xml:space="preserve">
<g id="twitter_x5F_icon_x5F_hover">
	<g id="Icons_6_">
		<g id="Color-_4_" transform="translate(-300.000000, -164.000000)">
			<path id="Twitter_1_" style="fill:#FFFFFF;" d="M319.536,165.927c-0.718,0.327-1.491,0.548-2.301,0.647
				c0.828-0.508,1.463-1.313,1.762-2.273c-0.775,0.47-1.632,0.813-2.547,0.996c-0.729-0.798-1.772-1.297-2.925-1.297
				c-2.212,0-4.007,1.84-4.007,4.11c0,0.322,0.034,0.635,0.103,0.936c-3.331-0.172-6.284-1.806-8.262-4.296
				c-0.345,0.609-0.542,1.316-0.542,2.068c0,1.425,0.708,2.683,1.783,3.421c-0.656-0.02-1.275-0.207-1.816-0.513v0.051
				c0,1.992,1.382,3.654,3.217,4.03c-0.336,0.096-0.69,0.145-1.056,0.145c-0.258,0-0.51-0.025-0.755-0.073
				c0.51,1.632,1.99,2.821,3.744,2.853c-1.371,1.103-3.101,1.76-4.978,1.76c-0.323,0-0.643-0.019-0.956-0.056
				c1.774,1.164,3.882,1.845,6.144,1.845c7.373,0,11.404-6.262,11.404-11.693c0-0.179-0.003-0.357-0.01-0.533
				C318.321,167.475,319.001,166.752,319.536,165.927"/>
		</g>
	</g>
</g>
<g id="Layer_1">
</g>
</svg>
