<?xml version="1.0" encoding="iso-8859-1"?>
<!-- Generator: Adobe Illustrator 19.0.0, SVG Export Plug-In . SVG Version: 6.00 Build 0)  -->
<svg version="1.1" xmlns="http://www.w3.org/2000/svg" xmlns:xlink="http://www.w3.org/1999/xlink" x="0px" y="0px"
	 viewBox="0 0 459.927 318.074" style="enable-background:new 0 0 459.927 318.074;" xml:space="preserve">
<g id="we_x5F_are_x5F_chyperpunks">
	<g id="XMLID_906_">
		<g id="XMLID_1257_">
			<path id="XMLID_1258_" style="fill:#FF7857;" d="M372.667,297.89V81.39c0-0.351-0.288-0.639-0.639-0.639h-0.738
				c-0.351,0-0.639,0.288-0.639,0.639v216.837C371.26,297.908,371.979,297.796,372.667,297.89z"/>
		</g>
		<g id="XMLID_1104_">
			<g id="XMLID_1255_">
				<path id="XMLID_1256_" style="fill:#FF7857;" d="M369.307,89.868c0-2.646,1.084-5.171,2.994-7.003
					c6.109-5.86,20.698-15.867,35.603,3.262c9.241,11.861,20.358,6.957,25.199,3.887c1.065-0.675,2.453,0.088,2.453,1.349v34.42
					c0,3.205-1.64,6.204-4.373,7.878c-7.346,4.501-22.5,10.871-34.129-3.559c-7.143-8.864-18.149-4.643-23.919-1.459
					c-1.723,0.951-3.829-0.294-3.829-2.262V89.868z"/>
			</g>
			<g id="XMLID_1253_">
				<path id="XMLID_1254_" style="fill:#FFE49A;" d="M414.401,137.29c-6.194,0-11.577-2.784-16.001-8.273
					c-3.181-3.946-7.354-5.948-12.404-5.948c-4.914,0-9.733,1.967-13.021,3.698c-0.884,0.465-1.941-0.174-1.941-1.172l0-36.154
					c0-1.869,0.735-3.626,2.07-4.947c2.946-2.914,8.955-7.802,16.094-7.802c6.08,0,11.914,3.532,17.342,10.498
					c4.247,5.451,9.346,8.215,15.156,8.215c4.248,0,8.043-1.507,10.754-2.995c0.621-0.341,1.376,0.109,1.376,0.818l0,33.116
					c0,2.262-1.154,4.339-3.086,5.556C426.84,134.359,420.838,137.289,414.401,137.29z"/>
			</g>
			<g id="XMLID_1156_">
				<g id="XMLID_1157_">
					<defs>
						<path id="XMLID_1158_" d="M414.401,135.562c-5.645,0-10.576-2.567-14.655-7.63c-3.525-4.374-8.151-6.592-13.749-6.592
							c-4.363,0-8.625,1.437-11.901,2.949c-0.622,0.287-1.332-0.159-1.332-0.844V89.441c0-1.404,0.553-2.725,1.557-3.718
							c2.758-2.727,8.358-7.302,14.878-7.302c5.519,0,10.895,3.308,15.978,9.832c4.592,5.893,10.15,8.881,16.52,8.881
							c3.399,0,6.513-0.877,9.095-1.989c0.619-0.267,1.307,0.179,1.307,0.853v30.348c0,1.664-0.852,3.195-2.279,4.094
							C426.111,132.775,420.425,135.561,414.401,135.562L414.401,135.562z"/>
					</defs>
					<clipPath id="XMLID_2_">
						<use xlink:href="#XMLID_1158_"  style="overflow:visible;"/>
					</clipPath>
					<rect id="XMLID_1252_" x="372.763" y="78.42" style="clip-path:url(#XMLID_2_);fill:#29157F;" width="0.658" height="57.141"/>
					<rect id="XMLID_1251_" x="373.421" y="78.42" style="clip-path:url(#XMLID_2_);fill:#29157E;" width="0.658" height="57.141"/>
					<rect id="XMLID_1250_" x="374.079" y="78.42" style="clip-path:url(#XMLID_2_);fill:#28147D;" width="0.658" height="57.141"/>
					<rect id="XMLID_1249_" x="374.738" y="78.42" style="clip-path:url(#XMLID_2_);fill:#28147C;" width="0.658" height="57.141"/>
					<rect id="XMLID_1248_" x="375.396" y="78.42" style="clip-path:url(#XMLID_2_);fill:#27147B;" width="0.658" height="57.141"/>
					<rect id="XMLID_1247_" x="376.054" y="78.42" style="clip-path:url(#XMLID_2_);fill:#27137A;" width="0.658" height="57.141"/>
					<rect id="XMLID_1246_" x="376.712" y="78.42" style="clip-path:url(#XMLID_2_);fill:#261379;" width="0.658" height="57.141"/>
					<rect id="XMLID_1245_" x="377.37" y="78.42" style="clip-path:url(#XMLID_2_);fill:#261378;" width="0.658" height="57.141"/>
					<rect id="XMLID_1244_" x="378.028" y="78.42" style="clip-path:url(#XMLID_2_);fill:#261277;" width="0.658" height="57.141"/>
					<rect id="XMLID_1243_" x="378.687" y="78.42" style="clip-path:url(#XMLID_2_);fill:#251276;" width="0.658" height="57.141"/>
					<rect id="XMLID_1242_" x="379.345" y="78.42" style="clip-path:url(#XMLID_2_);fill:#251275;" width="0.658" height="57.141"/>
					<rect id="XMLID_1241_" x="380.003" y="78.42" style="clip-path:url(#XMLID_2_);fill:#241174;" width="0.658" height="57.141"/>
					<rect id="XMLID_1240_" x="380.661" y="78.42" style="clip-path:url(#XMLID_2_);fill:#241173;" width="0.658" height="57.141"/>
					<rect id="XMLID_1239_" x="381.319" y="78.42" style="clip-path:url(#XMLID_2_);fill:#231172;" width="0.658" height="57.141"/>
					<rect id="XMLID_1238_" x="381.977" y="78.42" style="clip-path:url(#XMLID_2_);fill:#231071;" width="0.658" height="57.141"/>
					<rect id="XMLID_1237_" x="382.635" y="78.42" style="clip-path:url(#XMLID_2_);fill:#231070;" width="0.658" height="57.141"/>
					<rect id="XMLID_1236_" x="383.294" y="78.42" style="clip-path:url(#XMLID_2_);fill:#22106F;" width="0.658" height="57.141"/>
					<rect id="XMLID_1235_" x="383.952" y="78.42" style="clip-path:url(#XMLID_2_);fill:#220F6E;" width="0.658" height="57.141"/>
					<rect id="XMLID_1234_" x="384.61" y="78.42" style="clip-path:url(#XMLID_2_);fill:#210F6D;" width="0.658" height="57.141"/>
					<rect id="XMLID_1233_" x="385.268" y="78.42" style="clip-path:url(#XMLID_2_);fill:#210F6C;" width="0.658" height="57.141"/>
					<rect id="XMLID_1232_" x="385.926" y="78.42" style="clip-path:url(#XMLID_2_);fill:#200E6B;" width="0.658" height="57.141"/>
					<rect id="XMLID_1231_" x="386.584" y="78.42" style="clip-path:url(#XMLID_2_);fill:#200E6A;" width="0.658" height="57.141"/>
					<rect id="XMLID_1230_" x="387.243" y="78.42" style="clip-path:url(#XMLID_2_);fill:#200E69;" width="0.658" height="57.141"/>
					<rect id="XMLID_1229_" x="387.901" y="78.42" style="clip-path:url(#XMLID_2_);fill:#1F0D68;" width="0.658" height="57.141"/>
					<rect id="XMLID_1228_" x="388.559" y="78.42" style="clip-path:url(#XMLID_2_);fill:#1F0D67;" width="0.658" height="57.141"/>
					<rect id="XMLID_1204_" x="389.217" y="78.42" style="clip-path:url(#XMLID_2_);fill:#1E0D66;" width="0.658" height="57.141"/>
					<rect id="XMLID_1203_" x="389.875" y="78.42" style="clip-path:url(#XMLID_2_);fill:#1E0C65;" width="0.658" height="57.141"/>
					<rect id="XMLID_1200_" x="390.533" y="78.42" style="clip-path:url(#XMLID_2_);fill:#1D0C64;" width="0.658" height="57.141"/>
					<rect id="XMLID_1199_" x="391.192" y="78.42" style="clip-path:url(#XMLID_2_);fill:#1D0C63;" width="0.658" height="57.141"/>
					<rect id="XMLID_1198_" x="391.85" y="78.42" style="clip-path:url(#XMLID_2_);fill:#1D0B62;" width="0.658" height="57.141"/>
					<rect id="XMLID_1197_" x="392.508" y="78.42" style="clip-path:url(#XMLID_2_);fill:#1C0B61;" width="0.658" height="57.141"/>
					<rect id="XMLID_1196_" x="393.166" y="78.42" style="clip-path:url(#XMLID_2_);fill:#1C0B60;" width="0.658" height="57.141"/>
					<rect id="XMLID_1195_" x="393.824" y="78.42" style="clip-path:url(#XMLID_2_);fill:#1B0A5E;" width="0.658" height="57.141"/>
					<rect id="XMLID_1194_" x="394.482" y="78.42" style="clip-path:url(#XMLID_2_);fill:#1B0A5D;" width="0.658" height="57.141"/>
					<rect id="XMLID_1193_" x="395.141" y="78.42" style="clip-path:url(#XMLID_2_);fill:#1A0A5C;" width="0.658" height="57.141"/>
					<rect id="XMLID_1192_" x="395.799" y="78.42" style="clip-path:url(#XMLID_2_);fill:#1A095B;" width="0.658" height="57.141"/>
					<rect id="XMLID_1191_" x="396.457" y="78.42" style="clip-path:url(#XMLID_2_);fill:#1A095A;" width="0.658" height="57.141"/>
					<rect id="XMLID_1190_" x="397.115" y="78.42" style="clip-path:url(#XMLID_2_);fill:#190959;" width="0.658" height="57.141"/>
					<rect id="XMLID_1189_" x="397.773" y="78.42" style="clip-path:url(#XMLID_2_);fill:#190858;" width="0.658" height="57.141"/>
					<rect id="XMLID_1188_" x="398.431" y="78.42" style="clip-path:url(#XMLID_2_);fill:#180857;" width="0.658" height="57.141"/>
					<rect id="XMLID_1187_" x="399.09" y="78.42" style="clip-path:url(#XMLID_2_);fill:#180856;" width="0.658" height="57.141"/>
					<rect id="XMLID_1186_" x="399.748" y="78.42" style="clip-path:url(#XMLID_2_);fill:#170755;" width="0.658" height="57.141"/>
					<rect id="XMLID_1185_" x="400.406" y="78.42" style="clip-path:url(#XMLID_2_);fill:#170754;" width="0.658" height="57.141"/>
					<rect id="XMLID_1184_" x="401.064" y="78.42" style="clip-path:url(#XMLID_2_);fill:#170753;" width="0.658" height="57.141"/>
					<rect id="XMLID_1183_" x="401.722" y="78.42" style="clip-path:url(#XMLID_2_);fill:#160652;" width="0.658" height="57.141"/>
					<rect id="XMLID_1182_" x="402.38" y="78.42" style="clip-path:url(#XMLID_2_);fill:#160651;" width="0.658" height="57.141"/>
					<rect id="XMLID_1181_" x="403.038" y="78.42" style="clip-path:url(#XMLID_2_);fill:#150650;" width="0.658" height="57.141"/>
					<rect id="XMLID_1180_" x="403.697" y="78.42" style="clip-path:url(#XMLID_2_);fill:#15054F;" width="0.658" height="57.141"/>
					<rect id="XMLID_1179_" x="404.355" y="78.42" style="clip-path:url(#XMLID_2_);fill:#14054E;" width="0.658" height="57.141"/>
					<rect id="XMLID_1178_" x="405.013" y="78.42" style="clip-path:url(#XMLID_2_);fill:#14054D;" width="0.658" height="57.141"/>
					<rect id="XMLID_1177_" x="405.671" y="78.42" style="clip-path:url(#XMLID_2_);fill:#14044C;" width="0.658" height="57.141"/>
					<rect id="XMLID_1176_" x="406.329" y="78.42" style="clip-path:url(#XMLID_2_);fill:#13044B;" width="0.658" height="57.141"/>
					<rect id="XMLID_1175_" x="406.987" y="78.42" style="clip-path:url(#XMLID_2_);fill:#13044A;" width="0.658" height="57.141"/>
					<rect id="XMLID_1174_" x="407.646" y="78.42" style="clip-path:url(#XMLID_2_);fill:#120349;" width="0.658" height="57.141"/>
					<rect id="XMLID_1173_" x="408.304" y="78.42" style="clip-path:url(#XMLID_2_);fill:#120348;" width="0.658" height="57.141"/>
					<rect id="XMLID_1172_" x="408.962" y="78.42" style="clip-path:url(#XMLID_2_);fill:#110347;" width="0.658" height="57.141"/>
					<rect id="XMLID_1171_" x="409.62" y="78.42" style="clip-path:url(#XMLID_2_);fill:#110246;" width="0.658" height="57.141"/>
					<rect id="XMLID_1170_" x="410.278" y="78.42" style="clip-path:url(#XMLID_2_);fill:#110245;" width="0.658" height="57.141"/>
					<rect id="XMLID_1169_" x="410.936" y="78.42" style="clip-path:url(#XMLID_2_);fill:#100244;" width="0.658" height="57.141"/>
					<rect id="XMLID_1168_" x="411.595" y="78.42" style="clip-path:url(#XMLID_2_);fill:#100143;" width="0.658" height="57.141"/>
					<rect id="XMLID_1167_" x="412.253" y="78.42" style="clip-path:url(#XMLID_2_);fill:#0F0142;" width="0.658" height="57.141"/>
					<rect id="XMLID_1162_" x="412.911" y="78.42" style="clip-path:url(#XMLID_2_);fill:#0F0141;" width="0.658" height="57.141"/>
					<rect id="XMLID_1161_" x="413.569" y="78.42" style="clip-path:url(#XMLID_2_);fill:#0E0040;" width="0.658" height="57.141"/>
					<rect id="XMLID_1160_" x="414.227" y="78.42" style="clip-path:url(#XMLID_2_);fill:#0E003F;" width="0.658" height="57.141"/>
					
						<rect id="XMLID_1159_" x="414.885" y="78.42" style="clip-path:url(#XMLID_2_);fill:#0E003F;" width="17.213" height="57.141"/>
				</g>
			</g>
			<g id="XMLID_1105_">
				<g id="XMLID_1153_">
					<path id="XMLID_1154_" style="fill:#FF7857;" d="M381.773,94.655c0.088-0.121,0.179-0.234,0.27-0.352
						C381.952,94.42,381.861,94.534,381.773,94.655z"/>
				</g>
				<g id="XMLID_1151_">
					<path id="XMLID_1152_" style="fill:#FF7857;" d="M382.626,93.611c0.137-0.151,0.278-0.297,0.422-0.442
						C382.905,93.313,382.762,93.46,382.626,93.611z"/>
				</g>
				<g id="XMLID_1149_">
					<path id="XMLID_1150_" style="fill:#FF7857;" d="M381.006,95.82c0.058-0.098,0.117-0.198,0.177-0.293
						C381.122,95.624,381.063,95.722,381.006,95.82z"/>
				</g>
				<g id="XMLID_1146_">
					<path id="XMLID_1148_" style="fill:#FF7857;" d="M379.857,98.312c0.015-0.046,0.029-0.091,0.045-0.137
						C379.887,98.221,379.872,98.267,379.857,98.312z"/>
				</g>
				<g id="XMLID_1144_">
					<path id="XMLID_1145_" style="fill:#FF7857;" d="M380.365,97.046c0.034-0.073,0.067-0.15,0.103-0.224
						C380.433,96.896,380.399,96.972,380.365,97.046z"/>
				</g>
				<g id="XMLID_1140_">
					<path id="XMLID_1143_" style="fill:#FF7857;" d="M397.277,90.558c-4.021-1.707-8.282-1.427-11.624,0.577
						c0.417-0.247,0.847-0.468,1.289-0.663c-2.578,1.704-4.485,4.399-5.259,7.463c-1.752,7.327,2.902,13.419,9.505,15.628
						c3.071,1.005,6.164,0.99,8.959,0.116c-0.184,0.101-0.371,0.192-0.559,0.283c2.003-0.966,3.768-2.417,5.054-4.321
						c-0.192-0.087-0.385-0.176-0.577-0.262c-0.561-0.254-0.984-0.695-1.224-1.203c-2.659,3.473-7.45,4.819-12.06,3.352
						c-0.106-0.033-0.206-0.078-0.31-0.115c-0.105-0.03-0.21-0.049-0.315-0.081c-4.142-1.29-7.073-4.739-7.172-8.954
						c-0.078-1.016,0.005-2.075,0.287-3.148c1.408-5.697,7.895-9.053,13.926-6.385c5.642,2.417,8.476,7.958,7.066,12.53
						c0.466-0.08,0.977-0.028,1.461,0.195c0.197,0.09,0.395,0.182,0.592,0.272C407.723,100.213,404.22,93.57,397.277,90.558z"/>
				</g>
				<g id="XMLID_1136_">
					<path id="XMLID_1137_" style="fill:#FF7857;" d="M383.454,92.777c0.239-0.221,0.484-0.429,0.737-0.634
						C383.938,92.349,383.692,92.555,383.454,92.777z"/>
				</g>
				<g id="XMLID_1130_">
					<path id="XMLID_1135_" style="fill:#FF7857;" d="M380.094,107.121c-0.317-0.734-0.562-1.508-0.724-2.32
						C379.532,105.612,379.777,106.384,380.094,107.121z"/>
				</g>
				<g id="XMLID_1127_">
					<path id="XMLID_1128_" style="fill:#FF7857;" d="M384.483,91.916c0.322-0.243,0.655-0.466,0.998-0.677
						C385.138,91.45,384.805,91.676,384.483,91.916z"/>
				</g>
				<g id="XMLID_1119_">
					<path id="XMLID_1120_" style="fill:#FF7857;" d="M404.263,105.374c-0.096,0.323-0.209,0.645-0.345,0.961
						c-0.287,0.671-0.656,1.279-1.078,1.84c0.239,0.51,0.663,0.949,1.224,1.203c0.193,0.088,0.385,0.175,0.577,0.262
						c2.579,1.171,5.123,2.331,7.638,3.385c0.124-0.252,0.248-0.503,0.373-0.755c0.161-0.326,0.584-0.469,0.939-0.325
						c0.355,0.148,0.51,0.526,0.346,0.852c-0.127,0.251-0.253,0.503-0.38,0.755c0.225,0.091,0.449,0.182,0.672,0.271
						c0.289-0.573,0.58-1.144,0.873-1.715c0.167-0.325,0.595-0.479,0.95-0.343c0.356,0.135,0.506,0.509,0.336,0.835
						c-0.298,0.573-0.594,1.145-0.888,1.718c0.223,0.085,0.446,0.169,0.669,0.252c0.13-0.253,0.262-0.506,0.394-0.759
						c0.17-0.327,0.598-0.488,0.949-0.364c0.352,0.123,0.496,0.492,0.322,0.82c-0.134,0.253-0.268,0.508-0.401,0.762
						c0.093,0.034,0.187,0.065,0.28,0.098c1.095,0.386,2.447-0.195,3.021-1.25c0.573-1.057,0.129-2.173-1.002-2.536
						c-4.395-1.414-8.853-3.406-13.417-5.5c-0.197-0.091-0.394-0.183-0.592-0.272C405.24,105.345,404.729,105.294,404.263,105.374z"
						/>
				</g>
				<g id="XMLID_1117_">
					<path id="XMLID_1118_" style="fill:#FF7857;" d="M417.512,113.448c-0.351-0.125-0.779,0.039-0.949,0.364
						c-0.132,0.253-0.263,0.506-0.394,0.759c-0.292,0.565-0.582,1.128-0.87,1.694c-0.167,0.327-0.021,0.703,0.32,0.829
						c0.342,0.129,0.759-0.039,0.929-0.366c0.293-0.565,0.588-1.132,0.885-1.699c0.133-0.254,0.267-0.508,0.401-0.762
						C418.008,113.94,417.863,113.573,417.512,113.448z"/>
				</g>
				<g id="XMLID_1115_">
					<path id="XMLID_1116_" style="fill:#FF7857;" d="M413.591,111.945c-0.355-0.145-0.778,0-0.939,0.325
						c-0.125,0.253-0.249,0.505-0.373,0.755c-0.276,0.563-0.551,1.126-0.823,1.689c-0.157,0.325-0.002,0.714,0.344,0.858
						c0.345,0.146,0.758-0.006,0.919-0.331c0.277-0.564,0.557-1.124,0.838-1.688c0.126-0.252,0.252-0.503,0.38-0.755
						C414.101,112.469,413.946,112.091,413.591,111.945z"/>
				</g>
				<g id="XMLID_1113_">
					<path id="XMLID_1114_" style="fill:#FF7857;" d="M416.053,111.765c-0.356-0.132-0.784,0.017-0.95,0.343
						c-0.293,0.571-0.584,1.143-0.873,1.715c-0.123,0.244-0.245,0.486-0.367,0.729c-0.163,0.323-0.012,0.708,0.334,0.844
						c0.346,0.138,0.764-0.022,0.931-0.347c0.124-0.245,0.249-0.485,0.374-0.731c0.294-0.572,0.59-1.147,0.888-1.718
						C416.559,112.273,416.409,111.901,416.053,111.765z"/>
				</g>
				<g id="XMLID_1108_">
					<path id="XMLID_1112_" style="fill:#FFE49A;" d="M404.263,105.374c1.41-4.573-1.424-10.112-7.066-12.53
						c-6.031-2.666-12.519,0.686-13.926,6.385c-0.282,1.07-0.365,2.132-0.287,3.148c-0.013-0.801,0.068-1.621,0.286-2.456
						c1.311-5.308,7.249-8.504,12.774-6.156c5.539,2.297,8.131,8.01,6.203,12.505c-1.899,4.45-6.955,6.465-11.777,5.142
						c0.104,0.035,0.203,0.081,0.31,0.115c4.611,1.468,9.402,0.121,12.06-3.352c0.422-0.559,0.79-1.169,1.078-1.84
						C404.054,106.02,404.167,105.698,404.263,105.374z"/>
				</g>
				<g id="XMLID_1106_">
					<path id="XMLID_1107_" style="fill:#FFE49A;" d="M391.187,113.562c-6.603-2.208-11.257-8.301-9.505-15.628
						c0.775-3.066,2.681-5.755,5.259-7.463c-0.443,0.195-0.872,0.418-1.289,0.663c-0.058,0.036-0.114,0.069-0.171,0.105
						c-0.343,0.209-0.676,0.434-0.998,0.677c-0.098,0.074-0.195,0.151-0.292,0.226c-0.254,0.203-0.499,0.414-0.737,0.634
						c-0.138,0.128-0.273,0.255-0.407,0.392c-0.144,0.144-0.285,0.289-0.422,0.442c-0.202,0.223-0.395,0.457-0.582,0.692
						c-0.091,0.116-0.182,0.23-0.27,0.352c-0.208,0.283-0.404,0.576-0.591,0.872c-0.061,0.097-0.119,0.194-0.177,0.293
						c-0.192,0.325-0.373,0.66-0.538,1.002c-0.035,0.073-0.069,0.15-0.103,0.224c-0.17,0.37-0.326,0.747-0.463,1.129
						c-0.016,0.046-0.03,0.093-0.045,0.137c-0.142,0.414-0.268,0.838-0.37,1.264c-0.434,1.841-0.442,3.607-0.118,5.225
						c0.162,0.811,0.407,1.583,0.724,2.32c0.158,0.368,0.335,0.723,0.528,1.073c0.58,1.041,1.31,1.993,2.16,2.838
						c0.284,0.281,0.58,0.552,0.89,0.811c0.619,0.518,1.288,0.986,2.001,1.402c1.07,0.624,2.24,1.13,3.496,1.494
						c0.38,0.113,0.76,0.197,1.14,0.279c0.062,0.012,0.124,0.028,0.186,0.04c0.356,0.071,0.711,0.126,1.066,0.171
						c0.082,0.009,0.163,0.02,0.246,0.029c0.345,0.038,0.689,0.066,1.032,0.08c0.085,0.001,0.168,0.004,0.252,0.004
						c0.29,0.009,0.579,0.004,0.865-0.005c0.111-0.003,0.223-0.009,0.333-0.014c0.278-0.018,0.553-0.041,0.828-0.075
						c0.137-0.015,0.273-0.031,0.408-0.051c0.271-0.041,0.539-0.085,0.806-0.142c0.163-0.034,0.324-0.07,0.485-0.11
						c0.163-0.039,0.325-0.083,0.487-0.129c0.263-0.071,0.523-0.155,0.78-0.242c0.114-0.041,0.228-0.079,0.341-0.122
						c0.308-0.113,0.611-0.241,0.91-0.378c0.084-0.037,0.169-0.076,0.252-0.115c0.188-0.089,0.374-0.184,0.559-0.283
						C397.351,114.55,394.259,114.568,391.187,113.562z"/>
				</g>
			</g>
		</g>
		<g id="XMLID_1096_">
			<g id="XMLID_1097_">
				<path id="XMLID_1098_" style="fill:#FF7857;" d="M381.134,299.599h-18.951c-0.349,0-0.523-0.423-0.274-0.668l0,0
					c2.334-2.305,5.888-3.627,9.75-3.627c3.862,0,7.416,1.322,9.75,3.627l0,0C381.657,299.176,381.483,299.599,381.134,299.599z
					 M363.955,298.818h15.408c0.242,0,0.337-0.312,0.137-0.449c-2.109-1.449-4.921-2.284-7.841-2.284
					c-2.92,0-5.732,0.835-7.841,2.284C363.618,298.506,363.713,298.818,363.955,298.818z"/>
			</g>
		</g>
		<g id="XMLID_1087_">
			<path id="XMLID_1091_" style="fill:#FF7857;" d="M362.861,298.818c0.051-0.139,1.227-1.111,1.304-1.162
				c0.077-0.051,1.355-0.793,1.432-0.767c0.077,0.026,0.409-0.153,0.716-0.256s1.534-0.767,1.969-0.767s1.253-0.128,1.738-0.153
				c0.486-0.026,1.585,0.026,1.841,0c0.256-0.026,0.256-0.066,0.972-0.007s1.994,0.316,2.25,0.379
				c0.256,0.063,0.46,0.063,0.869,0.191s0.904,0.537,1.232,0.614c0.328,0.077,1.146,0.46,1.453,0.562
				c0.307,0.102,1.611,0.767,1.713,0.971s0.153,0.409,0.153,0.562c0,0.153-17.845,0.205-17.845,0.205v-0.256L362.861,298.818z"/>
		</g>
		<defs>
			<filter id="Adobe_OpacityMaskFilter" filterUnits="userSpaceOnUse" x="422.281" y="51.157" width="37.646" height="30.024">
				<feColorMatrix  type="matrix" values="1 0 0 0 0  0 1 0 0 0  0 0 1 0 0  0 0 0 1 0"/>
			</filter>
		</defs>
		<mask maskUnits="userSpaceOnUse" x="422.281" y="51.157" width="37.646" height="30.024" id="XMLID_3_">
			<g id="XMLID_226_" style="filter:url(#Adobe_OpacityMaskFilter);">
				<rect id="XMLID_228_" x="446.363" y="-433.342" style="fill:#FFFFFF;" width="86.092" height="32.531"/>
			</g>
		</mask>
		<g id="XMLID_1049_" style="mask:url(#XMLID_3_);">
			<circle id="XMLID_1086_" style="fill:#FFFAFF;" cx="444.915" cy="66.169" r="15.012"/>
			<circle id="XMLID_1062_" style="fill:#FFFAFF;" cx="427.724" cy="65.487" r="5.443"/>
		</g>
		<g id="XMLID_1047_">
			<path id="XMLID_1048_" style="fill:#C6C1C1;" d="M302.655,108.299c-0.183-0.143-0.329-0.338-0.412-0.574
				c-0.229-0.654,0.115-1.371,0.77-1.6c2.773-0.972,5.184-0.9,7.166,0.214c1.661,0.935,2.647,2.414,3.203,3.585
				c1.104-0.693,2.737-1.389,4.636-1.145c2.526,0.324,4.744,2.18,6.591,5.517c0.336,0.607,0.116,1.371-0.49,1.706
				c-0.607,0.336-1.371,0.116-1.707-0.49c-1.438-2.598-3.025-4.025-4.714-4.242c-2.168-0.278-3.978,1.55-3.995,1.569
				c-0.321,0.337-0.803,0.469-1.251,0.342c-0.449-0.127-0.789-0.492-0.886-0.947c-0.004-0.02-0.59-2.579-2.633-3.715
				c-1.322-0.736-3.035-0.745-5.089-0.024C303.425,108.642,302.981,108.553,302.655,108.299z"/>
		</g>
		<g id="XMLID_1045_">
			<path id="XMLID_1046_" style="fill:#C6C1C1;" d="M360.507,72.448c-0.277,0.213-0.657,0.276-1.002,0.131
				c-1.962-0.823-3.484-0.929-4.523-0.313c-1.338,0.795-1.546,2.627-1.548,2.646c-0.038,0.369-0.278,0.69-0.62,0.829
				c-0.344,0.14-0.737,0.082-1.021-0.155c-0.011-0.009-1.475-1.184-3.115-0.919c-1.062,0.172-2.026,0.927-2.862,2.243
				c-0.297,0.469-0.918,0.606-1.387,0.31c-0.468-0.297-0.607-0.918-0.309-1.386c1.163-1.832,2.597-2.892,4.261-3.153
				c1.348-0.212,2.561,0.162,3.417,0.572c0.333-0.894,0.961-1.995,2.141-2.703c1.618-0.97,3.753-0.911,6.344,0.177
				c0.511,0.215,0.752,0.803,0.538,1.315C360.75,72.208,360.641,72.345,360.507,72.448z"/>
		</g>
		<circle id="XMLID_1044_" style="fill:#FFFAFF;" cx="135.475" cy="48.096" r="33.866"/>
		<circle id="XMLID_1043_" style="fill:#FFE49A;" cx="135.475" cy="48.096" r="25.524"/>
		<circle id="XMLID_1042_" style="fill:#FF7857;" cx="135.475" cy="48.096" r="18.074"/>
		<defs>
			<filter id="Adobe_OpacityMaskFilter_1_" filterUnits="userSpaceOnUse" x="0" y="85.612" width="141.787" height="59.497">
				<feColorMatrix  type="matrix" values="1 0 0 0 0  0 1 0 0 0  0 0 1 0 0  0 0 0 1 0"/>
			</filter>
		</defs>
		<mask maskUnits="userSpaceOnUse" x="0" y="85.612" width="141.787" height="59.497" id="XMLID_4_">
			<g id="XMLID_194_" style="filter:url(#Adobe_OpacityMaskFilter_1_);">
				<rect id="XMLID_195_" x="46.802" y="-404.506" style="fill:#FFFFFF;" width="170.603" height="64.464"/>
			</g>
		</mask>
		<g id="XMLID_1033_" style="mask:url(#XMLID_4_);">
			<circle id="XMLID_1041_" style="fill:#FFFAFF;" cx="79.043" cy="115.36" r="29.749"/>
			<circle id="XMLID_1040_" style="fill:#FFFAFF;" cx="118.177" cy="121.754" r="14.334"/>
			<circle id="XMLID_1039_" style="fill:#FFFAFF;" cx="40.691" cy="128.066" r="14.334"/>
			<circle id="XMLID_1038_" style="fill:#FFFAFF;" cx="135.475" cy="128.066" r="6.312"/>
			<circle id="XMLID_1037_" style="fill:#FFFAFF;" cx="4.156" cy="128.066" r="4.156"/>
			<circle id="XMLID_1036_" style="fill:#FFFAFF;" cx="23.076" cy="128.066" r="6.312"/>
		</g>
		<defs>
			<filter id="Adobe_OpacityMaskFilter_2_" filterUnits="userSpaceOnUse" x="298.421" y="0" width="122.603" height="60.044">
				<feColorMatrix  type="matrix" values="1 0 0 0 0  0 1 0 0 0  0 0 1 0 0  0 0 0 1 0"/>
			</filter>
		</defs>
		<mask maskUnits="userSpaceOnUse" x="298.421" y="0" width="122.603" height="60.044" id="XMLID_5_">
			<g id="XMLID_184_" style="filter:url(#Adobe_OpacityMaskFilter_2_);">
				<rect id="XMLID_185_" x="299.569" y="-501.024" style="fill:#FFFFFF;" width="172.172" height="65.057"/>
			</g>
		</mask>
		<g id="XMLID_1025_" style="mask:url(#XMLID_5_);">
			<circle id="XMLID_1032_" style="fill:#FFFAFF;" cx="335.125" cy="30.022" r="30.022"/>
			<circle id="XMLID_1031_" style="fill:#FFFAFF;" cx="372.05" cy="25.773" r="14.466"/>
			<circle id="XMLID_1030_" style="fill:#FFFAFF;" cx="389.507" cy="32.143" r="6.37"/>
			<circle id="XMLID_1029_" style="fill:#FFFAFF;" cx="414.653" cy="32.143" r="6.37"/>
			<circle id="XMLID_1028_" style="fill:#FFFAFF;" cx="302.614" cy="32.143" r="4.194"/>
		</g>
		<g id="XMLID_919_">
			<path id="XMLID_1024_" style="fill:#1987BD;" d="M203.874,198.406c-2.233-6.657-3.602-13.839-3.942-21.333
				c-2.268-49.975,24.494-62.232,54.709-62.232s56.232,9.227,54.709,62.232c-0.215,7.496-1.526,14.669-3.725,21.324
				c0.267-0.004,0.532,0.02,0.791,0.07c4.224-8.638-8.853-27.3-5.17-37.051c9.927-26.286-6.453-49.692-46.606-52.22
				c-39.194-2.468-58.404,25.891-58.404,60.394c0,10.421,2.39,20.243,6.609,28.881C203.182,198.404,203.527,198.381,203.874,198.406
				z"/>
			<g id="XMLID_1021_">
				<path id="XMLID_1023_" style="fill:#42B9E0;" d="M267.655,110.904c-1.613,1.217-1.626,2.849-0.857,4.55
					c15.367,1.712,28.599,7.454,36.083,22.573C299.253,125.108,287.349,114.967,267.655,110.904z"/>
				<path id="XMLID_1022_" style="fill:#42B9E0;" d="M303.933,149.856c0.966-0.165,1.972-0.328,2.997-0.489
					c-1.05-4.266-2.411-8.029-4.05-11.34C303.93,141.765,304.279,145.735,303.933,149.856z"/>
			</g>
			<g id="XMLID_1019_">
				<path id="XMLID_1020_" style="fill:#0E003F;" d="M303.379,274.262c-0.635-7.223-5.157-13.524-11.796-16.439l-17.03-7.476
					c-2.119-0.93-4.384-1.483-6.693-1.633l-24.131-1.568c-2.012-0.131-4.032,0.046-5.99,0.523l-27.988,6.825
					c-8.113,1.978-14.12,8.821-15.031,17.122l-2.487,22.661h112.906L303.379,274.262z"/>
			</g>
			<path id="XMLID_1018_" style="fill:#0E003F;" d="M238.363,226.326l-1.851,23.532c0,0,7.668,21.417,37.81,11.369l6.61-23.291
				L238.363,226.326z"/>
			<path id="XMLID_1015_" style="fill:#29157F;" d="M305.14,294.278l-1.761-20.016c-0.635-7.223-5.157-13.524-11.796-16.439v36.455
				H305.14z"/>
			<path id="XMLID_1012_" style="fill:#040026;" d="M279.486,90.042l4.163-37.155c0.235-2.096-1.032-4.077-3.035-4.739
				c-73.681-24.322-168.819,67.351-102.063,180.477c1.361,2.307,4.44,2.91,6.565,1.279l17.557-13.481
				c1.093-0.839,1.736-2.137,1.742-3.514l0.107-24.725c0.004-0.991,0.339-1.951,0.95-2.731l73.092-93.158
				C279.075,91.645,279.394,90.864,279.486,90.042z"/>
			<path id="XMLID_1011_" style="fill:#1987BD;" d="M293.455,248.941l-70.624-21.889c-9.577-1.93-16.235-10.667-15.557-20.413
				l1.936-27.825l28.24,15.363L293.455,248.941z"/>
			<path id="XMLID_1009_" style="fill:#42B9E0;" d="M322.466,219.761l-3.713-3.544l-1.084,4.574
				c-0.304,0.778,0.507,1.537,1.392,1.302l2.827-0.752C322.645,221.139,322.943,220.324,322.466,219.761z"/>
			<path id="XMLID_1006_" style="fill:#0E003F;" d="M180.257,112.414c0.542-1.349-1.386-2.278-2.094-1.007
				c-10.596,19.026-24.092,57.515,5.869,100.167C184.031,211.574,157.45,169.144,180.257,112.414z"/>
			<path id="XMLID_1005_" style="fill:#0E003F;" d="M242.502,77.028c1.156-0.208,0.996-1.914-0.179-1.895
				c-13.412,0.222-39.061,6.614-58.59,47.475C183.732,122.607,203.498,84.038,242.502,77.028z"/>
			<path id="XMLID_1004_" style="fill:#1987BD;" d="M254.649,118.071c2.142,1.829,4.245,3.782,6.302,5.858
				c2.121,2.142,5.26,2.887,7.826,1.449c2.239-1.256,4.464-2.619,6.668-4.088c1.394-0.925,2.439-2.465,2.906-4.299
				c1.667-6.513,2.933-13.272,3.756-20.246c0.425-3.562-0.93-7.839-3.919-8.324c-39.74-6.44-103.961,28.541-81.253,93.781
				c0.848,2.437,17.231-20.049,18.176-17.882c1.802,4.125,35.997-54.323,37.3-49.656C252.77,115.943,253.548,117.13,254.649,118.071
				z"/>
			<path id="XMLID_1003_" style="fill:#42B9E0;" d="M275.445,121.29c1.394-0.925,2.439-2.465,2.906-4.299
				c1.667-6.513,2.933-13.272,3.756-20.246c0.425-3.562-0.93-7.839-3.919-8.324c-14.751-2.391-32.873,0.931-48.673,9.384
				c11.185-2.56,44.947-8.316,28.51,20.169c-0.42,0.728-0.787,1.42-1.132,2.097c1.368,1.241,2.726,2.514,4.057,3.858
				c2.121,2.142,5.26,2.887,7.826,1.449C271.016,124.122,273.241,122.76,275.445,121.29z"/>
			<path id="XMLID_1002_" style="fill:#040026;" d="M260.479,114.841c-34.428-1.579-65.008,12.257-62.42,62.232
				c0.388,7.494,1.949,14.676,4.497,21.333c0.827,0.052,1.656,0.307,2.378,0.819l7.396,5.24c0.542-0.859,1.527-1.492,2.956-1.515
				c4.058-0.065,9.505,1.63,11.039,5.287c0.791,1.886,0.3,3.906-1.273,5.241l6.4,4.535c0.755,0.535,1.719,0.829,2.716,0.829h52.62
				c0.997,0,1.961-0.294,2.716-0.829l8.594,7.873c0.795-0.563,21.294-4.48,22.202-4.493
				C326.815,169.1,318.037,117.48,260.479,114.841z"/>
			<path id="XMLID_1001_" style="fill:#29157F;" d="M298.564,147.904L298.564,147.904c2.834,0,4.921-1.745,4.247-3.549
				c-5.168-13.824-18.519-23.68-44.384-24.522c-2.67-0.087-5.31-0.088-7.897,0.008c-3.944,0.146-3.911,3.509,0.035,3.628
				c0.103,0.003,0.207,0.006,0.311,0.01c24.499,0.797,37.775,9.68,43.502,22.362C294.929,147.061,296.624,147.904,298.564,147.904z"
				/>
			<path id="XMLID_1000_" style="fill:#1987BD;" d="M234.154,195.772c3.307-0.752,6.769-0.414,9.868,0.965l49.174,21.868
				c0.368,0.156,0.77,0.237,1.178,0.237h25.853c1.515,0,2.744,1.097,2.744,2.45v25.199c0,1.353-1.228,2.45-2.744,2.45h-26.773
				c-0.324,0-0.645-0.052-0.952-0.154l-68.768-22.886c-0.999-0.332-1.691-1.151-1.777-2.099l-2.229-24.75L234.154,195.772z"/>
			<path id="XMLID_999_" style="fill:#1987BD;" d="M238.715,193.099c24.325-29.966-63.457-76.325,14.718-78.356l-0.608-3.081
				l-17.305,1.058l-20.135,12.339l-9.475,10.929l-4.442,9.431l-2.468,8.549l-2.171,14.807l17.372-3.878
				C214.201,164.896,227.406,207.031,238.715,193.099z"/>
			<path id="XMLID_996_" style="fill:#42B9E0;" d="M322.972,246.491v-25.199c0-1.353-1.229-2.45-2.744-2.45h-25.854v30.099h25.854
				C321.743,248.941,322.972,247.844,322.972,246.491z"/>
			<path id="XMLID_995_" style="fill:#FFFAFF;" d="M312.324,182.821c-0.313-0.537-0.647-1.049-0.999-1.534
				c-2.401-3.306-5.688-5.345-9.319-5.345c-3.186,0-6.106,1.574-8.397,4.193c-0.702,0.803-1.348,1.701-1.921,2.686
				c-0.614,1.054,0.612,2.235,1.467,1.419c0.346-0.331,0.707-0.637,1.077-0.928c2.258-1.782,4.919-2.817,7.773-2.817
				c3.249,0,6.248,1.34,8.685,3.6c0.054,0.05,0.112,0.094,0.166,0.145C311.713,185.056,312.938,183.875,312.324,182.821z"/>
			<path id="XMLID_994_" style="fill:#FFFAFF;" d="M321.341,177.692c-0.29,0.28-0.491,0.48-0.763,0.791
				c-0.711,0.813-1.364,1.722-1.945,2.72c-0.622,1.067,0.619,2.263,1.485,1.437c0.351-0.335,0.717-0.645,1.09-0.94
				c0.148-0.117,0.302-0.224,0.454-0.332C321.664,180.982,321.341,177.692,321.341,177.692z"/>
			<polygon id="XMLID_990_" style="fill:#29157F;" points="254.83,195.381 297.231,215.388 320.92,215.388 321.307,211.606 
				298.151,211.319 			"/>
			<path id="XMLID_989_" style="fill:#FFFAFF;" d="M306.639,221.393h13.663c0.187,0,0.338,0.151,0.338,0.338v16.256
				c0,0.33-0.425,0.465-0.615,0.194l-2.027-2.885c-0.184-0.261-0.285-0.572-0.291-0.891l-0.182-9.375
				c-0.003-0.179-0.145-0.324-0.324-0.331l-6.971-0.295c-0.312-0.013-0.614-0.117-0.868-0.3l-2.921-2.098
				C306.175,221.814,306.31,221.393,306.639,221.393z"/>
			<path id="XMLID_988_" style="fill:#29157F;" d="M228.385,249.951c0,0-4.124,23.527,44.35,14.89c0,0-45.9,17.322-49.126-13.725"/>
			<path id="XMLID_987_" style="fill:#0E003F;" d="M312.338,297.451H185.035c-1.856,0-3.375-1.519-3.375-3.375v-0.389
				c0-1.856,1.519-3.375,3.375-3.375h127.303c1.856,0,3.375,1.519,3.375,3.375v0.389
				C315.713,295.932,314.194,297.451,312.338,297.451z"/>
			<path id="XMLID_986_" style="fill:#0E003F;" d="M303.139,306.97h-69.651c-1.1,0-2-0.9-2-2v-0.23c0-1.1,0.9-2,2-2h69.651
				c1.1,0,2,0.9,2,2v0.23C305.139,306.07,304.239,306.97,303.139,306.97z"/>
			<path id="XMLID_985_" style="fill:#42B9E0;" d="M303.139,318.074h-31.577c-1.1,0-2-0.9-2-2v-0.23c0-1.1,0.9-2,2-2h31.577
				c1.1,0,2,0.9,2,2v0.23C305.139,317.174,304.239,318.074,303.139,318.074z"/>
			<path id="XMLID_984_" style="fill:#0E003F;" d="M217.729,306.969h-12.657c-1.1,0-2-0.9-2-2v-0.23c0-1.1,0.9-2,2-2h12.657
				c1.1,0,2,0.9,2,2v0.23C219.729,306.069,218.829,306.969,217.729,306.969z"/>
			<path id="XMLID_983_" style="fill:#42B9E0;" d="M214.572,151.685c-13.962,0-25.385,10.714-26.322,24.273
				c0.128,0.048,0.255,0.085,0.385,0.151c3.989,2.035,5.692,6.126,6.354,10.354c0.317,2.028,0.051,4.177,0.406,6.168
				c0.612,3.435,3.79,3.172,6.196,5.027c1.192,0.919,1.501,2.261,1.254,3.457c3.534,1.735,7.513,2.715,11.727,2.715
				c14.575,0,26.391-11.673,26.391-26.073C240.963,163.358,229.148,151.685,214.572,151.685z"/>
			<circle id="XMLID_982_" style="fill:#1987BD;" cx="216.836" cy="181.293" r="26.073"/>
			<polygon id="XMLID_981_" style="fill:#42B9E0;" points="287.32,247.062 290.596,248.152 290.596,217.448 287.32,215.991 			"/>
			<circle id="XMLID_980_" style="fill:#006589;" cx="215.948" cy="182.905" r="20.496"/>
			<path id="XMLID_979_" style="fill:#006589;" d="M293.197,218.605l-0.411-0.183v30.435c0.22,0.05,0.443,0.085,0.669,0.085h1.248
				v-30.099h-0.328C293.967,218.842,293.565,218.761,293.197,218.605z"/>
			<circle id="XMLID_978_" style="fill:#42B9E0;" cx="215.948" cy="180.79" r="18.43"/>
			<g id="XMLID_970_">
				<path id="XMLID_975_" style="fill:#42B9E0;" d="M217.323,178.032l-38.113-16.931c-2.673-1.188-3.889-4.347-2.702-7.02
					l0.249-0.56c1.188-2.673,4.347-3.889,7.02-2.702l38.113,16.931c2.673,1.188,3.889,4.347,2.702,7.02l-0.249,0.56
					C223.156,178.003,219.997,179.219,217.323,178.032z"/>
				<path id="XMLID_974_" style="fill:#42B9E0;" d="M213.47,186.706l-30.595-13.591c-2.673-1.188-3.889-4.347-2.702-7.02l0.249-0.56
					c1.188-2.673,4.347-3.889,7.02-2.702l30.595,13.591c2.673,1.188,3.889,4.347,2.702,7.02l-0.249,0.56
					C219.303,186.678,216.143,187.893,213.47,186.706z"/>
				<path id="XMLID_971_" style="fill:#42B9E0;" d="M209.933,194.669l-21.474-9.539c-2.673-1.188-3.889-4.347-2.702-7.02l0.249-0.56
					c1.188-2.673,4.347-3.889,7.02-2.702l21.474,9.539c2.673,1.188,3.889,4.347,2.702,7.02l-0.249,0.56
					C215.765,194.641,212.606,195.856,209.933,194.669z"/>
			</g>
			<g id="XMLID_958_">
				<path id="XMLID_964_" style="fill:#FFFAFF;" d="M217.767,166.452c-0.539,0-1.07,0.035-1.594,0.094
					c7.167,0.794,12.744,6.865,12.744,14.244c0,7.379-5.576,13.45-12.744,14.244c0.524,0.058,1.055,0.094,1.594,0.094
					c7.919,0,14.338-6.419,14.338-14.338C232.105,172.871,225.686,166.452,217.767,166.452z"/>
			</g>
			<path id="XMLID_949_" style="fill:#1987BD;" d="M204.636,172.862l-19.005-7.549c-0.419-0.166-0.625-0.645-0.459-1.064
				l0.035-0.088c0.166-0.419,0.645-0.625,1.064-0.459l19.005,7.549c0.419,0.166,0.625,0.645,0.459,1.064l-0.035,0.088
				C205.533,172.822,205.054,173.029,204.636,172.862z"/>
			<path id="XMLID_947_" style="fill:#1987BD;" d="M202.805,182.862l-11.213-4.454c-0.419-0.166-0.625-0.645-0.459-1.064
				l0.035-0.088c0.166-0.419,0.645-0.625,1.064-0.459l11.213,4.454c0.419,0.166,0.625,0.645,0.459,1.064l-0.035,0.088
				C203.702,182.822,203.223,183.028,202.805,182.862z"/>
			<path id="XMLID_946_" style="fill:#29157F;" d="M258.193,273.566c0,0,30.765,2.556,24.339-19.716l-2.781-1.221
				C282.518,257.967,283.677,272.509,258.193,273.566z"/>
			<path id="XMLID_942_" style="fill:#29157F;" d="M280.614,48.148C233.275,32.522,177.087,64.78,160.66,119.842
				c23.371-54.01,91.011-75.636,121.185-50.854l1.804-16.101C283.884,50.79,282.617,48.809,280.614,48.148z"/>
		</g>
		<path id="XMLID_918_" style="fill:#FF7857;" d="M388.407,306.017h-34.952c-0.563,0-1.024-0.461-1.024-1.024l0,0
			c0-0.563,0.461-1.024,1.024-1.024h34.952c0.563,0,1.024,0.461,1.024,1.024l0,0C389.431,305.556,388.97,306.017,388.407,306.017z"
			/>
		<defs>
			<filter id="Adobe_OpacityMaskFilter_3_" filterUnits="userSpaceOnUse" x="197.507" y="71.942" width="32.01" height="24.185">
				<feColorMatrix  type="matrix" values="1 0 0 0 0  0 1 0 0 0  0 0 1 0 0  0 0 0 1 0"/>
			</filter>
		</defs>
		<mask maskUnits="userSpaceOnUse" x="197.507" y="71.942" width="32.01" height="24.185" id="XMLID_6_">
			<g id="XMLID_87_" style="filter:url(#Adobe_OpacityMaskFilter_3_);">
				<rect id="XMLID_88_" x="223.754" y="-438.434" style="fill:#FFFFFF;" width="143.92" height="54.382"/>
			</g>
		</mask>
		<g id="XMLID_913_" style="mask:url(#XMLID_6_);">
			<circle id="XMLID_917_" style="fill:#FFFAFF;" cx="217.424" cy="84.034" r="12.092"/>
			<circle id="XMLID_916_" style="fill:#FFFAFF;" cx="202.831" cy="84.034" r="5.325"/>
		</g>
		<defs>
			<filter id="Adobe_OpacityMaskFilter_4_" filterUnits="userSpaceOnUse" x="114.441" y="161.842" width="57.4" height="36.923">
				<feColorMatrix  type="matrix" values="1 0 0 0 0  0 1 0 0 0  0 0 1 0 0  0 0 0 1 0"/>
			</filter>
		</defs>
		<mask maskUnits="userSpaceOnUse" x="114.441" y="161.842" width="57.4" height="36.923" id="XMLID_7_">
			<g id="XMLID_50_" style="filter:url(#Adobe_OpacityMaskFilter_4_);">
				<rect id="XMLID_53_" x="149.553" y="-319.873" style="fill:#FFFFFF;" width="80.931" height="40.006"/>
			</g>
		</mask>
		<g id="XMLID_907_" style="mask:url(#XMLID_7_);">
			<circle id="XMLID_912_" style="fill:#FFFAFF;" cx="132.903" cy="180.304" r="18.462"/>
			<circle id="XMLID_911_" style="fill:#FFFAFF;" cx="157.189" cy="184.272" r="8.896"/>
			<circle id="XMLID_910_" style="fill:#FFFAFF;" cx="167.924" cy="188.189" r="3.917"/>
		</g>
	</g>
</g>
<g id="Layer_1">
</g>
</svg>
