<?xml version="1.0" encoding="iso-8859-1"?>
<!-- Generator: Adobe Illustrator 19.0.0, SVG Export Plug-In . SVG Version: 6.00 Build 0)  -->
<svg version="1.1" xmlns="http://www.w3.org/2000/svg" xmlns:xlink="http://www.w3.org/1999/xlink" x="0px" y="0px"
	 viewBox="0 0 19.536 13.838" style="enable-background:new 0 0 19.536 13.838;" xml:space="preserve">
<g id="youtube_x5F_icon">
	<g id="Icons_2_">
		<g id="Color-_2_" transform="translate(-200.000000, -368.000000)">
			<path id="Youtube" style="fill:#7972C4;" d="M207.751,377.471l-0.001-5.528l5.279,2.774L207.751,377.471z M219.341,370.985
				c0,0-0.191-1.356-0.777-1.953c-0.743-0.784-1.576-0.788-1.957-0.833C213.873,368,209.772,368,209.772,368h-0.009
				c0,0-4.101,0-6.835,0.199c-0.382,0.045-1.214,0.049-1.958,0.833c-0.585,0.597-0.776,1.953-0.776,1.953S200,372.578,200,374.169
				v1.493c0,1.592,0.195,3.184,0.195,3.184s0.19,1.356,0.776,1.953c0.744,0.784,1.72,0.759,2.154,0.841
				c1.563,0.151,6.642,0.198,6.642,0.198s4.105-0.006,6.839-0.205c0.382-0.046,1.214-0.05,1.957-0.834
				c0.585-0.597,0.777-1.953,0.777-1.953s0.195-1.592,0.195-3.184v-1.493C219.536,372.578,219.341,370.985,219.341,370.985
				L219.341,370.985z"/>
		</g>
	</g>
</g>
<g id="Layer_1">
</g>
</svg>
