<?xml version="1.0" encoding="iso-8859-1"?>
<!-- Generator: Adobe Illustrator 19.0.0, SVG Export Plug-In . SVG Version: 6.00 Build 0)  -->
<svg version="1.1" id="logo" xmlns="http://www.w3.org/2000/svg" xmlns:xlink="http://www.w3.org/1999/xlink" x="0px" y="0px"
	 viewBox="0 0 900 300" style="enable-background:new 0 0 900 300;" xml:space="preserve">
<g id="XMLID_40_">
	<g id="XMLID_497_">
		<path id="XMLID_147_" style="fill:#010011;" d="M144.838,185.826l-0.767-13.757l1.595-15.001l8.785-14.42l9.116-5.138
			c0,0,8.205-1.658,8.453-1.658s17.862,1.823,17.862,1.823l8.161,4.807l1.441,2.735l5.272,10.277c0,0-10.691-0.083-10.774,0.166
			c-0.083,0.249-4.807,3.978-4.89,4.227c-0.083,0.249-1.74,5.387-1.74,5.636s0.746,6.547,0.746,6.547l1.784,3.066l-24.741,8.122
			c0,0-9.282,3.481-9.531,3.481S144.838,185.826,144.838,185.826z"/>
		<circle id="XMLID_146_" style="fill:#42B9E0;" cx="199.485" cy="166.978" r="6.56"/>
		<circle id="XMLID_145_" style="fill:#FFFAFF;" cx="199.485" cy="166.978" r="6.56"/>
		<polygon id="XMLID_144_" style="fill:#FFFFFF;" points="152.463,187.815 152.463,201.407 142.766,200.329 143.248,186.738 
			151.82,186.24 		"/>
		<polygon id="XMLID_143_" style="fill:#19474C;" points="156.441,187.152 156.441,201.407 160.087,200.164 195.558,189.307 
			199.485,184.666 200.116,179.776 194.398,178.408 189.333,174.19 		"/>
		<polygon id="XMLID_142_" style="fill:#5FBBC4;" points="167.049,183.64 167.049,198.735 170.364,197.363 170.364,181.925 		"/>
		<polygon id="XMLID_141_" style="fill:#5FBBC4;" points="172.684,181.925 172.684,197.02 174.01,195.648 174.01,180.21 		"/>
		<polygon id="XMLID_140_" style="fill:#5FBBC4;" points="151.8,186.821 151.8,201.407 158.761,201.117 158.761,185.909 		"/>
		<path id="XMLID_134_" style="fill:#8DFFFC;" d="M217.482,144.459c-1.2-1.296-3.242-1.374-4.538-0.174l-8.3,7.687
			c-1.414-4.305-7.663-17.798-30.46-17.759c-3.955,0.007-7.541,0.84-10.771,1.957c-0.256-0.653-0.504-1.31-0.744-1.972
			c-0.272,0.643-0.811,1.084-1.136,1.71c-0.187,0.359-0.449,0.574-0.738,0.674c0.069,0.177,0.133,0.355,0.203,0.532
			c-3.764,1.677-6.962,4.063-9.565,7.149c-7.222,8.569-9.832,22.226-7.827,40.9h-2.081v17.572l16.548,0.855
			c32.764-11.879,44.945-12.236,43.706-22.997c6.687-0.955,11.515-6.665,11.515-13.612c0-0.125-0.006-0.25-0.009-0.374l2.012-1.864
			c1.296-1.2,1.374-3.242,0.174-4.538c-0.487-0.526-1.113-0.848-1.771-0.969l2.78-2.575c1.296-1.2,1.374-3.242,0.174-4.538
			c-0.467-0.504-1.061-0.821-1.689-0.953l2.344-2.171C218.603,147.797,218.682,145.755,217.482,144.459z M153.338,145.903
			c4.777-5.664,11.819-9.201,20.956-9.185c21.991,0.039,26.954,13.339,27.86,16.717c-0.864-0.17-1.756-0.262-2.669-0.262
			c-7.613,0-13.807,6.194-13.807,13.807c0,2.462,0.651,4.773,1.785,6.776l-29.325,11.822l0,0l-12.08-0.414
			C144.116,167.262,146.562,153.941,153.338,145.903z M189.187,173.098l-0.028,0.011
			C189.155,173.042,189.162,173.026,189.187,173.098z M158.14,200.576l-13.965-0.495v-12.273l13.965,0.58
			c0,0,26.023-10.648,30.793-12.524c2.426,2.875,6.001,4.752,10.012,4.907C198.595,188.204,192.837,189.11,158.14,200.576z
			 M199.486,177.88c-6.011,0-10.902-4.89-10.902-10.901c0-6.011,4.891-10.902,10.902-10.902c6.011,0,10.901,4.891,10.901,10.902
			C210.387,172.99,205.497,177.88,199.486,177.88z"/>
		<path id="XMLID_131_" style="fill:#8DFFFC;" d="M235.67,162.634L235.67,162.634c-0.332-1.703-1.47-3.058-2.913-3.78
			c1.017-60.711-48.221-71.195-76.482-56.567l5.148,19.241c0.561-0.154,1.16-0.141,1.765-0.249c0.287-0.051,0.572-0.108,0.856-0.166
			l-4.454-17.085c18.689-9.697,70.693-8.592,70.502,54.266c-0.257,0.012-0.515,0.036-0.774,0.086
			c-1.41,0.273-2.628,1.077-3.432,2.267c-0.804,1.188-1.096,2.619-0.823,4.028c0.272,1.409,1.077,2.628,2.266,3.432
			c1.096,0.74,2.398,1.047,3.698,0.877c0.11-0.014,0.25-0.033,0.36-0.054C234.295,168.367,236.333,165.543,235.67,162.634z
			 M230.991,167.028c-0.899,0.18-1.816-0.012-2.577-0.527c-0.76-0.513-1.275-1.293-1.45-2.194c-0.174-0.901,0.013-1.816,0.526-2.577
			c0.514-0.76,1.293-1.275,2.194-1.45c0.07-0.013,0.139-0.025,0.208-0.034c1.785-0.234,3.471,0.964,3.818,2.755
			C234.07,164.862,232.85,166.668,230.991,167.028z"/>
		<path id="XMLID_505_" style="fill:#FFFAFF;" d="M150.075,178.739c0,0,1.728-32.966,32.592-37.985
			C183.209,140.665,145.367,136.294,150.075,178.739z"/>
		<path id="XMLID_504_" style="fill:#8DFFFC;" d="M185.144,123.629c0.162-1.079,0.933-2.089,1.913-2.613
			c-18.186-7.965-32.093,2.811-32.093,2.811l5.824,13.604l2.955-1.4l-4.673-11.068C170.257,118.944,180.437,121.692,185.144,123.629
			z"/>
		<circle id="XMLID_503_" style="fill:#FFFAFF;" cx="189.804" cy="124.442" r="1.762"/>
		<circle id="XMLID_502_" style="fill:#FFFAFF;" cx="230.337" cy="163.656" r="1.762"/>
		<path id="XMLID_499_" style="fill:#8DFFFC;" d="M195.097,124.369c-0.019-1.435-0.597-2.777-1.625-3.778
			c-1.029-1-2.393-1.54-3.82-1.521c-1.392,0.019-2.693,0.567-3.684,1.538c-0.105-0.051-0.212-0.099-0.317-0.15
			c-0.449,0.763-0.868,1.542-1.269,2.334c0.067,0.032,0.135,0.062,0.202,0.094c-0.157,0.521-0.237,1.068-0.229,1.628
			c0.019,1.435,0.597,2.777,1.625,3.778c0.948,0.922,2.175,1.453,3.485,1.515c0.111,0.005,0.223,0.007,0.335,0.005
			c1.435-0.019,2.777-0.597,3.778-1.625C194.578,127.159,195.118,125.803,195.097,124.369z M193.238,124.403
			c0,0.914-0.371,1.781-1.011,2.438c-0.64,0.658-1.517,1.025-2.435,1.038c-0.915,0.019-1.793-0.334-2.451-0.974
			c-0.658-0.64-1.032-1.498-1.044-2.417c-0.013-0.917,0.331-1.785,0.971-2.442c0.64-0.658,1.494-1.027,2.411-1.04
			c0.072-0.001,0.144,0,0.215,0.003c0.838,0.04,1.661,0.383,2.267,0.973C192.818,122.623,193.238,123.487,193.238,124.403
			L193.238,124.403z"/>
		<path id="XMLID_498_" style="fill:#8DFFFC;" d="M143.698,183.806c-0.062,0.073-2.176,1.357-2.176,1.357l2.548,0.197
			L143.698,183.806z"/>
	</g>
	<g id="XMLID_81_">
		<path id="XMLID_129_" style="fill:#8DFFFC;" d="M266.14,135.861v25.793h13.857v4.33h-18.681v-34.638h19.174v9.896h-4.578v-5.38
			H266.14z"/>
		<path id="XMLID_127_" style="fill:#8DFFFC;" d="M309.561,177.118h-19.174v-4.33h14.351v-6.804h-14.228v-27.217h4.453v22.765h9.775
			v-22.765h4.824V177.118z"/>
		<path id="XMLID_124_" style="fill:#8DFFFC;" d="M324.032,165.984v13.609h-4.576v-40.826h19.174v27.217H324.032z M324.032,143.222
			v18.432h9.775v-18.372L324.032,143.222z"/>
		<path id="XMLID_122_" style="fill:#8DFFFC;" d="M367.701,165.984h-4.824v-22.887h-9.775v22.887h-4.576v-40.824h4.576v13.606
			h14.599V165.984z"/>
		<path id="XMLID_119_" style="fill:#8DFFFC;" d="M382.42,161.654h14.351v4.33h-19.174v-27.217h19.052v16.083H382.42V161.654z
			 M392.193,150.397v-7.175h-9.773v7.175H392.193z"/>
		<path id="XMLID_117_" style="fill:#8DFFFC;" d="M411.491,143.282v22.702h-4.824v-27.217h16.081v9.898h-4.576v-5.443
			L411.491,143.282z"/>
		<path id="XMLID_112_" style="fill:#8DFFFC;" d="M435.983,165.984v13.609h-4.576v-40.826h19.174v27.217H435.983z M435.983,143.222
			v18.432h9.775v-18.372L435.983,143.222z"/>
		<path id="XMLID_107_" style="fill:#8DFFFC;" d="M479.652,165.984h-19.174v-27.217h4.576v22.887h9.775v-22.887h4.824V165.984z"/>
		<path id="XMLID_84_" style="fill:#8DFFFC;" d="M508.722,165.984h-4.824v-22.887h-9.775v22.887h-4.576v-27.217h19.174V165.984z"/>
		<path id="XMLID_82_" style="fill:#8DFFFC;" d="M539.647,165.984h-7.113l-8.411-11.939h-0.93v11.939h-4.576v-40.824h4.576v25.174
			l9.279-11.505h6.556l-11.443,13.052L539.647,165.984z"/>
	</g>
	<path id="XMLID_79_" style="fill:#FFFFFF;" d="M560.058,125.161h4.576v50.102h-4.576V125.161z"/>
	<path id="XMLID_76_" style="fill:#FFFFFF;" d="M591.475,150.52l0.063,15.464h-4.638v-34.638h17.938v19.174H591.475z
		 M600.012,135.676h-8.537v10.515h8.537V135.676z"/>
	<path id="XMLID_74_" style="fill:#FFFFFF;" d="M619.557,143.282v22.702h-4.824v-27.217h16.081v9.898h-4.576v-5.443L619.557,143.282
		z"/>
	<path id="XMLID_71_" style="fill:#FFFFFF;" d="M639.474,125.161h4.576v8.04h-4.576V125.161z M639.474,138.83l4.576-0.063v27.217
		h-4.576V138.83z"/>
	<path id="XMLID_69_" style="fill:#FFFFFF;" d="M666.937,165.984h-8.66l-7.424-27.217h6.185l4.949,22.887h1.732l4.949-22.887h5.689
		L666.937,165.984z"/>
	<path id="XMLID_66_" style="fill:#FFFFFF;" d="M695.513,143.097h-14.351v-4.33h19.174v27.217h-19.052v-16.083h14.228V143.097z
		 M685.738,154.356v7.175h9.775v-7.175H685.738z"/>
	<path id="XMLID_64_" style="fill:#FFFFFF;" d="M715.056,143.282v18.372h13.857v4.33h-18.681v-27.217h19.174v9.898h-4.578v-5.383
		H715.056z"/>
	<path id="XMLID_62_" style="fill:#FFFFFF;" d="M758.477,177.118h-19.174v-4.33h14.351v-6.804h-14.228v-27.217h4.453v22.765h9.775
		v-22.765h4.824V177.118z"/>
</g>
</svg>
