<?xml version="1.0" encoding="iso-8859-1"?>
<!-- Generator: Adobe Illustrator 19.0.0, SVG Export Plug-In . SVG Version: 6.00 Build 0)  -->
<svg version="1.1" xmlns="http://www.w3.org/2000/svg" xmlns:xlink="http://www.w3.org/1999/xlink" x="0px" y="0px"
	 viewBox="0 0 237.667 194.722" style="enable-background:new 0 0 237.667 194.722;" xml:space="preserve">
<g id="Blocked_x5F_content">
	<g id="XMLID_35_">
		<g id="XMLID_2362_">
			<g id="XMLID_2417_">
				<path id="XMLID_2419_" style="fill:#040026;" d="M107.847,38.823L99.623,6.082c0,0,15.275-13.864,30.562,0.272l-7.39,32.463
					L107.847,38.823z"/>
				<path id="XMLID_2418_" style="fill:#29157F;" d="M99.623,6.082l8.218,32.72c1.702-0.523,3.121-0.972,3.121-0.972l-2.252-13.732
					c-1.872-11.414,9.554-20.801,20.177-16.226c0.292,0.126,0.579,0.259,0.861,0.401l0.437-1.918
					C114.899-7.782,99.623,6.082,99.623,6.082z"/>
			</g>
			<path id="XMLID_2416_" style="fill:none;" d="M112.971,126.991c-31.621,0-57.733,12.74-61.847,29.26
				c9.052-11.915,29.364-20.223,52.988-20.223c32.045,0,58.023,15.278,58.023,34.125c0,5.405-2.145,10.513-5.948,15.055
				c11.834-6.155,19.212-14.806,19.212-24.395C175.399,142.134,147.449,126.991,112.971,126.991z"/>
			<path id="XMLID_2415_" style="fill:none;" d="M158.855,167.938c0-16.38-24.51-29.659-54.743-29.659
				c-26.293,0-48.248,10.045-53.527,23.436c0.885,18.261,28.466,32.921,62.386,32.921c7.668,0,15.01-0.753,21.797-2.123
				C149.302,187.18,158.855,178.164,158.855,167.938z"/>
			<path id="XMLID_2414_" style="fill:#EAE5F7;" d="M180.526,144.325c0.683,1.01,1.235,2.095,1.627,3.259
				c3.924,11.657-8.962,26.517-28.784,33.19c-5.297,1.783-10.55,2.794-15.484,3.106c3.149-0.599,6.359-1.427,9.583-2.513
				C169.619,173.91,184.163,157.49,180.526,144.325z"/>
			<g id="XMLID_2408_">
				<path id="XMLID_2413_" style="fill:#FF7857;" d="M84.586,103.339c0.497,8.935-3.776,16.457-9.544,16.8
					s-10.845-6.622-11.342-15.557s3.776-16.457,9.544-16.8C79.012,87.438,84.089,94.404,84.586,103.339z"/>
				<path id="XMLID_2412_" style="fill:#1987BD;" d="M146.179,103.339c-0.497,8.935,3.776,16.457,9.544,16.8
					c5.767,0.343,10.845-6.622,11.342-15.557s-3.776-16.457-9.544-16.8C151.753,87.438,146.675,94.404,146.179,103.339z"/>
				<path id="XMLID_2411_" style="fill:#1987BD;" d="M78.251,116.346c-1.647-4.818-2.656-10.016-2.907-15.441
					c-1.673-36.171,18.062-45.043,40.342-45.043s41.465,6.679,40.342,45.043c-0.159,5.425-1.125,10.617-2.746,15.434
					c0.197-0.003,0.392,0.014,0.584,0.05c3.114-6.252,4.887-13.356,4.887-20.901c0-24.973-19.281-45.218-43.066-45.218
					S72.62,70.515,72.62,95.488c0,7.543,1.763,14.652,4.873,20.904C77.741,116.344,77.995,116.328,78.251,116.346z"/>
				<path id="XMLID_2410_" style="fill:#1987BD;" d="M153.865,116.389c-0.191-0.036-0.386-0.053-0.584-0.05
					c-0.587,0.009-1.184,0.192-1.697,0.6l-17.139,13.598c-0.488,0.387-1.111,0.6-1.756,0.6H98.682c-0.644,0-1.267-0.213-1.756-0.6
					l-17.139-13.598c-0.467-0.371-1.003-0.555-1.537-0.593c-0.256-0.018-0.51-0.002-0.758,0.046
					c-1.163,0.226-2.149,1.142-2.149,2.421v16.579c0,0.709,0.33,1.384,0.907,1.854l18.502,15.057c0.491,0.4,1.125,0.621,1.781,0.621
					h2.148h34.008h2.148c0.656,0,1.289-0.221,1.781-0.621l18.502-15.057c0.577-0.47,0.907-1.145,0.907-1.854v-16.579
					C156.028,117.53,155.035,116.611,153.865,116.389z"/>
				<path id="XMLID_2409_" style="fill:#1987BD;" d="M108.076,57.074l4.821,3.541c1.662,1.221,3.896,1.192,5.529-0.071l4.292-3.32
					c0.904-0.7,1.535-1.713,1.775-2.854l2.566-12.167c0.435-2.063-0.464-4.182-2.232-5.238c-4.111-2.458-12.067-5.399-20.368,1.432
					c-1.525,1.255-2.133,3.367-1.535,5.286l3.401,10.92C106.635,55.601,107.25,56.467,108.076,57.074z"/>
			</g>
			<path id="XMLID_2407_" style="fill:#42B9E0;" d="M120.316,131.137H98.682c-0.644,0-1.267-0.213-1.756-0.6l-16.543-13.126
				c2.822-3.026,4.526-8.248,4.203-14.072c-0.423-7.613-4.173-13.793-8.841-15.243c2.666-21.768,15.746-29.851,31.555-31.758
				c0.233,0.271,0.485,0.524,0.775,0.737l4.821,3.541c1.662,1.221,3.896,1.192,5.529-0.071l1.89-1.462V34.941
				c-4.288-1.317-9.985-1.377-15.857,3.456c-1.525,1.255-2.133,3.367-1.535,5.286l2.46,7.899
				C88.903,55.831,76.16,70.037,73.256,87.781c-0.004,0-0.008,0-0.012,0c-5.767,0.343-10.04,7.864-9.544,16.8
				c0.496,8.935,5.574,15.9,11.342,15.557c0.102-0.006,0.202-0.02,0.302-0.03v15.284c0,0.709,0.33,1.384,0.907,1.854l18.502,15.057
				c0.491,0.4,1.125,0.621,1.781,0.621h2.148h21.634V131.137z"/>
			<path id="XMLID_2406_" style="fill:#FFFAFF;" d="M72.617,91.249c-0.001-0.007-0.001-0.014-0.002-0.02
				c-0.058-0.692-0.803-1.096-1.417-0.772c-3.135,1.649-5.386,6.147-5.386,11.45c0,1.308,0.141,2.566,0.394,3.747
				c-0.055-0.573-0.093-1.154-0.093-1.749c0-5.61,2.519-10.323,5.938-11.711C72.425,92.04,72.65,91.651,72.617,91.249z"/>
			<path id="XMLID_2405_" style="fill:#FFFAFF;" d="M75.772,89.535c0.085,0.768,0.151,1.539,0.192,2.315
				c3.848,0.442,7.044,4.399,8.192,9.753C83.541,95.177,80.085,90.143,75.772,89.535z"/>
			<path id="XMLID_2404_" style="fill:#29157F;" d="M92.797,147.335c-1.091,3.484-2.331,8.858-2.213,15.044
				c0.003,0.181,0.074,0.351,0.2,0.481c0.866,0.902,4.867,4.315,16.555,5.33c0.861,0.075,1.073-1.169,0.233-1.372
				c-6.16-1.488-13.84-3.756-14.039-5.845l0.626-13.394C94.196,146.762,93.042,146.555,92.797,147.335z"/>
			<path id="XMLID_2403_" style="fill:#FFFAFF;" d="M76.996,133.393l-0.134-9.333c-0.021-1.478,1.679-2.321,2.842-1.41l10.008,7.832
				c0.433,0.339,0.682,0.86,0.675,1.409l-0.138,9.944c-0.021,1.496-1.781,2.284-2.911,1.304l-9.736-8.443
				C77.224,134.368,77.004,133.894,76.996,133.393z"/>
			<path id="XMLID_2402_" style="fill:#FFFAFF;" d="M94.764,145.723L94.764,145.723c-0.412,0-0.75-0.337-0.75-0.75v-11.301
				c0-0.413,0.338-0.75,0.75-0.75l0,0c0.413,0,0.75,0.337,0.75,0.75v11.301C95.514,145.386,95.177,145.723,94.764,145.723z"/>
			<rect id="XMLID_2401_" x="118.566" y="131.137" style="fill:#006589;" width="1.5" height="21.786"/>
			<path id="XMLID_2400_" style="fill:#006589;" d="M119.566,59.662l1.5-1.16V35.187c-0.48-0.17-0.982-0.323-1.5-0.459V59.662z"/>
			<path id="XMLID_2399_" style="fill:#040026;" d="M115.686,55.862c-22.28,0-42.014,8.872-40.342,45.043
				c0.251,5.424,1.26,10.623,2.907,15.441c0.534,0.038,1.07,0.222,1.537,0.593l17.139,13.598c0.488,0.387,1.111,0.6,1.756,0.6
				h34.008c0.644,0,1.267-0.213,1.756-0.6l17.139-13.598c0.514-0.408,1.111-0.591,1.697-0.6c1.621-4.817,2.588-10.008,2.746-15.434
				C157.151,62.541,137.966,55.862,115.686,55.862z"/>
			<polygon id="XMLID_2370_" style="fill:#29157F;" points="84,116.814 97.083,127.73 131.583,127.73 145.583,117.564 131,125.98 
				97.75,125.98 			"/>
			<path id="XMLID_2369_" style="fill:#29157F;" d="M115.68,59.641c-19.815,0-37.366,7.89-35.878,40.06
				c0.014,0.296,0.038,0.589,0.056,0.883c-1.103-31.416,16.306-39.176,35.95-39.176c17.584,0,32.992,4.689,35.574,29.538
				C149.377,64.537,133.663,59.641,115.68,59.641z"/>
			<path id="XMLID_2368_" style="fill:#FFFAFF;" d="M115.073,36.397c0,0-4.664-0.037-8.378,3.01
				c-1.128,0.925-1.656,2.409-1.375,3.841c0.258,1.316,0.791,3.266,1.878,5.983c1.694,4.234,0.931-1.621,0.352-5.342
				c-0.252-1.617,0.493-3.224,1.892-4.073L115.073,36.397z"/>
			<ellipse id="XMLID_2367_" style="fill:#FFFAFF;" cx="101.432" cy="105.876" rx="9.295" ry="17.373"/>
			<ellipse id="XMLID_2366_" style="fill:#FFFAFF;" cx="128.905" cy="105.876" rx="9.295" ry="17.373"/>
			<g id="XMLID_2364_">
				<polygon id="XMLID_2365_" style="fill:#B4B4EF;" points="237.667,183.14 234.667,183.14 234.667,114.263 3,114.263 3,183.14 
					0,183.14 0,111.263 237.667,111.263 				"/>
			</g>
			<rect id="XMLID_2363_" x="3" y="114.263" style="fill:#FFFFFF;" width="231.667" height="68.877"/>
		</g>
		<g id="XMLID_2358_">
			<path id="XMLID_2359_" style="fill:#B4B4EF;" d="M114.277,194.722c-20.253,0-36.73-16.478-36.73-36.731s16.477-36.73,36.73-36.73
				s36.73,16.477,36.73,36.73S134.53,194.722,114.277,194.722z M114.277,123.26c-19.15,0-34.73,15.58-34.73,34.73
				c0,19.151,15.58,34.731,34.73,34.731s34.73-15.58,34.73-34.731C149.007,138.84,133.427,123.26,114.277,123.26z"/>
		</g>
		
			<rect id="XMLID_2357_" x="69.237" y="152.931" transform="matrix(1 -0.0022 0.0022 1 -0.3481 0.2572)" style="fill:#FFFFFF;" width="91.155" height="5.551"/>
		
			<rect id="XMLID_2342_" x="69.237" y="139.255" transform="matrix(1 -0.0022 0.0022 1 -0.3175 0.2572)" style="fill:#FFFFFF;" width="91.155" height="5.551"/>
		
			<rect id="XMLID_2341_" x="69.225" y="115.816" transform="matrix(1 -0.0022 0.0022 1 -0.2799 0.2571)" style="fill:#FFFFFF;" width="91.155" height="18.829"/>
		<path id="XMLID_2340_" style="fill:#B4B4EF;" d="M12.2,154.625v-32.382c0-0.582,0.472-1.055,1.055-1.055l43.945-0.136
			c3.25,0,5.625,2.761-0.498,2.954l-38.59,1.14c-0.524,0.024-0.95,0.429-1.001,0.951l-2.807,28.63
			C14.173,156.061,12.2,155.964,12.2,154.625z"/>
		<g id="XMLID_2329_">
			<path id="XMLID_2339_" style="fill:#FF7857;" d="M123.532,176.252h-18.569c-1.803,0-3.278-1.475-3.278-3.278v-13.819
				c0-1.803,1.475-3.278,3.278-3.278h18.569c1.803,0,3.278,1.475,3.278,3.278v13.819
				C126.81,174.777,125.335,176.252,123.532,176.252z"/>
			<path id="XMLID_2338_" style="fill:#42B9E0;" d="M123.683,138.184h-18.813c-0.673,0-1.219,0.546-1.219,1.219v14.826h5.313
				v-10.576c0-0.673,0.546-1.219,1.219-1.219h8.688c0.673,0,1.219,0.546,1.219,1.219v1.688c0,0.673,0.546,1.219,1.219,1.219h2.375
				c0.673,0,1.219-0.546,1.219-1.219v-5.938C124.902,138.73,124.356,138.184,123.683,138.184z"/>
			<g id="XMLID_2334_">
				<path id="XMLID_2335_" style="fill:#42B9E0;" d="M124.84,178.606h-21.125c-2.481,0-4.5-2.019-4.5-4.5v-16.063
					c0-2.481,2.019-4.5,4.5-4.5h21.125c2.481,0,4.5,2.019,4.5,4.5v16.063C129.34,176.588,127.321,178.606,124.84,178.606z
					 M103.715,154.544c-1.93,0-3.5,1.57-3.5,3.5v16.063c0,1.93,1.57,3.5,3.5,3.5h21.125c1.93,0,3.5-1.57,3.5-3.5v-16.063
					c0-1.93-1.57-3.5-3.5-3.5H103.715z"/>
			</g>
			<g id="XMLID_2331_">
				<circle id="XMLID_2333_" style="fill:#FFFAFF;" cx="114.277" cy="163.991" r="3.541"/>
				<path id="XMLID_2332_" style="fill:#FFFAFF;" d="M114.509,172.949h-0.464c-0.642,0-1.167-0.525-1.167-1.167v-8.208
					c0-0.642,0.525-1.167,1.167-1.167h0.464c0.642,0,1.167,0.525,1.167,1.167v8.208
					C115.676,172.424,115.151,172.949,114.509,172.949z"/>
			</g>
		</g>
	</g>
</g>
<g id="Layer_1">
</g>
</svg>
