<?xml version="1.0" encoding="iso-8859-1"?>
<!-- Generator: Adobe Illustrator 19.0.0, SVG Export Plug-In . SVG Version: 6.00 Build 0)  -->
<svg version="1.1" xmlns="http://www.w3.org/2000/svg" xmlns:xlink="http://www.w3.org/1999/xlink" x="0px" y="0px"
	 viewBox="0 0 81.874 180.321" style="enable-background:new 0 0 81.874 180.321;" xml:space="preserve">
<g id="color_x5F_palette">
	<g id="XMLID_5_">
		<g id="XMLID_1078_">
			<rect id="XMLID_1081_" x="27.161" y="57.48" style="fill:#1987BD;" width="27.552" height="11.526"/>
			<rect id="XMLID_1080_" x="54.325" y="57.48" style="fill:#006589;" width="27.549" height="11.526"/>
			<rect id="XMLID_1079_" y="57.48" style="fill:#42B9E0;" width="27.549" height="11.526"/>
		</g>
		<g id="XMLID_1074_">
			<rect id="XMLID_1077_" x="27.161" y="3.091" style="fill:#0E003F;" width="27.552" height="55.737"/>
			<rect id="XMLID_1076_" x="54.325" y="3.091" style="fill:#040026;" width="27.549" height="55.737"/>
			<rect id="XMLID_1075_" y="3.091" style="fill:#29157F;" width="27.549" height="55.737"/>
		</g>
		<g id="XMLID_1070_">
			<rect id="XMLID_1073_" x="27.161" y="0" style="fill:#7972C4;" width="27.552" height="10.505"/>
			<rect id="XMLID_1072_" x="54.325" y="0" style="fill:#483C91;" width="27.549" height="10.505"/>
			<rect id="XMLID_1071_" y="0" style="fill:#B4B4EF;" width="27.549" height="10.505"/>
		</g>
		<g id="XMLID_1066_">
			<rect id="XMLID_1069_" x="27.161" y="68.207" style="fill:#FFB179;" width="27.552" height="18.434"/>
			<rect id="XMLID_1068_" x="54.325" y="68.207" style="fill:#FF7857;" width="27.549" height="18.434"/>
			<rect id="XMLID_1067_" y="68.207" style="fill:#FFE49A;" width="27.549" height="18.434"/>
		</g>
		<g id="XMLID_1060_">
			<rect id="XMLID_1064_" x="27.161" y="86.538" style="fill:#EFEAEA;" width="27.552" height="93.018"/>
			<rect id="XMLID_1063_" x="54.325" y="86.538" style="fill:#C6C1C1;" width="27.549" height="93.018"/>
			<rect id="XMLID_1061_" y="86.538" style="fill:#FFFFFF;" width="27.549" height="93.018"/>
		</g>
		<g id="XMLID_1056_">
			<rect id="XMLID_1059_" x="27.161" y="168.613" style="fill:#5E5A5A;" width="27.552" height="11.708"/>
			<rect id="XMLID_1058_" x="54.325" y="168.613" style="fill:#302F2F;" width="27.549" height="11.708"/>
			<rect id="XMLID_1057_" y="168.613" style="fill:#7F7979;" width="27.549" height="11.708"/>
		</g>
	</g>
</g>
<g id="Layer_1">
</g>
</svg>
