<?xml version="1.0" encoding="iso-8859-1"?>
<!-- Generator: Adobe Illustrator 19.0.0, SVG Export Plug-In . SVG Version: 6.00 Build 0)  -->
<svg version="1.1" xmlns="http://www.w3.org/2000/svg" xmlns:xlink="http://www.w3.org/1999/xlink" x="0px" y="0px"
	 viewBox="0 0 113.779 35" style="enable-background:new 0 0 113.779 35;" xml:space="preserve">
<g id="download_x5F_button">
	<g id="Rectangle-2-Copy-2">
		<g id="XMLID_356_">
			<path id="path-12_10_" d="M5,0h103.779c2.761,0,5,2.239,5,5v25c0,2.761-2.239,5-5,5H5c-2.761,0-5-2.239-5-5V5
				C0,2.239,2.239,0,5,0z"/>
		</g>
		<g id="XMLID_355_">
			<path id="path-12_1_" style="fill:#1987BD;" d="M5,0h103.779c2.761,0,5,2.239,5,5v25c0,2.761-2.239,5-5,5H5c-2.761,0-5-2.239-5-5
				V5C0,2.239,2.239,0,5,0z"/>
		</g>
	</g>
</g>
<g id="Layer_1">
</g>
</svg>
