<?xml version="1.0" encoding="iso-8859-1"?>
<!-- Generator: Adobe Illustrator 19.0.0, SVG Export Plug-In . SVG Version: 6.00 Build 0)  -->
<svg version="1.1" xmlns="http://www.w3.org/2000/svg" xmlns:xlink="http://www.w3.org/1999/xlink" x="0px" y="0px"
	 viewBox="0 0 415.069 390.182" style="enable-background:new 0 0 415.069 390.182;" xml:space="preserve">
<g id="expert">
	<g id="XMLID_1259_">
		<polygon id="XMLID_1448_" style="fill:#7972C4;" points="310.902,206.266 312.69,235.406 360.6,232.466 355.538,203.527 		"/>
		<polygon id="XMLID_1447_" style="fill:#FF7857;" points="360.315,142.67 360.315,172.337 407.982,172.337 404.815,142.67 		"/>
		<polygon id="XMLID_1446_" style="fill:#1987BD;" points="286.399,85.17 286.399,115.337 334.149,115.337 331.232,85.17 		"/>
		<g id="XMLID_1425_">
			<path id="XMLID_1444_" style="fill:#FF7857;" d="M213.475,13.84l-11.59,44.391c-0.18,0.69-0.837,1.073-1.422,0.807
				c-6.88-3.132-14.789-0.553-17.665,0.598c-0.605,0.242-1.258-0.171-1.41-0.882l-9.886-46.291
				c-0.185-0.867-1.092-1.233-1.717-0.697c-0.473,0.406-0.851,0.751-1.126,1.009c-0.327,0.307-0.469,0.797-0.366,1.266
				l12.439,56.599c0.122,0.554,0.557,0.942,1.057,0.941l21.57-0.01c0.508,0,0.949-0.402,1.061-0.968l11.177-56.112
				c0.088-0.442-0.041-0.912-0.337-1.213c-0.006-0.006-0.012-0.012-0.018-0.018C214.646,12.655,213.702,12.967,213.475,13.84z"/>
			<path id="XMLID_1442_" style="fill:#42B9E0;" d="M186.267,52.555L186.267,52.555c-0.61,0.161-1.224-0.277-1.366-0.973
				l-4.11-20.272c-0.141-0.697,0.242-1.399,0.852-1.561l0,0c0.61-0.161,1.224,0.277,1.366,0.973l4.11,20.272
				C187.26,51.692,186.877,52.394,186.267,52.555z"/>
			<path id="XMLID_1441_" style="fill:#B4B4EF;" d="M180.387,24.268L180.387,24.268c-0.61,0.161-1.224-0.277-1.366-0.973
				l-1.467-7.239c-0.141-0.697,0.242-1.399,0.852-1.561v0c0.61-0.161,1.224,0.277,1.366,0.973l1.467,7.239
				C181.38,23.404,180.997,24.106,180.387,24.268z"/>
			<path id="XMLID_1440_" style="fill:#B4B4EF;" d="M168.343,8.01L168.343,8.01c-0.61,0.161-1.224-0.277-1.366-0.973l-0.813-4.011
				c-0.141-0.697,0.242-1.399,0.852-1.561v0c0.61-0.161,1.224,0.277,1.366,0.973l0.813,4.011
				C169.336,7.146,168.952,7.849,168.343,8.01z"/>
			<path id="XMLID_1439_" style="fill:#42B9E0;" d="M207.574,6.638L207.574,6.638c-0.617-0.123-1.033-0.801-0.925-1.505l0.621-4.056
				c0.108-0.705,0.701-1.18,1.317-1.057v0c0.617,0.123,1.033,0.801,0.925,1.505l-0.621,4.056
				C208.783,6.285,208.191,6.761,207.574,6.638z"/>
			<path id="XMLID_1438_" style="fill:#FF7857;" d="M199.299,50.795L199.299,50.795c0.614,0.139,1.017,0.827,0.895,1.529
				l-1.251,7.209c-0.122,0.702-0.724,1.162-1.338,1.023l0,0c-0.614-0.139-1.017-0.827-0.895-1.529l1.251-7.209
				C198.083,51.116,198.685,50.656,199.299,50.795z"/>
			<path id="XMLID_1435_" style="fill:#FF7857;" d="M192.933,53.457L192.933,53.457c0.625-0.03,1.159,0.53,1.185,1.245l0.165,4.507
				c0.026,0.715-0.464,1.324-1.089,1.354h0c-0.625,0.03-1.159-0.53-1.185-1.245l-0.165-4.507
				C191.817,54.096,192.308,53.487,192.933,53.457z"/>
			<path id="XMLID_1434_" style="fill:#B4B4EF;" d="M192.893,37.684h-0.151c-0.3,0-0.546-0.246-0.546-0.546V3.875
				c0-0.3,0.246-0.546,0.546-0.546h0.151c0.3,0,0.546,0.246,0.546,0.546v33.263C193.439,37.438,193.194,37.684,192.893,37.684z"/>
			<path id="XMLID_1433_" style="fill:#42B9E0;" d="M196.74,44.77L196.74,44.77c-0.43-0.079-0.725-0.546-0.656-1.038l1.537-10.888
				c0.069-0.492,0.478-0.829,0.908-0.749l0,0c0.43,0.079,0.725,0.546,0.656,1.038l-1.537,10.888
				C197.579,44.512,197.17,44.85,196.74,44.77z"/>
			<path id="XMLID_1432_" style="fill:#FF7857;" d="M199.32,27.994L199.32,27.994c-0.43-0.079-0.725-0.546-0.656-1.038l0.378-2.676
				c0.069-0.492,0.478-0.829,0.908-0.749l0,0c0.43,0.079,0.725,0.546,0.656,1.038l-0.378,2.676
				C200.159,27.736,199.75,28.073,199.32,27.994z"/>
			<path id="XMLID_1431_" style="fill:#FF7857;" d="M187.315,25.18L187.315,25.18c-0.427,0.098-0.847-0.22-0.933-0.708l-0.469-2.657
				c-0.086-0.488,0.193-0.968,0.62-1.066l0,0c0.427-0.098,0.847,0.22,0.933,0.708l0.469,2.657
				C188.021,24.601,187.742,25.081,187.315,25.18z"/>
			<path id="XMLID_1430_" style="fill:#B4B4EF;" d="M208.865,65.629L208.865,65.629c-0.308-0.171-0.437-0.598-0.287-0.95
				l8.662-20.369c0.149-0.351,0.523-0.499,0.831-0.328l0,0c0.308,0.171,0.437,0.598,0.287,0.95L209.696,65.3
				C209.546,65.652,209.172,65.799,208.865,65.629z"/>
			<path id="XMLID_1429_" style="fill:#FF7857;" d="M218.769,32.013L218.769,32.013c-0.308-0.171-0.437-0.598-0.287-0.95
				l2.276-5.352c0.149-0.351,0.523-0.499,0.831-0.328l0,0c0.308,0.171,0.437,0.598,0.287,0.95l-2.276,5.352
				C219.45,32.035,219.077,32.183,218.769,32.013z"/>
			<path id="XMLID_1428_" style="fill:#42B9E0;" d="M172.482,53.27L172.482,53.27c-0.326,0.117-0.677-0.092-0.78-0.464l-1.564-5.676
				c-0.103-0.373,0.08-0.774,0.406-0.891l0,0c0.326-0.117,0.677,0.092,0.78,0.464l1.564,5.676
				C172.991,52.751,172.808,53.152,172.482,53.27z"/>
			<path id="XMLID_1427_" style="fill:#FF7857;" d="M202.419,34.398L202.419,34.398c-0.326-0.118-0.508-0.52-0.404-0.892
				l2.797-10.047c0.104-0.372,0.455-0.58,0.781-0.462l0,0c0.326,0.118,0.508,0.52,0.404,0.892L203.2,33.936
				C203.096,34.308,202.745,34.516,202.419,34.398z"/>
			<path id="XMLID_1426_" style="fill:#FF7857;" d="M184.642,60.49L184.642,60.49c-0.334,0.083-0.667-0.161-0.74-0.543l-0.61-3.198
				c-0.073-0.382,0.141-0.762,0.475-0.845l0,0c0.334-0.083,0.667,0.161,0.74,0.543l0.61,3.198
				C185.19,60.027,184.976,60.407,184.642,60.49z"/>
		</g>
		<g id="XMLID_1420_">
			<path id="XMLID_1421_" style="fill:#C6C1C1;" d="M340.542,121.293h-59.765V80.262h55.591L340.542,121.293z M283.053,119.016
				h54.97l-3.711-36.479h-51.259V119.016z"/>
		</g>
		<g id="XMLID_1415_">
			<path id="XMLID_1416_" style="fill:#C6C1C1;" d="M415.069,177.884h-60.862v-41.032h56.632L415.069,177.884z M356.484,175.607
				h56.063l-3.761-36.48h-52.302V175.607z"/>
		</g>
		<g id="XMLID_1411_">
			<path id="XMLID_1412_" style="fill:#C6C1C1;" d="M367.935,238.565l-60.747,3.728l-2.513-40.954l56.525-3.469L367.935,238.565z
				 M309.32,239.882l55.957-3.434l-5.988-36.18l-52.203,3.203L309.32,239.882z"/>
		</g>
		<g id="XMLID_1409_">
			<path id="XMLID_1410_" style="fill:#EFEAEA;" d="M316.121,92.027h-23.744c-0.614,0-1.117-0.502-1.117-1.117v-0.072
				c0-0.614,0.502-1.117,1.117-1.117h23.744c0.614,0,1.117,0.502,1.117,1.117v0.072C317.238,91.524,316.735,92.027,316.121,92.027z"
				/>
		</g>
		<g id="XMLID_1407_">
			<path id="XMLID_1408_" style="fill:#42B9E0;" d="M309.412,109.23h-17.035c-0.614,0-1.117-0.502-1.117-1.117v-0.072
				c0-0.614,0.502-1.117,1.117-1.117h17.035c0.614,0,1.117,0.502,1.117,1.117v0.072C310.529,108.727,310.026,109.23,309.412,109.23z
				"/>
		</g>
		<g id="XMLID_1405_">
			<path id="XMLID_1406_" style="fill:#EFEAEA;" d="M324.766,100.869h-16.26c-0.614,0-1.117-0.502-1.117-1.117V99.68
				c0-0.614,0.502-1.117,1.117-1.117h16.26c0.614,0,1.117,0.502,1.117,1.117v0.072C325.883,100.366,325.38,100.869,324.766,100.869z
				"/>
		</g>
		<g id="XMLID_1403_">
			<path id="XMLID_1404_" style="fill:#EFEAEA;" d="M302.015,100.869h-9.637c-0.614,0-1.117-0.502-1.117-1.117V99.68
				c0-0.614,0.502-1.117,1.117-1.117h9.637c0.614,0,1.117,0.502,1.117,1.117v0.072C303.131,100.366,302.629,100.869,302.015,100.869
				z"/>
		</g>
		<g id="XMLID_1392_">
			<g id="XMLID_1401_">
				<path id="XMLID_1402_" style="fill:#EFEAEA;" d="M376.988,149.112h-10.622c-0.614,0-1.117-0.502-1.117-1.117v-0.035
					c0-0.614,0.502-1.117,1.117-1.117h10.622c0.614,0,1.117,0.502,1.117,1.117v0.035
					C378.104,148.61,377.602,149.112,376.988,149.112z"/>
			</g>
			<g id="XMLID_1399_">
				<path id="XMLID_1400_" style="fill:#EFEAEA;" d="M391.122,149.112h-6.654c-0.614,0-1.117-0.502-1.117-1.117v-0.035
					c0-0.614,0.502-1.117,1.117-1.117h6.654c0.614,0,1.117,0.502,1.117,1.117v0.035
					C392.239,148.609,391.737,149.112,391.122,149.112z"/>
			</g>
			<g id="XMLID_1397_">
				<path id="XMLID_1398_" style="fill:#EFEAEA;" d="M374.956,166.04h-8.591c-0.614,0-1.117-0.502-1.117-1.117v-0.035
					c0-0.614,0.502-1.117,1.117-1.117h8.591c0.614,0,1.117,0.502,1.117,1.117v0.035C376.073,165.537,375.571,166.04,374.956,166.04z
					"/>
			</g>
			<g id="XMLID_1395_">
				<path id="XMLID_1396_" style="fill:#FFE49A;" d="M395.608,166.039h-12.209c-0.614,0-1.117-0.502-1.117-1.117v-0.035
					c0-0.614,0.502-1.117,1.117-1.117h12.209c0.614,0,1.117,0.502,1.117,1.117v0.035
					C396.725,165.537,396.222,166.039,395.608,166.039z"/>
			</g>
			<g id="XMLID_1393_">
				<path id="XMLID_1394_" style="fill:#EFEAEA;" d="M393.915,157.813h-27.55c-0.614,0-1.117-0.502-1.117-1.117v-0.035
					c0-0.614,0.502-1.117,1.117-1.117h27.55c0.614,0,1.117,0.502,1.117,1.117v0.035C395.032,157.31,394.53,157.813,393.915,157.813z
					"/>
			</g>
		</g>
		<g id="XMLID_1385_">
			<g id="XMLID_1390_">
				<path id="XMLID_1391_" style="fill:#EFEAEA;" d="M333.29,212.495l-14.991,0.92c-0.613,0.038-1.145-0.433-1.183-1.046
					l-0.004-0.064c-0.038-0.613,0.433-1.145,1.046-1.183l14.991-0.92c0.613-0.038,1.145,0.433,1.183,1.046l0.004,0.064
					C334.374,211.925,333.903,212.457,333.29,212.495z"/>
			</g>
			<g id="XMLID_1388_">
				<path id="XMLID_1389_" style="fill:#EFEAEA;" d="M347.848,211.601l-6.755,0.415c-0.613,0.038-1.145-0.433-1.183-1.046
					l-0.004-0.064c-0.038-0.613,0.433-1.145,1.046-1.183l6.755-0.415c0.613-0.038,1.145,0.433,1.183,1.046l0.004,0.064
					C348.932,211.031,348.461,211.563,347.848,211.601z"/>
			</g>
			<g id="XMLID_1386_">
				<path id="XMLID_1387_" style="fill:#EFEAEA;" d="M327.552,221.676l-8.713,0.535c-0.613,0.038-1.145-0.433-1.183-1.046
					l-0.004-0.064c-0.038-0.613,0.433-1.145,1.046-1.183l8.713-0.535c0.613-0.038,1.145,0.433,1.183,1.046l0.004,0.064
					C328.636,221.106,328.165,221.638,327.552,221.676z"/>
			</g>
		</g>
		<path id="XMLID_1384_" style="fill:#B4B4EF;" d="M288.965,317.506c-2.153-18.362-8.659-51.347-28.321-81.968
			c-0.94-1.464,0.318-2.871,1.346-1.501c13.486,17.986,29.561,47.224,29.033,83.964C291,319.582,289.157,319.141,288.965,317.506z"
			/>
		<path id="XMLID_1383_" style="fill:#B4B4EF;" d="M251.492,352.422c6.826,1.65,18.734,2.703,27.953-6.175
			c0.441-0.424,1.156,0.732,0.763,1.236c-5.154,6.616-14.32,13.14-28.63,6.341C250.961,353.532,250.884,352.275,251.492,352.422z"/>
		<path id="XMLID_1382_" style="fill:#483C91;" d="M138.863,228.307c0,0-32.307,24.327-39.715,89.696l21.813-10.535
			c0,0,6.217-19.94,40.191-51.408l-16.196-29.738L138.863,228.307z"/>
		<path id="XMLID_1381_" style="fill:#483C91;" d="M242.819,229.88c0,0,28.465,34.157,36.128,100.94c0,0-8.539,19.268-32.187,9.908
			c0,0-51.017,35.416-94.65,2.135c0,0-15.85-35.318-7.347-110.497"/>
		<path id="XMLID_1380_" style="fill:#29157F;" d="M176.529,244.659v9.853c0,0,5.912,3.941,6.405,3.941
			c0.493,0,7.061,2.299,7.061,2.299l9.201,0.657c0,0,6.236-1.642,7.057-1.971s4.348-2.628,4.348-2.628l4.497-5.912l1.171-6.24
			l-2.463-2.463c0,0-11.831-2.628-16.754-2.792C192.13,239.24,176.529,244.659,176.529,244.659z"/>
		<polygon id="XMLID_1379_" style="fill:#FF7857;" points="176.529,266.756 186.466,272.026 181.714,277.568 174.581,268.263 		"/>
		<path id="XMLID_1378_" style="fill:#29157F;" d="M278.947,330.819c-6.601-57.524-28.62-90.817-34.603-98.95
			c-4.926,1.259-11.963,12.445-17.826,15.883c-15.247,8.941-29.466,13.61-29.466,13.61l2.896,95.548
			c26.212-1.889,46.811-16.183,46.811-16.183C270.408,350.087,278.947,330.819,278.947,330.819z"/>
		<polygon id="XMLID_1377_" style="fill:#FF7857;" points="213.058,266.756 203.121,272.026 207.873,277.568 215.006,268.263 		"/>
		<path id="XMLID_1376_" style="fill:#B4B4EF;" d="M172.134,277.848c0.843-3.781,4.433-12.669,19.662-15.723
			c1.175-0.236,1.331-1.861,0.21-2.283c-6.39-2.403-16.478-8.023-15.629-19.387c0.042-0.567-0.293-1.094-0.836-1.26l-21.036-6.45
			c-0.676-0.207-1.385,0.211-1.521,0.905c-1.146,5.85-4.413,30.308,17.306,44.912C170.99,279.033,171.95,278.672,172.134,277.848z"
			/>
		<path id="XMLID_1375_" style="fill:#B4B4EF;" d="M217.575,277.98c-0.794-3.729-4.332-12.895-20.024-15.921
			c-1.095-0.211-1.224-1.722-0.177-2.106c6.383-2.344,16.837-7.98,15.923-19.574c-0.041-0.522,0.268-1.008,0.768-1.161l21.21-6.503
			c0.623-0.191,1.273,0.192,1.401,0.831c1.128,5.666,4.578,30.412-17.403,45.095C218.627,279.072,217.737,278.741,217.575,277.98z"
			/>
		<path id="XMLID_1374_" style="fill:#FF7857;" d="M180.897,280.02l9.102,10.559c2.551,2.959,7.131,2.974,9.702,0.032l9.224-10.559
			c3.629-4.154,0.679-10.648-4.837-10.648h-18.326C180.266,269.404,177.309,275.858,180.897,280.02z"/>
		<path id="XMLID_1373_" style="fill:#FF7857;" d="M192.819,289.786l-13.222,65.986c-0.164,0.817,0.178,1.652,0.867,2.12
			l24.879,16.89c1.053,0.715,2.495,0.32,3.037-0.832l13.254-28.191c0.259-0.55,0.262-1.186,0.01-1.739l-24.91-54.685
			c-0.336-0.738-1.073-1.212-1.884-1.212h0C193.862,288.122,193.013,288.819,192.819,289.786z"/>
		<path id="XMLID_1372_" style="fill:#040026;" d="M240.852,275.87c0,0,9.129,40.516,3.427,56.263l-2.921-4.496
			C241.359,327.637,244.149,314.158,240.852,275.87z"/>
		<g id="XMLID_1366_">
			<path id="XMLID_1371_" style="fill:#FF7857;" d="M144.701,172.088c0.774,13.92-5.883,25.637-14.868,26.172
				c-8.985,0.534-16.896-10.317-17.669-24.237c-0.774-13.92,5.883-25.637,14.868-26.172
				C136.017,147.317,143.928,158.168,144.701,172.088z"/>
			<path id="XMLID_1370_" style="fill:#1987BD;" d="M240.656,172.088c-0.774,13.92,5.883,25.637,14.868,26.172
				c8.985,0.534,16.896-10.317,17.669-24.237c0.774-13.92-5.883-25.637-14.868-26.172
				C249.34,147.317,241.429,158.168,240.656,172.088z"/>
			<path id="XMLID_1369_" style="fill:#1987BD;" d="M134.833,192.352c-2.566-7.506-4.138-15.604-4.528-24.055
				c-2.606-56.351,28.138-70.172,62.848-70.172s64.597,10.405,62.848,70.172c-0.247,8.452-1.753,16.54-4.279,24.044
				c0.307-0.005,0.611,0.022,0.909,0.078c4.852-9.74,7.614-20.808,7.614-32.561c0-38.905-30.038-70.444-67.092-70.444
				s-67.092,31.539-67.092,70.444c0,11.751,2.746,22.826,7.592,32.566C134.038,192.349,134.434,192.323,134.833,192.352z"/>
			<path id="XMLID_1368_" style="fill:#1987BD;" d="M252.63,192.419c-0.298-0.056-0.602-0.083-0.909-0.078
				c-0.914,0.014-1.844,0.299-2.644,0.934l-26.7,21.184c-0.76,0.603-1.731,0.935-2.735,0.935h-52.98
				c-1.004,0-1.974-0.332-2.735-0.935l-26.7-21.184c-0.728-0.577-1.562-0.865-2.395-0.924c-0.399-0.028-0.795-0.003-1.18,0.072
				c-1.813,0.352-3.348,1.78-3.348,3.771v25.828c0,1.104,0.515,2.156,1.414,2.888l28.823,23.456
				c0.766,0.623,1.752,0.967,2.774,0.967h3.346h52.98h3.346c1.022,0,2.009-0.344,2.774-0.967l28.823-23.456
				c0.899-0.732,1.414-1.783,1.414-2.888v-25.828C256,194.196,254.452,192.764,252.63,192.419z"/>
			<path id="XMLID_1367_" style="fill:#1987BD;" d="M181.296,100.013l7.511,5.516c2.59,1.902,6.07,1.857,8.613-0.11l6.686-5.172
				c1.409-1.09,2.391-2.668,2.766-4.446l3.998-18.955c0.678-3.215-0.723-6.514-3.477-8.161c-6.405-3.829-18.799-8.411-31.731,2.232
				c-2.376,1.956-3.323,5.245-2.392,8.235l5.298,17.012C179.052,97.718,180.009,99.068,181.296,100.013z"/>
		</g>
		<path id="XMLID_1365_" style="fill:#42B9E0;" d="M200.365,215.395h-33.703c-1.004,0-1.974-0.332-2.735-0.935l-25.773-20.449
			c4.397-4.715,7.051-12.85,6.547-21.923c-0.659-11.86-6.501-21.487-13.772-23.747c4.154-33.912,24.531-46.505,49.16-49.476
			c0.363,0.422,0.756,0.817,1.207,1.148l7.511,5.516c2.59,1.902,6.07,1.857,8.613-0.11l2.945-2.278V65.532
			c-6.68-2.052-15.555-2.145-24.703,5.384c-2.376,1.956-3.323,5.245-2.392,8.235l3.832,12.306
			c-25.675,6.62-45.528,28.75-50.051,56.394c-0.006,0-0.012,0-0.019,0c-8.985,0.534-15.641,12.252-14.868,26.172
			c0.773,13.92,8.684,24.771,17.669,24.237c0.158-0.009,0.314-0.03,0.471-0.047v23.81c0,1.104,0.515,2.156,1.414,2.888
			l28.823,23.456c0.766,0.623,1.752,0.967,2.774,0.967h3.346h33.703V215.395z"/>
		<path id="XMLID_1364_" style="fill:#FFFAFF;" d="M126.055,153.253c-0.001-0.011-0.002-0.021-0.003-0.032
			c-0.09-1.078-1.25-1.707-2.208-1.203c-4.884,2.569-8.391,9.577-8.391,17.838c0,2.038,0.219,3.997,0.614,5.837
			c-0.085-0.892-0.144-1.797-0.144-2.725c0-8.739,3.924-16.081,9.251-18.245C125.756,154.486,126.107,153.879,126.055,153.253z"/>
		<path id="XMLID_1363_" style="fill:#FFFAFF;" d="M130.971,150.584c0.132,1.196,0.235,2.398,0.299,3.606
			c5.995,0.689,10.973,6.853,12.763,15.193C143.074,159.374,137.69,151.531,130.971,150.584z"/>
		<path id="XMLID_1362_" style="fill:#FFFAFF;" d="M134.436,218.909l-0.208-14.54c-0.033-2.302,2.615-3.616,4.428-2.197
			l15.591,12.202c0.674,0.528,1.063,1.34,1.051,2.196l-0.215,15.491c-0.032,2.33-2.774,3.559-4.535,2.032l-15.168-13.153
			C134.791,220.428,134.447,219.689,134.436,218.909z"/>
		<path id="XMLID_1361_" style="fill:#FFFAFF;" d="M162.535,238.118h-0.837c-0.413,0-0.75-0.337-0.75-0.75v-18.443
			c0-0.413,0.337-0.75,0.75-0.75h0.837c0.413,0,0.75,0.337,0.75,0.75v18.443C163.285,237.781,162.947,238.118,162.535,238.118z"/>
		<rect id="XMLID_1360_" x="199.196" y="215.395" style="fill:#006589;" width="2.337" height="33.94"/>
		<path id="XMLID_1359_" style="fill:#006589;" d="M199.196,104.045l2.337-1.808V65.915c-0.748-0.264-1.529-0.503-2.337-0.714
			V104.045z"/>
		<path id="XMLID_1358_" style="fill:#040026;" d="M193.152,98.124c-34.71,0-65.454,13.821-62.848,70.172
			c0.391,8.451,1.963,16.549,4.528,24.055c0.832,0.059,1.667,0.346,2.395,0.924l26.7,21.184c0.76,0.603,1.731,0.935,2.735,0.935
			h52.98c1.004,0,1.974-0.332,2.735-0.935l26.7-21.184c0.8-0.635,1.73-0.921,2.644-0.934c2.525-7.504,4.031-15.592,4.279-24.044
			C257.749,108.529,227.862,98.124,193.152,98.124z"/>
		<polygon id="XMLID_1357_" style="fill:#29157F;" points="145.347,193.08 165.729,210.087 219.476,210.087 241.286,194.249 
			218.567,207.361 166.768,207.361 		"/>
		<path id="XMLID_1356_" style="fill:#29157F;" d="M193.143,104.013c-30.87,0-58.212,12.292-55.894,62.408
			c0.021,0.461,0.059,0.917,0.088,1.376c-1.718-48.942,32.426-54.937,63.028-54.937c27.394,0,44.375,1.212,48.398,39.922
			C245.638,111.639,221.158,104.013,193.143,104.013z"/>
		<path id="XMLID_1355_" style="fill:#FFFAFF;" d="M192.196,67.801c0,0-7.266-0.057-13.052,4.689
			c-1.757,1.441-2.58,3.754-2.143,5.983c0.402,2.051,1.232,5.088,2.925,9.32c2.639,6.597,1.451-2.525,0.548-8.323
			c-0.392-2.519,0.768-5.023,2.947-6.345L192.196,67.801z"/>
		<path id="XMLID_1354_" style="fill:#483C91;" d="M150.886,369.874h-0.971c-1.934,0-3.516-1.582-3.516-3.516v-41.874
			c0-1.934,1.582-3.516,3.516-3.516h0.971c1.934,0,3.516,1.582,3.516,3.516v41.874C154.402,368.292,152.82,369.874,150.886,369.874z
			"/>
		<path id="XMLID_1353_" style="fill:#483C91;" d="M164.964,360.756h-0.939c-1.87,0-3.399-1.53-3.399-3.399v-11.852
			c0-1.87,1.53-3.399,3.399-3.399h0.939c1.87,0,3.399,1.53,3.399,3.399v11.852C168.363,359.226,166.833,360.756,164.964,360.756z"/>
		<path id="XMLID_1352_" style="fill:#7972C4;" d="M177.829,390.182h-0.825c-1.642,0-2.986-1.344-2.986-2.986v-11.435
			c0-1.642,1.344-2.986,2.986-2.986h0.825c1.642,0,2.986,1.344,2.986,2.986v11.435C180.815,388.838,179.471,390.182,177.829,390.182
			z"/>
		<path id="XMLID_1351_" style="fill:#FFE49A;" d="M194.635,274.128c1.087-0.059,1.1-1.443,0.015-1.584
			c-3.848-0.498-7.823-0.827-9.488-0.361c-2.69,0.753-3.862,4.039,0.337,9.801c0.614,0.843,2.058,0.205,1.604-0.709
			c-1.518-3.052-2.108-5.927,0.653-6.426C189.827,274.476,192.28,274.255,194.635,274.128z"/>
		<path id="XMLID_1350_" style="fill:#FFE49A;" d="M190.685,316.528l-5.711,36.844c-0.052,0.335,0.08,0.671,0.346,0.882
			l13.096,10.356c0.841,0.665,1.961-0.371,1.364-1.261l-8.32-12.405c-0.111-0.165-0.166-0.36-0.159-0.559l1.252-33.677
			C192.598,315.526,190.866,315.36,190.685,316.528z"/>
		<path id="XMLID_1349_" style="fill:#FFFAFF;" d="M157.702,258.289c2.01,5.965,5.503,13.036,11.27,16.167
			c0.413,0.224,0.933,0,1.073-0.449c0.509-1.636,2.004-5.264,5.824-8.149c0.695-0.525,0.082-1.629-0.733-1.321
			c-2.567,0.971-5.264,2.393-7.176,4.443c-0.296,0.317-0.784,0.354-1.096,0.052c-1.27-1.229-4.429-4.677-7.75-11.318
			C158.69,256.867,157.399,257.39,157.702,258.289z"/>
		<g id="XMLID_1302_">
			<g id="XMLID_1347_">
				<path id="XMLID_1348_" style="fill:#FF7857;" d="M51.68,87.704L35.705,57.659c-0.364-0.684-0.102-1.541,0.582-1.905l0,0
					c0.684-0.364,1.541-0.102,1.905,0.583l15.974,30.044c0.364,0.684,0.102,1.541-0.582,1.905h0
					C52.901,88.65,52.044,88.388,51.68,87.704z"/>
			</g>
			<g id="XMLID_1339_">
				<g id="XMLID_1340_">
					<path id="XMLID_1344_" style="fill:#C6C1C1;" d="M52.548,138.179C23.572,138.179,0,114.607,0,85.632
						c0-28.975,23.572-52.548,52.548-52.548c28.975,0,52.547,23.572,52.547,52.548C105.095,114.607,81.522,138.179,52.548,138.179z
						 M52.548,37.483c-26.549,0-48.148,21.6-48.148,48.149c0,26.55,21.599,48.149,48.148,48.149c26.55,0,48.149-21.6,48.149-48.149
						C100.696,59.083,79.097,37.483,52.548,37.483z"/>
					<path id="XMLID_1341_" style="fill:#C6C1C1;" d="M52.548,135.711c-27.613,0-50.079-22.466-50.079-50.079
						c0-27.614,22.466-50.079,50.079-50.079c27.613,0,50.079,22.466,50.079,50.079C102.626,113.245,80.16,135.711,52.548,135.711z
						 M52.548,37.31c-26.645,0-48.322,21.678-48.322,48.322s21.677,48.322,48.322,48.322c26.645,0,48.322-21.677,48.322-48.322
						S79.192,37.31,52.548,37.31z"/>
				</g>
			</g>
			<g id="XMLID_1324_">
				<g id="XMLID_1332_">
					<g id="XMLID_1336_">
						<g id="XMLID_1337_">
							<path id="XMLID_1338_" style="fill:#C6C1C1;" d="M52.547,56.53L52.547,56.53c-1.148,0-2.087-0.939-2.087-2.087v-6.151
								c0-1.147,0.939-2.086,2.086-2.086h0.001c1.147,0,2.086,0.939,2.086,2.086v6.151C54.633,55.591,53.694,56.53,52.547,56.53z"/>
						</g>
					</g>
					<g id="XMLID_1333_">
						<g id="XMLID_1334_">
							<path id="XMLID_1335_" style="fill:#C6C1C1;" d="M52.547,125.058L52.547,125.058c-1.148,0-2.087-0.939-2.087-2.087v-6.15
								c0-1.148,0.939-2.086,2.086-2.086h0c1.147,0,2.086,0.939,2.086,2.086v6.15C54.633,124.119,53.694,125.058,52.547,125.058z"/>
						</g>
					</g>
				</g>
				<g id="XMLID_1325_">
					<g id="XMLID_1329_">
						<g id="XMLID_1330_">
							<path id="XMLID_1331_" style="fill:#C6C1C1;" d="M23.444,85.632L23.444,85.632c0,1.148-0.939,2.088-2.087,2.088h-6.149
								c-1.148,0-2.087-0.939-2.087-2.087v0c0-1.148,0.939-2.087,2.087-2.087h6.15C22.505,83.545,23.444,84.484,23.444,85.632z"/>
						</g>
					</g>
					<g id="XMLID_1326_">
						<g id="XMLID_1327_">
							<path id="XMLID_1328_" style="fill:#C6C1C1;" d="M91.973,85.632L91.973,85.632c0,1.148-0.939,2.088-2.087,2.088h-6.15
								c-1.148,0-2.087-0.939-2.087-2.087v0c0-1.148,0.939-2.087,2.087-2.087h6.15C91.034,83.545,91.973,84.484,91.973,85.632z"/>
						</g>
					</g>
				</g>
			</g>
			<g id="XMLID_1319_">
				<g id="XMLID_1322_">
					<path id="XMLID_1323_" style="fill:#7F7979;" d="M52.548,90.435c-2.649,0-4.804-2.155-4.804-4.803s2.155-4.803,4.804-4.803
						c2.648,0,4.803,2.155,4.803,4.803S55.195,90.435,52.548,90.435z"/>
				</g>
				<g id="XMLID_1320_">
					<circle id="XMLID_1321_" style="fill:#7F7979;" cx="52.547" cy="85.632" r="4.503"/>
				</g>
			</g>
			<g id="XMLID_1316_">
				<g id="XMLID_1317_">
					<path id="XMLID_1318_" style="fill:#7F7979;" d="M72.285,62.954l-4.61-0.694c-0.452-0.068-0.546-0.679-0.135-0.88l9.676-4.734
						c0.349-0.171,0.741,0.135,0.661,0.515l-2.182,10.346c-0.091,0.433-0.677,0.507-0.874,0.111l-2.188-4.411
						C72.566,63.071,72.436,62.976,72.285,62.954z"/>
				</g>
			</g>
			<g id="XMLID_1311_">
				<g id="XMLID_1314_">
					<polygon id="XMLID_1315_" style="fill:#7F7979;" points="54.133,82.728 71.722,61.822 73.568,61.166 73.446,63.46 
						55.597,84.687 					"/>
				</g>
				<g id="XMLID_1312_">
					<polygon id="XMLID_1313_" style="fill:#7F7979;" points="54.516,82.739 71.9,62.078 73.245,61.6 73.151,63.343 55.61,84.203 
											"/>
				</g>
			</g>
			<g id="XMLID_1308_">
				<g id="XMLID_1309_">
					<path id="XMLID_1310_" style="fill:#7F7979;" d="M62.586,97.845l3.478-1.824c0.103-0.054,0.172-0.154,0.187-0.269l0.476-3.721
						c0.044-0.345,0.507-0.427,0.667-0.118l3.95,7.636c0.136,0.262-0.09,0.566-0.38,0.512l-8.278-1.553
						C62.355,98.446,62.288,98.001,62.586,97.845z"/>
				</g>
			</g>
			<g id="XMLID_1303_">
				<g id="XMLID_1306_">
					<path id="XMLID_1307_" style="fill:#7F7979;" d="M66.121,97.759L50.932,85.552l0.227-0.236
						c0.416-0.434,0.756-0.894,1.011-1.367l0.171-0.316l15.38,12.365l0.697,1.832L66.121,97.759z"/>
				</g>
				<g id="XMLID_1304_">
					<path id="XMLID_1305_" style="fill:#7F7979;" d="M67.468,96.182L52.433,84.093c-0.283,0.524-0.644,0.998-1.058,1.431
						l14.856,11.938l1.746,0.054L67.468,96.182z"/>
				</g>
			</g>
		</g>
		<path id="XMLID_1301_" style="fill:#FFFAFF;" d="M227.359,184.684c-0.922-1.077-1.989-2.035-3.169-2.853
			c-2.772-1.922-6.178-3.058-9.868-3.058c-4.934,0-9.366,2.026-12.443,5.253c-0.204,0.214-0.402,0.433-0.594,0.658
			c-0.662,0.774,0.371,1.618,1.361,1.413c0.169-0.035,0.336-0.092,0.493-0.194c3.115-2.02,6.987-3.218,11.183-3.218
			c3.31,0,6.411,0.754,9.105,2.06c0.721,0.35,1.42,0.731,2.078,1.158C226.586,186.605,228.134,185.59,227.359,184.684z"/>
		<path id="XMLID_1300_" style="fill:#FFFAFF;" d="M185.078,184.684c-0.395-0.462-0.817-0.901-1.262-1.318
			c-3.034-2.84-7.187-4.593-11.775-4.593c-4.026,0-7.716,1.353-10.61,3.603c-0.888,0.69-1.703,1.461-2.427,2.308
			c-0.775,0.906,0.773,1.921,1.854,1.219c0.438-0.284,0.894-0.547,1.36-0.798c2.853-1.531,6.216-2.42,9.823-2.42
			c4.105,0,7.895,1.152,10.974,3.093c0.068,0.043,0.141,0.081,0.209,0.125C184.305,186.605,185.853,185.59,185.078,184.684z"/>
		<g id="XMLID_1265_">
			<rect id="XMLID_1299_" x="55.784" y="276.376" style="fill:#EFEAEA;" width="92.352" height="51.577"/>
			<g id="XMLID_1266_">
				<path id="XMLID_1298_" style="fill:none;stroke:#FF7857;stroke-width:2;stroke-miterlimit:10;" d="M145.87,327.953H58.051
					c-1.252,0-2.267-1.015-2.267-2.267v-47.043c0-1.252,1.015-2.267,2.267-2.267h87.819c1.252,0,2.267,1.015,2.267,2.267v47.043
					C148.136,326.938,147.121,327.953,145.87,327.953z"/>
				<rect id="XMLID_1297_" x="68.988" y="285.692" style="fill:#42B9E0;" width="28.273" height="32.404"/>
				<path id="XMLID_1296_" style="fill:#FF7857;" d="M120.193,298.316h-12.405c-0.627,0-1.139-0.513-1.139-1.139l0,0
					c0-0.627,0.513-1.139,1.139-1.139h12.405c0.627,0,1.139,0.513,1.139,1.139l0,0C121.332,297.804,120.82,298.316,120.193,298.316z
					"/>
				<path id="XMLID_1295_" style="fill:#FF7857;" d="M128.716,298.316h-3.814c-0.627,0-1.139-0.513-1.139-1.139l0,0
					c0-0.627,0.513-1.139,1.139-1.139h3.814c0.627,0,1.139,0.513,1.139,1.139l0,0C129.855,297.804,129.343,298.316,128.716,298.316z
					"/>
				<path id="XMLID_1294_" style="fill:#FF7857;" d="M139.551,315.278h-9.468c-0.627,0-1.139-0.513-1.139-1.139l0,0
					c0-0.627,0.513-1.139,1.139-1.139h9.468c0.627,0,1.139,0.513,1.139,1.139l0,0C140.69,314.765,140.178,315.278,139.551,315.278z"
					/>
				<path id="XMLID_1293_" style="fill:#FF7857;" d="M112.294,315.278h-4.506c-0.627,0-1.139-0.513-1.139-1.139l0,0
					c0-0.627,0.513-1.139,1.139-1.139h4.506c0.627,0,1.139,0.513,1.139,1.139l0,0C113.434,314.765,112.921,315.278,112.294,315.278z
					"/>
				<path id="XMLID_1292_" style="fill:#FF7857;" d="M127.805,306.923h-20.016c-0.627,0-1.139-0.513-1.139-1.139l0,0
					c0-0.627,0.513-1.139,1.139-1.139h20.016c0.627,0,1.139,0.513,1.139,1.139l0,0C128.944,306.41,128.431,306.923,127.805,306.923z
					"/>
				<polygon id="XMLID_1291_" style="fill:#FF7857;" points="60.008,287.785 60.008,280.201 67.844,280.201 				"/>
				<g id="XMLID_1280_">
					<g id="XMLID_1281_">
						<g id="XMLID_1288_">
							<g id="XMLID_1289_">
								<path id="XMLID_1290_" style="fill:#EFEAEA;" d="M91.964,314.284v-2.743c0-4.224-3.456-7.68-7.68-7.68h-2.32
									c-4.224,0-7.68,3.456-7.68,7.68v2.743H91.964z"/>
							</g>
						</g>
						<g id="XMLID_1285_">
							<g id="XMLID_1286_">
								<path id="XMLID_1287_" style="fill:#42B9E0;" d="M83.124,307.207c-4.138,0-7.504-3.367-7.504-7.504
									c0-4.138,3.366-7.505,7.504-7.505c4.138,0,7.504,3.367,7.504,7.505C90.629,303.84,87.262,307.207,83.124,307.207z"/>
							</g>
						</g>
						<g id="XMLID_1282_">
							<g id="XMLID_1283_">
								<circle id="XMLID_1284_" style="fill:#EFEAEA;" cx="83.124" cy="299.702" r="5.92"/>
							</g>
						</g>
					</g>
				</g>
				<path id="XMLID_1279_" style="fill:#040026;" d="M123.747,263.189c1.959-2.385,4.879-3.855,7.963-3.74
					c3.113,0.117,6.588,1.788,7.245,8.389c1.235,12.425-7.348,21.237-9.001,22.312c-1.652,1.075-10.892,5.512-11.692-8.839
					C117.758,272.266,121.162,266.337,123.747,263.189z"/>
				<path id="XMLID_1278_" style="fill:#040026;" d="M102.953,265.492c-1.021-2.857-3.225-5.2-6.111-6.135
					c-2.948-0.955-6.779-0.596-9.605,5.382c-5.276,11.159-0.21,22.215,0.971,23.764c1.182,1.549,8.312,8.749,13.822-4.347
					C105.493,275.924,104.31,269.287,102.953,265.492z"/>
				<path id="XMLID_1277_" style="fill:#040026;" d="M85.557,266.632c-1.437-2.45-3.872-4.223-6.69-4.581
					c-2.878-0.366-6.34,0.631-7.9,6.623c-2.912,11.184,3.672,20.474,5.029,21.694c1.357,1.22,9.17,6.603,11.96-6.405
					C89.71,275.787,87.466,269.887,85.557,266.632z"/>
				<g id="XMLID_1275_">
					<path id="XMLID_1276_" style="fill:#29157F;" d="M125.844,266.922c1.465-1.783,3.649-2.883,5.955-2.796
						c1.755,0.066,3.663,0.794,4.707,3.263c0.121-0.03-0.055,0.014,0.066-0.016c-0.468-4.887-2.987-6.191-5.289-6.322
						c-2.345-0.133-4.583,0.962-6.076,2.775c-1.934,2.35-4.491,6.788-4.113,13.566c0.097,1.742,0.362,3.108,0.741,4.181
						c-0.037-0.35-0.069-0.713-0.091-1.099C121.366,273.709,123.911,269.275,125.844,266.922z"/>
				</g>
				<path id="XMLID_1274_" style="fill:#040026;" d="M121.115,265.003c-1.164-3.239-3.682-5.878-6.965-6.912
					c-3.315-1.044-7.591-0.59-10.754,6.099c-5.953,12.59-0.237,25.064,1.096,26.812s9.378,9.871,15.594-4.905
					C124.005,276.783,122.651,269.279,121.115,265.003z"/>
				<path id="XMLID_1273_" style="fill:#29157F;" d="M113.009,263.21c2.793,0.879,4.934,3.124,5.924,5.879
					c0.993,2.763,1.894,7.112,0.809,12.515c2.247-6.859,1.197-12.371,0.018-15.649c-0.99-2.755-3.131-5-5.924-5.879
					c-2.819-0.888-6.457-0.501-9.147,5.188c-0.894,1.891-1.474,3.777-1.824,5.612c0.279-0.823,0.605-1.65,0.996-2.478
					C106.551,262.708,110.189,262.322,113.009,263.21z"/>
				<g id="XMLID_1271_">
					<path id="XMLID_1272_" style="fill:#29157F;" d="M95.442,265.212c2.406,0.779,4.242,2.733,5.094,5.114
						c0.854,2.39,1.625,6.132,0.707,10.778c2.405-6.412,1.462-11.574,0.385-14.586c-0.851-2.381-2.688-4.335-5.094-5.114
						c-2.457-0.796-5.65-0.497-8.007,4.486c-0.801,1.694-1.313,3.384-1.614,5.024c0.16-0.405,0.33-0.81,0.522-1.216
						C89.791,264.715,92.984,264.416,95.442,265.212z"/>
				</g>
				<g id="XMLID_1269_">
					<path id="XMLID_1270_" style="fill:#29157F;" d="M77.921,267.862c2.25,0.286,4.195,1.702,5.343,3.659
						c1.524,2.6,3.316,7.312,1.916,13.842c-0.061,0.286-0.126,0.56-0.194,0.824c0.494-0.965,0.928-2.207,1.268-3.793
						c1.401-6.53-0.391-11.242-1.916-13.842c-1.148-1.957-3.092-3.373-5.343-3.659c-2.299-0.292-5.064,0.504-6.31,5.289
						c-0.04,0.154-0.073,0.307-0.108,0.46C73.996,268.082,76.104,267.631,77.921,267.862z"/>
				</g>
				<path id="XMLID_1268_" style="fill:#040026;" d="M149.148,288.343c0,0-13.37,7.048-10.26,16.168s20.417-1.969,20.417-1.969
					s10.675-13.991-9.742-24.252L149.148,288.343z"/>
				<path id="XMLID_1267_" style="fill:#29157F;" d="M142.932,302.371c-2.461-7.218,5.821-11.462,5.821-11.462l0,0
					c0,0-10.581,5.577-8.12,12.795c2.461,7.218,16.158-1.558,16.158-1.558s0.006-0.007,0.014-0.018
					C152.8,304.263,144.761,307.736,142.932,302.371z"/>
			</g>
		</g>
		<polygon id="XMLID_1264_" style="fill:#B4B4EF;" points="348.873,231.17 357.097,225.64 357.907,230.767 		"/>
		<circle id="XMLID_1263_" style="fill:#FF7857;" cx="360.315" cy="198.279" r="3.5"/>
		<circle id="XMLID_1262_" style="fill:#1987BD;" cx="326.567" cy="162.318" r="3.5"/>
		<circle id="XMLID_1261_" style="fill:#7972C4;" cx="302.237" cy="157.32" r="3.5"/>
		<circle id="XMLID_1260_" style="fill:#FF7857;" cx="302.237" cy="178.273" r="3.5"/>
	</g>
</g>
<g id="Layer_1">
</g>
</svg>
