<?xml version="1.0" encoding="iso-8859-1"?>
<!-- Generator: Adobe Illustrator 19.0.0, SVG Export Plug-In . SVG Version: 6.00 Build 0)  -->
<svg version="1.1" xmlns="http://www.w3.org/2000/svg" xmlns:xlink="http://www.w3.org/1999/xlink" x="0px" y="0px"
	 viewBox="0 0 19.536 19.536" style="enable-background:new 0 0 19.536 19.536;" xml:space="preserve">
<g id="facebook_x5F_icon_x5F_hover">
	<g id="Icons_7_">
		<g id="Color-_5_" transform="translate(-200.000000, -160.000000)">
			<path id="Facebook_1_" style="fill:#FFFFFF;" d="M210.435,179.536h-9.357c-0.596,0-1.078-0.483-1.078-1.078v-17.38
				c0-0.596,0.483-1.078,1.078-1.078h17.38c0.595,0,1.078,0.483,1.078,1.078v17.38c0,0.596-0.483,1.078-1.078,1.078h-4.978v-7.566
				h2.539l0.38-2.948h-2.92v-1.882c0-0.854,0.237-1.435,1.461-1.435l1.561-0.001v-2.637c-0.27-0.036-1.197-0.116-2.275-0.116
				c-2.251,0-3.792,1.374-3.792,3.897v2.174h-2.546v2.948h2.546V179.536L210.435,179.536z"/>
		</g>
	</g>
</g>
<g id="Layer_1">
</g>
</svg>
