<?xml version="1.0" encoding="iso-8859-1"?>
<!-- Generator: Adobe Illustrator 19.0.0, SVG Export Plug-In . SVG Version: 6.00 Build 0)  -->
<svg version="1.1" xmlns="http://www.w3.org/2000/svg" xmlns:xlink="http://www.w3.org/1999/xlink" x="0px" y="0px"
	 viewBox="0 0 280.8 326.944" style="enable-background:new 0 0 280.8 326.944;" xml:space="preserve">
<g id="fast">
	<g id="XMLID_1449_">
		<path id="XMLID_1542_" style="fill:#29157F;" d="M137.853,297.677c0,0,66.65-20.885,82.063-97.304l-29.352,3.165
			c0,0-18.463,12.057-20.874,15.385c-2.411,3.328-16.62,13.775-19.531,19.783c-2.91,6.008-2.757,12.553-3.675,17.315
			s-1.659,10.106-3.087,12.334C141.968,270.583,137.853,297.677,137.853,297.677z"/>
		<path id="XMLID_1541_" style="fill:#483C91;" d="M138.348,175.033l125.286,66.725c1.35,0.719,2.605,1.627,3.608,2.781
			c4.114,4.735,4.226,12.023-0.256,16.865c-11.183,12.08-35.915,30.802-87.588,42.955c-3.875,0.911-7.945-0.054-10.991-2.581
			c-0.325-0.269-0.624-0.569-0.916-0.872l-69.87-72.547c-0.926-0.85-2.444,9.541,7.346,16.831c1.727,1.286-7.836-5.447-11.454-8.881
			c-1.129-1.072-2.416-1.964-3.836-2.602l-2.179-0.979c-1.386-2.703,19.253,3.632,19.996,0.687c0.544-2.155,1.46-4.821,3.004-7.683
			c3.791-7.027,11.918-31.762,17.266-33.709c5.348-1.947,4.975-1.488,13.127-4.455c8.152-2.966,8.314-1.41,10.926-4.14
			c1.099-1.149-17.675-7.895-15.586-9.522c3.451-2.687-30.111-15.318-6.088-6.713l0,0c0.633,0.232,2.541,2.602,4.084,4.472
			C135.368,173.048,136.766,174.191,138.348,175.033z"/>
		<path id="XMLID_1538_" style="fill:#040026;" d="M104.93,243.405c0,0,24.593,30.453,32.923,54.272
			c0,0,12.452-69.714,82.063-97.304c0,0-62.747-24.166-69.778-42.008L104.93,243.405z"/>
		<path id="XMLID_1537_" style="fill:#0E003F;" d="M167.632,271.071H79.713c-5.5,0-10-4.5-10-10V55.012c0-5.5,4.5-10,10-10h87.919
			c5.5,0,10,4.5,10,10v206.058C177.632,266.571,173.132,271.071,167.632,271.071z"/>
		<rect id="XMLID_1536_" x="75.425" y="71.466" style="fill:#29157F;" width="96.496" height="172.249"/>
		<path id="XMLID_1524_" style="fill:#42B9E0;" d="M170.372,73.015v169.151H76.974V73.015H170.372 M171.921,71.466H75.425v172.249
			h96.496V71.466L171.921,71.466z"/>
		<circle id="XMLID_1523_" style="fill:#42B9E0;" cx="123.673" cy="256.441" r="7.412"/>
		<g id="XMLID_1520_">
			<path id="XMLID_1522_" style="fill:#42B9E0;" d="M132.551,59.241h-17.756c-0.435,0-0.792-0.356-0.792-0.792v-0.321
				c0-0.435,0.356-0.792,0.792-0.792h17.756c0.435,0,0.792,0.356,0.792,0.792v0.321C133.342,58.885,132.986,59.241,132.551,59.241z"
				/>
			<circle id="XMLID_1521_" style="fill:#42B9E0;" cx="123.673" cy="50.824" r="1.403"/>
		</g>
		<circle id="XMLID_1519_" style="fill:#42B9E0;" cx="106.35" cy="58.289" r="1.854"/>
		<circle id="XMLID_1518_" style="fill:#040026;" cx="124.593" cy="157.591" r="29.08"/>
		<circle id="XMLID_1511_" style="fill:#FF7857;" cx="124.593" cy="157.591" r="25.816"/>
		<defs>
			<filter id="Adobe_OpacityMaskFilter" filterUnits="userSpaceOnUse" x="100.427" y="163.976" width="16.119" height="14.753">
				<feColorMatrix  type="matrix" values="1 0 0 0 0  0 1 0 0 0  0 0 1 0 0  0 0 0 1 0"/>
			</filter>
		</defs>
		<mask maskUnits="userSpaceOnUse" x="100.427" y="163.976" width="16.119" height="14.753" id="XMLID_4_">
			<g id="XMLID_146_" style="filter:url(#Adobe_OpacityMaskFilter);">
				<circle id="XMLID_147_" style="fill:#FFFFFF;" cx="85.392" cy="-767.39" r="25.816"/>
			</g>
		</mask>
		<g id="XMLID_1505_" style="mask:url(#XMLID_4_);">
			<polygon id="XMLID_1510_" style="fill:#FF7857;" points="113.208,166.819 116.547,169.756 108.581,178.73 104.009,174.984 
				104.009,173.223 			"/>
			<polygon id="XMLID_1509_" style="fill:#FF7857;" points="102.815,173.983 113.465,167.206 111.324,163.976 101.137,165.593 
				100.427,170.53 			"/>
		</g>
		<ellipse id="XMLID_1503_" style="fill:#FFE49A;" cx="125.016" cy="158.365" rx="18.202" ry="17.738"/>
		<circle id="XMLID_1502_" style="fill:#040026;" cx="124.593" cy="157.591" r="15.36"/>
		<circle id="XMLID_1500_" style="fill:#29157F;" cx="124.593" cy="157.591" r="13.72"/>
		<rect id="XMLID_1499_" x="124.297" y="129.579" style="fill:#040026;" width="0.925" height="13.36"/>
		<path id="XMLID_1498_" style="fill:#040026;" d="M111.464,164.431l-10.94,4.841l-3.098-6.196v-12.295l5.034-9.778
			c0,0,6.769-5.712,6.773-6.002c0.004-0.29,7.168-3.388,7.845-3.679c0.678-0.29,6.594-1.355,6.594-1.355l1.549-0.387l-0.463,13.36
			l-6.422,1.743l-5.034,3.679l-1.979,4.26l-1.022,4.357v3.679L111.464,164.431z"/>
		<polygon id="XMLID_1497_" style="fill:#040026;" points="103.751,173.472 113.755,167.599 114.401,168.309 104.719,175.021 		"/>
		<polygon id="XMLID_1496_" style="fill:#040026;" points="118.57,171.247 110.874,179.672 112.487,180.96 119.232,171.472 		"/>
		<path id="XMLID_1495_" style="fill:#040026;" d="M48.232,102.189c-2.657-5.92-2.691-12.794,0.414-18.492
			c3.134-5.752,9.534-10.729,22.574-5.787c24.547,9.304,33.103,33.712,33.58,37.828s0.181,25.665-27.583,13.738
			C59.716,121.959,51.738,110.002,48.232,102.189z"/>
		<path id="XMLID_1494_" style="fill:#040026;" d="M176.658,141.26c0,0-26.851,14.154-20.607,32.471
			c6.244,18.317,41.005-3.955,41.005-3.955s21.439-28.1-19.566-48.707L176.658,141.26z"/>
		<path id="XMLID_1491_" style="fill:#FF7857;" d="M89.629,0c0,0-135.042,40.378-73.607,208.923
			C16.022,208.924-36.14,69.387,89.629,0z"/>
		<path id="XMLID_1490_" style="fill:#42B9E0;" d="M57.24,42.772c0,0,39.122-43.231,93.023-26.252
			C150.263,16.52,102.678-13.212,57.24,42.772z"/>
		<path id="XMLID_1487_" style="fill:#7972C4;" d="M155.92,325.016c0,0-35.523-11.915-49.671-45.397
			C106.249,279.619,116.308,319.773,155.92,325.016z"/>
		<defs>
			<filter id="Adobe_OpacityMaskFilter_1_" filterUnits="userSpaceOnUse" x="51.257" y="56.435" width="151.074" height="182.391">
				<feColorMatrix  type="matrix" values="1 0 0 0 0  0 1 0 0 0  0 0 1 0 0  0 0 0 1 0"/>
			</filter>
		</defs>
		<mask maskUnits="userSpaceOnUse" x="51.257" y="56.435" width="151.074" height="182.391" id="XMLID_5_">
			<g id="XMLID_125_" style="filter:url(#Adobe_OpacityMaskFilter_1_);">
				<linearGradient id="XMLID_6_" gradientUnits="userSpaceOnUse" x1="138.5413" y1="-842.9323" x2="52.3832" y2="-722.5707">
					<stop  offset="0" style="stop-color:#FFFFFF"/>
					<stop  offset="1" style="stop-color:#FFFFFF;stop-opacity:0"/>
				</linearGradient>
				<polygon id="XMLID_126_" style="fill:url(#XMLID_6_);" points="131.136,-682.807 37.557,-683.645 37.782,-851.953 
					131.136,-851.953 				"/>
			</g>
		</mask>
		<g id="XMLID_1482_" style="opacity:0.61;mask:url(#XMLID_5_);">
			
				<rect id="XMLID_1486_" x="104.662" y="46.053" transform="matrix(0.7895 0.6138 -0.6138 0.7895 107.4104 -40.994)" style="fill:#FFFFFF;" width="17.606" height="180.058"/>
			
				<rect id="XMLID_1485_" x="127.879" y="34.222" transform="matrix(0.7895 0.6138 -0.6138 0.7895 118.1035 -49.0712)" style="fill:#FFFFFF;" width="5.415" height="226.818"/>
		</g>
		<path id="XMLID_1481_" style="fill:#040026;" d="M49.744,154.024c-6.325,0.821-12.124,4.3-15.336,9.811
			c-3.28,5.629-4.255,13.66,6.762,22.139c20.566,15.828,45.544,10.363,49.255,8.628c3.711-1.735,21.69-13.165-2.752-30.338
			C72.31,153.469,58.146,152.933,49.744,154.024z"/>
		<path id="XMLID_1480_" style="fill:#040026;" d="M50.054,190.532c-5.922,0.769-11.352,4.027-14.359,9.186
			c-3.071,5.271-3.984,12.79,6.332,20.729c19.256,14.82,42.643,9.703,46.118,8.078c3.475-1.624,20.308-12.326-2.577-28.406
			C71.183,190.012,57.921,189.51,50.054,190.532z"/>
		<g id="XMLID_1477_">
			<path id="XMLID_1478_" style="fill:#483C91;" d="M57.222,101.734c-1.987-4.426-2.012-9.567,0.309-13.827
				c1.767-3.243,4.924-6.153,10.548-5.807c0.057-0.256-0.026,0.117,0.031-0.139c-9.638-3.693-14.451-0.171-16.851,4.04
				c-2.445,4.29-2.479,9.528-0.462,14.036c2.613,5.841,8.576,14.807,21.689,20.44c3.37,1.448,6.191,2.227,8.564,2.519
				c-0.695-0.258-1.408-0.538-2.155-0.858C65.809,116.517,59.844,107.576,57.222,101.734z"/>
		</g>
		<path id="XMLID_1476_" style="fill:#040026;" d="M48.207,114.613c-7.175,0.943-13.722,4.936-17.313,11.218
			c-3.626,6.343-4.605,15.332,7.722,24.819c23.203,17.858,51.384,11.692,55.571,9.734c4.187-1.957,24.471-14.853-3.105-34.229
			C73.699,113.941,57.677,113.368,48.207,114.613z"/>
		<path id="XMLID_1475_" style="fill:#483C91;" d="M40.899,130.463c3.055-5.344,8.624-8.74,14.727-9.542
			c6.119-0.804,15.456-0.711,26.072,3.933c-13.086-7.682-24.879-7.988-32.141-7.034c-6.103,0.802-11.672,4.198-14.727,9.542
			c-3.084,5.395-3.917,13.041,6.568,21.11c3.484,2.682,7.101,4.716,10.713,6.256c-1.565-0.941-3.118-1.98-4.644-3.155
			C36.982,143.505,37.815,135.859,40.899,130.463z"/>
		<g id="XMLID_1473_">
			<path id="XMLID_1474_" style="fill:#483C91;" d="M45.81,169.329c2.677-4.593,7.511-7.493,12.783-8.178
				c5.291-0.687,13.324-0.597,22.457,3.366c-12.096-7.808-23.122-8.178-29.792-7.312c-5.272,0.685-10.106,3.584-12.783,8.178
				c-2.734,4.692-3.547,11.386,5.637,18.454c3.121,2.402,6.364,4.21,9.6,5.561c-0.76-0.51-1.517-1.04-2.265-1.616
				C42.263,180.715,43.076,174.022,45.81,169.329z"/>
		</g>
		<g id="XMLID_1471_">
			<path id="XMLID_1472_" style="fill:#483C91;" d="M46.164,206.322c2.401-4.121,6.738-6.723,11.468-7.337
				c6.283-0.816,16.875-0.415,28.363,7.657c0.504,0.354,0.98,0.704,1.437,1.052c-1.462-1.749-3.51-3.609-6.299-5.568
				c-11.488-8.072-22.08-8.473-28.363-7.657c-4.73,0.614-9.067,3.216-11.468,7.337c-2.453,4.209-3.182,10.215,5.057,16.555
				c0.266,0.204,0.534,0.393,0.802,0.588C43.368,214.099,44.225,209.649,46.164,206.322z"/>
		</g>
		<path id="XMLID_1469_" style="fill:#B4B4EF;" d="M199.671,216.506c0,0,40.533,17.388,54.667,30.167
			c14.133,12.779-39,34.167-39,34.167s35.5-21.167,32.5-29.833C244.837,242.34,203.808,219.966,199.671,216.506z"/>
		<path id="XMLID_1466_" style="fill:#483C91;" d="M164.175,169.432c-4.942-14.496,11.692-23.019,11.692-23.019l0,0
			c0,0-21.25,11.201-16.308,25.697c4.942,14.496,32.451-3.13,32.451-3.13s0.011-0.015,0.027-0.037
			C183.993,173.233,167.849,180.209,164.175,169.432z"/>
		<path id="XMLID_1465_" style="fill:#483C91;" d="M220.671,324.81l-41.67-37.424c-3.427-3.078-3.713-8.4-0.635-11.827l0,0
			c3.078-3.427,8.4-3.713,11.827-0.635l41.67,37.424c3.427,3.078,3.713,8.4,0.635,11.827h0
			C229.42,327.602,224.098,327.887,220.671,324.81z"/>
		<path id="XMLID_1464_" style="fill:#483C91;" d="M235.339,302.758l-42.76-39.081c-1.979-1.809-2.118-4.908-0.31-6.887l0,0
			c1.809-1.979,4.908-2.118,6.887-0.31l42.76,39.081c1.979,1.809,2.118,4.908,0.31,6.887h0
			C240.418,304.428,237.318,304.567,235.339,302.758z"/>
		<path id="XMLID_1463_" style="fill:#483C91;" d="M262.12,301.751l-10.105-9.209c-1.91-1.741-2.049-4.729-0.308-6.639v0
			c1.741-1.91,4.729-2.049,6.639-0.308l10.105,9.209c1.91,1.741,2.049,4.729,0.308,6.639l0,0
			C267.018,303.354,264.03,303.492,262.12,301.751z"/>
		<path id="XMLID_1462_" style="fill:#B4B4EF;" d="M256.269,325.303L256.269,325.303c-1.208,1.279-3.242,1.337-4.521,0.129
			l-4.074-3.848c-1.279-1.208-1.337-3.242-0.129-4.521h0c1.208-1.279,3.242-1.337,4.521-0.129l4.074,3.848
			C257.419,321.99,257.477,324.024,256.269,325.303z"/>
		<path id="XMLID_1451_" style="fill:#FF7857;" d="M279.93,322.876L279.93,322.876c-1.208,1.279-3.242,1.337-4.521,0.129
			l-4.074-3.848c-1.279-1.208-1.337-3.242-0.129-4.521l0,0c1.208-1.279,3.242-1.337,4.521-0.129l4.074,3.848
			C281.08,319.563,281.138,321.598,279.93,322.876z"/>
	</g>
</g>
<g id="Layer_1">
</g>
</svg>
