<?xml version="1.0" encoding="iso-8859-1"?>
<!-- Generator: Adobe Illustrator 19.0.0, SVG Export Plug-In . SVG Version: 6.00 Build 0)  -->
<svg version="1.1" xmlns="http://www.w3.org/2000/svg" xmlns:xlink="http://www.w3.org/1999/xlink" x="0px" y="0px"
	 viewBox="0 0 27.822 17.705" style="enable-background:new 0 0 27.822 17.705;" xml:space="preserve">
<g id="google_x5F_plus_x5F_icon">
	<g id="Icons_3_">
		<g>
			<g id="Black_9_" transform="translate(-391.000000, -163.000000)">
				<path id="GooglePlus_9_" style="fill:#7972C4;" d="M415.76,170.275v-3.068h-2.187v3.068h-3.15v2.191h3.15v3.155h2.187v-3.155
					h3.062v-2.191H415.76L415.76,170.275z M399.837,170.1v3.506c0,0,3.395-0.005,4.777-0.005c-0.749,2.273-1.913,3.511-4.777,3.511
					c-2.899,0-5.162-2.355-5.162-5.259c0-2.904,2.263-5.259,5.162-5.259c1.533,0,2.523,0.54,3.431,1.292
					c0.727-0.728,0.666-0.832,2.515-2.582c-1.57-1.431-3.656-2.304-5.946-2.304c-4.88,0-8.837,3.963-8.837,8.853
					c0,4.889,3.956,8.853,8.837,8.853c7.295,0,9.078-6.363,8.487-10.606H399.837L399.837,170.1z"/>
			</g>
		</g>
	</g>
</g>
<g id="Layer_1">
</g>
</svg>
