<?xml version="1.0" encoding="iso-8859-1"?>
<!-- Generator: Adobe Illustrator 19.0.0, SVG Export Plug-In . SVG Version: 6.00 Build 0)  -->
<svg version="1.1" xmlns="http://www.w3.org/2000/svg" xmlns:xlink="http://www.w3.org/1999/xlink" x="0px" y="0px"
	 viewBox="0 0 519.187 337.926" style="enable-background:new 0 0 519.187 337.926;" xml:space="preserve">
<g id="Header_x5F_mascot">
	<g id="XMLID_14_">
		<path id="XMLID_843_" style="fill:#040026;" d="M381.17,128.448c0,0-16.534,28.012,9.239,43.677c0,0,7.32-10.687,7.425-10.932
			c0.106-0.245,2.186-6.415,2.186-6.415l-0.173-5.883l-4.597-5.952c0,0-3.253-6.824-3.463-7.011s-1.153-1.368-2.19-2.106
			s0.829-0.127-2.668-2.119C383.432,129.714,381.17,128.448,381.17,128.448z"/>
		<path id="XMLID_903_" style="fill:#040026;" d="M408.465,139.14l-177.709,71.918l6.898,35.559l179.575-96.008
			C413.835,147.182,410.904,143.308,408.465,139.14z"/>
		<linearGradient id="XMLID_2_" gradientUnits="userSpaceOnUse" x1="332.8811" y1="247.9641" x2="320.2145" y2="152.2974">
			<stop  offset="0.4164" style="stop-color:#29157F;stop-opacity:0"/>
			<stop  offset="1" style="stop-color:#29157F"/>
		</linearGradient>
		<path id="XMLID_17_" style="fill:url(#XMLID_2_);" d="M408.465,139.14l-177.709,71.918l6.898,35.559l179.575-96.008
			C413.835,147.182,410.904,143.308,408.465,139.14z"/>
		<defs>
			<filter id="Adobe_OpacityMaskFilter" filterUnits="userSpaceOnUse" x="230.824" y="170.585" width="100.77" height="57.473">
				<feColorMatrix  type="matrix" values="1 0 0 0 0  0 1 0 0 0  0 0 1 0 0  0 0 0 1 0"/>
			</filter>
		</defs>
		<mask maskUnits="userSpaceOnUse" x="230.824" y="170.585" width="100.77" height="57.473" id="XMLID_3_">
			<g id="XMLID_264_" style="filter:url(#Adobe_OpacityMaskFilter);">
				<path id="XMLID_265_" style="fill:#FFFFFF;" d="M9.547-1557.128l-177.709,71.918l6.898,35.559l179.575-96.008
					C14.917-1549.086,11.986-1552.961,9.547-1557.128z"/>
			</g>
		</mask>
		<g id="XMLID_20_" style="mask:url(#XMLID_3_);">
			<path id="XMLID_56_" style="fill:#FFFFFF;" d="M298.98,186.215l32.223-14.273c0.348-0.154,0.48-0.559,0.329-0.907
				c-0.002-0.004-0.004-0.009-0.006-0.013c-0.149-0.347-0.528-0.53-0.878-0.389l-36.7,14.852c-0.118,0.048-0.244,0.06-0.369,0.034
				c-2.471-0.497-5.315-0.65-8.592-0.378c0,0,1.667,0.183,4.07,1.058c0.577,0.21,0.597,1.023,0.028,1.253l-15.196,6.15
				c-0.095,0.038-0.195,0.054-0.297,0.045c-1.754-0.15-3.663-0.154-5.752,0.02c0,0,0.673,0.074,1.779,0.352
				c0.63,0.158,0.699,1.029,0.097,1.272l-38.473,15.57c-0.285,0.115-0.455,0.411-0.411,0.715l0.527,3.662
				c0.063,0.439,0.528,0.696,0.933,0.516l43.14-19.109c0.199-0.088,0.425-0.079,0.612,0.031c6.413,3.778,14.104,12.18,13.19,30.67
				c-0.042,0.844,1.194,0.986,1.326,0.152c1.818-11.481,1.74-26.725-9.716-32.04c-0.521-0.242-0.52-0.98,0.005-1.213l12.608-5.585
				c0.208-0.092,0.446-0.077,0.637,0.046c6.21,4.026,13.165,12.492,12.285,30.137c-0.042,0.847,1.192,0.98,1.325,0.142
				c1.769-11.158,1.75-25.878-8.768-31.58C298.448,187.144,298.474,186.439,298.98,186.215z"/>
			<circle id="XMLID_31_" style="fill:#FFFFFF;" cx="294.746" cy="199.207" r="2.037"/>
		</g>
		<path id="XMLID_842_" style="fill:#29157F;" d="M381.17,128.448c0,0,21.538,14.71,9.239,43.677l39.64-10.206
			c0,0-16.059,8.952-17.1,25.735s18.408-15.296,28.191-5.656c9.783,9.641,9.484,28.293-6.97,16.163
			c-16.455-12.13-14.513,6.714,3.068,16.232s22.614-16.968,22.614-16.968s12.802,38.342,26.803,40.215
			c11.716,1.567,4.883-22.097-42.865-91.868C443.79,145.772,405.745,132.076,381.17,128.448z"/>
		<path id="XMLID_841_" style="opacity:0.5;fill:#FFFFFF;" d="M418.614,176.022c0,0,13.279-21.062,30.637-13.415
			C449.251,162.608,438.443,158.108,418.614,176.022z"/>
		<g id="XMLID_837_">
			<path id="XMLID_840_" style="fill:none;" d="M424.511,186.306c1.871,0.057,4.63,1.209,8.325,3.933
				c8.599,6.339,12.778,4.266,13.42-0.529c-1.108-2.724-2.833-5.463-5.115-7.711C436.659,177.583,430.15,181.921,424.511,186.306z"
				/>
			<path id="XMLID_839_" style="fill:#FFFFFF;" d="M488.287,224.858c-0.178,2.316-1.486,3.206-3.662,2.915
				c-9.068-1.213-16.694-18.649-18.424-22.897c-0.017-0.004-0.034-0.012-0.051-0.016c1.714,4.833,10.231,27.525,19.46,28.759
				C489.107,234.087,490.363,231.506,488.287,224.858z"/>
			<path id="XMLID_838_" style="opacity:0.5;fill:#FFFFFF;" d="M456.185,199.157c-1.311,3.008-6.952,13.511-19.508,6.713
				c-3.177-1.72-5.735-3.807-7.652-5.915c-1.083-1.19-2.971,0.029-2.318,1.5c1.542,3.476,5.281,7.835,11.075,10.972
				c12.83,6.946,17.582-9.268,18.527-13.201C456.264,199.206,456.228,199.179,456.185,199.157z"/>
		</g>
		<path id="XMLID_836_" style="opacity:0.5;fill:#FFFFFF;" d="M390.826,134.083c4.844,5.502,11.788,16.921,6.739,33.748
			c-0.175,0.585,0.644,0.917,0.917,0.371c3.774-7.569,8.563-23.04-6.984-34.847C391.022,132.993,390.431,133.633,390.826,134.083z"
			/>
		<path id="XMLID_905_" style="fill:#040026;" d="M82.952,217.38c0,0,41.149,28.175,92.035,34.957c0,0,39.14-12.117,5.738-27.236
			c-39.399-17.833-75.803-26.491-75.803-26.491l-41.107-83.22l-16.456,2.809L82.952,217.38z"/>
		<path id="XMLID_904_" style="fill:#29157F;" d="M104.922,198.609L74.944,137.92c-0.667-0.344-1.07-0.54-1.07-0.54l24.937,63.864
			l44.978,13.778c0,0,1.839-1.26,4.573-3.008C123.446,203.018,104.922,198.609,104.922,198.609z"/>
		<path id="XMLID_900_" style="fill:#040026;" d="M34.572,139.593c0,0,30.106,7.592,53.72-17.771l-11.855-5.629
			c0,0-9.799,0.273-11.486,0.972s-9.5,1.352-12,2.951s-3.964,4.114-5.42,5.704c-1.456,1.59-2.979,3.443-4.039,3.954
			S34.572,139.593,34.572,139.593z"/>
		<path id="XMLID_899_" style="fill:#040026;" d="M34.725,111.376c0,0,2.232,17.256-0.153,28.217c0,0,20.933-23.512,53.72-17.771
			c0,0-18.148-23.75-16.661-32.144L34.725,111.376z"/>
		<path id="XMLID_898_" style="fill:#29157F;" d="M52.95,136.998l-35.12-21.566c-1.584-0.973-2.085-3.065-1.112-4.649l49.046-79.872
			c0.973-1.584,3.065-2.085,4.649-1.112l35.12,21.566c1.584,0.973,2.085,3.065,1.112,4.649l-49.046,79.872
			C56.626,137.471,54.534,137.971,52.95,136.998z"/>
		<path id="XMLID_897_" style="opacity:0.5;fill:#FFFFFF;" d="M105.272,51.205L88.084,40.667l-52.586,85.463l17.191,10.709
			c1.728,1.061,4.01,0.515,5.071-1.213l48.725-79.349C107.546,54.548,107,52.266,105.272,51.205z"/>
		<path id="XMLID_896_" style="opacity:0.5;fill:#FFFFFF;" d="M105.272,51.205l-4.515-2.773l-52.722,85.507l4.653,2.899
			c1.728,1.061,4.01,0.515,5.071-1.213l48.725-79.349C107.546,54.548,107,52.266,105.272,51.205z"/>
		<polygon id="XMLID_895_" style="opacity:0.5;fill:#FFFFFF;" points="42.262,130.343 44.496,131.734 98.462,47.029 96.394,45.762 
					"/>
		
			<rect id="XMLID_894_" x="40.339" y="44.943" transform="matrix(0.8522 0.5233 -0.5233 0.8522 52.6861 -20.0273)" style="fill:#29157F;" width="42.895" height="76.57"/>
		<path id="XMLID_890_" style="fill:#FFFFFF;" d="M73.007,80.098L73.007,80.098c0-0.001-0.001-0.003-0.001-0.006
			c-0.043-0.286-0.099-0.569-0.17-0.85c-0.01-0.039-0.021-0.078-0.031-0.117c-0.062-0.234-0.134-0.465-0.215-0.693
			c-0.025-0.07-0.051-0.139-0.077-0.208c-0.07-0.182-0.146-0.362-0.228-0.539c-0.048-0.103-0.097-0.205-0.148-0.306
			c-0.056-0.109-0.112-0.218-0.173-0.325c-0.089-0.158-0.185-0.313-0.285-0.466c-0.049-0.075-0.098-0.15-0.149-0.223
			c-0.121-0.175-0.25-0.344-0.385-0.511c-0.044-0.054-0.089-0.107-0.134-0.161c-0.15-0.176-0.308-0.348-0.473-0.513
			c-0.036-0.036-0.073-0.07-0.11-0.106c-0.181-0.174-0.37-0.343-0.568-0.504c-0.023-0.019-0.048-0.037-0.072-0.055
			c-0.216-0.171-0.44-0.334-0.676-0.487c-1.014-0.655-2.113-1.074-3.232-1.27c-0.559-0.098-1.124-0.14-1.685-0.129
			c-0.281,0.006-0.561,0.025-0.839,0.058c-0.834,0.097-1.652,0.314-2.427,0.645c-0.258,0.11-0.512,0.233-0.759,0.368
			c-0.495,0.27-0.967,0.59-1.407,0.958c-0.66,0.551-1.25,1.21-1.741,1.971c-0.149,0.23-0.281,0.465-0.406,0.703
			c-0.02,0.039-0.042,0.078-0.062,0.117c-0.113,0.225-0.215,0.453-0.307,0.683c-0.021,0.053-0.042,0.107-0.062,0.16
			c-0.085,0.226-0.162,0.453-0.228,0.682c-0.016,0.056-0.029,0.113-0.044,0.17c-0.051,0.195-0.096,0.391-0.133,0.588
			c-0.014,0.076-0.029,0.152-0.042,0.229c-0.031,0.192-0.054,0.384-0.072,0.576c-0.009,0.096-0.018,0.191-0.024,0.287
			c-0.012,0.191-0.017,0.382-0.016,0.573c0.001,0.116,0.004,0.233,0.01,0.349c0.005,0.118,0.014,0.235,0.024,0.353
			c0.016,0.191,0.038,0.381,0.067,0.57c0.013,0.084,0.027,0.168,0.042,0.251c0.041,0.228,0.092,0.454,0.151,0.678
			c0.017,0.063,0.032,0.126,0.05,0.189c0.041,0.142,0.084,0.283,0.132,0.422c-0.001-0.007-0.001-0.015-0.002-0.023
			c0.46,1.355,1.25,2.604,2.349,3.614l-2.996,4.638l-1.122-0.725c-0.216-0.14-0.508-0.077-0.648,0.139
			c-0.14,0.216-0.077,0.508,0.139,0.648l1.122,0.725l-0.268,0.415l-0.485-0.313c-0.216-0.14-0.508-0.077-0.648,0.139
			c-0.14,0.216-0.077,0.508,0.139,0.648l0.485,0.313l-0.268,0.415l-1.122-0.725c-0.216-0.14-0.508-0.077-0.648,0.139
			s-0.077,0.508,0.139,0.648l1.122,0.725l-0.113,0.175c-0.443,0.685-0.244,1.608,0.441,2.051c0.685,0.443,1.608,0.244,2.051-0.441
			l5.171-8.005c3.845,1.643,8.425,0.339,10.77-3.291C72.91,84.263,73.309,82.124,73.007,80.098z M58.923,78.119
			c0.038-0.063,0.069-0.128,0.11-0.19c1.599-2.475,4.627-3.46,7.302-2.585c0.509,0.166,1.007,0.393,1.477,0.697
			c2.946,1.903,3.791,5.833,1.888,8.779c-1.903,2.946-5.833,3.791-8.779,1.888C58.037,84.845,57.173,81.042,58.923,78.119z"/>
		<defs>
			<filter id="Adobe_OpacityMaskFilter_1_" filterUnits="userSpaceOnUse" x="19.104" y="54.972" width="95.236" height="44.943">
				<feColorMatrix  type="matrix" values="1 0 0 0 0  0 1 0 0 0  0 0 1 0 0  0 0 0 1 0"/>
			</filter>
		</defs>
		<mask maskUnits="userSpaceOnUse" x="19.104" y="54.972" width="95.236" height="44.943" id="XMLID_4_">
			<g id="XMLID_240_" style="filter:url(#Adobe_OpacityMaskFilter_1_);">
				
					<linearGradient id="XMLID_5_" gradientUnits="userSpaceOnUse" x1="-376.4986" y1="-1511.4529" x2="-414.7984" y2="-1457.9487" gradientTransform="matrix(0.8522 0.5233 -0.5233 0.8522 -769.1514 -144.0637)">
					<stop  offset="0" style="stop-color:#FFFFFF"/>
					<stop  offset="1" style="stop-color:#FFFFFF;stop-opacity:0"/>
				</linearGradient>
				<polygon id="XMLID_241_" style="fill:url(#XMLID_5_);" points="-339.129,-1570.145 -374.383,-1592.23 -335.147,-1655.934 
					-299.784,-1634.219 				"/>
			</g>
		</mask>
		<g id="XMLID_885_" style="opacity:0.86;mask:url(#XMLID_4_);">
			
				<rect id="XMLID_889_" x="59.01" y="32.685" transform="matrix(0.3516 0.9362 -0.9362 0.3516 108.864 -11.7621)" style="fill:#FFFFFF;" width="7.826" height="80.041"/>
			
				<rect id="XMLID_888_" x="65.519" y="30.65" transform="matrix(0.3516 0.9362 -0.9362 0.3516 119.1515 -9.8995)" style="fill:#FFFFFF;" width="2.407" height="100.827"/>
		</g>
		<path id="XMLID_882_" style="fill:#29157F;" d="M100.436,61.745l-40.326,65.67l-36.974-22.704l40.326-65.67 M59.722,125.79
			l39.089-63.657l-34.96-21.467l-39.089,63.656L59.722,125.79z"/>
		<circle id="XMLID_878_" style="fill:#040026;" cx="38.793" cy="120.674" r="3.295"/>
		<g id="XMLID_875_">
			<path id="XMLID_877_" style="fill:#040026;" d="M88.034,48.042l-6.741-4.139c-0.161-0.099-0.212-0.311-0.113-0.472l0.084-0.136
				c0.099-0.161,0.311-0.212,0.472-0.113l6.741,4.139c0.161,0.099,0.212,0.311,0.113,0.472l-0.084,0.136
				C88.408,48.09,88.195,48.141,88.034,48.042z"/>
			<circle id="XMLID_876_" style="fill:#040026;" cx="86.622" cy="42.784" r="0.624"/>
		</g>
		<circle id="XMLID_874_" style="fill:#040026;" cx="78.323" cy="41.582" r="0.824"/>
		<path id="XMLID_873_" style="fill:#040026;" d="M46.096,44.693c0.371-2.86,1.957-5.473,4.458-6.909
			c2.525-1.45,6.107-1.847,9.897,3.059c7.134,9.234,4.698,20.471,3.921,22.141s-5.901,9.764-13.644-1.212
			C45.847,54.853,45.607,48.468,46.096,44.693z"/>
		<path id="XMLID_872_" style="fill:#040026;" d="M85.657,89.367c0,0-13.464-0.884-15.359,7.507s16.453,8.04,16.453,8.04
			s14.658-5.658,3.918-23.002L85.657,89.367z"/>
		<path id="XMLID_871_" style="fill:#040026;" d="M34.611,64.68c-2.587-1.16-5.593-1.191-8.091,0.149
			c-2.552,1.369-4.789,4.185-2.588,9.96c4.109,10.78,14.842,14.52,16.651,14.726c1.809,0.206,11.279,0.058,6.015-12.133
			C43.289,69.719,38.048,66.221,34.611,64.68z"/>
		<path id="XMLID_870_" style="fill:#040026;" d="M26.236,78.582c-2.422-1.086-5.237-1.115-7.576,0.14
			c-2.389,1.282-4.484,3.918-2.423,9.325c3.847,10.093,13.897,13.595,15.591,13.788c1.694,0.193,10.56,0.055,5.632-11.36
			C34.361,83.3,29.454,80.025,26.236,78.582z"/>
		<g id="XMLID_868_">
			<path id="XMLID_869_" style="fill:#29157F;" d="M49.607,46.612c0.277-2.139,1.463-4.092,3.334-5.166
				c1.424-0.817,3.296-1.186,5.346,0.254c0.081-0.084-0.037,0.038,0.044-0.046c-2.792-3.641-5.435-3.426-7.323-2.389
				c-1.924,1.056-3.155,3.033-3.44,5.21c-0.369,2.821-0.196,7.604,3.461,12.788c0.94,1.332,1.827,2.284,2.658,2.946
				c-0.203-0.259-0.408-0.531-0.617-0.826C49.421,54.209,49.242,49.435,49.607,46.612z"/>
		</g>
		<path id="XMLID_867_" style="fill:#040026;" d="M43.197,49.393c-2.937-1.312-6.346-1.322-9.168,0.222
			c-2.849,1.559-5.311,4.737-2.848,11.198c4.636,12.162,16.745,16.382,18.786,16.614s12.725,0.066,6.786-13.689
			C53.009,55.069,47.073,51.125,43.197,49.393z"/>
		<path id="XMLID_866_" style="fill:#29157F;" d="M36.741,53.698c2.4-1.314,5.3-1.305,7.798-0.189
			c2.505,1.119,6.02,3.326,8.962,7.555c-3.17-5.954-7.566-8.813-10.539-10.141c-2.499-1.116-5.398-1.125-7.798,0.189
			c-2.423,1.326-4.517,4.029-2.423,9.525c0.696,1.826,1.593,3.438,2.603,4.862c-0.374-0.721-0.721-1.475-1.026-2.275
			C32.224,57.727,34.318,55.024,36.741,53.698z"/>
		<g id="XMLID_864_">
			<path id="XMLID_865_" style="fill:#29157F;" d="M29.561,69.563c2.082-1.117,4.588-1.091,6.745-0.124
				c2.164,0.97,5.186,2.873,7.724,6.499c-2.766-5.771-6.857-8.476-9.585-9.7c-2.156-0.967-4.662-0.993-6.745,0.124
				c-2.127,1.142-3.992,3.488-2.157,8.302c0.624,1.636,1.432,3.075,2.343,4.34c-0.169-0.37-0.333-0.747-0.482-1.139
				C25.569,73.051,27.434,70.705,29.561,69.563z"/>
		</g>
		<g id="XMLID_862_">
			<path id="XMLID_863_" style="fill:#29157F;" d="M21.09,83.659c1.868-1.003,4.116-0.979,6.051-0.112
				c2.57,1.153,6.489,3.768,8.963,9.498c0.109,0.251,0.207,0.495,0.299,0.733c-0.147-1.003-0.49-2.183-1.091-3.575
				c-2.474-5.73-6.393-8.346-8.963-9.498c-1.935-0.868-4.183-0.891-6.051,0.112c-1.908,1.024-3.581,3.129-1.935,7.448
				c0.053,0.139,0.111,0.273,0.167,0.409C18.222,85.954,19.581,84.468,21.09,83.659z"/>
		</g>
		<path id="XMLID_861_" style="fill:#29157F;" d="M74.375,97.135c1.5-6.641,9.783-6,9.783-6l0,0c0,0-10.655-0.7-12.155,5.941
			c-1.5,6.641,13.021,6.363,13.021,6.363s0.008-0.003,0.019-0.008C80.998,103.185,73.259,102.072,74.375,97.135z"/>
		<path id="XMLID_860_" style="fill:#040026;" d="M146.218,208.799c-3.416,2.104-5.717,5.603-6.31,9.571
			c-1.505,10.066-3.776,35.757,1.091,84.234c1.401,13.957,10.299,26.219,23.307,31.471c0.52,0.21,1.048,0.415,1.584,0.614
			c33.639,12.511,69.237-12.842,69.736-48.728c0.196-14.082,1.692-30.457,6.459-43.665c9.713-26.911-7.71-38.379-24.719-37.86
			c-12.226,0.373-28.426-2.447-36.569-4.063c-6.067-1.204-12.372-1.094-18.266,0.782
			C159.496,202.122,151.685,205.432,146.218,208.799z"/>
		<linearGradient id="XMLID_6_" gradientUnits="userSpaceOnUse" x1="175.6644" y1="275.1346" x2="268.1349" y2="251.4242">
			<stop  offset="0.4164" style="stop-color:#29157F;stop-opacity:0"/>
			<stop  offset="1" style="stop-color:#29157F"/>
		</linearGradient>
		<path id="XMLID_27_" style="fill:url(#XMLID_6_);" d="M208.981,322.618c-0.133,3.765,4.236,5.979,7.159,3.602
			c11.543-9.385,19.255-23.695,19.485-40.259c0.196-14.082,1.692-30.457,6.459-43.665c9.713-26.911-7.71-38.379-24.719-37.86
			c-0.027,0.001-0.054,0.002-0.081,0.002c-2.321,0.07,3.277-6.268-5.693,4.642C172.743,256.331,208.981,322.618,208.981,322.618z"/>
		<path id="XMLID_857_" style="fill:#29157F;" d="M194.465,246.014c8.405,0.03,20.678-1.672,27.928-10.685
			c0.476-0.592,1.391,0.029,1.005,0.683c-3.67,6.236-11.727,13.633-29.012,11.219C193.633,247.127,193.704,246.012,194.465,246.014z
			"/>
		<path id="XMLID_856_" style="fill:#29157F;" d="M196.918,275.85c0,0,19.857,14.716,38.79,3.267l-0.183,2.174
			c0,0-15.945,12.796-38.493-2.786L196.918,275.85z"/>
		<circle id="XMLID_855_" style="fill:#29157F;" cx="196.772" cy="277.591" r="5.245"/>
		<path id="XMLID_854_" style="fill:#29157F;" d="M196.548,296.257c0,0,21.425,12.321,38.907-1.241l0.07,2.18
			c0,0-14.359,14.554-38.557,1.684L196.548,296.257z"/>
		<circle id="XMLID_853_" style="fill:#29157F;" cx="196.604" cy="298.004" r="5.245"/>
		<circle id="XMLID_852_" style="fill:#42B9E0;" cx="196.772" cy="277.591" r="3.239"/>
		<circle id="XMLID_851_" style="fill:#42B9E0;" cx="196.772" cy="298.004" r="3.239"/>
		<path id="XMLID_850_" style="fill:#0E003F;" d="M177.079,194.087c0.445,6.684,2.739,16.246,11.634,20.993
			c0.584,0.312,0.051,1.108-0.587,0.876c-6.078-2.215-13.498-7.786-12.198-21.795C175.985,193.551,177.039,193.483,177.079,194.087z
			"/>
		<path id="XMLID_859_" style="fill:#FFFFFF;" d="M226.153,205.286c-0.422,1.197-0.723,2.535-1.176,3.763
			c8.665,3.459,18.818,13.828,13.983,44.261l0.005-0.001c0.838-3.823,1.863-7.53,3.12-11.013
			C250.104,220.078,239.623,208.396,226.153,205.286z"/>
		<path id="XMLID_834_" style="fill:#040026;" d="M178.753,173.737l-1.378,25.718c0,0,3.114,28.325,35.717,16.545l12.409-30.757
			L178.753,173.737z"/>
		<path id="XMLID_858_" style="fill:#29157F;" d="M184.344,236.609c43.937,6.823,43.321-25.311,42.491-31.166
			c-1.098-0.279-2.218-0.497-3.35-0.661c2.425,27.609-22.692,31.036-39.012,30.402C183.575,235.149,183.456,236.471,184.344,236.609
			z"/>
		<g id="XMLID_798_">
			<path id="XMLID_833_" style="fill:#1987BD;" d="M170.55,158.51c-1.215-6.447-1.563-13.27-0.918-20.251
				c4.296-46.547,30.637-54.468,58.604-50.6c27.967,3.867,50.867,15.738,42.674,64.604c-1.159,6.911-3.29,13.382-6.176,19.26
				c0.248,0.03,0.49,0.086,0.724,0.166c5.015-7.455-4.701-26.402-0.044-34.956c12.553-23.06,0.387-46.821-36.455-54.3
				c-35.962-7.3-57.372,16.49-61.788,48.426c-1.334,9.646-0.378,19.043,2.421,27.578C169.91,158.419,170.232,158.442,170.55,158.51z
				"/>
			<g id="XMLID_830_">
				<path id="XMLID_832_" style="fill:#42B9E0;" d="M240.784,85.681c-1.649,0.92-1.869,2.429-1.376,4.102
					c14.005,3.551,25.517,10.56,30.509,25.511C268.214,102.872,258.493,91.962,240.784,85.681z"/>
				<path id="XMLID_831_" style="fill:#42B9E0;" d="M269.379,126.378c0.915-0.029,1.867-0.051,2.837-0.069
					c-0.426-4.083-1.204-7.741-2.298-11.015C270.411,118.888,270.226,122.608,269.379,126.378z"/>
			</g>
			<path id="XMLID_829_" style="fill:#040026;" d="M254.406,67.885l8.608-33.858c0.486-1.91-0.433-3.906-2.203-4.774
				C195.725-2.69,95.933,69.986,143.244,183.24c0.965,2.31,3.737,3.262,5.913,2.024l17.976-10.231
				c1.119-0.637,1.88-1.755,2.062-3.03l3.264-22.871c0.131-0.916,0.563-1.763,1.229-2.406l79.577-76.872
				C253.82,69.316,254.215,68.634,254.406,67.885z"/>
			<path id="XMLID_828_" style="fill:#1987BD;" d="M246.999,216.75l-62.568-29.299c-8.617-3.013-13.662-11.951-11.787-20.885
				l5.353-25.507l24.173,17.834L246.999,216.75z"/>
			<path id="XMLID_827_" style="fill:#42B9E0;" d="M277.586,193.454l-2.983-3.756l-1.589,4.095
				c-0.381,0.682,0.273,1.488,1.122,1.383l2.713-0.334C277.575,194.752,277.956,194.036,277.586,193.454z"/>
			<path id="XMLID_826_" style="fill:#0E003F;" d="M159.695,75.893c0.675-1.179-0.992-2.286-1.809-1.2
				c-12.243,16.255-29.661,50.153-7.388,93.466C150.498,168.158,131.326,125.483,159.695,75.893z"/>
			<path id="XMLID_825_" style="fill:#0E003F;" d="M221.838,51.105c1.097-0.044,1.166-1.644,0.077-1.777
				c-12.443-1.511-37.002,1.122-60.307,36.444C161.608,85.772,184.839,52.602,221.838,51.105z"/>
			<path id="XMLID_824_" style="fill:#1987BD;" d="M227.829,90.65c1.749,1.967,3.445,4.044,5.083,6.228
				c1.689,2.254,4.5,3.345,7.058,2.343c2.234-0.876,4.467-1.852,6.695-2.93c1.409-0.678,2.573-1.97,3.24-3.607
				c2.376-5.815,4.413-11.91,6.067-18.259c0.849-3.243,0.143-7.375-2.563-8.206c-35.959-11.047-99.879,13.112-87.21,76.405
				c0.473,2.364,18.515-16.352,19.112-14.226c1.14,4.048,40.271-45.674,40.88-41.188C226.362,88.439,226.93,89.638,227.829,90.65z"
				/>
			<path id="XMLID_823_" style="fill:#42B9E0;" d="M246.666,96.291c1.409-0.678,2.573-1.97,3.24-3.607
				c2.377-5.815,4.413-11.91,6.067-18.259c0.849-3.243,0.143-7.375-2.563-8.206c-13.348-4.101-30.547-3.345-46.252,2.457
				c10.681-0.938,42.667-1.944,23.807,22.317c-0.482,0.62-0.911,1.214-1.316,1.796c1.108,1.324,2.201,2.675,3.262,4.09
				c1.689,2.254,4.5,3.345,7.059,2.343C242.204,98.345,244.438,97.369,246.666,96.291z"/>
			<path id="XMLID_822_" style="fill:#040026;" d="M233.639,88.406c-31.665-5.867-61.741,3.025-65.741,49.614
				c-0.6,6.987-0.074,13.834,1.433,20.322c0.759,0.154,1.493,0.496,2.097,1.063l6.175,5.797c0.612-0.726,1.604-1.186,2.93-1.024
				c3.765,0.46,8.589,2.725,9.541,6.306c0.491,1.847-0.223,3.654-1.849,4.688l5.344,5.016c0.631,0.592,1.485,0.988,2.408,1.115
				l48.705,6.734c0.923,0.128,1.853-0.021,2.62-0.42l6.947,8.387c0.808-0.42,20.284-1.422,21.126-1.317
				C288.095,147.118,286.577,98.215,233.639,88.406z"/>
			<path id="XMLID_821_" style="fill:#29157F;" d="M264.659,123.883L264.659,123.883c2.623,0.363,4.779-0.985,4.385-2.741
				c-3.014-13.457-14.11-24.288-37.943-28.378c-2.46-0.422-4.904-0.761-7.31-1.003c-3.669-0.369-4.07,2.748-0.432,3.363
				c0.095,0.016,0.191,0.032,0.286,0.049c22.574,3.874,33.725,13.795,37.403,26.266
				C261.402,122.638,262.863,123.635,264.659,123.883z"/>
			<path id="XMLID_820_" style="fill:#1987BD;" d="M198.915,159.947c3.158-0.273,6.319,0.484,9.011,2.156l42.717,26.534
				c0.321,0.192,0.683,0.318,1.06,0.37l23.93,3.309c1.403,0.194,2.399,1.366,2.226,2.619l-3.225,23.325
				c-0.173,1.252-1.451,2.111-2.853,1.917l-24.781-3.427c-0.3-0.041-0.59-0.131-0.862-0.265l-60.723-29.984
				c-0.882-0.435-1.418-1.282-1.376-2.171l1.105-23.194L198.915,159.947z"/>
			<path id="XMLID_819_" style="fill:#1987BD;" d="M203.478,158.057c26.351-24.623-48.968-78.768,23.652-70.642l-0.168-2.93
				l-16.152-1.236l-20.217,8.844l-10.169,8.903l-5.318,8.16l-3.378,7.597l-3.905,13.427l16.576-1.366
				C184.398,128.815,191.227,169.504,203.478,158.057z"/>
			<path id="XMLID_818_" style="fill:#42B9E0;" d="M274.633,218.26l3.225-23.324c0.173-1.253-0.824-2.425-2.226-2.619l-23.93-3.309
				l-3.852,27.86l23.93,3.309C273.183,220.37,274.46,219.512,274.633,218.26z"/>
			<path id="XMLID_817_" style="fill:#FFFAFF;" d="M272.926,157.964c-0.221-0.538-0.464-1.054-0.728-1.548
				c-1.8-3.367-4.581-5.676-7.941-6.14c-2.949-0.408-5.853,0.676-8.309,2.806c-0.753,0.654-1.465,1.402-2.122,2.24
				c-0.703,0.897,0.28,2.147,1.177,1.501c0.363-0.262,0.736-0.499,1.115-0.721c2.318-1.361,4.914-1.978,7.556-1.612
				c3.007,0.416,5.611,2.04,7.578,4.443c0.044,0.053,0.092,0.101,0.135,0.156C272.074,159.954,273.359,159.018,272.926,157.964z"/>
			<path id="XMLID_816_" style="fill:#FFFAFF;" d="M281.929,154.371c-0.304,0.222-0.516,0.382-0.808,0.635
				c-0.762,0.662-1.483,1.419-2.148,2.268c-0.712,0.908,0.283,2.174,1.191,1.52c0.368-0.265,0.746-0.505,1.129-0.73
				c0.152-0.089,0.308-0.168,0.463-0.249C281.806,157.457,281.929,154.371,281.929,154.371z"/>
			<polygon id="XMLID_815_" style="fill:#29157F;" points="218.102,162.231 254.788,186.176 276.715,189.208 277.557,185.757 
				256.16,182.528 			"/>
			<path id="XMLID_814_" style="fill:#FFFAFF;" d="M262.727,192.938l12.646,1.749c0.173,0.024,0.294,0.183,0.27,0.356l-2.08,15.046
				c-0.042,0.306-0.453,0.376-0.594,0.101l-1.507-2.93c-0.137-0.265-0.191-0.566-0.156-0.862l1.032-8.701
				c0.02-0.166-0.093-0.318-0.257-0.348l-6.415-1.165c-0.287-0.052-0.553-0.187-0.765-0.389l-2.435-2.316
				C262.244,193.269,262.423,192.896,262.727,192.938z"/>
			<path id="XMLID_813_" style="fill:#42B9E0;" d="M186.432,116.633c-12.924-1.787-24.868,6.668-27.47,19.098
				c0.112,0.061,0.225,0.111,0.337,0.189c3.431,2.394,4.485,6.399,4.556,10.396c0.034,1.918-0.487,3.872-0.414,5.761
				c0.127,3.258,3.102,3.421,5.092,5.446c0.986,1.004,1.1,2.285,0.718,3.36c3.049,2.058,6.607,3.475,10.507,4.014
				c13.491,1.865,25.922-7.427,27.764-20.755C209.366,130.816,199.923,118.499,186.432,116.633z"/>
			<circle id="XMLID_812_" style="fill:#1987BD;" cx="184.738" cy="144.329" r="24.362"/>
			<polygon id="XMLID_811_" style="fill:#42B9E0;" points="241.56,214.225 244.453,215.654 248.383,187.234 245.537,185.466 			"/>
			<circle id="XMLID_810_" style="fill:#006589;" cx="183.71" cy="145.707" r="19.151"/>
			<path id="XMLID_809_" style="fill:#006589;" d="M250.642,188.637l-0.357-0.222l-3.895,28.17c0.197,0.075,0.399,0.135,0.608,0.164
				l1.155,0.16l3.852-27.86l-0.304-0.042C251.325,188.956,250.963,188.829,250.642,188.637z"/>
			<circle id="XMLID_808_" style="fill:#42B9E0;" cx="183.981" cy="143.75" r="17.221"/>
			<g id="XMLID_804_">
				<path id="XMLID_807_" style="fill:#42B9E0;" d="M185.363,141.221l-32.624-20.247c-2.456-1.524-3.219-4.782-1.694-7.238v0
					c1.525-2.456,4.782-3.219,7.238-1.694l32.624,20.247c2.456,1.524,3.219,4.782,1.694,7.238v0
					C191.077,141.983,187.819,142.746,185.363,141.221z"/>
				<path id="XMLID_806_" style="fill:#42B9E0;" d="M180.686,148.757l-26.092-16.193c-2.456-1.524-3.219-4.782-1.694-7.238v0
					c1.524-2.456,4.782-3.219,7.238-1.694l26.092,16.193c2.456,1.524,3.219,4.782,1.694,7.238v0
					C186.4,149.519,183.143,150.281,180.686,148.757z"/>
				<path id="XMLID_805_" style="fill:#42B9E0;" d="M176.393,155.675l-18.169-11.276c-2.456-1.525-3.219-4.782-1.694-7.238l0,0
					c1.524-2.456,4.782-3.219,7.238-1.694l18.169,11.276c2.456,1.524,3.219,4.782,1.694,7.238h0
					C182.106,156.437,178.849,157.199,176.393,155.675z"/>
			</g>
			<g id="XMLID_802_">
				<path id="XMLID_803_" style="fill:#FFFAFF;" d="M187.499,130.711c-0.499-0.069-0.995-0.104-1.488-0.117
					c6.533,1.652,10.917,7.985,9.973,14.815c-0.944,6.83-6.883,11.736-13.619,11.553c0.478,0.121,0.964,0.222,1.464,0.291
					c7.329,1.013,14.093-4.107,15.106-11.436C199.949,138.488,194.829,131.725,187.499,130.711z"/>
			</g>
			<path id="XMLID_801_" style="fill:#1987BD;" d="M174.543,134.974l-16.663-9.442c-0.356-0.202-0.482-0.658-0.28-1.013l0.065-0.115
				c0.202-0.356,0.658-0.482,1.013-0.28l16.663,9.442c0.356,0.202,0.482,0.658,0.28,1.013l-0.065,0.115
				C175.355,135.05,174.899,135.176,174.543,134.974z"/>
			<path id="XMLID_800_" style="fill:#1987BD;" d="M171.569,143.996l-9.846-5.579c-0.356-0.202-0.482-0.658-0.28-1.013l0.065-0.115
				c0.202-0.356,0.658-0.482,1.013-0.28l9.846,5.579c0.356,0.202,0.482,0.658,0.28,1.013l-0.065,0.115
				C172.38,144.071,171.924,144.197,171.569,143.996z"/>
			<path id="XMLID_799_" style="fill:#29157F;" d="M260.811,29.252C218.994,8.73,162.858,31.397,140.606,80.26
				c28.545-47,93.92-58.361,118.678-31.561l3.73-14.673C263.5,32.116,262.581,30.12,260.811,29.252z"/>
		</g>
		<path id="XMLID_797_" style="fill:#29157F;" d="M162.531,201.156c-3.035,0.966-10.846,4.277-16.313,7.643
			c-3.416,2.104-5.717,5.603-6.31,9.571c-0.278,1.861-0.661,6.054-0.974,9.775c0.135-0.021,0.268-0.049,0.407-0.055
			c0.014-0.001,0.027,0.003,0.041,0.003c1.254-14.211,13.483-20.911,30.87-24.66l1.211-3.814
			C168.437,199.74,165.434,200.232,162.531,201.156z"/>
		<path id="XMLID_796_" style="fill:#29157F;" d="M169.835,199.721c0,0-12.225,24.121,22.109,26.789
			c0.738,0.057,0.946-1.045,0.22-1.192c-9.127-1.843-23.689-5.388-18.125-25.597"/>
		<path id="XMLID_795_" style="fill:#29157F;" d="M0,70.115c0,0,6.196-28.411,31.947-35.984C31.947,34.13,0.744,35.397,0,70.115z"/>
		<path id="XMLID_794_" style="fill:#29157F;" d="M435.775,129.913c0,0,21.071,1.432,27.742,25.434
			C463.517,155.347,461.225,124.972,435.775,129.913z"/>
		<g id="XMLID_790_">
			<path id="XMLID_791_" style="fill:#29157F;" d="M313.313,121.239c-1.902,0-3.449-1.547-3.449-3.45s1.547-3.45,3.449-3.45
				s3.45,1.547,3.45,3.45S315.216,121.239,313.313,121.239z M313.313,115.84c-1.075,0-1.949,0.875-1.949,1.95s0.874,1.95,1.949,1.95
				s1.95-0.875,1.95-1.95S314.389,115.84,313.313,115.84z"/>
		</g>
		<g id="XMLID_784_">
			<path id="XMLID_786_" style="fill:#29157F;" d="M94.601,6.899c-1.902,0-3.449-1.547-3.449-3.45S92.699,0,94.601,0
				s3.45,1.547,3.45,3.45S96.504,6.899,94.601,6.899z M94.601,1.5c-1.075,0-1.949,0.875-1.949,1.95s0.874,1.95,1.949,1.95
				s1.95-0.875,1.95-1.95S95.677,1.5,94.601,1.5z"/>
		</g>
		<circle id="XMLID_783_" style="fill:#29157F;" cx="400.02" cy="93.97" r="1.331"/>
		<circle id="XMLID_782_" style="fill:#29157F;" cx="501.554" cy="202.663" r="1.331"/>
		<circle id="XMLID_781_" style="fill:#29157F;" cx="435.775" cy="67.392" r="1.331"/>
		<circle id="XMLID_780_" style="fill:#29157F;" cx="369.11" cy="54.972" r="2.287"/>
		<circle id="XMLID_779_" style="fill:#29157F;" cx="516.901" cy="149.162" r="2.287"/>
		<circle id="XMLID_778_" style="fill:#29157F;" cx="120.787" cy="81.108" r="2.287"/>
		<circle id="XMLID_777_" style="fill:#29157F;" cx="378.235" cy="237.554" r="2.287"/>
	</g>
</g>
<g id="Layer_1">
</g>
</svg>
