<?xml version="1.0" encoding="iso-8859-1"?>
<!-- Generator: Adobe Illustrator 19.0.0, SVG Export Plug-In . SVG Version: 6.00 Build 0)  -->
<svg version="1.1" xmlns="http://www.w3.org/2000/svg" xmlns:xlink="http://www.w3.org/1999/xlink" x="0px" y="0px"
	 viewBox="0 0 218 240.115" style="enable-background:new 0 0 218 240.115;" xml:space="preserve">
<g id="secure_x5F_wifi">
	<path id="XMLID_2644_" style="fill:#B4B4EF;" d="M186.976,71.745H28.857c-0.75,0-1.357,0.608-1.357,1.357v48.918
		c0,0.726,0.571,1.323,1.296,1.356l0.017,0.001c0.762,0.034,1.403-0.566,1.418-1.329l0.925-45.934
		c0.015-0.739,0.618-1.33,1.357-1.33h150.646c0.745,0,1.351,0.6,1.357,1.345l1.103,124.803c0.006,0.721,0.576,1.311,1.296,1.344l0,0
		c0.773,0.035,1.418-0.582,1.418-1.356V73.102C188.333,72.352,187.726,71.745,186.976,71.745z"/>
	<g id="XMLID_2421_">
		<g id="XMLID_2640_">
			<path id="XMLID_2643_" style="fill:#040026;" d="M101.166,85.881l-8.223-32.742c0,0,15.275-13.864,30.562,0.272l-7.39,32.463
				L101.166,85.881z"/>
			<path id="XMLID_2642_" style="fill:#29157F;" d="M92.942,53.14l8.218,32.72c1.702-0.523,3.121-0.972,3.121-0.972l-2.252-13.732
				c-1.872-11.414,9.554-20.801,20.177-16.226c0.292,0.126,0.579,0.259,0.861,0.401l0.437-1.918
				C108.218,39.276,92.942,53.14,92.942,53.14z"/>
		</g>
		<path id="XMLID_2637_" style="fill:#0E003F;" d="M87.652,195.621c0,0-10.667,17.167-10.667,34.333c0,0,9.667,5.667,10.667,5.667
			s17.833,1.5,19.5,1.333c1.667-0.167,4.667-0.333,8-0.5c3.333-0.167,10.333-0.833,11.667-1.167c1.333-0.333,18.5-5.5,18.5-5.5
			l-2.667,1.5c0,0-1.167-26.167-14-37.667C115.572,181.9,87.652,195.621,87.652,195.621z"/>
		<g id="XMLID_2587_">
			<path id="XMLID_2636_" style="fill:#FF7857;" d="M77.905,150.396c0.497,8.935-3.776,16.457-9.544,16.8
				s-10.845-6.622-11.342-15.557s3.776-16.457,9.544-16.8S77.408,141.461,77.905,150.396z"/>
			<path id="XMLID_2631_" style="fill:#1987BD;" d="M139.498,150.396c-0.497,8.935,3.776,16.457,9.544,16.8
				c5.767,0.343,10.845-6.622,11.342-15.557s-3.776-16.457-9.544-16.8C145.072,134.496,139.994,141.461,139.498,150.396z"/>
			<path id="XMLID_2628_" style="fill:#1987BD;" d="M71.57,163.404c-1.647-4.818-2.656-10.016-2.907-15.441
				c-1.673-36.171,18.062-45.043,40.342-45.043s41.465,6.679,40.342,45.043c-0.159,5.425-1.125,10.617-2.746,15.434
				c0.197-0.003,0.392,0.014,0.584,0.05c3.114-6.252,4.887-13.356,4.887-20.901c0-24.973-19.281-45.218-43.066-45.218
				s-43.066,20.245-43.066,45.218c0,7.543,1.763,14.652,4.873,20.904C71.06,163.402,71.314,163.386,71.57,163.404z"/>
			<path id="XMLID_2615_" style="fill:#1987BD;" d="M147.184,163.447c-0.191-0.036-0.386-0.053-0.584-0.05
				c-0.587,0.009-1.184,0.192-1.697,0.6l-17.139,13.598c-0.488,0.387-1.111,0.6-1.756,0.6H92.001c-0.644,0-1.267-0.213-1.756-0.6
				l-17.139-13.598c-0.467-0.371-1.003-0.555-1.537-0.593c-0.256-0.018-0.51-0.002-0.758,0.046
				c-1.163,0.226-2.149,1.142-2.149,2.421v16.579c0,0.709,0.33,1.384,0.907,1.854l18.502,15.057c0.491,0.4,1.125,0.621,1.781,0.621
				h2.148h34.008h2.148c0.656,0,1.289-0.221,1.781-0.621l18.502-15.057c0.577-0.47,0.907-1.145,0.907-1.854v-16.579
				C149.347,164.587,148.354,163.668,147.184,163.447z"/>
			<path id="XMLID_2614_" style="fill:#1987BD;" d="M101.395,104.132l4.821,3.541c1.662,1.221,3.896,1.192,5.529-0.071l4.292-3.32
				c0.904-0.7,1.535-1.713,1.775-2.854l2.566-12.167c0.435-2.063-0.464-4.182-2.232-5.238c-4.111-2.458-12.067-5.399-20.368,1.432
				c-1.525,1.255-2.133,3.367-1.535,5.286l3.401,10.92C99.954,102.658,100.568,103.525,101.395,104.132z"/>
		</g>
		<path id="XMLID_2586_" style="fill:#42B9E0;" d="M113.635,178.195H92.001c-0.644,0-1.267-0.213-1.756-0.6l-16.543-13.126
			c2.822-3.026,4.526-8.248,4.203-14.072c-0.423-7.613-4.173-13.793-8.84-15.243c2.666-21.768,15.746-29.851,31.555-31.758
			c0.233,0.271,0.485,0.524,0.775,0.737l4.821,3.541c1.662,1.221,3.896,1.192,5.529-0.071l1.89-1.462V81.999
			c-4.288-1.317-9.985-1.377-15.857,3.456c-1.525,1.255-2.133,3.367-1.535,5.286l2.46,7.899
			c-16.481,4.249-29.224,18.454-32.128,36.199c-0.004,0-0.008,0-0.012,0c-5.767,0.343-10.04,7.864-9.544,16.8
			c0.496,8.935,5.574,15.9,11.342,15.557c0.102-0.006,0.202-0.02,0.302-0.03v15.284c0,0.709,0.33,1.384,0.907,1.854l18.502,15.057
			c0.491,0.4,1.125,0.621,1.781,0.621h2.148h21.634V178.195z"/>
		<path id="XMLID_2439_" style="fill:#FFFAFF;" d="M65.936,138.307c-0.001-0.007-0.001-0.014-0.002-0.02
			c-0.058-0.692-0.803-1.096-1.417-0.772c-3.135,1.649-5.386,6.147-5.386,11.45c0,1.308,0.141,2.566,0.394,3.747
			c-0.055-0.573-0.093-1.154-0.093-1.749c0-5.61,2.519-10.323,5.938-11.711C65.744,139.098,65.969,138.708,65.936,138.307z"/>
		<path id="XMLID_2438_" style="fill:#FFFAFF;" d="M69.091,136.593c0.085,0.768,0.151,1.539,0.192,2.315
			c3.848,0.442,7.044,4.399,8.192,9.753C76.86,142.235,73.404,137.201,69.091,136.593z"/>
		<path id="XMLID_2437_" style="fill:#29157F;" d="M87.116,208.643c-1.091,3.484-2.331,8.858-2.213,15.044
			c0.003,0.181,0.074,0.351,0.2,0.481c0.866,0.902,4.867,4.315,16.555,5.33c0.861,0.075,1.073-1.169,0.233-1.372
			c-6.16-1.488-13.84-3.756-14.039-5.845l0.626-13.394C88.515,208.07,87.361,207.862,87.116,208.643z"/>
		<path id="XMLID_2436_" style="fill:#FFFAFF;" d="M71.315,180.451l-0.134-9.333c-0.021-1.478,1.679-2.321,2.842-1.41l10.008,7.832
			c0.433,0.339,0.682,0.86,0.675,1.409l-0.138,9.944c-0.021,1.496-1.781,2.284-2.911,1.304l-9.736-8.443
			C71.543,181.426,71.323,180.952,71.315,180.451z"/>
		<path id="XMLID_2435_" style="fill:#FFFAFF;" d="M89.083,192.781L89.083,192.781c-0.413,0-0.75-0.338-0.75-0.75V180.73
			c0-0.412,0.337-0.75,0.75-0.75l0,0c0.412,0,0.75,0.338,0.75,0.75v11.301C89.833,192.444,89.496,192.781,89.083,192.781z"/>
		<rect id="XMLID_2434_" x="112.885" y="178.195" style="fill:#006589;" width="1.5" height="21.786"/>
		<path id="XMLID_2433_" style="fill:#006589;" d="M112.885,106.72l1.5-1.16V82.244c-0.48-0.17-0.982-0.323-1.5-0.459V106.72z"/>
		<path id="XMLID_2432_" style="fill:#040026;" d="M109.005,102.92c-22.28,0-42.014,8.872-40.342,45.043
			c0.251,5.424,1.26,10.623,2.907,15.441c0.534,0.038,1.07,0.222,1.537,0.593l17.139,13.598c0.488,0.387,1.111,0.6,1.756,0.6h34.008
			c0.644,0,1.267-0.213,1.756-0.6l17.139-13.598c0.514-0.408,1.111-0.591,1.697-0.6c1.621-4.817,2.588-10.008,2.746-15.434
			C150.47,109.598,131.285,102.92,109.005,102.92z"/>
		<path id="XMLID_2431_" style="fill:#FFFAFF;" d="M121.263,155.71c2.415,0,4.644,1.016,6.437,2.73
			c0.622,0.595,1.513-0.266,1.067-1.034c-1.776-3.06-4.476-5.015-7.504-5.015s-5.728,1.954-7.504,5.015
			c-0.446,0.769,0.445,1.63,1.067,1.034C116.62,156.726,118.848,155.71,121.263,155.71z"/>
		<polygon id="XMLID_2430_" style="fill:#29157F;" points="78.319,163.871 91.402,174.788 125.902,174.788 139.902,164.621 
			125.319,173.038 92.069,173.038 		"/>
		<path id="XMLID_2429_" style="fill:#29157F;" d="M108.999,106.699c-19.815,0-37.366,7.89-35.878,40.06
			c0.014,0.296,0.038,0.589,0.056,0.883c-1.103-31.416,16.306-39.176,35.95-39.176c17.584,0,32.992,4.689,35.574,29.538
			C142.696,111.595,126.982,106.699,108.999,106.699z"/>
		<path id="XMLID_2428_" style="fill:#FFFAFF;" d="M108.392,83.455c0,0-4.664-0.037-8.378,3.01
			c-1.128,0.925-1.656,2.409-1.375,3.841c0.258,1.316,0.791,3.266,1.878,5.983c1.694,4.234,0.931-1.621,0.352-5.342
			c-0.252-1.617,0.493-3.224,1.892-4.073L108.392,83.455z"/>
		<ellipse id="XMLID_2426_" style="fill:#FFFAFF;" cx="95.27" cy="155.321" rx="4.94" ry="7.194"/>
		<g id="XMLID_2422_">
			<path id="XMLID_2425_" style="fill:#B4B4EF;" d="M107.824,5.871c16.835,0,31.685,8.798,40.523,22.199
				C140.892,11.426,125.551,0,107.824,0S74.757,11.426,67.302,28.069C76.139,14.668,90.989,5.871,107.824,5.871z"/>
			<path id="XMLID_2424_" style="fill:#7972C4;" d="M107.824,21.511c13.091,0,24.638,6.264,31.51,15.807
				c-5.797-11.851-17.726-19.987-31.51-19.987s-25.713,8.136-31.51,19.987C83.186,27.775,94.734,21.511,107.824,21.511z"/>
			<path id="XMLID_2423_" style="fill:#483C91;" d="M107.824,35.491c9.008,0,16.953,4.378,21.682,11.046
				c-3.989-8.281-12.197-13.967-21.682-13.967s-17.693,5.686-21.682,13.967C90.871,39.869,98.817,35.491,107.824,35.491z"/>
		</g>
	</g>
	<polygon id="XMLID_2420_" style="fill:#FFFFFF;" points="0,240.115 33.167,218.698 188.167,218.698 218,240.115 	"/>
	<polygon id="XMLID_2328_" style="fill:#B4B4EF;" points="0,239.115 32.667,215.41 190,215.41 218,239.115 187.667,219.501 
		33.417,219.501 	"/>
	<g id="XMLID_2301_">
		<ellipse id="XMLID_2327_" style="fill:#B4B4EF;" cx="58.533" cy="232.174" rx="22.413" ry="7.396"/>
		<ellipse id="XMLID_2326_" style="fill:#483C91;" cx="58.533" cy="230.92" rx="15.842" ry="5.229"/>
		<path id="XMLID_2325_" style="fill:#FF7857;" d="M58.471,213.277c-8.056,0-14.599-1.807-14.738-4.051v18.278
			c0,3.019,2.227,5.465,4.974,5.465h19.53c2.746,0,4.974-2.446,4.974-5.465v-18.281C73.073,211.469,66.528,213.277,58.471,213.277z"
			/>
		<path id="XMLID_2324_" style="fill:#FF7857;" d="M58.471,213.277c8.058,0,14.602-1.808,14.738-4.054
			c0.001-0.024,0.006-0.047,0.006-0.071c0-0.024-0.005-0.048-0.006-0.071c-0.136-2.246-6.681-4.055-14.738-4.055
			c-8.056,0-14.599,1.807-14.738,4.054c-0.001,0.024-0.006,0.047-0.006,0.072c0,0.024,0.005,0.048,0.006,0.074
			C43.871,211.47,50.415,213.277,58.471,213.277z"/>
		<g id="XMLID_2320_">
			<path id="XMLID_2321_" style="fill:#FF7857;" d="M76.341,214.417h-2.481c-2.795,0-5.061,2.266-5.061,5.06v0.745
				c0,2.794,2.266,5.06,5.061,5.06h2.481c2.794,0,5.06-2.266,5.06-5.06v-0.745C81.401,216.683,79.136,214.417,76.341,214.417z
				 M79.13,220.007c0,1.746-1.101,3.162-2.46,3.162h-1.207c-1.358,0-2.459-1.416-2.459-3.162v-0.464
				c0-1.747,1.101-3.162,2.459-3.162h1.207c1.358,0,2.46,1.415,2.46,3.162V220.007z"/>
		</g>
		<path id="XMLID_2319_" style="fill:#303033;" d="M45.282,210.501c2.384,1.642,7.43,2.776,13.274,2.776
			c5.895,0,10.977-1.154,13.336-2.821c-2.08-1.776-7.361-2.985-13.543-2.899C52.548,207.638,47.563,208.838,45.282,210.501z"/>
		<path id="XMLID_2318_" style="fill:#FFDE73;" d="M46.697,219.418c-0.005-0.002-0.01-0.003-0.015-0.005
			c-0.453-0.149-0.921,0.168-0.911,0.645l0.191,8.46c0,1.79,0.569,2.495,2.151,2.495l11.233,0.175c0.77,0,1.259-0.204,1.608-0.652
			c0.357-0.46-0.04-1.126-0.619-1.065c-11.742,1.246-12.994-5.678-13.149-9.442C47.174,219.741,46.972,219.507,46.697,219.418z"/>
		<ellipse id="XMLID_2317_" style="fill:#5C5C60;" cx="58.485" cy="211.61" rx="9.35" ry="1.605"/>
		<g id="XMLID_2302_">
			<path id="XMLID_2314_" style="fill:#FFDE73;" d="M58.471,213.591c-8.172,0-14.688-1.894-14.833-4.315
				c-0.004-0.04-0.007-0.063-0.007-0.086c0-0.023,0.003-0.045,0.005-0.067c0.147-2.438,6.663-4.333,14.835-4.333
				c8.175,0,14.69,1.898,14.834,4.318c0.005,0.042,0.006,0.062,0.006,0.083c0,0.021-0.001,0.041-0.004,0.062
				C73.161,211.694,66.646,213.591,58.471,213.591z M58.471,205.479c-7.983,0-13.461,1.74-13.569,3.363l-0.003,0.039l0.003,0.063
				c0.108,1.626,5.585,3.363,13.569,3.363c7.985,0,13.463-1.739,13.569-3.363l0.004-0.037l-0.004-0.064
				C71.934,207.218,66.456,205.479,58.471,205.479z"/>
			<path id="XMLID_2303_" style="fill:#FFDE73;" d="M73.327,209.116c-0.138-2.331-6.734-4.209-14.856-4.209
				c-8.121,0-14.715,1.877-14.855,4.208c-0.002,0.026-0.007,0.051-0.007,0.076c0,0.026,0.005,0.051,0.007,0.077
				c0.14,2.331,6.734,4.207,14.855,4.207c8.122,0,14.718-1.877,14.856-4.21c0-0.024,0.006-0.048,0.006-0.073
				C73.333,209.166,73.327,209.141,73.327,209.116z M72.395,208.952c-0.129,1.978-6.312,3.572-13.925,3.572
				c-7.611,0-13.793-1.592-13.924-3.57c-0.001-0.022-0.006-0.043-0.006-0.064c0-0.022,0.005-0.043,0.006-0.066
				c0.131-1.978,6.313-3.57,13.924-3.57c7.613,0,13.795,1.594,13.925,3.573c0.001,0.02,0.006,0.041,0.006,0.063
				C72.401,208.911,72.397,208.932,72.395,208.952z"/>
		</g>
	</g>
	<path id="XMLID_2300_" style="fill:#EFEAEA;" d="M53.047,211.402c0,0,7.364-2.591,3.646-7.69c-3.956-5.425,0.043-5.926,0.917-6.492
		c8.001-5.183,9.269-13.143,1.697-16.719c-8.605-4.064-14.321,0.64-15.647,3.253c-1.887,3.714-0.191,10.958,6.083,8.454
		c7.043-2.811,6.465,1.948,4.556,3.564c-1.909,1.616-2.299,3.047-1.681,4.85C53.904,204.371,60.263,205.796,53.047,211.402z"/>
</g>
<g id="Layer_1">
</g>
</svg>
