<?xml version="1.0" encoding="UTF-8" standalone="no"?>
<svg width="360px" height="1641px" viewBox="0 0 360 1641" version="1.1" xmlns="http://www.w3.org/2000/svg" xmlns:xlink="http://www.w3.org/1999/xlink">
    <!-- Generator: Sketch 41 (35326) - http://www.bohemiancoding.com/sketch -->
    <title>CCP-Mobile-payment</title>
    <desc>Created with Sketch.</desc>
    <defs>
        <rect id="path-1" x="110" y="360" width="225" height="40" rx="4"></rect>
        <mask id="mask-2" maskContentUnits="userSpaceOnUse" maskUnits="objectBoundingBox" x="0" y="0" width="225" height="40" fill="white">
            <use xlink:href="#path-1"></use>
        </mask>
        <rect id="path-3" x="110" y="641" width="175" height="40" rx="4"></rect>
        <mask id="mask-4" maskContentUnits="userSpaceOnUse" maskUnits="objectBoundingBox" x="0" y="0" width="175" height="40" fill="white">
            <use xlink:href="#path-3"></use>
        </mask>
        <rect id="path-5" x="110" y="413" width="225" height="40" rx="4"></rect>
        <mask id="mask-6" maskContentUnits="userSpaceOnUse" maskUnits="objectBoundingBox" x="0" y="0" width="225" height="40" fill="white">
            <use xlink:href="#path-5"></use>
        </mask>
        <rect id="path-7" x="110" y="694" width="225" height="40" rx="4"></rect>
        <mask id="mask-8" maskContentUnits="userSpaceOnUse" maskUnits="objectBoundingBox" x="0" y="0" width="225" height="40" fill="white">
            <use xlink:href="#path-7"></use>
        </mask>
        <rect id="path-9" x="110" y="466" width="73" height="40" rx="4"></rect>
        <mask id="mask-10" maskContentUnits="userSpaceOnUse" maskUnits="objectBoundingBox" x="0" y="0" width="73" height="40" fill="white">
            <use xlink:href="#path-9"></use>
        </mask>
        <rect id="path-11" x="110" y="747" width="73" height="40" rx="4"></rect>
        <mask id="mask-12" maskContentUnits="userSpaceOnUse" maskUnits="objectBoundingBox" x="0" y="0" width="73" height="40" fill="white">
            <use xlink:href="#path-11"></use>
        </mask>
        <rect id="path-13" x="110" y="518" width="73" height="40" rx="4"></rect>
        <mask id="mask-14" maskContentUnits="userSpaceOnUse" maskUnits="objectBoundingBox" x="0" y="0" width="73" height="40" fill="white">
            <use xlink:href="#path-13"></use>
        </mask>
        <rect id="path-15" x="0" y="0" width="280" height="60" rx="5"></rect>
        <filter x="-50%" y="-50%" width="200%" height="200%" filterUnits="objectBoundingBox" id="filter-16">
            <feOffset dx="0" dy="4" in="SourceAlpha" result="shadowOffsetOuter1"></feOffset>
            <feColorMatrix values="0 0 0 0 0.0117647059   0 0 0 0 0.274509804   0 0 0 0 0.596078431  0 0 0 1 0" type="matrix" in="shadowOffsetOuter1"></feColorMatrix>
        </filter>
        <text id="text-17" font-family="Dosis-Bold, Dosis" font-size="20" font-weight="bold" fill="#FFFFFF">
            <tspan x="109.78" y="38">Change</tspan>
        </text>
        <filter x="-50%" y="-50%" width="200%" height="200%" filterUnits="objectBoundingBox" id="filter-18">
            <feOffset dx="0" dy="2" in="SourceAlpha" result="shadowOffsetOuter1"></feOffset>
            <feColorMatrix values="0 0 0 0 0.0117647059   0 0 0 0 0.274509804   0 0 0 0 0.596078431  0 0 0 1 0" type="matrix" in="shadowOffsetOuter1"></feColorMatrix>
        </filter>
        <rect id="path-19" x="123" y="114" width="113.778876" height="38" rx="5"></rect>
        <filter x="-50%" y="-50%" width="200%" height="200%" filterUnits="objectBoundingBox" id="filter-20">
            <feOffset dx="0" dy="4" in="SourceAlpha" result="shadowOffsetOuter1"></feOffset>
            <feColorMatrix values="0 0 0 0 0.819607843   0 0 0 0 0.619607843   0 0 0 0 0.0705882353  0 0 0 1 0" type="matrix" in="shadowOffsetOuter1"></feColorMatrix>
        </filter>
        <text id="text-21" font-family="Dosis-Bold, Dosis" font-size="16" font-weight="bold" fill="#FFFFFF">
            <tspan x="140.04" y="138">START FREE</tspan>
        </text>
        <filter x="-50%" y="-50%" width="200%" height="200%" filterUnits="objectBoundingBox" id="filter-22">
            <feOffset dx="0" dy="2" in="SourceAlpha" result="shadowOffsetOuter1"></feOffset>
            <feColorMatrix values="0 0 0 0 0.819607843   0 0 0 0 0.619607843   0 0 0 0 0.0705882353  0 0 0 1 0" type="matrix" in="shadowOffsetOuter1"></feColorMatrix>
        </filter>
        <rect id="path-23" x="0" y="0" width="107.778876" height="29" rx="5"></rect>
        <mask id="mask-24" maskContentUnits="userSpaceOnUse" maskUnits="objectBoundingBox" x="0" y="0" width="107.778876" height="29" fill="white">
            <use xlink:href="#path-23"></use>
        </mask>
    </defs>
    <g id="_CCP" stroke="none" stroke-width="1" fill="none" fill-rule="evenodd">
        <g id="CCP-Mobile-payment">
            <rect id="Rectangle-Copy-3" fill="#CAD8EB" opacity="0.5" x="0" y="54" width="360" height="96"></rect>
            <text id="Account-&gt;" opacity="0.900000036" font-family="Dosis-Medium, Dosis" font-size="14" font-weight="400" fill="#034698">
                <tspan x="19" y="175" text-decoration="underline">Account</tspan>
                <tspan x="63.506" y="175"> &gt;</tspan>
            </text>
            <text id="Card-Details" font-family="Dosis-SemiBold, Dosis" font-size="20" font-weight="500" fill="#333333">
                <tspan x="134.06" y="336">Card Details</tspan>
            </text>
            <text id="Builling-Address" font-family="Dosis-SemiBold, Dosis" font-size="20" font-weight="500" fill="#333333">
                <tspan x="118.04" y="617">Builling Address</tspan>
            </text>
            <text id="Name" font-family="Dosis-Medium, Dosis" font-size="14" font-weight="400" fill="#666666">
                <tspan x="19" y="386">Name</tspan>
            </text>
            <text id="Country" font-family="Dosis-Medium, Dosis" font-size="14" font-weight="400" fill="#666666">
                <tspan x="19" y="667">Country</tspan>
            </text>
            <text id="Card-Number" font-family="Dosis-Medium, Dosis" font-size="14" font-weight="400" fill="#666666">
                <tspan x="19" y="439">Card Number</tspan>
            </text>
            <text id="Address" font-family="Dosis-Medium, Dosis" font-size="14" font-weight="400" fill="#666666">
                <tspan x="19" y="720">Address</tspan>
            </text>
            <text id="Expiration-Date" font-family="Dosis-Medium, Dosis" font-size="14" font-weight="400" fill="#666666">
                <tspan x="19" y="492">Expiration Date</tspan>
            </text>
            <text id="Zip-Code" font-family="Dosis-Medium, Dosis" font-size="14" font-weight="400" fill="#666666">
                <tspan x="19" y="773">Zip Code</tspan>
            </text>
            <text id="CVV/CSC-Code" font-family="Dosis-Medium, Dosis" font-size="14" font-weight="400" fill="#666666">
                <tspan x="19" y="544">CVV/CSC Code</tspan>
            </text>
            <use id="Rectangle-4-Copy" stroke="#999999" mask="url(#mask-2)" stroke-width="2" fill="#FFFFFF" xlink:href="#path-1"></use>
            <use id="Rectangle-4-Copy-2" stroke="#999999" mask="url(#mask-4)" stroke-width="2" fill="#FFFFFF" xlink:href="#path-3"></use>
            <use id="Rectangle-4-Copy-6" stroke="#999999" mask="url(#mask-6)" stroke-width="2" fill="#FFFFFF" xlink:href="#path-5"></use>
            <use id="Rectangle-4-Copy-9" stroke="#999999" mask="url(#mask-8)" stroke-width="2" fill="#FFFFFF" xlink:href="#path-7"></use>
            <use id="Rectangle-4-Copy-7" stroke="#999999" mask="url(#mask-10)" stroke-width="2" fill="#FFFFFF" xlink:href="#path-9"></use>
            <use id="Rectangle-4-Copy-10" stroke="#999999" mask="url(#mask-12)" stroke-width="2" fill="#FFFFFF" xlink:href="#path-11"></use>
            <use id="Rectangle-4-Copy-8" stroke="#999999" mask="url(#mask-14)" stroke-width="2" fill="#FFFFFF" xlink:href="#path-13"></use>
            <text id="John-Smith" opacity="0.5" font-family="Dosis-Medium, Dosis" font-size="16" font-weight="400" fill="#666666">
                <tspan x="124" y="386">John Smith</tspan>
            </text>
            <text id="JAPAN" opacity="0.5" font-family="Dosis-Medium, Dosis" font-size="16" font-weight="400" fill="#666666">
                <tspan x="124" y="667">JAPAN</tspan>
            </text>
            <polyline id="Path-2" stroke="#999999" points="263 660 266.995228 663.299115 271.129701 660"></polyline>
            <text id="mm/yy" opacity="0.5" font-family="Dosis-Medium, Dosis" font-size="16" font-weight="400" fill="#666666">
                <tspan x="124" y="492">mm/yy</tspan>
            </text>
            <g id="Group-5" transform="translate(0.000000, 192.000000)">
                <path d="M35.0148591,96.6459113 L0.118625897,96.6459113 L0,9.9475983e-14 L360,0 L360,96.6459113 L56.1960905,96.6459113 L45.4114756,88.5326212 L35.0148591,96.6459113 Z" id="Combined-Shape" fill="#E6EEF8"></path>
                <path d="M225,53 C233.836556,53 241,45.836556 241,37 C241,28.163444 233.836556,21 225,21 C216.163444,21 209,28.163444 209,37 C209,45.836556 216.163444,53 225,53 Z M232.664025,32.0429297 C232.832442,33.74582 232.219598,34.9527956 230.825474,35.6638926 C231.920189,35.9258757 232.738874,36.4077303 233.281553,37.1094708 C233.824233,37.8112113 234.034752,38.8123461 233.913116,40.1129052 C233.847621,40.7772195 233.695579,41.3619945 233.456987,41.8672477 C233.218396,42.3725008 232.916652,42.7888606 232.551747,43.1163395 C232.186842,43.4438184 231.733056,43.7174931 231.190377,43.9373718 C230.647698,44.1572505 230.079296,44.3186484 229.485156,44.4215703 C228.891016,44.5244923 228.210338,44.5946653 227.443101,44.6320914 L227.443101,48.2109501 L225.281751,48.2109501 L225.281751,44.6882304 C224.533228,44.6882304 223.962488,44.6835522 223.569513,44.6741956 L223.569513,48.2109501 L221.408163,48.2109501 L221.408163,44.6320914 C221.239745,44.6320914 220.987123,44.6297523 220.650287,44.6250741 C220.313452,44.6203958 220.056151,44.6180567 219.878377,44.6180567 L217.071429,44.6180567 L217.506506,42.0496993 L219.064362,42.0496993 C219.532189,42.0496993 219.803524,41.8111111 219.878377,41.3339275 L219.878377,35.6919621 L220.102932,35.6919621 C220.046793,35.6826055 219.971942,35.6779273 219.878377,35.6779273 L219.878377,31.649957 C219.756742,31.0137123 219.340382,30.6955947 218.629285,30.6955947 L217.071429,30.6955947 L217.071429,28.3938973 L220.046793,28.4079321 C220.645612,28.4079321 221.099397,28.4032539 221.408163,28.3938973 L221.408163,24.8571429 L223.569513,24.8571429 L223.569513,28.3237236 C224.336749,28.3050105 224.90749,28.2956541 225.281751,28.2956541 L225.281751,24.8571429 L227.443101,24.8571429 L227.443101,28.3938973 C228.182268,28.4593931 228.837216,28.5646526 229.407965,28.709679 C229.978714,28.8547053 230.50735,29.0652243 230.993891,29.3412423 C231.480431,29.6172602 231.866382,29.9821598 232.151757,30.435952 C232.437131,30.8897442 232.607885,31.4253981 232.664025,32.0429297 Z M228.650089,33.0113268 C228.650089,32.7025609 228.591612,32.4288862 228.474655,32.1902945 C228.357698,31.9517027 228.215013,31.7552183 228.046595,31.6008354 C227.878177,31.4464525 227.653624,31.3154629 227.372928,31.2078627 C227.092231,31.1002625 226.83493,31.0230722 226.601017,30.9762895 C226.367103,30.9295068 226.079394,30.8920812 225.73788,30.8640115 C225.396367,30.8359419 225.125031,30.8242464 224.923866,30.8289247 C224.7227,30.833603 224.470077,30.8382812 224.16599,30.8429594 C223.861902,30.8476377 223.677113,30.8499768 223.611617,30.8499768 L223.611617,35.158642 C223.6584,35.158642 223.819798,35.1609811 224.095816,35.1656593 C224.371834,35.1703376 224.58937,35.1703376 224.748431,35.1656593 C224.907492,35.1609811 225.141402,35.1516247 225.450168,35.1375899 C225.758934,35.123555 226.016235,35.0978249 226.222079,35.0603988 C226.427923,35.0229726 226.66885,34.9715124 226.944868,34.9060166 C227.220886,34.8405209 227.447779,34.7539742 227.625553,34.646374 C227.803327,34.5387737 227.976421,34.4124624 228.144838,34.267436 C228.313256,34.1224096 228.439567,33.9422989 228.523776,33.7270985 C228.607985,33.5118981 228.650089,33.2733099 228.650089,33.0113268 Z M229.646556,39.691863 C229.646556,39.3550275 229.576383,39.0556227 229.436034,38.7936396 C229.295686,38.5316565 229.122593,38.3164593 228.916749,38.1480416 C228.710905,37.9796239 228.441909,37.8369388 228.109752,37.719982 C227.777594,37.6030253 227.471172,37.5164786 227.190476,37.4603393 C226.90978,37.4042001 226.563593,37.3620963 226.151905,37.3340267 C225.740218,37.305957 225.417422,37.2919224 225.183508,37.2919224 C224.949595,37.2919224 224.647851,37.2966006 224.278268,37.3059572 C223.908684,37.3153137 223.68647,37.3199919 223.611617,37.3199919 L223.611617,42.063734 C223.68647,42.063734 223.859563,42.0660731 224.130903,42.0707514 C224.402242,42.0754297 224.626796,42.0777688 224.80457,42.0777688 C224.982345,42.0777688 225.230289,42.0707515 225.548411,42.0567166 C225.866534,42.0426818 226.140209,42.023969 226.369444,42.0005777 C226.598679,41.9771863 226.865336,41.9374216 227.169424,41.8812824 C227.473512,41.8251432 227.733152,41.7596484 227.948352,41.684796 C228.163552,41.6099437 228.385767,41.5117015 228.615002,41.3900665 C228.844237,41.2684315 229.029026,41.1280855 229.169374,40.9690243 C229.309722,40.8099631 229.424338,40.6228351 229.513226,40.4076347 C229.602113,40.1924343 229.646556,39.9538461 229.646556,39.691863 Z" id="Combined-Shape" fill="#666666" opacity="0.2"></path>
                <text id="BitCoin" opacity="0.400000006" font-family="Dosis-Medium, Dosis" font-size="16" font-weight="400" fill="#666666">
                    <tspan x="203.356" y="75">BitCoin</tspan>
                </text>
                <text id="Others" opacity="0.400000006" font-family="Dosis-Medium, Dosis" font-size="16" font-weight="400" fill="#666666">
                    <tspan x="294.408" y="75">Others</tspan>
                </text>
                <path d="M315.5,42 C317.432997,42 319,40.4329966 319,38.5 C319,36.5670034 317.432997,35 315.5,35 C313.567003,35 312,36.5670034 312,38.5 C312,40.4329966 313.567003,42 315.5,42 Z M329.5,42 C331.432997,42 333,40.4329966 333,38.5 C333,36.5670034 331.432997,35 329.5,35 C327.567003,35 326,36.5670034 326,38.5 C326,40.4329966 327.567003,42 329.5,42 Z M301.5,42 C303.432997,42 305,40.4329966 305,38.5 C305,36.5670034 303.432997,35 301.5,35 C299.567003,35 298,36.5670034 298,38.5 C298,40.4329966 299.567003,42 301.5,42 Z" id="Combined-Shape" fill="#666666" opacity="0.2"></path>
                <text id="" opacity="0.2" font-family="FontAwesome" font-size="32" font-weight="normal" fill="#666666">
                    <tspan x="121.285714" y="48"></tspan>
                </text>
                <text id="Credit-Card" font-family="Dosis-Medium, Dosis" font-size="16" font-weight="400" fill="#034698">
                    <tspan x="10.104" y="75">Credit Card</tspan>
                </text>
                <text id="PayPal" opacity="0.400000006" font-family="Dosis-Medium, Dosis" font-size="16" font-weight="400" fill="#666666">
                    <tspan x="114.024" y="75">PayPal</tspan>
                </text>
                <g id="icon_card" transform="translate(25.000000, 21.000000)">
                    <rect id="Rectangle-10" fill="#74AEE5" x="0" y="0" width="40" height="28" rx="3"></rect>
                    <circle id="Oval-2" fill="#CA5120" cx="29" cy="22" r="3"></circle>
                    <circle id="Oval-2-Copy" fill="#FFC933" cx="33" cy="22" r="3"></circle>
                    <rect id="Rectangle-6" fill="#455361" x="0" y="4" width="40" height="5"></rect>
                    <rect id="Rectangle-6" fill="#F2F2F2" x="0" y="9" width="40" height="6"></rect>
                    <rect id="Rectangle-8" fill="#FFC933" x="2" y="11" width="9" height="2" rx="1"></rect>
                    <rect id="Rectangle-8-Copy-2" fill="#666666" opacity="0.5" x="4" y="19" width="17" height="2" rx="1"></rect>
                    <rect id="Rectangle-8-Copy-3" fill="#666666" opacity="0.5" x="4" y="22" width="17" height="2" rx="1"></rect>
                    <rect id="Rectangle-8-Copy" fill="#FFC933" x="15" y="11" width="9" height="2" rx="1"></rect>
                    <circle id="Oval" fill="#CB5120" cx="28" cy="12" r="1"></circle>
                    <circle id="Oval-Copy" fill="#CB5120" cx="31" cy="12" r="1"></circle>
                    <circle id="Oval-Copy-2" fill="#CB5120" cx="34" cy="12" r="1"></circle>
                    <circle id="Oval-Copy-3" fill="#CB5120" cx="37" cy="12" r="1"></circle>
                </g>
            </g>
            <g id="Group-2" transform="translate(40.000000, 827.000000)">
                <g id="Rectangle-2">
                    <use fill="black" fill-opacity="1" filter="url(#filter-16)" xlink:href="#path-15"></use>
                    <use fill="#5590DB" fill-rule="evenodd" xlink:href="#path-15"></use>
                </g>
                <g id="Change" fill-opacity="1" fill="#FFFFFF">
                    <use filter="url(#filter-18)" xlink:href="#text-17"></use>
                    <use xlink:href="#text-17"></use>
                </g>
            </g>
            <text id="Back-to-Account" font-family="Dosis-Medium, Dosis" font-size="14" font-weight="400" text-decoration="underline" fill="#034698">
                <tspan x="136.299" y="936">Back to Account</tspan>
            </text>
            <text id="Manage-Subscription" font-family="Dosis-Medium, Dosis" font-size="16" font-weight="400" fill="#666666">
                <tspan x="115.212" y="92">Manage Subscription</tspan>
            </text>
            <text id="Update-Payment-Detai" font-family="Dosis-SemiBold, Dosis" font-size="20" font-weight="500" fill="#000000">
                <tspan x="84.31" y="122">Update Payment Details</tspan>
            </text>
            <g id="footer_light_mobile" transform="translate(0.000000, 1027.000000)">
                <rect id="Rectangle-Copy-3" fill="#CAD8EB" fill-rule="evenodd" x="0" y="0" width="360" height="616"></rect>
                <g id="Rectangle-2-Copy-2">
                    <use fill="black" fill-opacity="1" filter="url(#filter-20)" xlink:href="#path-19"></use>
                    <use fill="#FFC933" fill-rule="evenodd" xlink:href="#path-19"></use>
                </g>
                <g id="START-FREE-Copy" fill-opacity="1" fill="#FFFFFF">
                    <use filter="url(#filter-22)" xlink:href="#text-21"></use>
                    <use xlink:href="#text-21"></use>
                </g>
                <text id="Copyright-©-2016-Cyp" font-family="Dosis-Medium, Dosis" font-size="14" font-weight="400" line-spacing="27" fill="#999999">
                    <tspan x="74" y="82">Copyright © 2016 Cypherpunk Partners</tspan>
                </text>
                <text id="Company" font-family="Dosis-Bold, Dosis" font-size="16" font-weight="bold" fill="#102D51">
                    <tspan x="204" y="242">Company</tspan>
                </text>
                <text id="About-Us-Press-Blog" font-family="Dosis-Medium, Dosis" font-size="14" font-weight="400" line-spacing="25" fill="#4E5E72">
                    <tspan x="204" y="269">About Us</tspan>
                    <tspan x="204" y="294">Press</tspan>
                    <tspan x="204" y="319">Blog</tspan>
                    <tspan x="204" y="344">Privacy Policy</tspan>
                    <tspan x="204" y="369">Term of Use</tspan>
                    <tspan x="204" y="394">Bounty Program</tspan>
                </text>
                <g id="Group-4" stroke-width="1" fill-rule="evenodd" transform="translate(126.000000, 542.000000)">
                    <text id="Leave-Feedback" font-family="Dosis-Medium, Dosis" font-size="14" font-weight="400" line-spacing="27" fill="#4E5E72">
                        <tspan x="12" y="14">Leave Feedback </tspan>
                    </text>
                    <use id="Rectangle-2-Copy-3" stroke="#4E5E72" mask="url(#mask-24)" stroke-width="2" xlink:href="#path-23"></use>
                </g>
                <g id="Group-2" stroke-width="1" fill-rule="evenodd" transform="translate(139.000000, 179.000000)">
                    <text id="English" font-family="Dosis-Medium, Dosis" font-size="16" font-weight="400" fill="#4E5E72">
                        <tspan x="21.5" y="16">English</tspan>
                    </text>
                    <text id="" font-family="FontAwesome" font-size="15" font-weight="normal" letter-spacing="-0.312500149" fill="#4E5E72">
                        <tspan x="0.227678646" y="16"></tspan>
                    </text>
                    <polyline id="Path-2" stroke="#4E5E72" points="74.7950827 9.70088527 78.790311 13 82.9247832 9.70088527"></polyline>
                </g>
                <text id="Cypherpunk-Privacy" font-family="Dosis-Bold, Dosis" font-size="16" font-weight="bold" fill="#102D51">
                    <tspan x="25" y="242">Cypherpunk Privacy</tspan>
                </text>
                <text id="Why-Us?-Features-Dow" font-family="Dosis-Medium, Dosis" font-size="14" font-weight="400" line-spacing="25" fill="#4E5E72">
                    <tspan x="25" y="269">Why Us?</tspan>
                    <tspan x="25" y="294">Features</tspan>
                    <tspan x="25" y="319">Download</tspan>
                    <tspan x="25" y="344">Premium</tspan>
                    <tspan x="25" y="369">Help</tspan>
                    <tspan x="25" y="394">My Account</tspan>
                    <tspan x="25" y="419">Pricacy &amp; Speed Check</tspan>
                </text>
                <text id="Stay-In-Touch" font-family="Dosis-Bold, Dosis" font-size="16" font-weight="bold" fill="#102D51">
                    <tspan x="137.3" y="482">Stay In Touch</tspan>
                </text>
                <g id="Group-3" stroke-width="1" fill-rule="evenodd" transform="translate(101.000000, 499.000000)" font-family="FontAwesome" line-spacing="27" font-weight="normal">
                    <text id="" font-size="20" fill="#3B5998">
                        <tspan x="0" y="17"></tspan>
                    </text>
                    <text id="" font-size="22" fill="#4BA4EB">
                        <tspan x="46" y="19"></tspan>
                    </text>
                    <text id="" font-size="20" fill="#FF0002">
                        <tspan x="95" y="17"></tspan>
                    </text>
                    <text id="" font-size="20" fill="#EA7F49">
                        <tspan x="143" y="17"></tspan>
                    </text>
                </g>
                <g id="Group-2" stroke-width="1" fill-rule="evenodd" transform="translate(67.000000, 21.000000)" fill="#034698">
                    <g id="Page-1" transform="translate(38.000000, 0.000000)">
                        <path d="M126.285879,18.2270451 C126.285879,18.5684857 126.148552,18.8672463 125.874543,19.1233267 C125.600534,19.3794072 125.264631,19.5074475 124.867479,19.5074475 L124.555432,19.5074475 C124.176977,19.5074475 123.85139,19.3794072 123.577381,19.1233267 C123.302727,18.8672463 123.165401,18.5684857 123.165401,18.2270451 L123.165401,12.9631687 C123.165401,12.6029747 123.302727,12.2945141 123.577381,12.0384336 C123.85139,11.7823532 124.176977,11.6543129 124.555432,11.6543129 L124.867479,11.6543129 C125.264631,11.6543129 125.600534,11.7823532 125.874543,12.0384336 C126.148552,12.2945141 126.285879,12.6029747 126.285879,12.9631687 L126.285879,18.2270451 L126.285879,18.2270451 Z M127.661726,10.2743237 C126.89579,9.54423567 125.96416,9.17886833 124.867479,9.17886833 L124.385869,9.17886833 C123.325938,9.21702174 122.432346,9.60114245 121.705094,10.3312305 C120.976553,11.0619652 120.612282,11.9297934 120.612282,12.9347153 L120.612282,29.8049865 C120.612282,30.5105012 121.182221,31.0821556 121.884973,31.0821556 C122.58837,31.0821556 123.158309,30.5105012 123.158309,29.8049865 L123.165401,21.755265 C123.543855,21.8884785 123.911994,21.9641387 124.271752,21.982892 C124.574129,22.0022921 124.772705,22.0119921 124.867479,22.0119921 C125.945463,22.0307455 126.871935,21.6653781 127.647542,20.9158901 C128.422504,20.1670487 128.810629,19.2701204 128.810629,18.2270451 L128.810629,12.9631687 L128.810629,12.9347153 C128.810629,11.89164 128.427661,11.0050584 127.661726,10.2743237 L127.661726,10.2743237 Z" id="Fill-1"></path>
                        <path d="M142.636217,15.6990911 C141.954741,15.6990911 141.40221,16.2532854 141.40221,16.9368134 L141.40221,29.8443039 C141.40221,30.5278319 141.954741,31.0820262 142.636217,31.0820262 C143.317693,31.0820262 143.870224,30.5278319 143.870224,29.8443039 L143.870224,16.9368134 C143.870224,16.2532854 143.317693,15.6990911 142.636217,15.6990911" id="Fill-3"></path>
                        <path d="M142.636217,11.2260895 C141.954741,11.2260895 141.40221,11.7802838 141.40221,12.4638117 L141.40221,13.0277061 C141.40221,13.7112341 141.954741,14.2654284 142.636217,14.2654284 C143.317693,14.2654284 143.870224,13.7112341 143.870224,13.0277061 L143.870224,12.4638117 C143.870224,11.7802838 143.317693,11.2260895 142.636217,11.2260895" id="Fill-5"></path>
                        <path d="M153.595994,15.6990911 C152.890663,15.6990911 152.319434,16.2720388 152.319434,16.9794934 L152.319434,18.2553691 C152.319434,18.7494234 152.139556,20.181146 151.780443,22.5524771 C151.383291,25.0563751 151.098966,26.3076774 150.929403,26.3076774 C150.759195,26.3076774 150.475516,25.0563751 150.077719,22.5524771 C149.718606,20.181146 149.539372,18.7494234 149.539372,18.2553691 L149.534859,16.9368134 C149.511649,16.2500521 148.952671,15.6990911 148.262813,15.6990911 C147.57231,15.6990911 147.013332,16.2500521 146.990122,16.9368134 L146.986254,18.2553691 C146.986254,19.7349452 147.411773,22.1159763 148.262813,25.397169 C149.227324,29.1155093 150.115758,30.9740327 150.929403,30.9740327 C151.742404,30.9740327 152.630838,29.1155093 153.595994,25.397169 C154.447033,22.1159763 154.872553,19.7349452 154.872553,18.2553691 L154.872553,16.9794934 C154.872553,16.2720388 154.301325,15.6990911 153.595994,15.6990911" id="Fill-7"></path>
                        <path d="M176.000769,16.8894773 C175.234833,16.1496892 174.303203,15.7797952 173.206522,15.7797952 C172.128539,15.7797952 171.202067,16.1496892 170.42646,16.8894773 C169.650209,17.629912 169.263373,18.5210203 169.263373,19.5647422 L169.263373,27.1902497 C169.263373,28.233325 169.650209,29.1250799 170.42646,29.8642213 C171.202067,30.6040093 172.128539,30.9739034 173.206522,30.9739034 C174.303203,30.9739034 175.234833,30.6040093 176.000769,29.8642213 C176.76606,29.1250799 177.149672,28.233325 177.149672,27.1902497 L177.149672,26.9904293 C177.149672,26.2913814 176.584247,25.7242536 175.887297,25.7242536 C175.190347,25.7242536 174.624922,26.2913814 174.624922,26.9904293 L174.624922,27.1902497 C174.624922,27.5504437 174.48695,27.8589043 174.213586,28.1143381 C173.939577,28.3710652 173.603674,28.4984588 173.206522,28.4984588 C172.828068,28.4984588 172.501836,28.3710652 172.227182,28.1143381 C171.953818,27.8589043 171.816491,27.5504437 171.816491,27.1902497 L171.816491,19.5647422 C171.816491,19.2039016 171.953818,18.9006143 172.227182,18.6542339 C172.501836,18.4078534 172.828068,18.2836932 173.206522,18.2836932 C173.603674,18.2836932 173.939577,18.4078534 174.213586,18.6542339 C174.48695,18.9006143 174.624922,19.2039016 174.624922,19.5647422 L174.627501,19.7917227 C174.636527,20.4830106 175.196794,21.0404383 175.887942,21.0404383 C176.578444,21.0404383 177.138712,20.4830106 177.147738,19.7917227 L177.149672,19.5647422 C177.149672,18.5210203 176.76606,17.629912 176.000769,16.8894773" id="Fill-9"></path>
                        <path d="M163.458123,27.1900557 C163.458123,27.5508964 163.320796,27.8535369 163.046787,28.0999174 C162.772778,28.3469445 162.446547,28.4698114 162.068092,28.4698114 C161.689637,28.4698114 161.363405,28.3469445 161.089396,28.0999174 C160.814743,27.8535369 160.678061,27.5508964 160.678061,27.1900557 L160.678061,25.3974924 C160.678061,25.0372984 160.814743,24.7333645 161.089396,24.4863373 C161.363405,24.2399569 161.689637,24.11709 162.068092,24.11709 C162.446547,24.11709 162.772778,24.2399569 163.046787,24.4863373 C163.320796,24.7333645 163.458123,25.0372984 163.458123,25.3974924 L163.458123,27.1900557 Z M164.862338,16.9041566 C164.096403,16.1740686 163.164772,15.8080546 162.068092,15.8080546 C160.971411,15.8080546 160.039781,16.1740686 159.273846,16.9041566 C158.50791,17.6348913 158.124942,18.521473 158.124942,19.5645482 L158.124942,19.7740686 C158.124942,20.4789366 158.694236,21.050591 159.396988,21.050591 C160.099741,21.050591 160.669034,20.4789366 160.669034,19.7740686 L160.678061,19.5645482 C160.678061,19.2231076 160.814743,18.924347 161.089396,18.6676199 C161.363405,18.4121861 161.689637,18.2841459 162.068092,18.2841459 C162.446547,18.2841459 162.772778,18.4121861 163.046787,18.6676199 C163.320796,18.924347 163.458123,19.2231076 163.458123,19.5645482 L163.458123,21.8686258 C163.004235,21.6985522 162.540677,21.613192 162.068092,21.613192 C160.971411,21.613192 160.039781,21.9824394 159.273846,22.7228741 C158.50791,23.4620154 158.124942,24.3544171 158.124942,25.3974924 L158.124942,27.1900557 C158.124942,28.233131 158.50791,29.1248859 159.273846,29.864674 C160.039781,30.6038153 160.971411,30.974356 162.068092,30.974356 C163.146075,30.974356 164.072548,30.6038153 164.848154,29.864674 C165.623116,29.1248859 166.011241,28.242831 166.011241,27.2185091 L166.011241,19.5645482 C166.011241,18.521473 165.628274,17.6348913 164.862338,16.9041566 L164.862338,16.9041566 Z" id="Fill-11"></path>
                        <path d="M187.003162,15.7627232 C186.308791,15.7627232 185.7453,16.3279109 185.7453,17.0243722 L185.744655,28.3740399 L184.317875,28.3740399 C183.936841,28.3740399 183.60803,28.2459996 183.332087,27.9912125 C183.056144,27.7357787 182.918172,27.4286115 182.918172,27.0690641 L182.917528,17.0243722 C182.917528,16.3279109 182.354681,15.7627232 181.659666,15.7627232 C180.965295,15.7627232 180.401803,16.3279109 180.401803,17.0243722 L180.401803,27.0968708 C180.401803,28.1373594 180.790574,29.0252344 181.56747,29.7630825 C182.344366,30.5002838 183.272772,30.8591845 184.35269,30.8404311 L185.744655,30.8404311 L185.744655,33.8739501 C185.744655,34.2140974 185.606039,34.5122112 185.326872,34.7669984 C185.047705,35.0224322 184.716316,35.1498258 184.332059,35.1498258 C183.947157,35.1498258 183.615122,35.0224322 183.335955,34.7669984 C183.057433,34.5122112 182.918172,34.2140974 182.918172,33.8739501 L182.917528,33.6476163 C182.917528,32.951155 182.354681,32.3859673 181.659666,32.3859673 C180.965295,32.3859673 180.401803,32.951155 180.401803,33.6476163 L180.401803,33.8739501 C180.401803,34.913792 180.784126,35.8029603 181.547483,36.539515 C182.31084,37.277363 183.238602,37.645317 184.332059,37.645317 C185.405529,37.645317 186.329422,37.277363 187.10245,36.539515 C187.874833,35.8029603 188.261024,34.913792 188.261024,33.8739501 L188.261024,17.0243722 C188.261024,16.3279109 187.698178,15.7627232 187.003162,15.7627232" id="Fill-13"></path>
                        <path d="M25.8690215,17.7168888 C25.3287404,17.7168888 24.8535767,17.8953691 24.4564249,18.2490965 C24.0425103,18.6176971 23.8245926,19.0981714 23.8245926,19.6407257 L23.8245926,27.35224 C23.8245926,27.895441 24.043155,28.3765619 24.4564249,28.7445159 C24.8516425,29.0969499 25.327451,29.2754302 25.8690215,29.2754302 C26.4299339,29.2754302 26.9154133,29.0963032 27.3106309,28.7432226 C27.7226113,28.3778552 27.9411738,27.8967343 27.9411738,27.35224 L27.9411738,19.6407257 C27.9411738,19.0975247 27.7226113,18.6164038 27.3093414,18.2490965 C26.9134791,17.8960158 26.4286445,17.7168888 25.8690215,17.7168888 M23.2114573,36.9979378 C22.8736204,36.9979378 22.5983221,36.7224573 22.5983221,36.3829567 L22.5983221,19.6122723 C22.5983221,18.7677241 22.9116593,18.0589761 23.5570309,17.4446416 C24.2127182,16.8186671 24.9728512,16.5153799 25.8832055,16.5153799 C26.8116122,16.5153799 27.5756136,16.8180205 28.2196958,17.4407616 C28.8579754,18.0563894 29.1674443,18.7761308 29.1674443,19.6407257 L29.1674443,27.35224 C29.1674443,28.2155416 28.8566859,28.9352829 28.2158274,29.5515574 C27.5665874,30.1742985 26.7961388,30.4769391 25.8625743,30.4769391 C25.4686461,30.4769391 25.0753627,30.405159 24.6949739,30.2622454 L23.8245926,29.9376181 L23.8245926,36.3829567 C23.8245926,36.7224573 23.5492942,36.9979378 23.2114573,36.9979378" id="Fill-16"></path>
                        <path d="M67.6648603,17.7168888 C67.1239344,17.7168888 66.6487707,17.8960158 66.2522637,18.2490965 C65.8396385,18.6164038 65.6210761,19.0975247 65.6210761,19.6407257 L65.6210761,27.35224 C65.6210761,27.8967343 65.8396385,28.3778552 66.2535531,28.7445159 C66.6468365,29.0963032 67.122645,29.2754302 67.6648603,29.2754302 C68.2251279,29.2754302 68.7106073,29.0969499 69.1064696,28.7438692 C69.5190948,28.3765619 69.7376572,27.895441 69.7376572,27.35224 L69.7376572,19.6407257 C69.7376572,19.0981714 69.5197395,18.6176971 69.1064696,18.2490965 C68.7086731,17.8953691 68.2238385,17.7168888 67.6648603,17.7168888 M65.0072961,36.9979378 C64.6694592,36.9979378 64.3948055,36.7224573 64.3948055,36.3829567 L64.3948055,19.6122723 C64.3948055,18.7683708 64.7081428,18.0589761 65.3528697,17.443995 C66.0085569,16.8186671 66.7693346,16.5153799 67.679689,16.5153799 C68.6080957,16.5153799 69.3720971,16.8180205 70.0161792,17.4407616 C70.6544588,18.0563894 70.9639278,18.7761308 70.9639278,19.6407257 L70.9639278,27.35224 C70.9639278,28.2155416 70.6531694,28.9352829 70.0123109,29.5515574 C69.3630709,30.1742985 68.5926223,30.4769391 67.6590577,30.4769391 C67.2651296,30.4769391 66.8718462,30.405159 66.4914573,30.2622454 L65.6210761,29.9376181 L65.6204313,36.3829567 C65.6204313,36.7224573 65.3451329,36.9979378 65.0072961,36.9979378" id="Fill-18"></path>
                        <path d="M91.6764881,30.4349057 C91.3302698,30.4349057 91.0485242,30.1523118 91.0485242,29.8050512 L91.0504583,19.6685324 C91.0504583,19.1317981 90.8351196,18.6480905 90.4282969,18.2717298 C90.0317899,17.9037758 89.5534025,17.7168888 89.0066741,17.7168888 C88.4406039,17.7168888 87.9519009,17.9037758 87.5541044,18.2723765 C87.1492159,18.6474439 86.9345219,19.1311514 86.9345219,19.6685324 L86.9338772,29.8050512 C86.9338772,30.1445518 86.6585788,30.420679 86.3200972,30.420679 C85.9822603,30.420679 85.7076066,30.1445518 85.7076066,29.8050512 L85.7076066,20.2873936 L85.7346852,19.6407257 C85.7346852,18.7787174 86.0441541,18.0647961 86.6798548,17.4582217 C87.3245817,16.8425939 88.0905172,16.54448 89.0202134,16.54448 C89.9331466,16.54448 90.6952138,16.8438872 91.3496116,17.461455 C91.9401814,18.0175894 92.2522292,18.6642572 92.2986496,19.4331453 L92.2773736,19.6704724 L92.3050969,29.8069912 C92.3050969,30.1523118 92.0227065,30.4349057 91.6764881,30.4349057" id="Fill-20"></path>
                        <path d="M78.02517,30.3919669 C77.097408,30.3919669 76.3327619,30.0893264 75.6873903,29.4672319 C75.0504002,28.8516041 74.7402865,28.1318628 74.7402865,27.2672678 L74.7402865,17.0240489 C74.7402865,16.6851949 75.0155849,16.4097144 75.3534218,16.4097144 C75.6919034,16.4097144 75.9672018,16.6851949 75.9672018,17.0240489 L75.9678465,27.2672678 C75.9678465,27.8052955 76.1825406,28.2877097 76.5887185,28.6640704 C76.9878045,29.0313778 77.475218,29.2182648 78.039354,29.2182648 C78.5854377,29.2182648 79.0631803,29.0313778 79.4616215,28.6640704 C79.8684442,28.2877097 80.0831382,27.8052955 80.0831382,27.2672678 L80.0831382,17.0240489 C80.0831382,16.6851949 80.3584366,16.4097144 80.6969182,16.4097144 C81.0347551,16.4097144 81.3100535,16.6851949 81.3100535,17.0240489 L81.3106982,27.2957212 C81.3106982,28.1570828 80.997361,28.8697108 80.3539235,29.4756386 C79.6995257,30.0919131 78.9374586,30.3919669 78.02517,30.3919669" id="Fill-22"></path>
                        <path d="M47.8344797,17.7459242 C47.2696989,17.7459242 46.7816407,17.9321645 46.3844889,18.2994719 C45.9776663,18.6751859 45.7623275,19.1588935 45.7623275,19.6969211 L45.7623275,22.5273864 L49.8782639,22.5273864 L49.8782639,19.6969211 C49.8782639,19.1595401 49.6635699,18.6758326 49.2567472,18.2994719 C48.858306,17.9321645 48.3805634,17.7459242 47.8344797,17.7459242 M47.848019,30.3921609 C46.920257,30.3921609 46.1556109,30.0895204 45.510884,29.4674259 C44.8738938,28.8517981 44.5644249,28.1320568 44.5644249,27.2674618 L44.5644249,19.6684678 C44.5644249,18.8064595 44.8732491,18.0925382 45.5089498,17.4866104 C46.1536767,16.8709826 46.9189675,16.5728687 47.848019,16.5728687 C48.7609522,16.5728687 49.5223747,16.8722759 50.1780619,17.4898437 C50.8208546,18.0951248 51.1335472,18.8083995 51.1335472,19.6684678 L51.1335472,23.7288953 L45.7623275,23.7288953 L45.7623275,27.2674618 C45.7623275,27.8054895 45.9776663,28.2885504 46.3851336,28.6642644 C46.7816407,29.0315718 47.2696989,29.2178121 47.8344797,29.2178121 C48.3805634,29.2178121 48.858306,29.0315718 49.2561025,28.6642644 C49.6635699,28.2879037 49.8782639,27.8048428 49.8782639,27.2674618 L49.8782639,26.7572409 C49.8782639,26.4093336 50.1593648,26.1273864 50.5062279,26.1273864 C50.8524462,26.1273864 51.1335472,26.4093336 51.1335472,26.7572409 L51.1335472,27.2674618 C51.1335472,28.1301168 50.8202099,28.8492114 50.1748383,29.4648392 C49.5197958,30.0888737 48.759018,30.3921609 47.848019,30.3921609" id="Fill-24"></path>
                        <path d="M39.5234988,30.3919669 C39.1772805,30.3919669 38.8955348,30.1093731 38.8955348,29.7627591 L38.8955348,19.5829136 C38.8955348,19.0468259 38.6879328,18.5695851 38.2952941,18.2022777 C37.9058791,17.8427304 37.4255575,17.6610167 36.8652899,17.6610167 C36.3269429,17.6610167 35.8550029,17.8401437 35.46043,18.1945177 C35.0523179,18.5611784 34.8363344,19.0416526 34.8363344,19.5829136 L34.8356896,29.7627591 C34.8356896,30.1093731 34.5545887,30.3919669 34.2090151,30.3919669 C33.8627968,30.3919669 33.5810511,30.1093731 33.5810511,29.7627591 L33.5810511,10.5664236 C33.5810511,10.2198096 33.8627968,9.93721574 34.2090151,9.93721574 C34.5545887,9.93721574 34.8356896,10.2198096 34.8356896,10.5664236 L34.8363344,17.0007688 L35.7080051,16.6729082 C36.0851703,16.5306413 36.4745854,16.4588611 36.8652899,16.4588611 C37.7936966,16.4588611 38.5589874,16.7615017 39.2037143,17.3842429 C39.8407045,17.9998707 40.1508181,18.7105586 40.1508181,19.5551069 L40.1508181,29.7627591 C40.1508181,30.1093731 39.8690724,30.3919669 39.5234988,30.3919669" id="Fill-26"></path>
                        <path d="M56.1743443,30.3919669 C55.8287707,30.3919669 55.5470251,30.1093731 55.5470251,29.7627591 L55.5470251,19.640467 C55.5470251,18.7784588 55.8597176,18.0651841 56.5025103,17.4611963 C57.1569081,16.8442752 57.9189753,16.5442213 58.8312638,16.5442213 C59.7203422,16.5442213 60.4604886,16.8184085 61.0942552,17.3816562 C61.321199,17.6228633 61.3173307,18.0056907 61.0813606,18.2410778 C60.9665992,18.3561847 60.8131543,18.4189114 60.6500383,18.4189114 C60.4875672,18.4189114 60.3341222,18.3561847 60.2180713,18.2417244 L59.6926189,17.7224502 L59.593331,17.8556637 C59.3573609,17.7638369 59.1026938,17.7166301 58.8312638,17.7166301 C58.2864696,17.7166301 57.8106611,17.9041638 57.4154436,18.2753512 C57.0144234,18.6510652 56.8016636,19.1328328 56.8016636,19.6682738 L56.8023083,29.7627591 C56.8023083,30.1093731 56.5205626,30.3919669 56.1743443,30.3919669" id="Fill-28"></path>
                        <path d="M3.28533479,30.3919669 C2.35692807,30.3919669 1.59228199,30.0893264 0.947555103,29.4672319 C0.309920214,28.8516041 -0.000193418065,28.1318628 -0.000193418065,27.2672678 L-0.000193418065,13.0334615 C-0.000193418065,12.1882666 0.309920214,11.4782253 0.947555103,10.8632441 C1.59228199,10.2398563 2.35692807,9.93721574 3.28533479,9.93721574 C4.19504442,9.93721574 4.95582215,10.2411496 5.61021994,10.8658308 C6.25559155,11.4814586 6.56957354,12.1992599 6.56957354,13.0619149 L6.56957354,15.1318987 C6.56957354,15.4713993 6.29427516,15.7475265 5.95643827,15.7475265 C5.61795666,15.7475265 5.34265828,15.4713993 5.34265828,15.1318987 L5.34265828,13.0619149 C5.34265828,12.5206539 5.12538532,12.039533 4.71276011,11.6715789 C4.31560835,11.3184983 3.83979991,11.140018 3.29887405,11.140018 C2.73796166,11.140018 2.25312705,11.3184983 1.85726474,11.6709323 C1.44463953,12.0388863 1.22672184,12.5193605 1.22672184,13.0619149 L1.22672184,27.2672678 C1.22672184,27.8052955 1.44206062,28.2883564 1.84888329,28.6640704 C2.24603505,29.0313778 2.7340933,29.2182648 3.29887405,29.2182648 C3.844313,29.2182648 4.32205562,29.0313778 4.72049684,28.6640704 C5.1273195,28.2877097 5.34265828,27.8046488 5.34265828,27.2672678 L5.34265828,25.1694773 C5.34265828,24.8299766 5.61795666,24.5551428 5.95643827,24.5551428 C6.29427516,24.5551428 6.56957354,24.8299766 6.56957354,25.1694773 L6.56957354,27.2672678 C6.56957354,28.1299228 6.25559155,28.8490174 5.61021994,29.4646452 C4.95582215,30.0886797 4.19504442,30.3919669 3.28533479,30.3919669" id="Fill-30"></path>
                        <path d="M14.2601982,36.9981965 C13.3311468,36.9981965 12.5658559,36.695556 11.9230632,36.0734615 C11.2847836,35.4578337 10.97467,34.738739 10.97467,33.8741441 L10.97467,33.6478103 C10.97467,33.3089563 11.2493236,33.0328292 11.5871605,33.0328292 C11.9256421,33.0328292 12.2009405,33.3089563 12.2009405,33.6478103 L12.2015852,33.8760841 C12.2015852,34.3953584 12.4188582,34.8687192 12.8295492,35.2450799 C13.2292799,35.6104473 13.7108909,35.7966876 14.2601982,35.7966876 C14.8088608,35.7966876 15.289827,35.6104473 15.6895577,35.2450799 C16.1002487,34.8687192 16.3175217,34.3953584 16.3175217,33.8741441 L16.3175217,30.1939572 L14.2021728,30.1946039 C13.3182522,30.1946039 12.5781057,29.8990767 11.9385367,29.2931489 C11.2905862,28.6775211 10.97467,27.9590731 10.97467,27.0970648 L10.97467,17.0239195 C10.97467,16.6850656 11.2493236,16.4095851 11.5871605,16.4095851 C11.9256421,16.4095851 12.2009405,16.6850656 12.2009405,17.0239195 L12.2015852,27.0692581 C12.2015852,27.6079325 12.416924,28.0909934 12.8237467,28.4667074 C13.2208985,28.8340147 13.6992858,29.0202551 14.2466589,29.0202551 L16.3175217,29.0202551 L16.3175217,17.0239195 C16.3175217,16.6850656 16.5928201,16.4095851 16.9313017,16.4095851 C17.2691386,16.4095851 17.5444369,16.6850656 17.5444369,17.0239195 L17.5444369,33.8741441 C17.5444369,34.736799 17.230455,35.455247 16.5857281,36.0702281 C15.9326197,36.6949093 15.171842,36.9981965 14.2601982,36.9981965" id="Fill-33"></path>
                        <path d="M102.975585,30.397011 C102.810535,30.397011 102.657734,30.3064775 102.577143,30.1609772 L99.431521,24.4179199 L97.8725714,27.4514388 L97.8725714,29.8053099 C97.8725714,30.1286438 97.6101676,30.3918376 97.2871594,30.3918376 C96.9647959,30.3918376 96.7023921,30.1286438 96.7023921,29.8053099 L96.7281812,10.5113275 C96.7281812,10.1944602 96.9847825,9.9370864 97.3000539,9.9370864 C97.6159701,9.9370864 97.8725714,10.1944602 97.8725714,10.5106808 L97.8725714,22.5897898 L97.8725714,25.1014478 L102.482369,16.573192 C102.559091,16.4367451 102.713826,16.3455649 102.880165,16.3455649 C102.952375,16.3455649 103.02265,16.3636716 103.089057,16.397945 C103.198015,16.4542051 103.278606,16.5505586 103.315356,16.6688989 C103.35275,16.7859458 103.34179,16.9113993 103.285054,17.0200395 L100.02338,23.3276379 L103.381118,29.7361164 C103.444946,29.8609233 103.445591,30.0141836 103.379828,30.1448105 L103.369513,30.1635639 C103.326961,30.2418107 103.261199,30.3051841 103.181253,30.3465709 C103.11678,30.3801976 103.047149,30.397011 102.975585,30.397011" id="Fill-35"></path>
                        <path d="M138.569215,16.9185773 C138.569215,16.9185773 138.567926,16.9166373 138.567281,16.9159907 C138.565992,16.915344 138.565992,16.9140507 138.564702,16.913404 L138.564057,16.9140507 C137.811016,16.2363427 136.907754,15.8974888 135.85556,15.8974888 C134.781445,15.8974888 133.858196,16.2615628 133.085168,16.9890641 C132.312141,17.7172121 131.926594,18.6012071 131.926594,19.6404024 L131.926594,29.7626944 C131.926594,30.4675624 132.495888,31.0392168 133.19864,31.0392168 C133.901393,31.0392168 134.470686,30.4675624 134.470686,29.7626944 L134.470042,19.6682091 C134.470042,19.3093084 134.607369,19.0027879 134.880088,18.7473541 C135.153452,18.4912736 135.47775,18.36388 135.85556,18.36388 C136.213383,18.36388 136.524142,18.4776936 136.787835,18.704674 L136.790414,18.702734 C137.281696,19.1877349 138.070841,19.1877349 138.560834,18.698854 C139.051471,18.2086797 139.054695,17.4132782 138.569215,16.9185773" id="Fill-37"></path>
                        <rect id="Rectangle-2" x="111.244042" y="0" width="1.0494721" height="40"></rect>
                    </g>
                    <g id="Page-1" transform="translate(0.000000, 5.000000)">
                        <path d="M11.2121862,9.94475776 C11.3329966,9.94475776 11.4534276,9.95016149 11.5706345,9.96096894 C12.2727379,10.0250683 12.9518931,10.296559 13.6467897,10.7910932 C14.482031,11.3855031 15.2184621,12.1772422 15.9645655,13.2829565 C16.0324621,13.3839503 16.0982724,13.4862484 16.1633241,13.5892919 L16.8075828,13.3082981 C17.7018069,12.9179255 18.5962207,12.5273665 19.4912034,12.1386708 C19.4648414,11.9873665 19.4396172,11.8364348 19.4142034,11.6853168 C19.3453586,11.2733292 19.2740483,10.8473665 19.1807379,10.4391056 C18.7282207,8.4628323 17.985531,6.78786335 16.9098069,5.31804969 C15.8744793,3.9033913 14.6686517,2.88096894 13.2231,2.19245963 C11.9984966,1.60941615 10.6932897,1.31370186 9.34332414,1.31370186 C8.56365172,1.31370186 7.74870345,1.41208696 6.92123793,1.60606211 C5.40437586,1.96140373 3.91615172,2.62252174 2.37937586,3.62481988 L2.4596,3.74631056 C3.98442759,6.05593789 5.50925517,8.36556522 7.03787586,10.6725839 C7.30054828,10.682646 7.55753103,10.6878634 7.80313448,10.6878634 C7.8698931,10.6878634 7.93665172,10.6874907 8.00303103,10.6867453 C8.0713069,10.686 8.15551379,10.6701615 8.2603931,10.6381118 C8.4528931,10.5790435 8.64482414,10.5168075 8.83675517,10.4543851 C9.16618621,10.3474286 9.50699655,10.2367453 9.85141034,10.1433913 C10.3445138,10.0097888 10.7894448,9.94475776 11.2121862,9.94475776 L11.2121862,9.94475776 Z M16.7013759,14.5981118 L18.6385138,13.743205 C18.1865655,13.9403478 16.6981517,14.5910311 16.6981517,14.5910311 L16.7013759,14.5981118 Z M16.5299276,18.1131429 L16.5354276,18.1602857 L16.5724103,18.5543851 C16.6992897,18.4938261 16.8257897,18.4328944 16.9524793,18.3719627 C17.4051862,18.1539503 17.8736345,17.9286708 18.3470138,17.7253789 C18.8167897,17.5239503 19.1367379,17.2056894 19.3303759,16.7404099 C19.3303759,16.7404099 16.5407379,18.0540745 16.5223414,18.062646 C16.5248069,18.0794161 16.5274621,18.096559 16.5299276,18.1131429 L16.5299276,18.1131429 Z M16.5513586,19.8311553 C16.5312552,19.9347578 16.5132379,20.0387329 16.495031,20.1427081 C16.4813759,20.2209689 16.4679103,20.2992298 16.4534966,20.3773043 C16.7476517,20.2349441 17.0382034,20.0946335 17.3300828,19.9567453 C17.7219103,19.7717143 17.991031,19.4916522 18.1696862,19.0662484 C17.6295483,19.3198509 17.0897897,19.5740124 16.5513586,19.8311553 L16.5513586,19.8311553 Z M14.081669,16.4683602 C13.8698241,16.4683602 13.6500138,16.570472 13.4102897,16.7806584 C13.1792897,16.9828323 12.9890655,17.2455652 12.8288069,17.5841366 C12.4011345,18.4880497 12.2712207,19.4666832 12.4430483,20.4924596 C12.5454621,21.1051304 12.7415655,21.5568075 13.0598069,21.9141988 C13.1997724,22.0712795 13.4286862,22.2585466 13.7236,22.2585466 C13.9200828,22.2585466 14.1290828,22.174323 14.328031,22.0150062 C14.5829276,21.8109689 14.7858586,21.5506584 14.9482034,21.2197267 C15.4648241,20.167118 15.5810828,19.0474286 15.2937552,17.8915901 C15.2412207,17.6791677 15.2550655,17.3905342 15.6195828,17.2205963 C16.2511345,16.926 16.8819276,16.6291677 17.5127207,16.3321491 C18.1806862,16.0178012 18.849031,15.7032671 19.5181345,15.3911553 C19.8923241,15.2169317 20.159169,14.9545714 20.3346,14.589354 C20.4002207,14.4522112 20.4535138,14.3100373 20.4941,14.1611553 L19.1223241,14.7663727 C17.7588931,15.3684224 16.3954621,15.9702857 15.0310828,16.5700994 C14.9582552,16.6021491 14.8467379,16.6399752 14.7274448,16.6399752 C14.6430483,16.6399752 14.5652897,16.6213416 14.4960655,16.5846335 C14.3490828,16.5063727 14.213669,16.4683602 14.081669,16.4683602 L14.081669,16.4683602 Z M1.52953103,26.5092298 C1.73606552,26.8953168 1.94184138,27.2819627 2.14477241,27.669913 C2.24054828,27.8525217 2.3881,27.963205 2.63787586,28.0394161 C3.63944483,28.3451925 4.69335862,28.5896646 5.77003103,28.7666832 C5.92061724,28.7914658 6.03327241,28.802646 6.13625517,28.802646 C6.27223793,28.802646 6.38792759,28.7828944 6.50001379,28.7405963 C8.60442759,27.9468075 10.7410828,26.9735776 12.8508069,25.8477391 C13.1669621,25.6791056 13.3922724,25.4616522 13.5398241,25.1828944 C13.6907897,24.8976149 13.833031,24.5964969 13.970531,24.3056273 C14.0414621,24.1550683 14.1125828,24.0046957 14.1854103,23.854882 L14.1939448,23.8373665 C14.2280828,23.7656273 14.2798586,23.6573665 14.3809448,23.5696025 C14.582169,23.3946335 14.7684103,23.2014037 14.9404276,22.988236 C14.916531,23.0050062 14.8924448,23.0215901 14.8679793,23.0378012 C14.5116172,23.2738882 14.1169448,23.3987329 13.7268241,23.3987329 C13.2982034,23.3987329 12.8792552,23.2502236 12.5153069,22.9690435 C12.1062207,22.653205 11.7997379,22.2268696 11.5784103,21.6652547 C11.1569966,20.5958758 11.095169,19.4200994 11.3942552,18.1703478 C11.6064793,17.2841366 11.9694793,16.593764 12.5043069,16.059354 C12.9890655,15.5750683 13.5144103,15.3296646 14.0653586,15.3296646 C14.2821345,15.3296646 14.5049793,15.3678634 14.7289621,15.4435155 C15.0274793,15.2998509 15.3258069,15.1545093 15.6281172,15.007118 C15.175031,14.0862484 14.5785655,13.236559 13.8535138,12.4796646 C13.4438586,12.0522112 12.9828069,11.7007826 12.4832552,11.435441 C12.0428759,11.2015901 11.6188069,11.0879255 11.1860138,11.0879255 C11.0638759,11.0879255 10.9387034,11.0972422 10.8141,11.1156894 C10.4402897,11.1710311 10.0562379,11.256 9.64601379,11.3750683 C9.66497931,11.375441 9.68375517,11.3758137 9.70272069,11.3763727 C10.0048414,11.3827081 10.253669,11.4695404 10.4859966,11.649354 C11.3557552,12.3231429 12.0648759,13.2181118 12.6535655,14.3856894 C12.6812552,14.4408447 12.7064793,14.4967453 12.7328414,14.5552547 L12.9128241,14.9458137 C12.9128241,14.9458137 12.491031,15.182087 12.4572724,15.2001615 C12.326031,15.2698509 12.1957379,15.3406584 12.0652552,15.4116522 C11.7692034,15.5724596 11.4627207,15.7386708 11.1507379,15.8905342 C10.5419448,16.1866211 10.0594621,16.6502236 9.71694483,17.2686708 C8.83353103,18.8644472 8.65013448,20.5658758 9.17225517,22.3256273 C9.4061,23.1134534 9.80456552,23.6927702 10.3909793,24.096559 C10.450531,24.1369938 10.4873241,24.1841366 10.5068586,24.2096646 L10.7545483,24.4940124 L10.4484448,24.7567453 C10.4169621,24.7845093 10.3887034,24.8076149 10.3583586,24.8273665 C10.1798931,24.9440124 10.0012379,25.0621491 9.82277241,25.1806584 C9.41103103,25.4536398 8.98525517,25.7361242 8.55322069,25.9997888 C7.61803103,26.5705342 6.80592759,26.9338882 5.99723793,27.1433292 C5.82218621,27.1886087 5.63366897,27.2303478 5.43946207,27.2305342 C5.36701379,27.2305342 5.29684138,27.2243851 5.23122069,27.2124596 C4.43011724,27.0674907 3.61877241,26.9109689 2.83416897,26.7594783 C2.39928966,26.6756273 1.9646,26.5915901 1.52953103,26.5092298 L1.52953103,26.5092298 Z M6.07025517,29.9191677 C5.86542759,29.9191677 5.65718621,29.8990435 5.4333931,29.8580497 C4.20006552,29.6307205 3.19432414,29.3914658 2.26728966,29.105441 C1.74535862,28.9438882 1.38235862,28.660472 1.15761724,28.2386087 C1.15761724,28.2386087 0.356703448,26.738236 0.172548276,26.3918385 C0.0278413793,26.1196025 0.00925517241,25.8259379 0.116410345,25.5188571 C0.228875862,25.1964969 0.325031034,24.8791677 0.438824138,24.4977391 C0.443565517,24.4822733 0.444134483,24.4623354 0.442427586,24.4545093 C0.131772414,22.9200373 -0.0127448276,21.5202857 0.000910344826,20.1749441 C0.0191172414,18.3605963 0.311565517,16.8205342 0.894565517,15.4671801 C1.49596207,14.0709689 2.40820345,12.9373043 3.60644483,12.098236 C3.62427241,12.0857516 3.63053103,12.0790435 3.63053103,12.0790435 C4.11927241,11.3681739 4.73982414,10.7987329 5.47568621,10.3861863 L0.857582759,3.39134161 L1.05463448,3.17873292 C1.07094483,3.15935404 1.10375517,3.1202236 1.15515172,3.0844472 C2.81691034,1.91500621 4.43884138,1.11804969 6.11178966,0.648857143 C7.20647931,0.341962733 8.28713448,0.186186335 9.3236,0.186186335 C10.3477379,0.186186335 11.3620138,0.338049689 12.3379793,0.637304348 C14.2388931,1.22034783 15.8983759,2.33090683 17.2703414,3.93804969 C18.5340138,5.4181118 19.4494793,7.16798758 20.0685138,9.2875528 C20.3440828,10.2317143 20.5466345,11.2451925 20.6873586,12.3861242 C20.7175138,12.6317143 20.6780655,12.819354 20.488031,12.9453168 L21.8273759,12.3723354 L21.8273759,12.9482981 C21.8273759,13.0112795 21.7867897,13.0720248 21.7873586,13.1310932 C21.7888759,13.2658137 21.7693414,13.3928944 21.7638414,13.5199752 C21.7314103,14.2595404 21.5400483,14.8709068 21.1999966,15.3887329 C21.0723586,15.5830807 20.9033759,15.7740745 20.7084103,15.9568696 C20.676169,15.9866832 20.6714276,15.9935776 20.6682034,16.0334534 C20.6304621,16.5022733 20.5087034,16.9487329 20.3088069,17.3597888 C20.1201,17.7481118 19.8557207,18.0801615 19.5238241,18.3471801 C19.4379103,19.0686708 19.2357379,19.6286087 18.8905655,20.1056273 C18.6324448,20.4628323 18.3014966,20.7412174 17.9075828,20.9329565 L17.6543931,21.0546335 C17.4626517,21.1463106 17.2646517,21.2409689 17.0761345,21.3395404 C16.7671862,22.2740124 16.3632207,23.0407826 15.8414793,23.6830807 C15.7464621,23.8000994 15.6455655,23.9055652 15.5478931,24.007677 C15.4769621,24.0818385 15.4058414,24.1558137 15.3390828,24.2333292 C15.2698586,24.3138261 15.2089793,24.4017764 15.1634621,24.4880497 C15.0714793,24.663205 14.9821517,24.8398509 14.8930138,25.0166832 C14.7450828,25.3099752 14.592031,25.6133292 14.4253241,25.9077391 C14.2210655,26.2684845 13.9130655,26.5569317 13.4836862,26.7896646 C11.5207552,27.8536398 9.44023793,28.8121491 7.12322069,29.7203478 C6.78241034,29.8541366 6.4378069,29.9191677 6.07025517,29.9191677 L6.07025517,29.9191677 Z" id="Fill-1"></path>
                        <path d="M11.9030431,14.6263602 C11.8525948,14.6561739 11.8049914,14.6869193 11.7549224,14.7135652 C11.3668879,14.9200248 10.9773362,15.1238758 10.5900603,15.3318261 C9.89440517,15.7054286 9.40111207,16.2726335 9.01857759,16.940087 C8.47825,17.8829441 8.20742241,18.9031304 8.13573276,19.978472 C8.06631897,21.020646 8.1994569,22.0330062 8.60323276,23.004 C8.81469828,23.5119503 9.10411207,23.9714534 9.50769828,24.3564224 C9.52818103,24.3759876 9.54581897,24.3985342 9.56952586,24.4248075 C9.55700862,24.441764 9.54942241,24.4605839 9.53557759,24.470087 C8.57914655,25.1157391 7.61000862,25.7397764 6.52840517,26.1720745 C6.46107759,26.1990932 6.39393966,26.2266708 6.32585345,26.2516398 C5.61407759,26.5126957 5.57121552,26.510646 4.65764655,26.3319503 C3.67352586,26.1394658 2.68807759,25.9536894 1.70206034,25.7703354 C1.59206034,25.7498385 1.53933621,25.7082857 1.50937069,25.5990932 C1.13138793,24.2293416 0.881422414,22.8385342 0.79437069,21.4210807 C0.69062931,19.7291553 0.792284483,18.0575404 1.33412931,16.4338137 C1.71628448,15.2889689 2.29606034,14.2523851 3.19388793,13.4205839 C3.78637069,12.8716398 4.42418103,12.3681615 5.19456034,12.0640621 C5.26018103,12.0381615 5.33509483,12.0197143 5.40507759,12.0215776 C6.84038793,12.0592174 8.27569828,12.0983478 9.71081897,12.144559 C9.80887069,12.1477267 9.92171552,12.1876025 9.99947414,12.2462981 C10.8204914,12.865118 11.4110776,13.6669193 11.8804741,14.5626335 C11.8890086,14.5788447 11.8929914,14.5974783 11.9030431,14.6263602" id="Fill-4"></path>
                    </g>
                </g>
            </g>
            <g id="header_ccp_mobile">
                <g fill-rule="evenodd">
                    <rect id="Rectangle-7-Copy" fill="#FFFFFF" x="0" y="0" width="360" height="60"></rect>
                    <g id="Group-2" transform="translate(101.000000, 15.000000)" fill="#034698">
                        <g id="Page-1" transform="translate(26.616740, 0.000000)">
                            <path d="M88.4557476,12.7589316 C88.4557476,12.99794 88.3595583,13.2070724 88.1676314,13.3863287 C87.9757044,13.5655851 87.7404245,13.6552132 87.4622433,13.6552132 L87.2436724,13.6552132 C86.9785874,13.6552132 86.750533,13.5655851 86.5586061,13.3863287 C86.3662275,13.2070724 86.2700383,12.99794 86.2700383,12.7589316 L86.2700383,9.07421807 C86.2700383,8.82208227 86.3662275,8.60615987 86.5586061,8.42690354 C86.750533,8.24764721 86.9785874,8.15801904 87.2436724,8.15801904 L87.4622433,8.15801904 C87.7404245,8.15801904 87.9757044,8.24764721 88.1676314,8.42690354 C88.3595583,8.60615987 88.4557476,8.82208227 88.4557476,9.07421807 L88.4557476,12.7589316 L88.4557476,12.7589316 Z M89.4194467,7.19202659 C88.8829544,6.68096497 88.2304028,6.42520783 87.4622433,6.42520783 L87.1249035,6.42520783 C86.3824849,6.45191521 85.7565772,6.72079971 85.2471805,7.23186133 C84.7368806,7.74337561 84.4817306,8.3508554 84.4817306,9.0543007 L84.4817306,20.8634906 C84.4817306,21.3573508 84.8809387,21.7575089 85.3731749,21.7575089 C85.8658627,21.7575089 86.2650707,21.3573508 86.2650707,20.8634906 L86.2700383,15.2286855 C86.5351232,15.321935 86.7929828,15.3748971 87.0449716,15.3880244 C87.2567686,15.4016045 87.3958592,15.4083945 87.4622433,15.4083945 C88.2173066,15.4215218 88.8662455,15.1657647 89.4095117,14.641123 C89.9523263,14.1169341 90.2241852,13.4890842 90.2241852,12.7589316 L90.2241852,9.07421807 L90.2241852,9.0543007 C90.2241852,8.32414802 89.955939,7.70354087 89.4194467,7.19202659 L89.4194467,7.19202659 Z" id="Fill-1"></path>
                            <path d="M99.9081872,10.9893638 C99.4308536,10.9893638 99.0438385,11.3772998 99.0438385,11.8557694 L99.0438385,20.8910128 C99.0438385,21.3694823 99.4308536,21.7574184 99.9081872,21.7574184 C100.385521,21.7574184 100.772536,21.3694823 100.772536,20.8910128 L100.772536,11.8557694 C100.772536,11.3772998 100.385521,10.9893638 99.9081872,10.9893638" id="Fill-3"></path>
                            <path d="M99.9081872,7.85826262 C99.4308536,7.85826262 99.0438385,8.24619867 99.0438385,8.72466822 L99.0438385,9.11939429 C99.0438385,9.59786384 99.4308536,9.98579989 99.9081872,9.98579989 C100.385521,9.98579989 100.772536,9.59786384 100.772536,9.11939429 L100.772536,8.72466822 C100.772536,8.24619867 100.385521,7.85826262 99.9081872,7.85826262" id="Fill-5"></path>
                            <path d="M107.584859,10.9893638 C107.090816,10.9893638 106.690705,11.3904272 106.690705,11.8856454 L106.690705,12.7787584 C106.690705,13.1245964 106.564711,14.1268022 106.313174,15.786734 C106.034992,17.5394625 105.83584,18.4153742 105.717071,18.4153742 C105.597851,18.4153742 105.39915,17.5394625 105.120517,15.786734 C104.86898,14.1268022 104.743437,13.1245964 104.743437,12.7787584 L104.740276,11.8557694 C104.724018,11.3750365 104.332487,10.9893638 103.849283,10.9893638 C103.365627,10.9893638 102.974096,11.3750365 102.957839,11.8557694 L102.955129,12.7787584 C102.955129,13.8144616 103.253181,15.4811834 103.849283,17.7780183 C104.524866,20.3808565 105.147161,21.6818229 105.717071,21.6818229 C106.28653,21.6818229 106.908825,20.3808565 107.584859,17.7780183 C108.180962,15.4811834 108.479013,13.8144616 108.479013,12.7787584 L108.479013,11.8856454 C108.479013,11.3904272 108.078902,10.9893638 107.584859,10.9893638" id="Fill-7"></path>
                            <path d="M123.278072,11.8226341 C122.741579,11.3047825 122.089028,11.0458567 121.320868,11.0458567 C120.565805,11.0458567 119.916866,11.3047825 119.3736,11.8226341 C118.829882,12.3409384 118.558926,12.9647142 118.558926,13.6953196 L118.558926,19.0331748 C118.558926,19.7633275 118.829882,20.387556 119.3736,20.9049549 C119.916866,21.4228065 120.565805,21.6817324 121.320868,21.6817324 C122.089028,21.6817324 122.741579,21.4228065 123.278072,20.9049549 C123.814112,20.387556 124.08281,19.7633275 124.08281,19.0331748 L124.08281,18.8933005 C124.08281,18.4039669 123.686763,18.0069775 123.198591,18.0069775 C122.710419,18.0069775 122.314372,18.4039669 122.314372,18.8933005 L122.314372,19.0331748 C122.314372,19.2853106 122.217732,19.501233 122.026256,19.6800366 C121.834329,19.8597456 121.599049,19.9489211 121.320868,19.9489211 C121.055783,19.9489211 120.827277,19.8597456 120.634899,19.6800366 C120.443423,19.501233 120.347234,19.2853106 120.347234,19.0331748 L120.347234,13.6953196 C120.347234,13.4427311 120.443423,13.23043 120.634899,13.0579637 C120.827277,12.8854974 121.055783,12.7985852 121.320868,12.7985852 C121.599049,12.7985852 121.834329,12.8854974 122.026256,13.0579637 C122.217732,13.23043 122.314372,13.4427311 122.314372,13.6953196 L122.316179,13.8542059 C122.322501,14.3381074 122.714935,14.7283068 123.199043,14.7283068 C123.682699,14.7283068 124.075133,14.3381074 124.081455,13.8542059 L124.08281,13.6953196 C124.08281,12.9647142 123.814112,12.3409384 123.278072,11.8226341" id="Fill-9"></path>
                            <path d="M114.492694,19.033039 C114.492694,19.2856274 114.396505,19.4974758 114.204578,19.6699422 C114.012651,19.8428611 113.784145,19.928868 113.51906,19.928868 C113.253975,19.928868 113.025469,19.8428611 112.833542,19.6699422 C112.641163,19.4974758 112.545426,19.2856274 112.545426,19.033039 L112.545426,17.7782447 C112.545426,17.5261089 112.641163,17.3133551 112.833542,17.1404361 C113.025469,16.9679698 113.253975,16.881963 113.51906,16.881963 C113.784145,16.881963 114.012651,16.9679698 114.204578,17.1404361 C114.396505,17.3133551 114.492694,17.5261089 114.492694,17.7782447 L114.492694,19.033039 Z M115.476263,11.8329096 C114.939771,11.321848 114.287219,11.0656382 113.51906,11.0656382 C112.7509,11.0656382 112.098349,11.321848 111.561857,11.8329096 C111.025364,12.3444239 110.757118,12.9650311 110.757118,13.6951838 L110.757118,13.841848 C110.757118,14.3352556 111.155875,14.7354137 111.648111,14.7354137 C112.140347,14.7354137 112.539103,14.3352556 112.539103,13.841848 L112.545426,13.6951838 C112.545426,13.4561753 112.641163,13.2470429 112.833542,13.0673339 C113.025469,12.8885303 113.253975,12.7989021 113.51906,12.7989021 C113.784145,12.7989021 114.012651,12.8885303 114.204578,13.0673339 C114.396505,13.2470429 114.492694,13.4561753 114.492694,13.6951838 L114.492694,15.3080381 C114.174773,15.1889865 113.850077,15.1292344 113.51906,15.1292344 C112.7509,15.1292344 112.098349,15.3877076 111.561857,15.9060119 C111.025364,16.4234108 110.757118,17.048092 110.757118,17.7782447 L110.757118,19.033039 C110.757118,19.7631917 111.025364,20.3874202 111.561857,20.9052718 C112.098349,21.4226707 112.7509,21.6820492 113.51906,21.6820492 C114.274123,21.6820492 114.923062,21.4226707 115.466328,20.9052718 C116.009143,20.3874202 116.281002,19.7699817 116.281002,19.0529563 L116.281002,13.6951838 C116.281002,12.9650311 116.012756,12.3444239 115.476263,11.8329096 L115.476263,11.8329096 Z" id="Fill-11"></path>
                            <path d="M130.984594,11.0339062 C130.498228,11.0339062 130.103536,11.4295376 130.103536,11.9170605 L130.103084,19.8618279 L129.103709,19.8618279 C128.836818,19.8618279 128.606506,19.7721997 128.413224,19.5938488 C128.219942,19.4150451 128.123301,19.200028 128.123301,18.9483449 L128.12285,11.9170605 C128.12285,11.4295376 127.728609,11.0339062 127.241792,11.0339062 C126.755427,11.0339062 126.360735,11.4295376 126.360735,11.9170605 L126.360735,18.9678096 C126.360735,19.6961516 126.633045,20.3176641 127.177214,20.8341577 C127.721384,21.3501987 128.371677,21.6014291 129.128095,21.5883018 L130.103084,21.5883018 L130.103084,23.711765 C130.103084,23.9498682 130.005992,24.1585479 129.810452,24.3368989 C129.614913,24.5157025 129.382794,24.604878 129.113645,24.604878 C128.844044,24.604878 128.611473,24.5157025 128.415934,24.3368989 C128.220845,24.1585479 128.123301,23.9498682 128.123301,23.711765 L128.12285,23.5533314 C128.12285,23.0658085 127.728609,22.6701771 127.241792,22.6701771 C126.755427,22.6701771 126.360735,23.0658085 126.360735,23.5533314 L126.360735,23.711765 C126.360735,24.4396544 126.628529,25.0620722 127.163215,25.5776605 C127.697901,26.0941541 128.347743,26.3517219 129.113645,26.3517219 C129.865547,26.3517219 130.512679,26.0941541 131.054139,25.5776605 C131.595147,25.0620722 131.865651,24.4396544 131.865651,23.711765 L131.865651,11.9170605 C131.865651,11.4295376 131.471411,11.0339062 130.984594,11.0339062" id="Fill-13"></path>
                            <path d="M18.1197111,12.4018222 C17.7412763,12.4018222 17.4084524,12.5267584 17.1302712,12.7743675 C16.8403486,13.032388 16.6877102,13.36872 16.6877102,13.748508 L16.6877102,19.146568 C16.6877102,19.5268087 16.8408002,19.8635933 17.1302712,20.1211611 C17.4070976,20.3678649 17.7403731,20.4928011 18.1197111,20.4928011 C18.5125969,20.4928011 18.8526463,20.3674123 19.1294727,20.1202558 C19.4180405,19.8644987 19.5711305,19.527714 19.5711305,19.146568 L19.5711305,13.748508 C19.5711305,13.3682673 19.4180405,13.0314827 19.1285695,12.7743675 C18.8512915,12.5272111 18.5116937,12.4018222 18.1197111,12.4018222 M16.2582454,25.8985565 C16.0216108,25.8985565 15.8287806,25.7057201 15.8287806,25.4680697 L15.8287806,13.7285906 C15.8287806,13.1374069 16.0482548,12.6412833 16.5002992,12.2112491 C16.9595691,11.773067 17.4919971,11.5607659 18.1296462,11.5607659 C18.7799399,11.5607659 19.3150774,11.7726143 19.7662186,12.2085331 C20.2132955,12.6394726 20.4300601,13.1432915 20.4300601,13.748508 L20.4300601,19.146568 C20.4300601,19.7508791 20.2123923,20.254698 19.7635091,20.6860902 C19.3087551,21.122009 18.7691016,21.3338574 18.1151952,21.3338574 C17.839272,21.3338574 17.5638003,21.2836113 17.2973606,21.1835718 L16.6877102,20.9563327 L16.6877102,25.4680697 C16.6877102,25.7057201 16.4948801,25.8985565 16.2582454,25.8985565" id="Fill-16"></path>
                            <path d="M47.3952105,12.4018222 C47.0163241,12.4018222 46.6835002,12.5272111 46.4057706,12.7743675 C46.1167512,13.0314827 45.9636612,13.3682673 45.9636612,13.748508 L45.9636612,19.146568 C45.9636612,19.527714 46.1167512,19.8644987 46.4066738,20.1211611 C46.6821454,20.3674123 47.0154209,20.4928011 47.3952105,20.4928011 C47.7876447,20.4928011 48.1276941,20.3678649 48.4049721,20.1207085 C48.6939915,19.8635933 48.8470815,19.5268087 48.8470815,19.146568 L48.8470815,13.748508 C48.8470815,13.36872 48.6944431,13.032388 48.4049721,12.7743675 C48.1263393,12.5267584 47.7867415,12.4018222 47.3952105,12.4018222 M45.5337448,25.8985565 C45.2971102,25.8985565 45.1047316,25.7057201 45.1047316,25.4680697 L45.1047316,13.7285906 C45.1047316,13.1378595 45.3242057,12.6412833 45.7757986,12.2107965 C46.2350685,11.773067 46.767948,11.5607659 47.4055971,11.5607659 C48.0558908,11.5607659 48.5910283,11.7726143 49.0421696,12.2085331 C49.4892465,12.6394726 49.7060111,13.1432915 49.7060111,13.748508 L49.7060111,19.146568 C49.7060111,19.7508791 49.4883433,20.254698 49.03946,20.6860902 C48.584706,21.122009 48.0450526,21.3338574 47.3911462,21.3338574 C47.1152229,21.3338574 46.8397513,21.2836113 46.5733115,21.1835718 L45.9636612,20.9563327 L45.9632096,25.4680697 C45.9632096,25.7057201 45.7703795,25.8985565 45.5337448,25.8985565" id="Fill-18"></path>
                            <path d="M64.2139278,21.304434 C63.9714225,21.304434 63.7740764,21.1066183 63.7740764,20.8635358 L63.7754312,13.7679727 C63.7754312,13.3922587 63.6245992,13.0536634 63.3396441,12.7902109 C63.0619145,12.5326431 62.7268326,12.4018222 62.3438819,12.4018222 C61.9473833,12.4018222 61.605076,12.5326431 61.3264432,12.7906636 C61.0428429,13.0532107 60.8924625,13.391806 60.8924625,13.7679727 L60.8920109,20.8635358 C60.8920109,21.1011863 60.6991807,21.2944753 60.4620945,21.2944753 C60.2254598,21.2944753 60.0330813,21.1011863 60.0330813,20.8635358 L60.0330813,14.2011755 L60.0520482,13.748508 C60.0520482,13.1451022 60.2688128,12.6453573 60.7140833,12.2207552 C61.1656761,11.7898157 61.7021684,11.581136 62.3533653,11.581136 C62.9928208,11.581136 63.5266035,11.790721 63.9849702,12.2230185 C64.3986293,12.6123126 64.6172002,13.0649801 64.6497149,13.6032017 L64.6348123,13.7693307 L64.6542308,20.8648938 C64.6542308,21.1066183 64.4564332,21.304434 64.2139278,21.304434" id="Fill-20"></path>
                            <path d="M54.6519913,21.2743769 C54.0021492,21.2743769 53.4665601,21.0625285 53.0145157,20.6270623 C52.568342,20.1961229 52.3511258,19.6923039 52.3511258,19.0870875 L52.3511258,11.9168342 C52.3511258,11.6796364 52.543956,11.4868001 52.7805906,11.4868001 C53.0176768,11.4868001 53.210507,11.6796364 53.210507,11.9168342 L53.2109586,19.0870875 C53.2109586,19.4637068 53.361339,19.8013968 53.6458425,20.0648493 C53.9253785,20.3219644 54.2667826,20.4527853 54.6619264,20.4527853 C55.0444255,20.4527853 55.3790558,20.3219644 55.6581402,20.0648493 C55.9430953,19.8013968 56.0934757,19.4637068 56.0934757,19.0870875 L56.0934757,11.9168342 C56.0934757,11.6796364 56.2863058,11.4868001 56.5233921,11.4868001 C56.7600267,11.4868001 56.9528569,11.6796364 56.9528569,11.9168342 L56.9533084,19.1070049 C56.9533084,19.709958 56.7338343,20.2087976 56.2831447,20.632947 C55.8247779,21.0643391 55.2909952,21.2743769 54.6519913,21.2743769" id="Fill-22"></path>
                            <path d="M33.5052082,12.4221469 C33.1096129,12.4221469 32.7677571,12.5525152 32.4895759,12.8096303 C32.2046209,13.0726301 32.0537889,13.4112254 32.0537889,13.7878448 L32.0537889,15.7691705 L34.9367575,15.7691705 L34.9367575,13.7878448 C34.9367575,13.4116781 34.7863771,13.0730828 34.501422,12.8096303 C34.2223377,12.5525152 33.8877074,12.4221469 33.5052082,12.4221469 M33.5146917,21.2745127 C32.8648496,21.2745127 32.3292605,21.0626643 31.8776676,20.6271981 C31.4314939,20.1962587 31.2147294,19.6924397 31.2147294,19.0872233 L31.2147294,13.7679274 C31.2147294,13.1645216 31.4310423,12.6647767 31.8763129,12.2406273 C32.3279057,11.8096878 32.8639464,11.6010081 33.5146917,11.6010081 C34.1541472,11.6010081 34.6874783,11.8105931 35.1467482,12.2428906 C35.5969863,12.6665874 35.8160088,13.1658796 35.8160088,13.7679274 L35.8160088,16.6102267 L32.0537889,16.6102267 L32.0537889,19.0872233 C32.0537889,19.4638426 32.2046209,19.8019853 32.4900275,20.0649851 C32.7677571,20.3221002 33.1096129,20.4524685 33.5052082,20.4524685 C33.8877074,20.4524685 34.2223377,20.3221002 34.5009705,20.0649851 C34.7863771,19.8015326 34.9367575,19.46339 34.9367575,19.0872233 L34.9367575,18.7300686 C34.9367575,18.4865335 35.133652,18.2891705 35.376609,18.2891705 C35.6191143,18.2891705 35.8160088,18.4865335 35.8160088,18.7300686 L35.8160088,19.0872233 C35.8160088,19.6910817 35.5965347,20.194448 35.1444902,20.6253875 C34.6856719,21.0622116 34.1527924,21.2745127 33.5146917,21.2745127" id="Fill-24"></path>
                            <path d="M27.6838604,21.2743769 C27.4413551,21.2743769 27.244009,21.0765612 27.244009,20.8339314 L27.244009,13.7080395 C27.244009,13.3327782 27.0985961,12.9987095 26.8235761,12.7415944 C26.550814,12.4899113 26.2143773,12.3627117 25.8219431,12.3627117 C25.4448631,12.3627117 25.1142972,12.4881006 24.8379223,12.7361624 C24.5520641,12.9928249 24.4007805,13.3291568 24.4007805,13.7080395 L24.4003289,20.8339314 C24.4003289,21.0765612 24.2034344,21.2743769 23.9613806,21.2743769 C23.7188753,21.2743769 23.5215292,21.0765612 23.5215292,20.8339314 L23.5215292,7.3964965 C23.5215292,7.15386671 23.7188753,6.95605101 23.9613806,6.95605101 C24.2034344,6.95605101 24.4003289,7.15386671 24.4003289,7.3964965 L24.4007805,11.9005382 L25.011334,11.6710357 C25.2755158,11.5714489 25.5482779,11.5212028 25.8219431,11.5212028 C26.4722368,11.5212028 27.0082775,11.7330512 27.4598704,12.16897 C27.9060441,12.5999095 28.1232602,13.0973911 28.1232602,13.6885748 L28.1232602,20.8339314 C28.1232602,21.0765612 27.9259142,21.2743769 27.6838604,21.2743769" id="Fill-26"></path>
                            <path d="M39.3467874,21.2743769 C39.1047337,21.2743769 38.9073876,21.0765612 38.9073876,20.8339314 L38.9073876,13.7483269 C38.9073876,13.1449211 39.1264101,12.6456289 39.5766482,12.2228374 C40.0350149,11.7909926 40.5687977,11.5809549 41.2078015,11.5809549 C41.830548,11.5809549 42.3489766,11.7728859 42.7928924,12.1671593 C42.9518531,12.3360043 42.9491435,12.6039835 42.7838605,12.7687544 C42.703477,12.8493293 42.5959979,12.893238 42.4817449,12.893238 C42.3679435,12.893238 42.2604644,12.8493293 42.1791777,12.7692071 L41.8111296,12.4057151 L41.7415843,12.4989646 C41.5763013,12.4346858 41.3979221,12.4016411 41.2078015,12.4016411 C40.8262056,12.4016411 40.4929301,12.5329147 40.2161036,12.7927458 C39.9352129,13.0557456 39.7861873,13.3929829 39.7861873,13.7677916 L39.7866389,20.8339314 C39.7866389,21.0765612 39.5892928,21.2743769 39.3467874,21.2743769" id="Fill-28"></path>
                            <path d="M2.30118164,21.2743769 C1.65088795,21.2743769 1.11529884,21.0625285 0.663705997,20.6270623 C0.217080678,20.1961229 -0.000135477852,19.6923039 -0.000135477852,19.0870875 L-0.000135477852,9.12342303 C-0.000135477852,8.5317866 0.217080678,8.03475768 0.663705997,7.60427088 C1.11529884,7.16789941 1.65088795,6.95605101 2.30118164,6.95605101 C2.93837913,6.95605101 3.47125869,7.16880474 3.92962542,7.60608155 C4.38166985,8.03702102 4.60159557,8.53948195 4.60159557,9.1433404 L4.60159557,10.5923291 C4.60159557,10.8299795 4.40876542,11.0232685 4.17213077,11.0232685 C3.93504453,11.0232685 3.74221439,10.8299795 3.74221439,10.5923291 L3.74221439,9.1433404 C3.74221439,8.7644577 3.5900276,8.42767307 3.30100818,8.17010526 C3.022827,7.92294881 2.68955148,7.79801257 2.31066509,7.79801257 C1.91777931,7.79801257 1.5781815,7.92294881 1.3009035,8.1696526 C1.01188408,8.42722041 0.859245697,8.76355236 0.859245697,9.1433404 L0.859245697,19.0870875 C0.859245697,19.4637068 1.01007771,19.8018495 1.29503279,20.0648493 C1.57321398,20.3219644 1.91506976,20.4527853 2.31066509,20.4527853 C2.69271263,20.4527853 3.02734292,20.3219644 3.3064273,20.0648493 C3.59138238,19.8013968 3.74221439,19.4632542 3.74221439,19.0870875 L3.74221439,17.6186341 C3.74221439,17.3809837 3.93504453,17.1886 4.17213077,17.1886 C4.40876542,17.1886 4.60159557,17.3809837 4.60159557,17.6186341 L4.60159557,19.0870875 C4.60159557,19.6909459 4.38166985,20.1943122 3.92962542,20.6252517 C3.47125869,21.0620758 2.93837913,21.2743769 2.30118164,21.2743769" id="Fill-30"></path>
                            <path d="M9.98842076,25.8987376 C9.33767548,25.8987376 8.80163478,25.6868892 8.35139671,25.251423 C7.9043198,24.8204836 7.68710365,24.3171173 7.68710365,23.7119008 L7.68710365,23.5534672 C7.68710365,23.3162694 7.8794822,23.1229804 8.11611684,23.1229804 C8.35320309,23.1229804 8.54603323,23.3162694 8.54603323,23.5534672 L8.54648482,23.7132588 C8.54648482,24.0767509 8.69867161,24.4081035 8.98633625,24.671556 C9.26632381,24.9273131 9.60366366,25.0576813 9.98842076,25.0576813 C10.3727263,25.0576813 10.7096145,24.9273131 10.9896021,24.671556 C11.2772667,24.4081035 11.4294535,24.0767509 11.4294535,23.7119008 L11.4294535,21.1357701 L9.94777741,21.1362227 C9.32864362,21.1362227 8.81021504,20.9293537 8.36223494,20.5052042 C7.90838414,20.0742648 7.68710365,19.5713512 7.68710365,18.9679454 L7.68710365,11.9167437 C7.68710365,11.6795459 7.8794822,11.4867095 8.11611684,11.4867095 C8.35320309,11.4867095 8.54603323,11.6795459 8.54603323,11.9167437 L8.54648482,18.9484807 C8.54648482,19.3255527 8.69731683,19.6636953 8.98227191,19.9266952 C9.2604531,20.1838103 9.59553499,20.3141786 9.97893731,20.3141786 L11.4294535,20.3141786 L11.4294535,11.9167437 C11.4294535,11.6795459 11.6222837,11.4867095 11.8593699,11.4867095 C12.0960045,11.4867095 12.2888347,11.6795459 12.2888347,11.9167437 L12.2888347,23.7119008 C12.2888347,24.3157593 12.068909,24.8186729 11.6173161,25.2491597 C11.1598526,25.6864365 10.626973,25.8987376 9.98842076,25.8987376" id="Fill-33"></path>
                            <path d="M72.128273,21.2779077 C72.0126652,21.2779077 71.9056377,21.2145342 71.8491886,21.112684 L69.6458671,17.0925439 L68.5539156,19.2160072 L68.5539156,20.8637169 C68.5539156,21.0900507 68.3701174,21.2742863 68.1438693,21.2742863 C67.9180729,21.2742863 67.7342746,21.0900507 67.7342746,20.8637169 L67.7523384,7.35792923 C67.7523384,7.13612215 67.9320723,6.95596048 68.1529012,6.95596048 C68.3741817,6.95596048 68.5539156,7.13612215 68.5539156,7.35747656 L68.5539156,15.8128529 L68.5539156,17.5710135 L71.7828045,11.6012344 C71.836544,11.5057216 71.9449263,11.4418955 72.0614372,11.4418955 C72.1120156,11.4418955 72.1612393,11.4545701 72.2077533,11.4785615 C72.2840725,11.5179436 72.3405216,11.5853911 72.3662624,11.6682292 C72.3924548,11.750162 72.3847777,11.8379795 72.3450375,11.9140277 L70.0604294,16.3293465 L72.4123249,20.8152815 C72.4570326,20.9026463 72.4574842,21.0099285 72.4114217,21.1013673 L72.4041962,21.1144947 C72.3743911,21.1692675 72.3283286,21.2136289 72.2723311,21.2425996 C72.2271718,21.2661383 72.1783998,21.2779077 72.128273,21.2779077" id="Fill-35"></path>
                            <path d="M97.0594944,11.8430041 C97.0594944,11.8430041 97.0585912,11.8416461 97.0581396,11.8411935 C97.0572364,11.8407408 97.0572364,11.8398355 97.0563332,11.8393828 L97.0558816,11.8398355 C96.5284212,11.3654399 95.8957396,11.1282421 95.1587401,11.1282421 C94.4063865,11.1282421 93.7597055,11.3830939 93.2182457,11.8923449 C92.6767859,12.4020485 92.4067334,13.020845 92.4067334,13.7482817 L92.4067334,20.8338861 C92.4067334,21.3272937 92.8054898,21.7274518 93.297726,21.7274518 C93.7899622,21.7274518 94.1887187,21.3272937 94.1887187,20.8338861 L94.1882671,13.7677464 C94.1882671,13.5165159 94.2844564,13.3019515 94.4754802,13.1231478 C94.6669555,12.9438915 94.8941067,12.854716 95.1587401,12.854716 C95.4093742,12.854716 95.6270419,12.9343855 95.8117434,13.0932718 L95.8135497,13.0919138 C96.1576635,13.4314144 96.7104131,13.4314144 97.0536237,13.0891978 C97.3972858,12.7460758 97.3995438,12.1892948 97.0594944,11.8430041" id="Fill-37"></path>
                            <rect id="Rectangle-2" x="77.9198357" y="0" width="0.73509279" height="28"></rect>
                        </g>
                        <g id="Page-1" transform="translate(0.000000, 3.500000)">
                            <path d="M7.85346963,6.96133043 C7.9380901,6.96133043 8.02244487,6.96511304 8.10454133,6.97267826 C8.59632304,7.01754783 9.07203085,7.2075913 9.55876456,7.55376522 C10.1438015,7.96985217 10.6596276,8.52406957 11.1822287,9.29806957 C11.2297862,9.36876522 11.2758824,9.44037391 11.3214473,9.51250435 L11.7727122,9.3158087 C12.399063,9.04254783 13.0255467,8.76915652 13.6524288,8.49706957 C13.6339638,8.39115652 13.6162958,8.28550435 13.5984949,8.17972174 C13.5502732,7.89133043 13.5003246,7.59315652 13.4349662,7.30737391 C13.1180048,5.92398261 12.5977949,4.75150435 11.8443141,3.72263478 C11.1191287,2.73237391 10.2745182,2.01667826 9.26199515,1.53472174 C8.40423327,1.1265913 7.49001346,0.919591304 6.5444429,0.919591304 C5.99832874,0.919591304 5.42750594,0.98846087 4.84791556,1.12424348 C3.78544389,1.37298261 2.74303138,1.83576522 1.66661129,2.53737391 L1.72280352,2.62241739 C2.79085456,4.23915652 3.85890561,5.85589565 4.92961349,7.4708087 C5.11359989,7.47785217 5.29360103,7.48150435 5.46563164,7.48150435 C5.51239209,7.48150435 5.55915253,7.48124348 5.60564729,7.48072174 C5.65347047,7.4802 5.71245239,7.46911304 5.78591411,7.44667826 C5.92074891,7.40533043 6.05518519,7.36176522 6.18962146,7.31806957 C6.42036831,7.2432 6.65908569,7.16572174 6.90032707,7.10037391 C7.24571671,7.00685217 7.55736444,6.96133043 7.85346963,6.96133043 L7.85346963,6.96133043 Z M11.6983205,10.2186783 L13.0551705,9.62024348 C12.7386076,9.75824348 11.6960622,10.2137217 11.6960622,10.2137217 L11.6983205,10.2186783 Z M11.5782312,12.6792 L11.5820836,12.7122 L11.6079879,12.9880696 C11.6968593,12.9456783 11.785465,12.9030261 11.8742036,12.8603739 C12.1912978,12.7077652 12.519418,12.5500696 12.850992,12.4077652 C13.1800421,12.2667652 13.4041468,12.0439826 13.5397787,11.718287 C13.5397787,11.718287 11.5858032,12.6378522 11.5729175,12.6438522 C11.5746445,12.6555913 11.5765043,12.6675913 11.5782312,12.6792 L11.5782312,12.6792 Z M11.5932424,13.8818087 C11.5791611,13.9543304 11.5665411,14.027113 11.5537883,14.0998957 C11.5442236,14.1546783 11.5347918,14.2094609 11.5246958,14.264113 C11.730734,14.1644609 11.9342482,14.0662435 12.1386923,13.9697217 C12.4131443,13.8402 12.6016473,13.6441565 12.7267846,13.3463739 C12.3484501,13.5238957 11.9703813,13.7018087 11.5932424,13.8818087 L11.5932424,13.8818087 Z M9.86337165,11.5278522 C9.71498695,11.5278522 9.56102288,11.5993304 9.39311038,11.7464609 C9.23130861,11.8879826 9.09806792,12.0718957 8.98581628,12.3088957 C8.68625719,12.9416348 8.59526031,13.6266783 8.71561531,14.3447217 C8.78735008,14.7735913 8.92470889,15.0897652 9.14761805,15.3399391 C9.24565557,15.4498957 9.40599607,15.5809826 9.61256564,15.5809826 C9.75019013,15.5809826 9.8965822,15.5220261 10.0359336,15.4105043 C10.2144735,15.2676783 10.3566146,15.0854609 10.4703275,14.8538087 C10.8321896,14.1169826 10.9136218,13.3332 10.712366,12.524113 C10.6755687,12.3754174 10.6852662,12.1733739 10.9405888,12.0544174 C11.3829532,11.8482 11.8247863,11.6404174 12.2666193,11.4325043 C12.7344895,11.2124609 13.2026253,10.992287 13.6712924,10.7738087 C13.93339,10.6518522 14.120299,10.4682 14.243178,10.2125478 C14.2891414,10.1165478 14.32647,10.0170261 14.3548982,9.9128087 L13.3940508,10.3364609 C12.4390485,10.7578957 11.4840461,11.1792 10.5283796,11.5990696 C10.4773682,11.6215043 10.399257,11.6479826 10.3156992,11.6479826 C10.2565845,11.6479826 10.2021192,11.6349391 10.1536318,11.6092435 C10.0506791,11.5544609 9.9558298,11.5278522 9.86337165,11.5278522 L9.86337165,11.5278522 Z M1.07134553,18.5564609 C1.21601065,18.8267217 1.3601444,19.0973739 1.50228552,19.3689391 C1.56937082,19.4967652 1.67272203,19.5742435 1.84767516,19.6275913 C2.54921466,19.8416348 3.28741859,20.0127652 4.04156359,20.1366783 C4.14704027,20.1540261 4.22594852,20.1618522 4.29808182,20.1618522 C4.39332965,20.1618522 4.47436338,20.1480261 4.5528731,20.1184174 C6.02688981,19.5627652 7.52348969,18.8815043 9.00122598,18.0934174 C9.22267387,17.9753739 9.38049037,17.8231565 9.48384158,17.6280261 C9.58958394,17.4283304 9.68921557,17.2175478 9.78552614,17.0139391 C9.83520911,16.9085478 9.88502493,16.803287 9.93603632,16.6984174 L9.94201422,16.6861565 C9.96592581,16.6359391 10.0021917,16.5601565 10.0729966,16.4987217 C10.2139421,16.3762435 10.3443931,16.2409826 10.464881,16.0917652 C10.4481429,16.1035043 10.4312719,16.115113 10.4141353,16.1264609 C10.1645249,16.2917217 9.8880803,16.379113 9.61482396,16.379113 C9.31460065,16.379113 9.0211523,16.2751565 8.76622818,16.0783304 C8.47968762,15.8572435 8.26501467,15.5588087 8.10998786,15.1656783 C7.81481256,14.417113 7.77150602,13.5940696 7.98099812,12.7192435 C8.1296485,12.0988957 8.38390842,11.6156348 8.75852333,11.2415478 C9.09806792,10.9025478 9.46604073,10.7307652 9.85194723,10.7307652 C10.0037858,10.7307652 10.1598754,10.7575043 10.316762,10.8104609 C10.5258556,10.7098957 10.7348163,10.6081565 10.9465667,10.5049826 C10.6292068,9.86037391 10.2114181,9.2655913 9.70356252,8.73576522 C9.41662344,8.43654783 9.09368413,8.19054783 8.74377785,8.0048087 C8.43531834,7.84111304 8.13828324,7.76154783 7.83513741,7.76154783 C7.74958706,7.76154783 7.66191123,7.76806957 7.57463392,7.78098261 C7.31280201,7.81972174 7.04379661,7.8792 6.756459,7.96254783 C6.76974322,7.9628087 6.78289459,7.96306957 6.79617881,7.96346087 C7.00779638,7.96789565 7.18208531,8.02867826 7.34481697,8.15454783 C7.95403116,8.6262 8.45072803,9.25267826 8.86307012,10.0699826 C8.88246508,10.1085913 8.90013309,10.1477217 8.91859815,10.1886783 L9.04466537,10.4620696 C9.04466537,10.4620696 8.74922438,10.6274609 8.72557847,10.640113 C8.63365169,10.6888957 8.54238912,10.7384609 8.45099371,10.7881565 C8.24362708,10.9007217 8.02895414,11.0170696 7.81042877,11.1233739 C7.38400541,11.3306348 7.04605493,11.6551565 6.80614197,12.0880696 C6.18736315,13.205113 6.05890477,14.396113 6.42461926,15.6279391 C6.58841366,16.1794174 6.86751505,16.5849391 7.27826304,16.8675913 C7.31997548,16.8958957 7.34574686,16.9288957 7.35942961,16.9467652 L7.53292148,17.1458087 L7.31851422,17.3297217 C7.29646242,17.3491565 7.27666894,17.3653304 7.25541419,17.3791565 C7.13040971,17.4608087 7.00527238,17.5435043 6.8802679,17.6264609 C6.59186755,17.8175478 6.29363688,18.015287 5.99102242,18.1998522 C5.33597768,18.5993739 4.76714752,18.8537217 4.20070851,19.0003304 C4.07809518,19.0320261 3.94605007,19.0612435 3.81001969,19.0613739 C3.75927398,19.0613739 3.71012238,19.0570696 3.66415899,19.0487217 C3.10303366,18.9472435 2.53473486,18.8376783 1.98516681,18.7316348 C1.68055971,18.6729391 1.37608546,18.614113 1.07134553,18.5564609 L1.07134553,18.5564609 Z M4.25185274,20.9434174 C4.1083832,20.9434174 3.9625225,20.9293304 3.80576874,20.9006348 C2.94189611,20.7415043 2.23743409,20.5740261 1.58810156,20.3738087 C1.22251991,20.2607217 0.968260003,20.0623304 0.810842033,19.7670261 C0.810842033,19.7670261 0.249849552,18.7167652 0.120859806,18.474287 C0.0195012304,18.2837217 0.00648269786,18.0781565 0.0815385235,17.8632 C0.16031393,17.6375478 0.22766491,17.4154174 0.307370211,17.1484174 C0.310691265,17.1375913 0.311089792,17.1236348 0.309894212,17.1181565 C0.0922987392,16.0440261 -0.00892699377,15.0642 0.000637642412,14.1224609 C0.0133904907,12.8524174 0.218233116,11.7743739 0.626589944,10.8270261 C1.04783246,9.84967826 1.6868033,9.05611304 2.52610012,8.46876522 C2.53858729,8.46002609 2.54297108,8.45533043 2.54297108,8.45533043 C2.88530535,7.95772174 3.31996492,7.55911304 3.83539254,7.27033043 L0.600685721,2.37393913 L0.738708735,2.22511304 C0.750133161,2.21154783 0.773114856,2.18415652 0.809115084,2.15911304 C1.97307817,1.34050435 3.1091444,0.782634783 4.28094518,0.4542 C5.04771018,0.239373913 5.80464486,0.130330435 6.53062731,0.130330435 C7.24797503,0.130330435 7.95841495,0.236634783 8.64202075,0.446113043 C9.97349781,0.854243478 11.1358668,1.63163478 12.096847,2.75663478 C12.9819744,3.79267826 13.6232036,5.0175913 14.0568004,6.50128696 C14.2498201,7.1622 14.3916955,7.87163478 14.4902644,8.67028696 C14.5113863,8.8422 14.4837551,8.97354783 14.3506473,9.06172174 L15.2887787,8.66063478 L15.2887787,9.0638087 C15.2887787,9.10789565 15.2603505,9.15041739 15.260749,9.19176522 C15.2618117,9.28606957 15.248129,9.37502609 15.2442766,9.46398261 C15.2215605,9.98167826 15.0875228,10.4096348 14.8493368,10.772113 C14.759934,10.9081565 14.6415716,11.0418522 14.5050099,11.1698087 C14.4824267,11.1906783 14.4791057,11.1955043 14.4768473,11.2234174 C14.4504118,11.5515913 14.3651271,11.864113 14.2251114,12.1518522 C14.0929335,12.4236783 13.9077515,12.656113 13.6752777,12.8430261 C13.6151002,13.3480696 13.4734904,13.7400261 13.2317177,14.0739391 C13.0509195,14.3239826 12.8191099,14.5188522 12.5431967,14.6530696 L12.3658524,14.7382435 C12.231549,14.8024174 12.0928618,14.8686783 11.9608167,14.9376783 C11.7444168,15.5918087 11.461463,16.1285478 11.0960141,16.5781565 C11.0294602,16.6600696 10.9587882,16.7338957 10.8903745,16.8053739 C10.8406915,16.857287 10.7908757,16.9090696 10.7441152,16.9633304 C10.6956278,17.0196783 10.6529855,17.0812435 10.6211034,17.1416348 C10.5566749,17.2642435 10.4941063,17.3878957 10.4316705,17.5116783 C10.3280536,17.7169826 10.2208499,17.9293304 10.1040817,18.1354174 C9.96101065,18.3879391 9.74527497,18.5898522 9.44452029,18.7527652 C8.06960384,19.4975478 6.61232525,20.1685043 4.98939247,20.8042435 C4.75067509,20.8978957 4.50930087,20.9434174 4.25185274,20.9434174 L4.25185274,20.9434174 Z" id="Fill-1"></path>
                            <path d="M8.3373738,10.2384522 C8.30203779,10.2593217 8.2686944,10.2808435 8.23362407,10.2994957 C7.96182899,10.4440174 7.68897118,10.586713 7.41770747,10.7322783 C6.93044239,10.9938 6.58491991,11.3908435 6.31697725,11.8580609 C5.93850991,12.5180609 5.74881129,13.2321913 5.69859695,13.9849304 C5.64997672,14.7144522 5.74323192,15.4231043 6.0260529,16.1028 C6.17417192,16.4583652 6.37688907,16.7800174 6.65957721,17.0494957 C6.67392416,17.0631913 6.68627848,17.0789739 6.70288375,17.0973652 C6.69411617,17.1092348 6.68880248,17.1224087 6.67910501,17.1290609 C6.00918195,17.5810174 5.33035846,18.0178435 4.57275957,18.3204522 C4.5256006,18.3393652 4.47857447,18.3586696 4.43088413,18.3761478 C3.93232747,18.558887 3.90230514,18.5574522 3.26240441,18.4323652 C2.5730864,18.2976261 1.88283849,18.1675826 1.19219205,18.0392348 C1.11514359,18.024887 1.07821347,17.9958 1.0572244,17.9193652 C0.792469961,16.9605391 0.617383981,15.9869739 0.556409426,14.9947565 C0.483744759,13.8104087 0.554948162,12.6402783 0.934478239,11.5036696 C1.20215521,10.7022783 1.60825372,9.97666957 2.23712855,9.3944087 C2.65212749,9.01014783 3.0988757,8.65771304 3.63848059,8.44484348 C3.68444398,8.42671304 3.73691664,8.4138 3.7859354,8.41510435 C4.79128494,8.44145217 5.79663448,8.46884348 6.80185117,8.5011913 C6.87053057,8.5034087 6.94957166,8.53132174 7.00403695,8.5724087 C7.5791107,9.00558261 7.99278122,9.56684348 8.32156559,10.1938435 C8.32754348,10.2051913 8.33033317,10.2182348 8.3373738,10.2384522" id="Fill-4"></path>
                        </g>
                    </g>
                    <path d="M315,36 C315,35.4477153 315.447469,35 316.000695,35 L337.999305,35 C338.551974,35 339,35.4438648 339,36 C339,36.5522847 338.552531,37 337.999305,37 L316.000695,37 C315.448026,37 315,36.5561352 315,36 Z M315,30 C315,29.4477153 315.447469,29 316.000695,29 L337.999305,29 C338.551974,29 339,29.4438648 339,30 C339,30.5522847 338.552531,31 337.999305,31 L316.000695,31 C315.448026,31 315,30.5561352 315,30 Z M315,24 C315,23.4477153 315.447469,23 316.000695,23 L337.999305,23 C338.551974,23 339,23.4438648 339,24 C339,24.5522847 338.552531,25 337.999305,25 L316.000695,25 C315.448026,25 315,24.5561352 315,24 Z" id="Combined-Shape" fill="#034698"></path>
                </g>
                <path d="M0.5,59.5 L360.5,59.5" id="Line" stroke="#CAD8EB" stroke-linecap="square"></path>
            </g>
        </g>
    </g>
</svg>