<?xml version="1.0" encoding="UTF-8" standalone="no"?>
<svg width="1200px" height="1769px" viewBox="0 0 1200 1769" version="1.1" xmlns="http://www.w3.org/2000/svg" xmlns:xlink="http://www.w3.org/1999/xlink" style="background: #FFFFFF;">
    <!-- Generator: Sketch 41 (35326) - http://www.bohemiancoding.com/sketch -->
    <title>Desktop-howitworks</title>
    <desc>Created with Sketch.</desc>
    <defs>
        <linearGradient x1="100%" y1="100%" x2="0%" y2="0%" id="linearGradient-1">
            <stop stop-color="#034698" offset="0%"></stop>
            <stop stop-color="#548CD2" offset="100%"></stop>
        </linearGradient>
        <rect id="path-2" x="886" y="1" width="113.778876" height="38" rx="5"></rect>
        <mask id="mask-3" maskContentUnits="userSpaceOnUse" maskUnits="objectBoundingBox" x="0" y="0" width="113.778876" height="38" fill="white">
            <use xlink:href="#path-2"></use>
        </mask>
        <polygon id="path-4" points="8.38209424 22.4836716 8.38209424 0.60107778 0.523002449 0.60107778 0.523002449 22.4836716 8.38209424 22.4836716"></polygon>
        <polygon id="path-6" points="8.73767862e-21 0.595581103 8.73767862e-21 21.0503323 6.56957354 21.0503323 6.56957354 0.595581103 0 0.595581103"></polygon>
        <rect id="path-8" x="748" y="1" width="113.778876" height="35" rx="5"></rect>
        <filter x="-50%" y="-50%" width="200%" height="200%" filterUnits="objectBoundingBox" id="filter-9">
            <feOffset dx="0" dy="4" in="SourceAlpha" result="shadowOffsetOuter1"></feOffset>
            <feColorMatrix values="0 0 0 0 0.819607843   0 0 0 0 0.619607843   0 0 0 0 0.0705882353  0 0 0 1 0" type="matrix" in="shadowOffsetOuter1"></feColorMatrix>
        </filter>
        <text id="text-10" font-family="Dosis-Bold, Dosis" font-size="16" font-weight="bold" fill="#FFFFFF">
            <tspan x="766.288" y="25">DOWNLOAD</tspan>
        </text>
        <filter x="-50%" y="-50%" width="200%" height="200%" filterUnits="objectBoundingBox" id="filter-11">
            <feOffset dx="0" dy="2" in="SourceAlpha" result="shadowOffsetOuter1"></feOffset>
            <feColorMatrix values="0 0 0 0 0.819607843   0 0 0 0 0.619607843   0 0 0 0 0.0705882353  0 0 0 1 0" type="matrix" in="shadowOffsetOuter1"></feColorMatrix>
        </filter>
        <rect id="path-12" x="0" y="0" width="341.221124" height="80" rx="5"></rect>
        <filter x="-50%" y="-50%" width="200%" height="200%" filterUnits="objectBoundingBox" id="filter-13">
            <feOffset dx="0" dy="4" in="SourceAlpha" result="shadowOffsetOuter1"></feOffset>
            <feColorMatrix values="0 0 0 0 0.819607843   0 0 0 0 0.619607843   0 0 0 0 0.0705882353  0 0 0 1 0" type="matrix" in="shadowOffsetOuter1"></feColorMatrix>
        </filter>
        <text id="text-14" font-family="Dosis-Bold, Dosis" font-size="24" font-weight="bold" fill="#034698">
            <tspan x="31.244" y="48">START MY FREE PREVIEW</tspan>
        </text>
        <filter x="-50%" y="-50%" width="200%" height="200%" filterUnits="objectBoundingBox" id="filter-15">
            <feOffset dx="0" dy="2" in="SourceAlpha" result="shadowOffsetOuter1"></feOffset>
            <feColorMatrix values="0 0 0 0 1   0 0 0 0 1   0 0 0 0 1  0 0 0 0.8 0" type="matrix" in="shadowOffsetOuter1"></feColorMatrix>
        </filter>
        <rect id="path-16" x="101" y="154" width="113.778876" height="38" rx="5"></rect>
        <filter x="-50%" y="-50%" width="200%" height="200%" filterUnits="objectBoundingBox" id="filter-17">
            <feOffset dx="0" dy="4" in="SourceAlpha" result="shadowOffsetOuter1"></feOffset>
            <feColorMatrix values="0 0 0 0 0.819607843   0 0 0 0 0.619607843   0 0 0 0 0.0705882353  0 0 0 1 0" type="matrix" in="shadowOffsetOuter1"></feColorMatrix>
        </filter>
        <text id="text-18" font-family="Dosis-Bold, Dosis" font-size="16" font-weight="bold" fill="#FFFFFF">
            <tspan x="118.04" y="178">START FREE</tspan>
        </text>
        <filter x="-50%" y="-50%" width="200%" height="200%" filterUnits="objectBoundingBox" id="filter-19">
            <feOffset dx="0" dy="2" in="SourceAlpha" result="shadowOffsetOuter1"></feOffset>
            <feColorMatrix values="0 0 0 0 0.819607843   0 0 0 0 0.619607843   0 0 0 0 0.0705882353  0 0 0 1 0" type="matrix" in="shadowOffsetOuter1"></feColorMatrix>
        </filter>
        <rect id="path-20" x="926" y="121" width="107.778876" height="29" rx="5"></rect>
        <mask id="mask-21" maskContentUnits="userSpaceOnUse" maskUnits="objectBoundingBox" x="0" y="0" width="107.778876" height="29" fill="white">
            <use xlink:href="#path-20"></use>
        </mask>
    </defs>
    <g id="_website" stroke="none" stroke-width="1" fill="none" fill-rule="evenodd">
        <g id="Desktop-howitworks">
            <rect id="Rectangle-Copy-13" fill="#F2F2F2" opacity="0.300000012" x="0" y="672" width="1200" height="422"></rect>
            <rect id="Rectangle-7" fill="url(#linearGradient-1)" x="0" y="0" width="1200" height="237"></rect>
            <text id="Learn-how-Cypherpunk" font-family="Dosis-Medium, Dosis" font-size="18" font-weight="400" fill="#FFFFFF">
                <tspan x="267.216" y="177">Learn how Cypherpunk Privacy enables unrestricted access to the internet while protecting your </tspan>
                <tspan x="503.718" y="199">online privacy and freedom.</tspan>
            </text>
            <g id="header" transform="translate(100.000000, 8.000000)">
                <text id="PREMIUM-HELP" font-family="Dosis-Bold, Dosis" font-size="16" font-weight="bold" fill="#FFFFFF">
                    <tspan x="565.8" y="25">PREMIUM</tspan>
                    <tspan x="628.184" y="25" font-family="HiraginoSans-W6, Hiragino Sans" font-weight="500">　　　</tspan>
                    <tspan x="676.184" y="25">HELP</tspan>
                    <tspan x="711" y="25" font-family="HiraginoSans-W6, Hiragino Sans" font-weight="500">　　</tspan>
                </text>
                <use id="Rectangle-2-Copy-3" stroke="#FFFFFF" mask="url(#mask-3)" stroke-width="2" xlink:href="#path-2"></use>
                <text id="LOG-IN" font-family="Dosis-Bold, Dosis" font-size="16" font-weight="bold" fill="#FFFFFF">
                    <tspan x="922.1" y="25">LOG IN</tspan>
                </text>
                <g id="Group-2" stroke-width="1" fill-rule="evenodd">
                    <g id="Page-1" transform="translate(38.000000, 0.000000)">
                        <path d="M126.285879,18.2270451 C126.285879,18.5684857 126.148552,18.8672463 125.874543,19.1233267 C125.600534,19.3794072 125.264631,19.5074475 124.867479,19.5074475 L124.555432,19.5074475 C124.176977,19.5074475 123.85139,19.3794072 123.577381,19.1233267 C123.302727,18.8672463 123.165401,18.5684857 123.165401,18.2270451 L123.165401,12.9631687 C123.165401,12.6029747 123.302727,12.2945141 123.577381,12.0384336 C123.85139,11.7823532 124.176977,11.6543129 124.555432,11.6543129 L124.867479,11.6543129 C125.264631,11.6543129 125.600534,11.7823532 125.874543,12.0384336 C126.148552,12.2945141 126.285879,12.6029747 126.285879,12.9631687 L126.285879,18.2270451 L126.285879,18.2270451 Z M127.661726,10.2743237 C126.89579,9.54423567 125.96416,9.17886833 124.867479,9.17886833 L124.385869,9.17886833 C123.325938,9.21702174 122.432346,9.60114245 121.705094,10.3312305 C120.976553,11.0619652 120.612282,11.9297934 120.612282,12.9347153 L120.612282,29.8049865 C120.612282,30.5105012 121.182221,31.0821556 121.884973,31.0821556 C122.58837,31.0821556 123.158309,30.5105012 123.158309,29.8049865 L123.165401,21.755265 C123.543855,21.8884785 123.911994,21.9641387 124.271752,21.982892 C124.574129,22.0022921 124.772705,22.0119921 124.867479,22.0119921 C125.945463,22.0307455 126.871935,21.6653781 127.647542,20.9158901 C128.422504,20.1670487 128.810629,19.2701204 128.810629,18.2270451 L128.810629,12.9631687 L128.810629,12.9347153 C128.810629,11.89164 128.427661,11.0050584 127.661726,10.2743237 L127.661726,10.2743237 Z" id="Fill-1" fill="#FFFFFF"></path>
                        <path d="M142.636217,15.6990911 C141.954741,15.6990911 141.40221,16.2532854 141.40221,16.9368134 L141.40221,29.8443039 C141.40221,30.5278319 141.954741,31.0820262 142.636217,31.0820262 C143.317693,31.0820262 143.870224,30.5278319 143.870224,29.8443039 L143.870224,16.9368134 C143.870224,16.2532854 143.317693,15.6990911 142.636217,15.6990911" id="Fill-3" fill="#FFFFFF"></path>
                        <path d="M142.636217,11.2260895 C141.954741,11.2260895 141.40221,11.7802838 141.40221,12.4638117 L141.40221,13.0277061 C141.40221,13.7112341 141.954741,14.2654284 142.636217,14.2654284 C143.317693,14.2654284 143.870224,13.7112341 143.870224,13.0277061 L143.870224,12.4638117 C143.870224,11.7802838 143.317693,11.2260895 142.636217,11.2260895" id="Fill-5" fill="#FFFFFF"></path>
                        <path d="M153.595994,15.6990911 C152.890663,15.6990911 152.319434,16.2720388 152.319434,16.9794934 L152.319434,18.2553691 C152.319434,18.7494234 152.139556,20.181146 151.780443,22.5524771 C151.383291,25.0563751 151.098966,26.3076774 150.929403,26.3076774 C150.759195,26.3076774 150.475516,25.0563751 150.077719,22.5524771 C149.718606,20.181146 149.539372,18.7494234 149.539372,18.2553691 L149.534859,16.9368134 C149.511649,16.2500521 148.952671,15.6990911 148.262813,15.6990911 C147.57231,15.6990911 147.013332,16.2500521 146.990122,16.9368134 L146.986254,18.2553691 C146.986254,19.7349452 147.411773,22.1159763 148.262813,25.397169 C149.227324,29.1155093 150.115758,30.9740327 150.929403,30.9740327 C151.742404,30.9740327 152.630838,29.1155093 153.595994,25.397169 C154.447033,22.1159763 154.872553,19.7349452 154.872553,18.2553691 L154.872553,16.9794934 C154.872553,16.2720388 154.301325,15.6990911 153.595994,15.6990911" id="Fill-7" fill="#FFFFFF"></path>
                        <path d="M176.000769,16.8894773 C175.234833,16.1496892 174.303203,15.7797952 173.206522,15.7797952 C172.128539,15.7797952 171.202067,16.1496892 170.42646,16.8894773 C169.650209,17.629912 169.263373,18.5210203 169.263373,19.5647422 L169.263373,27.1902497 C169.263373,28.233325 169.650209,29.1250799 170.42646,29.8642213 C171.202067,30.6040093 172.128539,30.9739034 173.206522,30.9739034 C174.303203,30.9739034 175.234833,30.6040093 176.000769,29.8642213 C176.76606,29.1250799 177.149672,28.233325 177.149672,27.1902497 L177.149672,26.9904293 C177.149672,26.2913814 176.584247,25.7242536 175.887297,25.7242536 C175.190347,25.7242536 174.624922,26.2913814 174.624922,26.9904293 L174.624922,27.1902497 C174.624922,27.5504437 174.48695,27.8589043 174.213586,28.1143381 C173.939577,28.3710652 173.603674,28.4984588 173.206522,28.4984588 C172.828068,28.4984588 172.501836,28.3710652 172.227182,28.1143381 C171.953818,27.8589043 171.816491,27.5504437 171.816491,27.1902497 L171.816491,19.5647422 C171.816491,19.2039016 171.953818,18.9006143 172.227182,18.6542339 C172.501836,18.4078534 172.828068,18.2836932 173.206522,18.2836932 C173.603674,18.2836932 173.939577,18.4078534 174.213586,18.6542339 C174.48695,18.9006143 174.624922,19.2039016 174.624922,19.5647422 L174.627501,19.7917227 C174.636527,20.4830106 175.196794,21.0404383 175.887942,21.0404383 C176.578444,21.0404383 177.138712,20.4830106 177.147738,19.7917227 L177.149672,19.5647422 C177.149672,18.5210203 176.76606,17.629912 176.000769,16.8894773" id="Fill-9" fill="#FFFFFF"></path>
                        <path d="M163.458123,27.1900557 C163.458123,27.5508964 163.320796,27.8535369 163.046787,28.0999174 C162.772778,28.3469445 162.446547,28.4698114 162.068092,28.4698114 C161.689637,28.4698114 161.363405,28.3469445 161.089396,28.0999174 C160.814743,27.8535369 160.678061,27.5508964 160.678061,27.1900557 L160.678061,25.3974924 C160.678061,25.0372984 160.814743,24.7333645 161.089396,24.4863373 C161.363405,24.2399569 161.689637,24.11709 162.068092,24.11709 C162.446547,24.11709 162.772778,24.2399569 163.046787,24.4863373 C163.320796,24.7333645 163.458123,25.0372984 163.458123,25.3974924 L163.458123,27.1900557 Z M164.862338,16.9041566 C164.096403,16.1740686 163.164772,15.8080546 162.068092,15.8080546 C160.971411,15.8080546 160.039781,16.1740686 159.273846,16.9041566 C158.50791,17.6348913 158.124942,18.521473 158.124942,19.5645482 L158.124942,19.7740686 C158.124942,20.4789366 158.694236,21.050591 159.396988,21.050591 C160.099741,21.050591 160.669034,20.4789366 160.669034,19.7740686 L160.678061,19.5645482 C160.678061,19.2231076 160.814743,18.924347 161.089396,18.6676199 C161.363405,18.4121861 161.689637,18.2841459 162.068092,18.2841459 C162.446547,18.2841459 162.772778,18.4121861 163.046787,18.6676199 C163.320796,18.924347 163.458123,19.2231076 163.458123,19.5645482 L163.458123,21.8686258 C163.004235,21.6985522 162.540677,21.613192 162.068092,21.613192 C160.971411,21.613192 160.039781,21.9824394 159.273846,22.7228741 C158.50791,23.4620154 158.124942,24.3544171 158.124942,25.3974924 L158.124942,27.1900557 C158.124942,28.233131 158.50791,29.1248859 159.273846,29.864674 C160.039781,30.6038153 160.971411,30.974356 162.068092,30.974356 C163.146075,30.974356 164.072548,30.6038153 164.848154,29.864674 C165.623116,29.1248859 166.011241,28.242831 166.011241,27.2185091 L166.011241,19.5645482 C166.011241,18.521473 165.628274,17.6348913 164.862338,16.9041566 L164.862338,16.9041566 Z" id="Fill-11" fill="#FFFFFF"></path>
                        <g id="Group-15" transform="translate(179.878801, 15.161645)">
                            <mask id="mask-5" fill="white">
                                <use xlink:href="#path-4"></use>
                            </mask>
                            <g id="Clip-14"></g>
                            <path d="M7.12436103,0.60107778 C6.42999017,0.60107778 5.86649887,1.16626549 5.86649887,1.86272678 L5.86585415,13.2123945 L4.43907355,13.2123945 C4.05803996,13.2123945 3.72922925,13.0843542 3.45328614,12.8295671 C3.17734304,12.5741333 3.03937148,12.266966 3.03937148,11.9074187 L3.03872676,1.86272678 C3.03872676,1.16626549 2.47588018,0.60107778 1.7808646,0.60107778 C1.08649375,0.60107778 0.523002449,1.16626549 0.523002449,1.86272678 L0.523002449,11.9352254 C0.523002449,12.975714 0.911772761,13.863589 1.68866866,14.601437 C2.46556455,15.3386384 3.39397127,15.6975391 4.4738888,15.6787857 L5.86585415,15.6787857 L5.86585415,18.7123047 C5.86585415,19.0524519 5.72723787,19.3505658 5.44807113,19.605353 C5.16890438,19.8607868 4.83751477,19.9881803 4.45325754,19.9881803 C4.06835559,19.9881803 3.73632125,19.8607868 3.4571545,19.605353 C3.17863249,19.3505658 3.03937148,19.0524519 3.03937148,18.7123047 L3.03872676,18.4859709 C3.03872676,17.7895096 2.47588018,17.2243219 1.7808646,17.2243219 C1.08649375,17.2243219 0.523002449,17.7895096 0.523002449,18.4859709 L0.523002449,18.7123047 C0.523002449,19.7521466 0.905325492,20.6413149 1.66868212,21.3778696 C2.43203876,22.1157176 3.35980074,22.4836716 4.45325754,22.4836716 C5.52672781,22.4836716 6.45062143,22.1157176 7.22364897,21.3778696 C7.99603178,20.6413149 8.38222318,19.7521466 8.38222318,18.7123047 L8.38222318,1.86272678 C8.38222318,1.16626549 7.81937661,0.60107778 7.12436103,0.60107778" id="Fill-13" fill="#FFFFFF" mask="url(#mask-5)"></path>
                        </g>
                        <path d="M25.8690215,17.7168888 C25.3287404,17.7168888 24.8535767,17.8953691 24.4564249,18.2490965 C24.0425103,18.6176971 23.8245926,19.0981714 23.8245926,19.6407257 L23.8245926,27.35224 C23.8245926,27.895441 24.043155,28.3765619 24.4564249,28.7445159 C24.8516425,29.0969499 25.327451,29.2754302 25.8690215,29.2754302 C26.4299339,29.2754302 26.9154133,29.0963032 27.3106309,28.7432226 C27.7226113,28.3778552 27.9411738,27.8967343 27.9411738,27.35224 L27.9411738,19.6407257 C27.9411738,19.0975247 27.7226113,18.6164038 27.3093414,18.2490965 C26.9134791,17.8960158 26.4286445,17.7168888 25.8690215,17.7168888 M23.2114573,36.9979378 C22.8736204,36.9979378 22.5983221,36.7224573 22.5983221,36.3829567 L22.5983221,19.6122723 C22.5983221,18.7677241 22.9116593,18.0589761 23.5570309,17.4446416 C24.2127182,16.8186671 24.9728512,16.5153799 25.8832055,16.5153799 C26.8116122,16.5153799 27.5756136,16.8180205 28.2196958,17.4407616 C28.8579754,18.0563894 29.1674443,18.7761308 29.1674443,19.6407257 L29.1674443,27.35224 C29.1674443,28.2155416 28.8566859,28.9352829 28.2158274,29.5515574 C27.5665874,30.1742985 26.7961388,30.4769391 25.8625743,30.4769391 C25.4686461,30.4769391 25.0753627,30.405159 24.6949739,30.2622454 L23.8245926,29.9376181 L23.8245926,36.3829567 C23.8245926,36.7224573 23.5492942,36.9979378 23.2114573,36.9979378" id="Fill-16" fill="#FFFFFF"></path>
                        <path d="M67.6648603,17.7168888 C67.1239344,17.7168888 66.6487707,17.8960158 66.2522637,18.2490965 C65.8396385,18.6164038 65.6210761,19.0975247 65.6210761,19.6407257 L65.6210761,27.35224 C65.6210761,27.8967343 65.8396385,28.3778552 66.2535531,28.7445159 C66.6468365,29.0963032 67.122645,29.2754302 67.6648603,29.2754302 C68.2251279,29.2754302 68.7106073,29.0969499 69.1064696,28.7438692 C69.5190948,28.3765619 69.7376572,27.895441 69.7376572,27.35224 L69.7376572,19.6407257 C69.7376572,19.0981714 69.5197395,18.6176971 69.1064696,18.2490965 C68.7086731,17.8953691 68.2238385,17.7168888 67.6648603,17.7168888 M65.0072961,36.9979378 C64.6694592,36.9979378 64.3948055,36.7224573 64.3948055,36.3829567 L64.3948055,19.6122723 C64.3948055,18.7683708 64.7081428,18.0589761 65.3528697,17.443995 C66.0085569,16.8186671 66.7693346,16.5153799 67.679689,16.5153799 C68.6080957,16.5153799 69.3720971,16.8180205 70.0161792,17.4407616 C70.6544588,18.0563894 70.9639278,18.7761308 70.9639278,19.6407257 L70.9639278,27.35224 C70.9639278,28.2155416 70.6531694,28.9352829 70.0123109,29.5515574 C69.3630709,30.1742985 68.5926223,30.4769391 67.6590577,30.4769391 C67.2651296,30.4769391 66.8718462,30.405159 66.4914573,30.2622454 L65.6210761,29.9376181 L65.6204313,36.3829567 C65.6204313,36.7224573 65.3451329,36.9979378 65.0072961,36.9979378" id="Fill-18" fill="#FFFFFF"></path>
                        <path d="M91.6764881,30.4349057 C91.3302698,30.4349057 91.0485242,30.1523118 91.0485242,29.8050512 L91.0504583,19.6685324 C91.0504583,19.1317981 90.8351196,18.6480905 90.4282969,18.2717298 C90.0317899,17.9037758 89.5534025,17.7168888 89.0066741,17.7168888 C88.4406039,17.7168888 87.9519009,17.9037758 87.5541044,18.2723765 C87.1492159,18.6474439 86.9345219,19.1311514 86.9345219,19.6685324 L86.9338772,29.8050512 C86.9338772,30.1445518 86.6585788,30.420679 86.3200972,30.420679 C85.9822603,30.420679 85.7076066,30.1445518 85.7076066,29.8050512 L85.7076066,20.2873936 L85.7346852,19.6407257 C85.7346852,18.7787174 86.0441541,18.0647961 86.6798548,17.4582217 C87.3245817,16.8425939 88.0905172,16.54448 89.0202134,16.54448 C89.9331466,16.54448 90.6952138,16.8438872 91.3496116,17.461455 C91.9401814,18.0175894 92.2522292,18.6642572 92.2986496,19.4331453 L92.2773736,19.6704724 L92.3050969,29.8069912 C92.3050969,30.1523118 92.0227065,30.4349057 91.6764881,30.4349057" id="Fill-20" fill="#FFFFFF"></path>
                        <path d="M78.02517,30.3919669 C77.097408,30.3919669 76.3327619,30.0893264 75.6873903,29.4672319 C75.0504002,28.8516041 74.7402865,28.1318628 74.7402865,27.2672678 L74.7402865,17.0240489 C74.7402865,16.6851949 75.0155849,16.4097144 75.3534218,16.4097144 C75.6919034,16.4097144 75.9672018,16.6851949 75.9672018,17.0240489 L75.9678465,27.2672678 C75.9678465,27.8052955 76.1825406,28.2877097 76.5887185,28.6640704 C76.9878045,29.0313778 77.475218,29.2182648 78.039354,29.2182648 C78.5854377,29.2182648 79.0631803,29.0313778 79.4616215,28.6640704 C79.8684442,28.2877097 80.0831382,27.8052955 80.0831382,27.2672678 L80.0831382,17.0240489 C80.0831382,16.6851949 80.3584366,16.4097144 80.6969182,16.4097144 C81.0347551,16.4097144 81.3100535,16.6851949 81.3100535,17.0240489 L81.3106982,27.2957212 C81.3106982,28.1570828 80.997361,28.8697108 80.3539235,29.4756386 C79.6995257,30.0919131 78.9374586,30.3919669 78.02517,30.3919669" id="Fill-22" fill="#FFFFFF"></path>
                        <path d="M47.8344797,17.7459242 C47.2696989,17.7459242 46.7816407,17.9321645 46.3844889,18.2994719 C45.9776663,18.6751859 45.7623275,19.1588935 45.7623275,19.6969211 L45.7623275,22.5273864 L49.8782639,22.5273864 L49.8782639,19.6969211 C49.8782639,19.1595401 49.6635699,18.6758326 49.2567472,18.2994719 C48.858306,17.9321645 48.3805634,17.7459242 47.8344797,17.7459242 M47.848019,30.3921609 C46.920257,30.3921609 46.1556109,30.0895204 45.510884,29.4674259 C44.8738938,28.8517981 44.5644249,28.1320568 44.5644249,27.2674618 L44.5644249,19.6684678 C44.5644249,18.8064595 44.8732491,18.0925382 45.5089498,17.4866104 C46.1536767,16.8709826 46.9189675,16.5728687 47.848019,16.5728687 C48.7609522,16.5728687 49.5223747,16.8722759 50.1780619,17.4898437 C50.8208546,18.0951248 51.1335472,18.8083995 51.1335472,19.6684678 L51.1335472,23.7288953 L45.7623275,23.7288953 L45.7623275,27.2674618 C45.7623275,27.8054895 45.9776663,28.2885504 46.3851336,28.6642644 C46.7816407,29.0315718 47.2696989,29.2178121 47.8344797,29.2178121 C48.3805634,29.2178121 48.858306,29.0315718 49.2561025,28.6642644 C49.6635699,28.2879037 49.8782639,27.8048428 49.8782639,27.2674618 L49.8782639,26.7572409 C49.8782639,26.4093336 50.1593648,26.1273864 50.5062279,26.1273864 C50.8524462,26.1273864 51.1335472,26.4093336 51.1335472,26.7572409 L51.1335472,27.2674618 C51.1335472,28.1301168 50.8202099,28.8492114 50.1748383,29.4648392 C49.5197958,30.0888737 48.759018,30.3921609 47.848019,30.3921609" id="Fill-24" fill="#FFFFFF"></path>
                        <path d="M39.5234988,30.3919669 C39.1772805,30.3919669 38.8955348,30.1093731 38.8955348,29.7627591 L38.8955348,19.5829136 C38.8955348,19.0468259 38.6879328,18.5695851 38.2952941,18.2022777 C37.9058791,17.8427304 37.4255575,17.6610167 36.8652899,17.6610167 C36.3269429,17.6610167 35.8550029,17.8401437 35.46043,18.1945177 C35.0523179,18.5611784 34.8363344,19.0416526 34.8363344,19.5829136 L34.8356896,29.7627591 C34.8356896,30.1093731 34.5545887,30.3919669 34.2090151,30.3919669 C33.8627968,30.3919669 33.5810511,30.1093731 33.5810511,29.7627591 L33.5810511,10.5664236 C33.5810511,10.2198096 33.8627968,9.93721574 34.2090151,9.93721574 C34.5545887,9.93721574 34.8356896,10.2198096 34.8356896,10.5664236 L34.8363344,17.0007688 L35.7080051,16.6729082 C36.0851703,16.5306413 36.4745854,16.4588611 36.8652899,16.4588611 C37.7936966,16.4588611 38.5589874,16.7615017 39.2037143,17.3842429 C39.8407045,17.9998707 40.1508181,18.7105586 40.1508181,19.5551069 L40.1508181,29.7627591 C40.1508181,30.1093731 39.8690724,30.3919669 39.5234988,30.3919669" id="Fill-26" fill="#FFFFFF"></path>
                        <path d="M56.1743443,30.3919669 C55.8287707,30.3919669 55.5470251,30.1093731 55.5470251,29.7627591 L55.5470251,19.640467 C55.5470251,18.7784588 55.8597176,18.0651841 56.5025103,17.4611963 C57.1569081,16.8442752 57.9189753,16.5442213 58.8312638,16.5442213 C59.7203422,16.5442213 60.4604886,16.8184085 61.0942552,17.3816562 C61.321199,17.6228633 61.3173307,18.0056907 61.0813606,18.2410778 C60.9665992,18.3561847 60.8131543,18.4189114 60.6500383,18.4189114 C60.4875672,18.4189114 60.3341222,18.3561847 60.2180713,18.2417244 L59.6926189,17.7224502 L59.593331,17.8556637 C59.3573609,17.7638369 59.1026938,17.7166301 58.8312638,17.7166301 C58.2864696,17.7166301 57.8106611,17.9041638 57.4154436,18.2753512 C57.0144234,18.6510652 56.8016636,19.1328328 56.8016636,19.6682738 L56.8023083,29.7627591 C56.8023083,30.1093731 56.5205626,30.3919669 56.1743443,30.3919669" id="Fill-28" fill="#FFFFFF"></path>
                        <g id="Group-32" transform="translate(0.000000, 9.341635)">
                            <mask id="mask-7" fill="white">
                                <use xlink:href="#path-6"></use>
                            </mask>
                            <g id="Clip-31"></g>
                            <path d="M3.28533479,21.0503323 C2.35692807,21.0503323 1.59228199,20.7476918 0.947555103,20.1255973 C0.309920214,19.5099695 -0.000193418065,18.7902281 -0.000193418065,17.9256332 L-0.000193418065,3.69182684 C-0.000193418065,2.84663194 0.309920214,2.13659062 0.947555103,1.52160948 C1.59228199,0.898221663 2.35692807,0.595581103 3.28533479,0.595581103 C4.19504442,0.595581103 4.95582215,0.899514999 5.61021994,1.52419616 C6.25559155,2.13982396 6.56957354,2.85762529 6.56957354,3.72028022 L6.56957354,5.79026406 C6.56957354,6.12976468 6.29427516,6.40589186 5.95643827,6.40589186 C5.61795666,6.40589186 5.34265828,6.12976468 5.34265828,5.79026406 L5.34265828,3.72028022 C5.34265828,3.17901922 5.12538532,2.69789833 4.71276011,2.32994431 C4.31560835,1.97686366 3.83979991,1.79838333 3.29887405,1.79838333 C2.73796166,1.79838333 2.25312705,1.97686366 1.85726474,2.32929765 C1.44463953,2.69725166 1.22672184,3.17772588 1.22672184,3.72028022 L1.22672184,17.9256332 C1.22672184,18.4636609 1.44206062,18.9467218 1.84888329,19.3224358 C2.24603505,19.6897431 2.7340933,19.8766301 3.29887405,19.8766301 C3.844313,19.8766301 4.32205562,19.6897431 4.72049684,19.3224358 C5.1273195,18.9460751 5.34265828,18.4630142 5.34265828,17.9256332 L5.34265828,15.8278426 C5.34265828,15.488342 5.61795666,15.2135082 5.95643827,15.2135082 C6.29427516,15.2135082 6.56957354,15.488342 6.56957354,15.8278426 L6.56957354,17.9256332 C6.56957354,18.7882881 6.25559155,19.5073828 5.61021994,20.1230106 C4.95582215,20.7470451 4.19504442,21.0503323 3.28533479,21.0503323" id="Fill-30" fill="#FFFFFF" mask="url(#mask-7)"></path>
                        </g>
                        <path d="M14.2601982,36.9981965 C13.3311468,36.9981965 12.5658559,36.695556 11.9230632,36.0734615 C11.2847836,35.4578337 10.97467,34.738739 10.97467,33.8741441 L10.97467,33.6478103 C10.97467,33.3089563 11.2493236,33.0328292 11.5871605,33.0328292 C11.9256421,33.0328292 12.2009405,33.3089563 12.2009405,33.6478103 L12.2015852,33.8760841 C12.2015852,34.3953584 12.4188582,34.8687192 12.8295492,35.2450799 C13.2292799,35.6104473 13.7108909,35.7966876 14.2601982,35.7966876 C14.8088608,35.7966876 15.289827,35.6104473 15.6895577,35.2450799 C16.1002487,34.8687192 16.3175217,34.3953584 16.3175217,33.8741441 L16.3175217,30.1939572 L14.2021728,30.1946039 C13.3182522,30.1946039 12.5781057,29.8990767 11.9385367,29.2931489 C11.2905862,28.6775211 10.97467,27.9590731 10.97467,27.0970648 L10.97467,17.0239195 C10.97467,16.6850656 11.2493236,16.4095851 11.5871605,16.4095851 C11.9256421,16.4095851 12.2009405,16.6850656 12.2009405,17.0239195 L12.2015852,27.0692581 C12.2015852,27.6079325 12.416924,28.0909934 12.8237467,28.4667074 C13.2208985,28.8340147 13.6992858,29.0202551 14.2466589,29.0202551 L16.3175217,29.0202551 L16.3175217,17.0239195 C16.3175217,16.6850656 16.5928201,16.4095851 16.9313017,16.4095851 C17.2691386,16.4095851 17.5444369,16.6850656 17.5444369,17.0239195 L17.5444369,33.8741441 C17.5444369,34.736799 17.230455,35.455247 16.5857281,36.0702281 C15.9326197,36.6949093 15.171842,36.9981965 14.2601982,36.9981965" id="Fill-33" fill="#FFFFFF"></path>
                        <path d="M102.975585,30.397011 C102.810535,30.397011 102.657734,30.3064775 102.577143,30.1609772 L99.431521,24.4179199 L97.8725714,27.4514388 L97.8725714,29.8053099 C97.8725714,30.1286438 97.6101676,30.3918376 97.2871594,30.3918376 C96.9647959,30.3918376 96.7023921,30.1286438 96.7023921,29.8053099 L96.7281812,10.5113275 C96.7281812,10.1944602 96.9847825,9.9370864 97.3000539,9.9370864 C97.6159701,9.9370864 97.8725714,10.1944602 97.8725714,10.5106808 L97.8725714,22.5897898 L97.8725714,25.1014478 L102.482369,16.573192 C102.559091,16.4367451 102.713826,16.3455649 102.880165,16.3455649 C102.952375,16.3455649 103.02265,16.3636716 103.089057,16.397945 C103.198015,16.4542051 103.278606,16.5505586 103.315356,16.6688989 C103.35275,16.7859458 103.34179,16.9113993 103.285054,17.0200395 L100.02338,23.3276379 L103.381118,29.7361164 C103.444946,29.8609233 103.445591,30.0141836 103.379828,30.1448105 L103.369513,30.1635639 C103.326961,30.2418107 103.261199,30.3051841 103.181253,30.3465709 C103.11678,30.3801976 103.047149,30.397011 102.975585,30.397011" id="Fill-35" fill="#FFFFFF"></path>
                        <path d="M138.569215,16.9185773 C138.569215,16.9185773 138.567926,16.9166373 138.567281,16.9159907 C138.565992,16.915344 138.565992,16.9140507 138.564702,16.913404 L138.564057,16.9140507 C137.811016,16.2363427 136.907754,15.8974888 135.85556,15.8974888 C134.781445,15.8974888 133.858196,16.2615628 133.085168,16.9890641 C132.312141,17.7172121 131.926594,18.6012071 131.926594,19.6404024 L131.926594,29.7626944 C131.926594,30.4675624 132.495888,31.0392168 133.19864,31.0392168 C133.901393,31.0392168 134.470686,30.4675624 134.470686,29.7626944 L134.470042,19.6682091 C134.470042,19.3093084 134.607369,19.0027879 134.880088,18.7473541 C135.153452,18.4912736 135.47775,18.36388 135.85556,18.36388 C136.213383,18.36388 136.524142,18.4776936 136.787835,18.704674 L136.790414,18.702734 C137.281696,19.1877349 138.070841,19.1877349 138.560834,18.698854 C139.051471,18.2086797 139.054695,17.4132782 138.569215,16.9185773" id="Fill-37" fill="#FFFFFF"></path>
                        <rect id="Rectangle-2" fill="#FFFFFF" x="111.244042" y="0" width="1.0494721" height="40"></rect>
                    </g>
                    <g id="Page-1" transform="translate(0.000000, 5.000000)" fill="#FFFFFF">
                        <path d="M11.2121862,9.94475776 C11.3329966,9.94475776 11.4534276,9.95016149 11.5706345,9.96096894 C12.2727379,10.0250683 12.9518931,10.296559 13.6467897,10.7910932 C14.482031,11.3855031 15.2184621,12.1772422 15.9645655,13.2829565 C16.0324621,13.3839503 16.0982724,13.4862484 16.1633241,13.5892919 L16.8075828,13.3082981 C17.7018069,12.9179255 18.5962207,12.5273665 19.4912034,12.1386708 C19.4648414,11.9873665 19.4396172,11.8364348 19.4142034,11.6853168 C19.3453586,11.2733292 19.2740483,10.8473665 19.1807379,10.4391056 C18.7282207,8.4628323 17.985531,6.78786335 16.9098069,5.31804969 C15.8744793,3.9033913 14.6686517,2.88096894 13.2231,2.19245963 C11.9984966,1.60941615 10.6932897,1.31370186 9.34332414,1.31370186 C8.56365172,1.31370186 7.74870345,1.41208696 6.92123793,1.60606211 C5.40437586,1.96140373 3.91615172,2.62252174 2.37937586,3.62481988 L2.4596,3.74631056 C3.98442759,6.05593789 5.50925517,8.36556522 7.03787586,10.6725839 C7.30054828,10.682646 7.55753103,10.6878634 7.80313448,10.6878634 C7.8698931,10.6878634 7.93665172,10.6874907 8.00303103,10.6867453 C8.0713069,10.686 8.15551379,10.6701615 8.2603931,10.6381118 C8.4528931,10.5790435 8.64482414,10.5168075 8.83675517,10.4543851 C9.16618621,10.3474286 9.50699655,10.2367453 9.85141034,10.1433913 C10.3445138,10.0097888 10.7894448,9.94475776 11.2121862,9.94475776 L11.2121862,9.94475776 Z M16.7013759,14.5981118 L18.6385138,13.743205 C18.1865655,13.9403478 16.6981517,14.5910311 16.6981517,14.5910311 L16.7013759,14.5981118 Z M16.5299276,18.1131429 L16.5354276,18.1602857 L16.5724103,18.5543851 C16.6992897,18.4938261 16.8257897,18.4328944 16.9524793,18.3719627 C17.4051862,18.1539503 17.8736345,17.9286708 18.3470138,17.7253789 C18.8167897,17.5239503 19.1367379,17.2056894 19.3303759,16.7404099 C19.3303759,16.7404099 16.5407379,18.0540745 16.5223414,18.062646 C16.5248069,18.0794161 16.5274621,18.096559 16.5299276,18.1131429 L16.5299276,18.1131429 Z M16.5513586,19.8311553 C16.5312552,19.9347578 16.5132379,20.0387329 16.495031,20.1427081 C16.4813759,20.2209689 16.4679103,20.2992298 16.4534966,20.3773043 C16.7476517,20.2349441 17.0382034,20.0946335 17.3300828,19.9567453 C17.7219103,19.7717143 17.991031,19.4916522 18.1696862,19.0662484 C17.6295483,19.3198509 17.0897897,19.5740124 16.5513586,19.8311553 L16.5513586,19.8311553 Z M14.081669,16.4683602 C13.8698241,16.4683602 13.6500138,16.570472 13.4102897,16.7806584 C13.1792897,16.9828323 12.9890655,17.2455652 12.8288069,17.5841366 C12.4011345,18.4880497 12.2712207,19.4666832 12.4430483,20.4924596 C12.5454621,21.1051304 12.7415655,21.5568075 13.0598069,21.9141988 C13.1997724,22.0712795 13.4286862,22.2585466 13.7236,22.2585466 C13.9200828,22.2585466 14.1290828,22.174323 14.328031,22.0150062 C14.5829276,21.8109689 14.7858586,21.5506584 14.9482034,21.2197267 C15.4648241,20.167118 15.5810828,19.0474286 15.2937552,17.8915901 C15.2412207,17.6791677 15.2550655,17.3905342 15.6195828,17.2205963 C16.2511345,16.926 16.8819276,16.6291677 17.5127207,16.3321491 C18.1806862,16.0178012 18.849031,15.7032671 19.5181345,15.3911553 C19.8923241,15.2169317 20.159169,14.9545714 20.3346,14.589354 C20.4002207,14.4522112 20.4535138,14.3100373 20.4941,14.1611553 L19.1223241,14.7663727 C17.7588931,15.3684224 16.3954621,15.9702857 15.0310828,16.5700994 C14.9582552,16.6021491 14.8467379,16.6399752 14.7274448,16.6399752 C14.6430483,16.6399752 14.5652897,16.6213416 14.4960655,16.5846335 C14.3490828,16.5063727 14.213669,16.4683602 14.081669,16.4683602 L14.081669,16.4683602 Z M1.52953103,26.5092298 C1.73606552,26.8953168 1.94184138,27.2819627 2.14477241,27.669913 C2.24054828,27.8525217 2.3881,27.963205 2.63787586,28.0394161 C3.63944483,28.3451925 4.69335862,28.5896646 5.77003103,28.7666832 C5.92061724,28.7914658 6.03327241,28.802646 6.13625517,28.802646 C6.27223793,28.802646 6.38792759,28.7828944 6.50001379,28.7405963 C8.60442759,27.9468075 10.7410828,26.9735776 12.8508069,25.8477391 C13.1669621,25.6791056 13.3922724,25.4616522 13.5398241,25.1828944 C13.6907897,24.8976149 13.833031,24.5964969 13.970531,24.3056273 C14.0414621,24.1550683 14.1125828,24.0046957 14.1854103,23.854882 L14.1939448,23.8373665 C14.2280828,23.7656273 14.2798586,23.6573665 14.3809448,23.5696025 C14.582169,23.3946335 14.7684103,23.2014037 14.9404276,22.988236 C14.916531,23.0050062 14.8924448,23.0215901 14.8679793,23.0378012 C14.5116172,23.2738882 14.1169448,23.3987329 13.7268241,23.3987329 C13.2982034,23.3987329 12.8792552,23.2502236 12.5153069,22.9690435 C12.1062207,22.653205 11.7997379,22.2268696 11.5784103,21.6652547 C11.1569966,20.5958758 11.095169,19.4200994 11.3942552,18.1703478 C11.6064793,17.2841366 11.9694793,16.593764 12.5043069,16.059354 C12.9890655,15.5750683 13.5144103,15.3296646 14.0653586,15.3296646 C14.2821345,15.3296646 14.5049793,15.3678634 14.7289621,15.4435155 C15.0274793,15.2998509 15.3258069,15.1545093 15.6281172,15.007118 C15.175031,14.0862484 14.5785655,13.236559 13.8535138,12.4796646 C13.4438586,12.0522112 12.9828069,11.7007826 12.4832552,11.435441 C12.0428759,11.2015901 11.6188069,11.0879255 11.1860138,11.0879255 C11.0638759,11.0879255 10.9387034,11.0972422 10.8141,11.1156894 C10.4402897,11.1710311 10.0562379,11.256 9.64601379,11.3750683 C9.66497931,11.375441 9.68375517,11.3758137 9.70272069,11.3763727 C10.0048414,11.3827081 10.253669,11.4695404 10.4859966,11.649354 C11.3557552,12.3231429 12.0648759,13.2181118 12.6535655,14.3856894 C12.6812552,14.4408447 12.7064793,14.4967453 12.7328414,14.5552547 L12.9128241,14.9458137 C12.9128241,14.9458137 12.491031,15.182087 12.4572724,15.2001615 C12.326031,15.2698509 12.1957379,15.3406584 12.0652552,15.4116522 C11.7692034,15.5724596 11.4627207,15.7386708 11.1507379,15.8905342 C10.5419448,16.1866211 10.0594621,16.6502236 9.71694483,17.2686708 C8.83353103,18.8644472 8.65013448,20.5658758 9.17225517,22.3256273 C9.4061,23.1134534 9.80456552,23.6927702 10.3909793,24.096559 C10.450531,24.1369938 10.4873241,24.1841366 10.5068586,24.2096646 L10.7545483,24.4940124 L10.4484448,24.7567453 C10.4169621,24.7845093 10.3887034,24.8076149 10.3583586,24.8273665 C10.1798931,24.9440124 10.0012379,25.0621491 9.82277241,25.1806584 C9.41103103,25.4536398 8.98525517,25.7361242 8.55322069,25.9997888 C7.61803103,26.5705342 6.80592759,26.9338882 5.99723793,27.1433292 C5.82218621,27.1886087 5.63366897,27.2303478 5.43946207,27.2305342 C5.36701379,27.2305342 5.29684138,27.2243851 5.23122069,27.2124596 C4.43011724,27.0674907 3.61877241,26.9109689 2.83416897,26.7594783 C2.39928966,26.6756273 1.9646,26.5915901 1.52953103,26.5092298 L1.52953103,26.5092298 Z M6.07025517,29.9191677 C5.86542759,29.9191677 5.65718621,29.8990435 5.4333931,29.8580497 C4.20006552,29.6307205 3.19432414,29.3914658 2.26728966,29.105441 C1.74535862,28.9438882 1.38235862,28.660472 1.15761724,28.2386087 C1.15761724,28.2386087 0.356703448,26.738236 0.172548276,26.3918385 C0.0278413793,26.1196025 0.00925517241,25.8259379 0.116410345,25.5188571 C0.228875862,25.1964969 0.325031034,24.8791677 0.438824138,24.4977391 C0.443565517,24.4822733 0.444134483,24.4623354 0.442427586,24.4545093 C0.131772414,22.9200373 -0.0127448276,21.5202857 0.000910344827,20.1749441 C0.0191172414,18.3605963 0.311565517,16.8205342 0.894565517,15.4671801 C1.49596207,14.0709689 2.40820345,12.9373043 3.60644483,12.098236 C3.62427241,12.0857516 3.63053103,12.0790435 3.63053103,12.0790435 C4.11927241,11.3681739 4.73982414,10.7987329 5.47568621,10.3861863 L0.857582759,3.39134161 L1.05463448,3.17873292 C1.07094483,3.15935404 1.10375517,3.1202236 1.15515172,3.0844472 C2.81691034,1.91500621 4.43884138,1.11804969 6.11178966,0.648857143 C7.20647931,0.341962733 8.28713448,0.186186335 9.3236,0.186186335 C10.3477379,0.186186335 11.3620138,0.338049689 12.3379793,0.637304348 C14.2388931,1.22034783 15.8983759,2.33090683 17.2703414,3.93804969 C18.5340138,5.4181118 19.4494793,7.16798758 20.0685138,9.2875528 C20.3440828,10.2317143 20.5466345,11.2451925 20.6873586,12.3861242 C20.7175138,12.6317143 20.6780655,12.819354 20.488031,12.9453168 L21.8273759,12.3723354 L21.8273759,12.9482981 C21.8273759,13.0112795 21.7867897,13.0720248 21.7873586,13.1310932 C21.7888759,13.2658137 21.7693414,13.3928944 21.7638414,13.5199752 C21.7314103,14.2595404 21.5400483,14.8709068 21.1999966,15.3887329 C21.0723586,15.5830807 20.9033759,15.7740745 20.7084103,15.9568696 C20.676169,15.9866832 20.6714276,15.9935776 20.6682034,16.0334534 C20.6304621,16.5022733 20.5087034,16.9487329 20.3088069,17.3597888 C20.1201,17.7481118 19.8557207,18.0801615 19.5238241,18.3471801 C19.4379103,19.0686708 19.2357379,19.6286087 18.8905655,20.1056273 C18.6324448,20.4628323 18.3014966,20.7412174 17.9075828,20.9329565 L17.6543931,21.0546335 C17.4626517,21.1463106 17.2646517,21.2409689 17.0761345,21.3395404 C16.7671862,22.2740124 16.3632207,23.0407826 15.8414793,23.6830807 C15.7464621,23.8000994 15.6455655,23.9055652 15.5478931,24.007677 C15.4769621,24.0818385 15.4058414,24.1558137 15.3390828,24.2333292 C15.2698586,24.3138261 15.2089793,24.4017764 15.1634621,24.4880497 C15.0714793,24.663205 14.9821517,24.8398509 14.8930138,25.0166832 C14.7450828,25.3099752 14.592031,25.6133292 14.4253241,25.9077391 C14.2210655,26.2684845 13.9130655,26.5569317 13.4836862,26.7896646 C11.5207552,27.8536398 9.44023793,28.8121491 7.12322069,29.7203478 C6.78241034,29.8541366 6.4378069,29.9191677 6.07025517,29.9191677 L6.07025517,29.9191677 Z" id="Fill-1"></path>
                        <path d="M11.9030431,14.6263602 C11.8525948,14.6561739 11.8049914,14.6869193 11.7549224,14.7135652 C11.3668879,14.9200248 10.9773362,15.1238758 10.5900603,15.3318261 C9.89440517,15.7054286 9.40111207,16.2726335 9.01857759,16.940087 C8.47825,17.8829441 8.20742241,18.9031304 8.13573276,19.978472 C8.06631897,21.020646 8.1994569,22.0330062 8.60323276,23.004 C8.81469828,23.5119503 9.10411207,23.9714534 9.50769828,24.3564224 C9.52818103,24.3759876 9.54581897,24.3985342 9.56952586,24.4248075 C9.55700862,24.441764 9.54942241,24.4605839 9.53557759,24.470087 C8.57914655,25.1157391 7.61000862,25.7397764 6.52840517,26.1720745 C6.46107759,26.1990932 6.39393966,26.2266708 6.32585345,26.2516398 C5.61407759,26.5126957 5.57121552,26.510646 4.65764655,26.3319503 C3.67352586,26.1394658 2.68807759,25.9536894 1.70206034,25.7703354 C1.59206034,25.7498385 1.53933621,25.7082857 1.50937069,25.5990932 C1.13138793,24.2293416 0.881422414,22.8385342 0.79437069,21.4210807 C0.69062931,19.7291553 0.792284483,18.0575404 1.33412931,16.4338137 C1.71628448,15.2889689 2.29606034,14.2523851 3.19388793,13.4205839 C3.78637069,12.8716398 4.42418103,12.3681615 5.19456034,12.0640621 C5.26018103,12.0381615 5.33509483,12.0197143 5.40507759,12.0215776 C6.84038793,12.0592174 8.27569828,12.0983478 9.71081897,12.144559 C9.80887069,12.1477267 9.92171552,12.1876025 9.99947414,12.2462981 C10.8204914,12.865118 11.4110776,13.6669193 11.8804741,14.5626335 C11.8890086,14.5788447 11.8929914,14.5974783 11.9030431,14.6263602" id="Fill-4"></path>
                    </g>
                </g>
                <g id="Rectangle-2-Copy-2">
                    <use fill="black" fill-opacity="1" filter="url(#filter-9)" xlink:href="#path-8"></use>
                    <use fill="#FFC933" fill-rule="evenodd" xlink:href="#path-8"></use>
                </g>
                <g id="DOWNLOAD" fill-opacity="1" fill="#FFFFFF">
                    <use filter="url(#filter-11)" xlink:href="#text-10"></use>
                    <use xlink:href="#text-10"></use>
                </g>
            </g>
            <text id="How-Cypherpunk-Priva" font-family="Dosis-Medium, Dosis" font-size="28" font-weight="400" fill="#FFFFFF">
                <tspan x="427.054" y="138">How Cypherpunk Privacy Works</tspan>
            </text>
            <text id="How-Cypherpunk-Prote" font-family="Dosis-Medium, Dosis" font-size="26" font-weight="400" fill="#034698">
                <tspan x="368.229" y="295">How Cypherpunk Protects Your Online Privacy</tspan>
            </text>
            <text id="How-Cypherpunk-Prote" font-family="Dosis-Medium, Dosis" font-size="26" font-weight="400" fill="#034698">
                <tspan x="359.012" y="741">How Cypherpunk Protects Your Online Freedom</tspan>
            </text>
            <text id="Hide-your-IP-Address" font-family="Dosis-Medium, Dosis" font-size="18" font-weight="400" fill="#333333">
                <tspan x="248.165" y="537">Hide your IP Address &amp; Location</tspan>
            </text>
            <text id="View-blocked-website" font-family="Dosis-Medium, Dosis" font-size="18" font-weight="400" fill="#333333">
                <tspan x="225.08" y="983">View blocked websites from anywhere</tspan>
            </text>
            <text id="Encrypt-your-communi" font-family="Dosis-Medium, Dosis" font-size="18" font-weight="400" fill="#333333">
                <tspan x="737.055" y="537">Encrypt your communications</tspan>
            </text>
            <text id="Prevent-surveillance" font-family="Dosis-Medium, Dosis" font-size="18" font-weight="400" fill="#333333">
                <tspan x="716.328" y="983">Prevent surveillance and censorship</tspan>
            </text>
            <rect id="Rectangle-Copy-9" fill="#D8D8D8" x="219" y="345" width="280" height="160"></rect>
            <rect id="Rectangle-Copy-11" fill="#D8D8D8" x="219" y="791" width="280" height="160"></rect>
            <rect id="Rectangle-Copy-10" fill="#D8D8D8" x="701" y="345" width="280" height="160"></rect>
            <rect id="Rectangle-Copy-12" fill="#D8D8D8" x="701" y="791" width="280" height="160"></rect>
            <g id="bottom-cta-headline" transform="translate(0.000000, 1137.000000)">
                <text id="Still-not-sure?-Try" font-family="Dosis-Medium, Dosis" font-size="26" font-weight="400" fill="#333333">
                    <tspan x="252.34" y="27">Still not sure? Try Cypherpunk Premium Free - We know you’ll love it!</tspan>
                </text>
                <text id="Use-Cypherpunk-Premi" font-family="Dosis-Medium, Dosis" font-size="20" font-weight="400" fill="#333333">
                    <tspan x="382.29" y="65">Use Cypherpunk Premium for FREE – Limited Time Only!</tspan>
                </text>
                <rect id="Rectangle-Copy-14" fill="#CAD8EB" fill-rule="evenodd" opacity="0.5" x="0" y="155" width="1200" height="117"></rect>
                <g id="Group-3-Copy-2" stroke-width="1" fill-rule="evenodd" transform="translate(446.000000, 214.000000)" font-family="Dosis-Medium, Dosis" fill="#666666" font-weight="400">
                    <text id="Desktop,-Browser,-An" font-size="19">
                        <tspan x="85" y="20" text-decoration="underline">Desktop</tspan>
                        <tspan x="145.097" y="20">, </tspan>
                        <tspan x="152.241" y="20" text-decoration="underline">Browser</tspan>
                        <tspan x="212.699" y="20">, </tspan>
                        <tspan x="219.843" y="20" text-decoration="underline">Android</tspan>
                        <tspan x="277.755" y="20">, </tspan>
                        <tspan x="284.899" y="20" text-decoration="underline">iOS</tspan>
                    </text>
                    <text id="Available-for" font-size="16">
                        <tspan x="0.252" y="20">Available for</tspan>
                    </text>
                </g>
                <g id="cta-button" transform="translate(429.000000, 109.000000)" stroke-width="1" fill-rule="evenodd">
                    <g>
                        <g id="Rectangle-2">
                            <use fill="black" fill-opacity="1" filter="url(#filter-13)" xlink:href="#path-12"></use>
                            <use fill="#FFC933" fill-rule="evenodd" xlink:href="#path-12"></use>
                        </g>
                        <polygon id="disclosure-indicator" fill="#034698" points="313 32.2836364 315.283636 30 325.56 40.2763641 315.283636 50.5527281 313 48.2690917 320.992728 40.2763641"></polygon>
                        <g id="START-MY-FREE-PREVIE" fill-opacity="1" fill="#034698">
                            <use filter="url(#filter-15)" xlink:href="#text-14"></use>
                            <use xlink:href="#text-14"></use>
                        </g>
                    </g>
                </g>
            </g>
            <g id="footer_light" transform="translate(0.000000, 1409.000000)">
                <rect id="Rectangle-Copy-3" fill="#CAD8EB" fill-rule="evenodd" x="0" y="0" width="1200" height="367"></rect>
                <g id="Rectangle-2-Copy-2">
                    <use fill="black" fill-opacity="1" filter="url(#filter-17)" xlink:href="#path-16"></use>
                    <use fill="#FFC933" fill-rule="evenodd" xlink:href="#path-16"></use>
                </g>
                <g id="START-FREE-Copy" fill-opacity="1" fill="#FFFFFF">
                    <use filter="url(#filter-19)" xlink:href="#text-18"></use>
                    <use xlink:href="#text-18"></use>
                </g>
                <text id="Copyright-©-2016-Cyp" font-family="Dosis-Medium, Dosis" font-size="14" font-weight="400" line-spacing="27" fill="#999999">
                    <tspan x="101" y="102">Copyright © 2016 Cypherpunk Partners</tspan>
                </text>
                <text id="Company" font-family="Dosis-Bold, Dosis" font-size="18" font-weight="bold" fill="#102D51">
                    <tspan x="775" y="59">Company</tspan>
                </text>
                <text id="Available-On-Copy" font-family="Dosis-Bold, Dosis" font-size="18" font-weight="bold" fill="#102D51">
                    <tspan x="609" y="59">Available On</tspan>
                </text>
                <text id="About-Us-Press-Blog" font-family="Dosis-Medium, Dosis" font-size="16" font-weight="400" line-spacing="27" fill="#4E5E72">
                    <tspan x="775" y="93">About Us</tspan>
                    <tspan x="775" y="120">Press</tspan>
                    <tspan x="775" y="147">Blog</tspan>
                    <tspan x="775" y="174">Privacy Policy</tspan>
                    <tspan x="775" y="201">Term of Use</tspan>
                    <tspan x="775" y="228">Bounty Program</tspan>
                </text>
                <text id="Leave-Feedback" font-family="Dosis-Medium, Dosis" font-size="14" font-weight="400" line-spacing="27" fill="#4E5E72">
                    <tspan x="938" y="135">Leave Feedback </tspan>
                </text>
                <use id="Rectangle-2-Copy-3" stroke="#4E5E72" mask="url(#mask-21)" stroke-width="2" xlink:href="#path-20"></use>
                <text id="Browser-Mac-Windows" font-family="Dosis-Medium, Dosis" font-size="16" font-weight="400" line-spacing="27" fill="#4E5E72">
                    <tspan x="609" y="93">Browser</tspan>
                    <tspan x="609" y="120">Mac</tspan>
                    <tspan x="609" y="147">Windows</tspan>
                    <tspan x="609" y="174">iPhone &amp; iPad</tspan>
                    <tspan x="609" y="201">Android</tspan>
                    <tspan x="609" y="228">Linux</tspan>
                    <tspan x="609" y="255">Routers</tspan>
                </text>
                <g id="Group-2" stroke-width="1" fill-rule="evenodd" transform="translate(105.000000, 215.000000)">
                    <text id="English" font-family="Dosis-Medium, Dosis" font-size="16" font-weight="400" fill="#4E5E72">
                        <tspan x="21.5" y="16">English</tspan>
                    </text>
                    <text id="" font-family="FontAwesome" font-size="15" font-weight="normal" letter-spacing="-0.312500149" fill="#4E5E72">
                        <tspan x="0.227678646" y="16"></tspan>
                    </text>
                    <polyline id="Path-2" stroke="#4E5E72" points="74.7950827 9.70088527 78.790311 13 82.9247832 9.70088527"></polyline>
                </g>
                <text id="Cypherpunk-Privacy" font-family="Dosis-Bold, Dosis" font-size="18" font-weight="bold" fill="#102D51">
                    <tspan x="392" y="59">Cypherpunk Privacy</tspan>
                </text>
                <text id="Why-Cypherpunk?-How" font-family="Dosis-Medium, Dosis" font-size="16" font-weight="400" line-spacing="27" fill="#4E5E72">
                    <tspan x="392" y="93">Why Cypherpunk?</tspan>
                    <tspan x="392" y="120">How it Works</tspan>
                    <tspan x="392" y="147">Locations</tspan>
                    <tspan x="392" y="174">Download</tspan>
                    <tspan x="392" y="201">Premium</tspan>
                    <tspan x="392" y="228">Help</tspan>
                    <tspan x="392" y="255">My Account</tspan>
                </text>
                <text id="Stay-In-Touch" font-family="Dosis-Bold, Dosis" font-size="18" font-weight="bold" fill="#102D51">
                    <tspan x="925.5" y="59">Stay In Touch</tspan>
                </text>
                <text id="" font-family="FontAwesome" font-size="20" font-weight="normal" line-spacing="27" fill="#3B5998">
                    <tspan x="926" y="95"></tspan>
                </text>
                <text id="" font-family="FontAwesome" font-size="22" font-weight="normal" line-spacing="27" fill="#4BA4EB">
                    <tspan x="972" y="97"></tspan>
                </text>
                <text id="" font-family="FontAwesome" font-size="20" font-weight="normal" line-spacing="27" fill="#FF0002">
                    <tspan x="1021" y="95"></tspan>
                </text>
                <text id="" font-family="FontAwesome" font-size="20" font-weight="normal" line-spacing="27" fill="#EA7F49">
                    <tspan x="1069" y="95"></tspan>
                </text>
                <g id="Group-2" stroke-width="1" fill-rule="evenodd" transform="translate(101.000000, 36.000000)" fill="#034698">
                    <g id="Page-1" transform="translate(38.000000, 0.000000)">
                        <path d="M126.285879,18.2270451 C126.285879,18.5684857 126.148552,18.8672463 125.874543,19.1233267 C125.600534,19.3794072 125.264631,19.5074475 124.867479,19.5074475 L124.555432,19.5074475 C124.176977,19.5074475 123.85139,19.3794072 123.577381,19.1233267 C123.302727,18.8672463 123.165401,18.5684857 123.165401,18.2270451 L123.165401,12.9631687 C123.165401,12.6029747 123.302727,12.2945141 123.577381,12.0384336 C123.85139,11.7823532 124.176977,11.6543129 124.555432,11.6543129 L124.867479,11.6543129 C125.264631,11.6543129 125.600534,11.7823532 125.874543,12.0384336 C126.148552,12.2945141 126.285879,12.6029747 126.285879,12.9631687 L126.285879,18.2270451 L126.285879,18.2270451 Z M127.661726,10.2743237 C126.89579,9.54423567 125.96416,9.17886833 124.867479,9.17886833 L124.385869,9.17886833 C123.325938,9.21702174 122.432346,9.60114245 121.705094,10.3312305 C120.976553,11.0619652 120.612282,11.9297934 120.612282,12.9347153 L120.612282,29.8049865 C120.612282,30.5105012 121.182221,31.0821556 121.884973,31.0821556 C122.58837,31.0821556 123.158309,30.5105012 123.158309,29.8049865 L123.165401,21.755265 C123.543855,21.8884785 123.911994,21.9641387 124.271752,21.982892 C124.574129,22.0022921 124.772705,22.0119921 124.867479,22.0119921 C125.945463,22.0307455 126.871935,21.6653781 127.647542,20.9158901 C128.422504,20.1670487 128.810629,19.2701204 128.810629,18.2270451 L128.810629,12.9631687 L128.810629,12.9347153 C128.810629,11.89164 128.427661,11.0050584 127.661726,10.2743237 L127.661726,10.2743237 Z" id="Fill-1"></path>
                        <path d="M142.636217,15.6990911 C141.954741,15.6990911 141.40221,16.2532854 141.40221,16.9368134 L141.40221,29.8443039 C141.40221,30.5278319 141.954741,31.0820262 142.636217,31.0820262 C143.317693,31.0820262 143.870224,30.5278319 143.870224,29.8443039 L143.870224,16.9368134 C143.870224,16.2532854 143.317693,15.6990911 142.636217,15.6990911" id="Fill-3"></path>
                        <path d="M142.636217,11.2260895 C141.954741,11.2260895 141.40221,11.7802838 141.40221,12.4638117 L141.40221,13.0277061 C141.40221,13.7112341 141.954741,14.2654284 142.636217,14.2654284 C143.317693,14.2654284 143.870224,13.7112341 143.870224,13.0277061 L143.870224,12.4638117 C143.870224,11.7802838 143.317693,11.2260895 142.636217,11.2260895" id="Fill-5"></path>
                        <path d="M153.595994,15.6990911 C152.890663,15.6990911 152.319434,16.2720388 152.319434,16.9794934 L152.319434,18.2553691 C152.319434,18.7494234 152.139556,20.181146 151.780443,22.5524771 C151.383291,25.0563751 151.098966,26.3076774 150.929403,26.3076774 C150.759195,26.3076774 150.475516,25.0563751 150.077719,22.5524771 C149.718606,20.181146 149.539372,18.7494234 149.539372,18.2553691 L149.534859,16.9368134 C149.511649,16.2500521 148.952671,15.6990911 148.262813,15.6990911 C147.57231,15.6990911 147.013332,16.2500521 146.990122,16.9368134 L146.986254,18.2553691 C146.986254,19.7349452 147.411773,22.1159763 148.262813,25.397169 C149.227324,29.1155093 150.115758,30.9740327 150.929403,30.9740327 C151.742404,30.9740327 152.630838,29.1155093 153.595994,25.397169 C154.447033,22.1159763 154.872553,19.7349452 154.872553,18.2553691 L154.872553,16.9794934 C154.872553,16.2720388 154.301325,15.6990911 153.595994,15.6990911" id="Fill-7"></path>
                        <path d="M176.000769,16.8894773 C175.234833,16.1496892 174.303203,15.7797952 173.206522,15.7797952 C172.128539,15.7797952 171.202067,16.1496892 170.42646,16.8894773 C169.650209,17.629912 169.263373,18.5210203 169.263373,19.5647422 L169.263373,27.1902497 C169.263373,28.233325 169.650209,29.1250799 170.42646,29.8642213 C171.202067,30.6040093 172.128539,30.9739034 173.206522,30.9739034 C174.303203,30.9739034 175.234833,30.6040093 176.000769,29.8642213 C176.76606,29.1250799 177.149672,28.233325 177.149672,27.1902497 L177.149672,26.9904293 C177.149672,26.2913814 176.584247,25.7242536 175.887297,25.7242536 C175.190347,25.7242536 174.624922,26.2913814 174.624922,26.9904293 L174.624922,27.1902497 C174.624922,27.5504437 174.48695,27.8589043 174.213586,28.1143381 C173.939577,28.3710652 173.603674,28.4984588 173.206522,28.4984588 C172.828068,28.4984588 172.501836,28.3710652 172.227182,28.1143381 C171.953818,27.8589043 171.816491,27.5504437 171.816491,27.1902497 L171.816491,19.5647422 C171.816491,19.2039016 171.953818,18.9006143 172.227182,18.6542339 C172.501836,18.4078534 172.828068,18.2836932 173.206522,18.2836932 C173.603674,18.2836932 173.939577,18.4078534 174.213586,18.6542339 C174.48695,18.9006143 174.624922,19.2039016 174.624922,19.5647422 L174.627501,19.7917227 C174.636527,20.4830106 175.196794,21.0404383 175.887942,21.0404383 C176.578444,21.0404383 177.138712,20.4830106 177.147738,19.7917227 L177.149672,19.5647422 C177.149672,18.5210203 176.76606,17.629912 176.000769,16.8894773" id="Fill-9"></path>
                        <path d="M163.458123,27.1900557 C163.458123,27.5508964 163.320796,27.8535369 163.046787,28.0999174 C162.772778,28.3469445 162.446547,28.4698114 162.068092,28.4698114 C161.689637,28.4698114 161.363405,28.3469445 161.089396,28.0999174 C160.814743,27.8535369 160.678061,27.5508964 160.678061,27.1900557 L160.678061,25.3974924 C160.678061,25.0372984 160.814743,24.7333645 161.089396,24.4863373 C161.363405,24.2399569 161.689637,24.11709 162.068092,24.11709 C162.446547,24.11709 162.772778,24.2399569 163.046787,24.4863373 C163.320796,24.7333645 163.458123,25.0372984 163.458123,25.3974924 L163.458123,27.1900557 Z M164.862338,16.9041566 C164.096403,16.1740686 163.164772,15.8080546 162.068092,15.8080546 C160.971411,15.8080546 160.039781,16.1740686 159.273846,16.9041566 C158.50791,17.6348913 158.124942,18.521473 158.124942,19.5645482 L158.124942,19.7740686 C158.124942,20.4789366 158.694236,21.050591 159.396988,21.050591 C160.099741,21.050591 160.669034,20.4789366 160.669034,19.7740686 L160.678061,19.5645482 C160.678061,19.2231076 160.814743,18.924347 161.089396,18.6676199 C161.363405,18.4121861 161.689637,18.2841459 162.068092,18.2841459 C162.446547,18.2841459 162.772778,18.4121861 163.046787,18.6676199 C163.320796,18.924347 163.458123,19.2231076 163.458123,19.5645482 L163.458123,21.8686258 C163.004235,21.6985522 162.540677,21.613192 162.068092,21.613192 C160.971411,21.613192 160.039781,21.9824394 159.273846,22.7228741 C158.50791,23.4620154 158.124942,24.3544171 158.124942,25.3974924 L158.124942,27.1900557 C158.124942,28.233131 158.50791,29.1248859 159.273846,29.864674 C160.039781,30.6038153 160.971411,30.974356 162.068092,30.974356 C163.146075,30.974356 164.072548,30.6038153 164.848154,29.864674 C165.623116,29.1248859 166.011241,28.242831 166.011241,27.2185091 L166.011241,19.5645482 C166.011241,18.521473 165.628274,17.6348913 164.862338,16.9041566 L164.862338,16.9041566 Z" id="Fill-11"></path>
                        <path d="M187.003162,15.7627232 C186.308791,15.7627232 185.7453,16.3279109 185.7453,17.0243722 L185.744655,28.3740399 L184.317875,28.3740399 C183.936841,28.3740399 183.60803,28.2459996 183.332087,27.9912125 C183.056144,27.7357787 182.918172,27.4286115 182.918172,27.0690641 L182.917528,17.0243722 C182.917528,16.3279109 182.354681,15.7627232 181.659666,15.7627232 C180.965295,15.7627232 180.401803,16.3279109 180.401803,17.0243722 L180.401803,27.0968708 C180.401803,28.1373594 180.790574,29.0252344 181.56747,29.7630825 C182.344366,30.5002838 183.272772,30.8591845 184.35269,30.8404311 L185.744655,30.8404311 L185.744655,33.8739501 C185.744655,34.2140974 185.606039,34.5122112 185.326872,34.7669984 C185.047705,35.0224322 184.716316,35.1498258 184.332059,35.1498258 C183.947157,35.1498258 183.615122,35.0224322 183.335955,34.7669984 C183.057433,34.5122112 182.918172,34.2140974 182.918172,33.8739501 L182.917528,33.6476163 C182.917528,32.951155 182.354681,32.3859673 181.659666,32.3859673 C180.965295,32.3859673 180.401803,32.951155 180.401803,33.6476163 L180.401803,33.8739501 C180.401803,34.913792 180.784126,35.8029603 181.547483,36.539515 C182.31084,37.277363 183.238602,37.645317 184.332059,37.645317 C185.405529,37.645317 186.329422,37.277363 187.10245,36.539515 C187.874833,35.8029603 188.261024,34.913792 188.261024,33.8739501 L188.261024,17.0243722 C188.261024,16.3279109 187.698178,15.7627232 187.003162,15.7627232" id="Fill-13"></path>
                        <path d="M25.8690215,17.7168888 C25.3287404,17.7168888 24.8535767,17.8953691 24.4564249,18.2490965 C24.0425103,18.6176971 23.8245926,19.0981714 23.8245926,19.6407257 L23.8245926,27.35224 C23.8245926,27.895441 24.043155,28.3765619 24.4564249,28.7445159 C24.8516425,29.0969499 25.327451,29.2754302 25.8690215,29.2754302 C26.4299339,29.2754302 26.9154133,29.0963032 27.3106309,28.7432226 C27.7226113,28.3778552 27.9411738,27.8967343 27.9411738,27.35224 L27.9411738,19.6407257 C27.9411738,19.0975247 27.7226113,18.6164038 27.3093414,18.2490965 C26.9134791,17.8960158 26.4286445,17.7168888 25.8690215,17.7168888 M23.2114573,36.9979378 C22.8736204,36.9979378 22.5983221,36.7224573 22.5983221,36.3829567 L22.5983221,19.6122723 C22.5983221,18.7677241 22.9116593,18.0589761 23.5570309,17.4446416 C24.2127182,16.8186671 24.9728512,16.5153799 25.8832055,16.5153799 C26.8116122,16.5153799 27.5756136,16.8180205 28.2196958,17.4407616 C28.8579754,18.0563894 29.1674443,18.7761308 29.1674443,19.6407257 L29.1674443,27.35224 C29.1674443,28.2155416 28.8566859,28.9352829 28.2158274,29.5515574 C27.5665874,30.1742985 26.7961388,30.4769391 25.8625743,30.4769391 C25.4686461,30.4769391 25.0753627,30.405159 24.6949739,30.2622454 L23.8245926,29.9376181 L23.8245926,36.3829567 C23.8245926,36.7224573 23.5492942,36.9979378 23.2114573,36.9979378" id="Fill-16"></path>
                        <path d="M67.6648603,17.7168888 C67.1239344,17.7168888 66.6487707,17.8960158 66.2522637,18.2490965 C65.8396385,18.6164038 65.6210761,19.0975247 65.6210761,19.6407257 L65.6210761,27.35224 C65.6210761,27.8967343 65.8396385,28.3778552 66.2535531,28.7445159 C66.6468365,29.0963032 67.122645,29.2754302 67.6648603,29.2754302 C68.2251279,29.2754302 68.7106073,29.0969499 69.1064696,28.7438692 C69.5190948,28.3765619 69.7376572,27.895441 69.7376572,27.35224 L69.7376572,19.6407257 C69.7376572,19.0981714 69.5197395,18.6176971 69.1064696,18.2490965 C68.7086731,17.8953691 68.2238385,17.7168888 67.6648603,17.7168888 M65.0072961,36.9979378 C64.6694592,36.9979378 64.3948055,36.7224573 64.3948055,36.3829567 L64.3948055,19.6122723 C64.3948055,18.7683708 64.7081428,18.0589761 65.3528697,17.443995 C66.0085569,16.8186671 66.7693346,16.5153799 67.679689,16.5153799 C68.6080957,16.5153799 69.3720971,16.8180205 70.0161792,17.4407616 C70.6544588,18.0563894 70.9639278,18.7761308 70.9639278,19.6407257 L70.9639278,27.35224 C70.9639278,28.2155416 70.6531694,28.9352829 70.0123109,29.5515574 C69.3630709,30.1742985 68.5926223,30.4769391 67.6590577,30.4769391 C67.2651296,30.4769391 66.8718462,30.405159 66.4914573,30.2622454 L65.6210761,29.9376181 L65.6204313,36.3829567 C65.6204313,36.7224573 65.3451329,36.9979378 65.0072961,36.9979378" id="Fill-18"></path>
                        <path d="M91.6764881,30.4349057 C91.3302698,30.4349057 91.0485242,30.1523118 91.0485242,29.8050512 L91.0504583,19.6685324 C91.0504583,19.1317981 90.8351196,18.6480905 90.4282969,18.2717298 C90.0317899,17.9037758 89.5534025,17.7168888 89.0066741,17.7168888 C88.4406039,17.7168888 87.9519009,17.9037758 87.5541044,18.2723765 C87.1492159,18.6474439 86.9345219,19.1311514 86.9345219,19.6685324 L86.9338772,29.8050512 C86.9338772,30.1445518 86.6585788,30.420679 86.3200972,30.420679 C85.9822603,30.420679 85.7076066,30.1445518 85.7076066,29.8050512 L85.7076066,20.2873936 L85.7346852,19.6407257 C85.7346852,18.7787174 86.0441541,18.0647961 86.6798548,17.4582217 C87.3245817,16.8425939 88.0905172,16.54448 89.0202134,16.54448 C89.9331466,16.54448 90.6952138,16.8438872 91.3496116,17.461455 C91.9401814,18.0175894 92.2522292,18.6642572 92.2986496,19.4331453 L92.2773736,19.6704724 L92.3050969,29.8069912 C92.3050969,30.1523118 92.0227065,30.4349057 91.6764881,30.4349057" id="Fill-20"></path>
                        <path d="M78.02517,30.3919669 C77.097408,30.3919669 76.3327619,30.0893264 75.6873903,29.4672319 C75.0504002,28.8516041 74.7402865,28.1318628 74.7402865,27.2672678 L74.7402865,17.0240489 C74.7402865,16.6851949 75.0155849,16.4097144 75.3534218,16.4097144 C75.6919034,16.4097144 75.9672018,16.6851949 75.9672018,17.0240489 L75.9678465,27.2672678 C75.9678465,27.8052955 76.1825406,28.2877097 76.5887185,28.6640704 C76.9878045,29.0313778 77.475218,29.2182648 78.039354,29.2182648 C78.5854377,29.2182648 79.0631803,29.0313778 79.4616215,28.6640704 C79.8684442,28.2877097 80.0831382,27.8052955 80.0831382,27.2672678 L80.0831382,17.0240489 C80.0831382,16.6851949 80.3584366,16.4097144 80.6969182,16.4097144 C81.0347551,16.4097144 81.3100535,16.6851949 81.3100535,17.0240489 L81.3106982,27.2957212 C81.3106982,28.1570828 80.997361,28.8697108 80.3539235,29.4756386 C79.6995257,30.0919131 78.9374586,30.3919669 78.02517,30.3919669" id="Fill-22"></path>
                        <path d="M47.8344797,17.7459242 C47.2696989,17.7459242 46.7816407,17.9321645 46.3844889,18.2994719 C45.9776663,18.6751859 45.7623275,19.1588935 45.7623275,19.6969211 L45.7623275,22.5273864 L49.8782639,22.5273864 L49.8782639,19.6969211 C49.8782639,19.1595401 49.6635699,18.6758326 49.2567472,18.2994719 C48.858306,17.9321645 48.3805634,17.7459242 47.8344797,17.7459242 M47.848019,30.3921609 C46.920257,30.3921609 46.1556109,30.0895204 45.510884,29.4674259 C44.8738938,28.8517981 44.5644249,28.1320568 44.5644249,27.2674618 L44.5644249,19.6684678 C44.5644249,18.8064595 44.8732491,18.0925382 45.5089498,17.4866104 C46.1536767,16.8709826 46.9189675,16.5728687 47.848019,16.5728687 C48.7609522,16.5728687 49.5223747,16.8722759 50.1780619,17.4898437 C50.8208546,18.0951248 51.1335472,18.8083995 51.1335472,19.6684678 L51.1335472,23.7288953 L45.7623275,23.7288953 L45.7623275,27.2674618 C45.7623275,27.8054895 45.9776663,28.2885504 46.3851336,28.6642644 C46.7816407,29.0315718 47.2696989,29.2178121 47.8344797,29.2178121 C48.3805634,29.2178121 48.858306,29.0315718 49.2561025,28.6642644 C49.6635699,28.2879037 49.8782639,27.8048428 49.8782639,27.2674618 L49.8782639,26.7572409 C49.8782639,26.4093336 50.1593648,26.1273864 50.5062279,26.1273864 C50.8524462,26.1273864 51.1335472,26.4093336 51.1335472,26.7572409 L51.1335472,27.2674618 C51.1335472,28.1301168 50.8202099,28.8492114 50.1748383,29.4648392 C49.5197958,30.0888737 48.759018,30.3921609 47.848019,30.3921609" id="Fill-24"></path>
                        <path d="M39.5234988,30.3919669 C39.1772805,30.3919669 38.8955348,30.1093731 38.8955348,29.7627591 L38.8955348,19.5829136 C38.8955348,19.0468259 38.6879328,18.5695851 38.2952941,18.2022777 C37.9058791,17.8427304 37.4255575,17.6610167 36.8652899,17.6610167 C36.3269429,17.6610167 35.8550029,17.8401437 35.46043,18.1945177 C35.0523179,18.5611784 34.8363344,19.0416526 34.8363344,19.5829136 L34.8356896,29.7627591 C34.8356896,30.1093731 34.5545887,30.3919669 34.2090151,30.3919669 C33.8627968,30.3919669 33.5810511,30.1093731 33.5810511,29.7627591 L33.5810511,10.5664236 C33.5810511,10.2198096 33.8627968,9.93721574 34.2090151,9.93721574 C34.5545887,9.93721574 34.8356896,10.2198096 34.8356896,10.5664236 L34.8363344,17.0007688 L35.7080051,16.6729082 C36.0851703,16.5306413 36.4745854,16.4588611 36.8652899,16.4588611 C37.7936966,16.4588611 38.5589874,16.7615017 39.2037143,17.3842429 C39.8407045,17.9998707 40.1508181,18.7105586 40.1508181,19.5551069 L40.1508181,29.7627591 C40.1508181,30.1093731 39.8690724,30.3919669 39.5234988,30.3919669" id="Fill-26"></path>
                        <path d="M56.1743443,30.3919669 C55.8287707,30.3919669 55.5470251,30.1093731 55.5470251,29.7627591 L55.5470251,19.640467 C55.5470251,18.7784588 55.8597176,18.0651841 56.5025103,17.4611963 C57.1569081,16.8442752 57.9189753,16.5442213 58.8312638,16.5442213 C59.7203422,16.5442213 60.4604886,16.8184085 61.0942552,17.3816562 C61.321199,17.6228633 61.3173307,18.0056907 61.0813606,18.2410778 C60.9665992,18.3561847 60.8131543,18.4189114 60.6500383,18.4189114 C60.4875672,18.4189114 60.3341222,18.3561847 60.2180713,18.2417244 L59.6926189,17.7224502 L59.593331,17.8556637 C59.3573609,17.7638369 59.1026938,17.7166301 58.8312638,17.7166301 C58.2864696,17.7166301 57.8106611,17.9041638 57.4154436,18.2753512 C57.0144234,18.6510652 56.8016636,19.1328328 56.8016636,19.6682738 L56.8023083,29.7627591 C56.8023083,30.1093731 56.5205626,30.3919669 56.1743443,30.3919669" id="Fill-28"></path>
                        <path d="M3.28533479,30.3919669 C2.35692807,30.3919669 1.59228199,30.0893264 0.947555103,29.4672319 C0.309920214,28.8516041 -0.000193418065,28.1318628 -0.000193418065,27.2672678 L-0.000193418065,13.0334615 C-0.000193418065,12.1882666 0.309920214,11.4782253 0.947555103,10.8632441 C1.59228199,10.2398563 2.35692807,9.93721574 3.28533479,9.93721574 C4.19504442,9.93721574 4.95582215,10.2411496 5.61021994,10.8658308 C6.25559155,11.4814586 6.56957354,12.1992599 6.56957354,13.0619149 L6.56957354,15.1318987 C6.56957354,15.4713993 6.29427516,15.7475265 5.95643827,15.7475265 C5.61795666,15.7475265 5.34265828,15.4713993 5.34265828,15.1318987 L5.34265828,13.0619149 C5.34265828,12.5206539 5.12538532,12.039533 4.71276011,11.6715789 C4.31560835,11.3184983 3.83979991,11.140018 3.29887405,11.140018 C2.73796166,11.140018 2.25312705,11.3184983 1.85726474,11.6709323 C1.44463953,12.0388863 1.22672184,12.5193605 1.22672184,13.0619149 L1.22672184,27.2672678 C1.22672184,27.8052955 1.44206062,28.2883564 1.84888329,28.6640704 C2.24603505,29.0313778 2.7340933,29.2182648 3.29887405,29.2182648 C3.844313,29.2182648 4.32205562,29.0313778 4.72049684,28.6640704 C5.1273195,28.2877097 5.34265828,27.8046488 5.34265828,27.2672678 L5.34265828,25.1694773 C5.34265828,24.8299766 5.61795666,24.5551428 5.95643827,24.5551428 C6.29427516,24.5551428 6.56957354,24.8299766 6.56957354,25.1694773 L6.56957354,27.2672678 C6.56957354,28.1299228 6.25559155,28.8490174 5.61021994,29.4646452 C4.95582215,30.0886797 4.19504442,30.3919669 3.28533479,30.3919669" id="Fill-30"></path>
                        <path d="M14.2601982,36.9981965 C13.3311468,36.9981965 12.5658559,36.695556 11.9230632,36.0734615 C11.2847836,35.4578337 10.97467,34.738739 10.97467,33.8741441 L10.97467,33.6478103 C10.97467,33.3089563 11.2493236,33.0328292 11.5871605,33.0328292 C11.9256421,33.0328292 12.2009405,33.3089563 12.2009405,33.6478103 L12.2015852,33.8760841 C12.2015852,34.3953584 12.4188582,34.8687192 12.8295492,35.2450799 C13.2292799,35.6104473 13.7108909,35.7966876 14.2601982,35.7966876 C14.8088608,35.7966876 15.289827,35.6104473 15.6895577,35.2450799 C16.1002487,34.8687192 16.3175217,34.3953584 16.3175217,33.8741441 L16.3175217,30.1939572 L14.2021728,30.1946039 C13.3182522,30.1946039 12.5781057,29.8990767 11.9385367,29.2931489 C11.2905862,28.6775211 10.97467,27.9590731 10.97467,27.0970648 L10.97467,17.0239195 C10.97467,16.6850656 11.2493236,16.4095851 11.5871605,16.4095851 C11.9256421,16.4095851 12.2009405,16.6850656 12.2009405,17.0239195 L12.2015852,27.0692581 C12.2015852,27.6079325 12.416924,28.0909934 12.8237467,28.4667074 C13.2208985,28.8340147 13.6992858,29.0202551 14.2466589,29.0202551 L16.3175217,29.0202551 L16.3175217,17.0239195 C16.3175217,16.6850656 16.5928201,16.4095851 16.9313017,16.4095851 C17.2691386,16.4095851 17.5444369,16.6850656 17.5444369,17.0239195 L17.5444369,33.8741441 C17.5444369,34.736799 17.230455,35.455247 16.5857281,36.0702281 C15.9326197,36.6949093 15.171842,36.9981965 14.2601982,36.9981965" id="Fill-33"></path>
                        <path d="M102.975585,30.397011 C102.810535,30.397011 102.657734,30.3064775 102.577143,30.1609772 L99.431521,24.4179199 L97.8725714,27.4514388 L97.8725714,29.8053099 C97.8725714,30.1286438 97.6101676,30.3918376 97.2871594,30.3918376 C96.9647959,30.3918376 96.7023921,30.1286438 96.7023921,29.8053099 L96.7281812,10.5113275 C96.7281812,10.1944602 96.9847825,9.9370864 97.3000539,9.9370864 C97.6159701,9.9370864 97.8725714,10.1944602 97.8725714,10.5106808 L97.8725714,22.5897898 L97.8725714,25.1014478 L102.482369,16.573192 C102.559091,16.4367451 102.713826,16.3455649 102.880165,16.3455649 C102.952375,16.3455649 103.02265,16.3636716 103.089057,16.397945 C103.198015,16.4542051 103.278606,16.5505586 103.315356,16.6688989 C103.35275,16.7859458 103.34179,16.9113993 103.285054,17.0200395 L100.02338,23.3276379 L103.381118,29.7361164 C103.444946,29.8609233 103.445591,30.0141836 103.379828,30.1448105 L103.369513,30.1635639 C103.326961,30.2418107 103.261199,30.3051841 103.181253,30.3465709 C103.11678,30.3801976 103.047149,30.397011 102.975585,30.397011" id="Fill-35"></path>
                        <path d="M138.569215,16.9185773 C138.569215,16.9185773 138.567926,16.9166373 138.567281,16.9159907 C138.565992,16.915344 138.565992,16.9140507 138.564702,16.913404 L138.564057,16.9140507 C137.811016,16.2363427 136.907754,15.8974888 135.85556,15.8974888 C134.781445,15.8974888 133.858196,16.2615628 133.085168,16.9890641 C132.312141,17.7172121 131.926594,18.6012071 131.926594,19.6404024 L131.926594,29.7626944 C131.926594,30.4675624 132.495888,31.0392168 133.19864,31.0392168 C133.901393,31.0392168 134.470686,30.4675624 134.470686,29.7626944 L134.470042,19.6682091 C134.470042,19.3093084 134.607369,19.0027879 134.880088,18.7473541 C135.153452,18.4912736 135.47775,18.36388 135.85556,18.36388 C136.213383,18.36388 136.524142,18.4776936 136.787835,18.704674 L136.790414,18.702734 C137.281696,19.1877349 138.070841,19.1877349 138.560834,18.698854 C139.051471,18.2086797 139.054695,17.4132782 138.569215,16.9185773" id="Fill-37"></path>
                        <rect id="Rectangle-2" x="111.244042" y="0" width="1.0494721" height="40"></rect>
                    </g>
                    <g id="Page-1" transform="translate(0.000000, 5.000000)">
                        <path d="M11.2121862,9.94475776 C11.3329966,9.94475776 11.4534276,9.95016149 11.5706345,9.96096894 C12.2727379,10.0250683 12.9518931,10.296559 13.6467897,10.7910932 C14.482031,11.3855031 15.2184621,12.1772422 15.9645655,13.2829565 C16.0324621,13.3839503 16.0982724,13.4862484 16.1633241,13.5892919 L16.8075828,13.3082981 C17.7018069,12.9179255 18.5962207,12.5273665 19.4912034,12.1386708 C19.4648414,11.9873665 19.4396172,11.8364348 19.4142034,11.6853168 C19.3453586,11.2733292 19.2740483,10.8473665 19.1807379,10.4391056 C18.7282207,8.4628323 17.985531,6.78786335 16.9098069,5.31804969 C15.8744793,3.9033913 14.6686517,2.88096894 13.2231,2.19245963 C11.9984966,1.60941615 10.6932897,1.31370186 9.34332414,1.31370186 C8.56365172,1.31370186 7.74870345,1.41208696 6.92123793,1.60606211 C5.40437586,1.96140373 3.91615172,2.62252174 2.37937586,3.62481988 L2.4596,3.74631056 C3.98442759,6.05593789 5.50925517,8.36556522 7.03787586,10.6725839 C7.30054828,10.682646 7.55753103,10.6878634 7.80313448,10.6878634 C7.8698931,10.6878634 7.93665172,10.6874907 8.00303103,10.6867453 C8.0713069,10.686 8.15551379,10.6701615 8.2603931,10.6381118 C8.4528931,10.5790435 8.64482414,10.5168075 8.83675517,10.4543851 C9.16618621,10.3474286 9.50699655,10.2367453 9.85141034,10.1433913 C10.3445138,10.0097888 10.7894448,9.94475776 11.2121862,9.94475776 L11.2121862,9.94475776 Z M16.7013759,14.5981118 L18.6385138,13.743205 C18.1865655,13.9403478 16.6981517,14.5910311 16.6981517,14.5910311 L16.7013759,14.5981118 Z M16.5299276,18.1131429 L16.5354276,18.1602857 L16.5724103,18.5543851 C16.6992897,18.4938261 16.8257897,18.4328944 16.9524793,18.3719627 C17.4051862,18.1539503 17.8736345,17.9286708 18.3470138,17.7253789 C18.8167897,17.5239503 19.1367379,17.2056894 19.3303759,16.7404099 C19.3303759,16.7404099 16.5407379,18.0540745 16.5223414,18.062646 C16.5248069,18.0794161 16.5274621,18.096559 16.5299276,18.1131429 L16.5299276,18.1131429 Z M16.5513586,19.8311553 C16.5312552,19.9347578 16.5132379,20.0387329 16.495031,20.1427081 C16.4813759,20.2209689 16.4679103,20.2992298 16.4534966,20.3773043 C16.7476517,20.2349441 17.0382034,20.0946335 17.3300828,19.9567453 C17.7219103,19.7717143 17.991031,19.4916522 18.1696862,19.0662484 C17.6295483,19.3198509 17.0897897,19.5740124 16.5513586,19.8311553 L16.5513586,19.8311553 Z M14.081669,16.4683602 C13.8698241,16.4683602 13.6500138,16.570472 13.4102897,16.7806584 C13.1792897,16.9828323 12.9890655,17.2455652 12.8288069,17.5841366 C12.4011345,18.4880497 12.2712207,19.4666832 12.4430483,20.4924596 C12.5454621,21.1051304 12.7415655,21.5568075 13.0598069,21.9141988 C13.1997724,22.0712795 13.4286862,22.2585466 13.7236,22.2585466 C13.9200828,22.2585466 14.1290828,22.174323 14.328031,22.0150062 C14.5829276,21.8109689 14.7858586,21.5506584 14.9482034,21.2197267 C15.4648241,20.167118 15.5810828,19.0474286 15.2937552,17.8915901 C15.2412207,17.6791677 15.2550655,17.3905342 15.6195828,17.2205963 C16.2511345,16.926 16.8819276,16.6291677 17.5127207,16.3321491 C18.1806862,16.0178012 18.849031,15.7032671 19.5181345,15.3911553 C19.8923241,15.2169317 20.159169,14.9545714 20.3346,14.589354 C20.4002207,14.4522112 20.4535138,14.3100373 20.4941,14.1611553 L19.1223241,14.7663727 C17.7588931,15.3684224 16.3954621,15.9702857 15.0310828,16.5700994 C14.9582552,16.6021491 14.8467379,16.6399752 14.7274448,16.6399752 C14.6430483,16.6399752 14.5652897,16.6213416 14.4960655,16.5846335 C14.3490828,16.5063727 14.213669,16.4683602 14.081669,16.4683602 L14.081669,16.4683602 Z M1.52953103,26.5092298 C1.73606552,26.8953168 1.94184138,27.2819627 2.14477241,27.669913 C2.24054828,27.8525217 2.3881,27.963205 2.63787586,28.0394161 C3.63944483,28.3451925 4.69335862,28.5896646 5.77003103,28.7666832 C5.92061724,28.7914658 6.03327241,28.802646 6.13625517,28.802646 C6.27223793,28.802646 6.38792759,28.7828944 6.50001379,28.7405963 C8.60442759,27.9468075 10.7410828,26.9735776 12.8508069,25.8477391 C13.1669621,25.6791056 13.3922724,25.4616522 13.5398241,25.1828944 C13.6907897,24.8976149 13.833031,24.5964969 13.970531,24.3056273 C14.0414621,24.1550683 14.1125828,24.0046957 14.1854103,23.854882 L14.1939448,23.8373665 C14.2280828,23.7656273 14.2798586,23.6573665 14.3809448,23.5696025 C14.582169,23.3946335 14.7684103,23.2014037 14.9404276,22.988236 C14.916531,23.0050062 14.8924448,23.0215901 14.8679793,23.0378012 C14.5116172,23.2738882 14.1169448,23.3987329 13.7268241,23.3987329 C13.2982034,23.3987329 12.8792552,23.2502236 12.5153069,22.9690435 C12.1062207,22.653205 11.7997379,22.2268696 11.5784103,21.6652547 C11.1569966,20.5958758 11.095169,19.4200994 11.3942552,18.1703478 C11.6064793,17.2841366 11.9694793,16.593764 12.5043069,16.059354 C12.9890655,15.5750683 13.5144103,15.3296646 14.0653586,15.3296646 C14.2821345,15.3296646 14.5049793,15.3678634 14.7289621,15.4435155 C15.0274793,15.2998509 15.3258069,15.1545093 15.6281172,15.007118 C15.175031,14.0862484 14.5785655,13.236559 13.8535138,12.4796646 C13.4438586,12.0522112 12.9828069,11.7007826 12.4832552,11.435441 C12.0428759,11.2015901 11.6188069,11.0879255 11.1860138,11.0879255 C11.0638759,11.0879255 10.9387034,11.0972422 10.8141,11.1156894 C10.4402897,11.1710311 10.0562379,11.256 9.64601379,11.3750683 C9.66497931,11.375441 9.68375517,11.3758137 9.70272069,11.3763727 C10.0048414,11.3827081 10.253669,11.4695404 10.4859966,11.649354 C11.3557552,12.3231429 12.0648759,13.2181118 12.6535655,14.3856894 C12.6812552,14.4408447 12.7064793,14.4967453 12.7328414,14.5552547 L12.9128241,14.9458137 C12.9128241,14.9458137 12.491031,15.182087 12.4572724,15.2001615 C12.326031,15.2698509 12.1957379,15.3406584 12.0652552,15.4116522 C11.7692034,15.5724596 11.4627207,15.7386708 11.1507379,15.8905342 C10.5419448,16.1866211 10.0594621,16.6502236 9.71694483,17.2686708 C8.83353103,18.8644472 8.65013448,20.5658758 9.17225517,22.3256273 C9.4061,23.1134534 9.80456552,23.6927702 10.3909793,24.096559 C10.450531,24.1369938 10.4873241,24.1841366 10.5068586,24.2096646 L10.7545483,24.4940124 L10.4484448,24.7567453 C10.4169621,24.7845093 10.3887034,24.8076149 10.3583586,24.8273665 C10.1798931,24.9440124 10.0012379,25.0621491 9.82277241,25.1806584 C9.41103103,25.4536398 8.98525517,25.7361242 8.55322069,25.9997888 C7.61803103,26.5705342 6.80592759,26.9338882 5.99723793,27.1433292 C5.82218621,27.1886087 5.63366897,27.2303478 5.43946207,27.2305342 C5.36701379,27.2305342 5.29684138,27.2243851 5.23122069,27.2124596 C4.43011724,27.0674907 3.61877241,26.9109689 2.83416897,26.7594783 C2.39928966,26.6756273 1.9646,26.5915901 1.52953103,26.5092298 L1.52953103,26.5092298 Z M6.07025517,29.9191677 C5.86542759,29.9191677 5.65718621,29.8990435 5.4333931,29.8580497 C4.20006552,29.6307205 3.19432414,29.3914658 2.26728966,29.105441 C1.74535862,28.9438882 1.38235862,28.660472 1.15761724,28.2386087 C1.15761724,28.2386087 0.356703448,26.738236 0.172548276,26.3918385 C0.0278413793,26.1196025 0.00925517241,25.8259379 0.116410345,25.5188571 C0.228875862,25.1964969 0.325031034,24.8791677 0.438824138,24.4977391 C0.443565517,24.4822733 0.444134483,24.4623354 0.442427586,24.4545093 C0.131772414,22.9200373 -0.0127448276,21.5202857 0.000910344827,20.1749441 C0.0191172414,18.3605963 0.311565517,16.8205342 0.894565517,15.4671801 C1.49596207,14.0709689 2.40820345,12.9373043 3.60644483,12.098236 C3.62427241,12.0857516 3.63053103,12.0790435 3.63053103,12.0790435 C4.11927241,11.3681739 4.73982414,10.7987329 5.47568621,10.3861863 L0.857582759,3.39134161 L1.05463448,3.17873292 C1.07094483,3.15935404 1.10375517,3.1202236 1.15515172,3.0844472 C2.81691034,1.91500621 4.43884138,1.11804969 6.11178966,0.648857143 C7.20647931,0.341962733 8.28713448,0.186186335 9.3236,0.186186335 C10.3477379,0.186186335 11.3620138,0.338049689 12.3379793,0.637304348 C14.2388931,1.22034783 15.8983759,2.33090683 17.2703414,3.93804969 C18.5340138,5.4181118 19.4494793,7.16798758 20.0685138,9.2875528 C20.3440828,10.2317143 20.5466345,11.2451925 20.6873586,12.3861242 C20.7175138,12.6317143 20.6780655,12.819354 20.488031,12.9453168 L21.8273759,12.3723354 L21.8273759,12.9482981 C21.8273759,13.0112795 21.7867897,13.0720248 21.7873586,13.1310932 C21.7888759,13.2658137 21.7693414,13.3928944 21.7638414,13.5199752 C21.7314103,14.2595404 21.5400483,14.8709068 21.1999966,15.3887329 C21.0723586,15.5830807 20.9033759,15.7740745 20.7084103,15.9568696 C20.676169,15.9866832 20.6714276,15.9935776 20.6682034,16.0334534 C20.6304621,16.5022733 20.5087034,16.9487329 20.3088069,17.3597888 C20.1201,17.7481118 19.8557207,18.0801615 19.5238241,18.3471801 C19.4379103,19.0686708 19.2357379,19.6286087 18.8905655,20.1056273 C18.6324448,20.4628323 18.3014966,20.7412174 17.9075828,20.9329565 L17.6543931,21.0546335 C17.4626517,21.1463106 17.2646517,21.2409689 17.0761345,21.3395404 C16.7671862,22.2740124 16.3632207,23.0407826 15.8414793,23.6830807 C15.7464621,23.8000994 15.6455655,23.9055652 15.5478931,24.007677 C15.4769621,24.0818385 15.4058414,24.1558137 15.3390828,24.2333292 C15.2698586,24.3138261 15.2089793,24.4017764 15.1634621,24.4880497 C15.0714793,24.663205 14.9821517,24.8398509 14.8930138,25.0166832 C14.7450828,25.3099752 14.592031,25.6133292 14.4253241,25.9077391 C14.2210655,26.2684845 13.9130655,26.5569317 13.4836862,26.7896646 C11.5207552,27.8536398 9.44023793,28.8121491 7.12322069,29.7203478 C6.78241034,29.8541366 6.4378069,29.9191677 6.07025517,29.9191677 L6.07025517,29.9191677 Z" id="Fill-1"></path>
                        <path d="M11.9030431,14.6263602 C11.8525948,14.6561739 11.8049914,14.6869193 11.7549224,14.7135652 C11.3668879,14.9200248 10.9773362,15.1238758 10.5900603,15.3318261 C9.89440517,15.7054286 9.40111207,16.2726335 9.01857759,16.940087 C8.47825,17.8829441 8.20742241,18.9031304 8.13573276,19.978472 C8.06631897,21.020646 8.1994569,22.0330062 8.60323276,23.004 C8.81469828,23.5119503 9.10411207,23.9714534 9.50769828,24.3564224 C9.52818103,24.3759876 9.54581897,24.3985342 9.56952586,24.4248075 C9.55700862,24.441764 9.54942241,24.4605839 9.53557759,24.470087 C8.57914655,25.1157391 7.61000862,25.7397764 6.52840517,26.1720745 C6.46107759,26.1990932 6.39393966,26.2266708 6.32585345,26.2516398 C5.61407759,26.5126957 5.57121552,26.510646 4.65764655,26.3319503 C3.67352586,26.1394658 2.68807759,25.9536894 1.70206034,25.7703354 C1.59206034,25.7498385 1.53933621,25.7082857 1.50937069,25.5990932 C1.13138793,24.2293416 0.881422414,22.8385342 0.79437069,21.4210807 C0.69062931,19.7291553 0.792284483,18.0575404 1.33412931,16.4338137 C1.71628448,15.2889689 2.29606034,14.2523851 3.19388793,13.4205839 C3.78637069,12.8716398 4.42418103,12.3681615 5.19456034,12.0640621 C5.26018103,12.0381615 5.33509483,12.0197143 5.40507759,12.0215776 C6.84038793,12.0592174 8.27569828,12.0983478 9.71081897,12.144559 C9.80887069,12.1477267 9.92171552,12.1876025 9.99947414,12.2462981 C10.8204914,12.865118 11.4110776,13.6669193 11.8804741,14.5626335 C11.8890086,14.5788447 11.8929914,14.5974783 11.9030431,14.6263602" id="Fill-4"></path>
                    </g>
                </g>
            </g>
            <text id="Cypherpunk-Privacy-h" font-family="Dosis-Medium, Dosis" font-size="16" font-weight="400" fill="#666666">
                <tspan x="169.36" y="568">Cypherpunk Privacy hides your IP address and location, which </tspan>
                <tspan x="162.456" y="588">helps prevent people from tracking and monitoring what you do </tspan>
                <tspan x="311.576" y="608">on the internet.</tspan>
            </text>
            <text id="Cypherpunk-Privacy-u" font-family="Dosis-Medium, Dosis" font-size="16" font-weight="400" fill="#666666">
                <tspan x="165.56" y="1014">Cypherpunk Privacy unblocks websites and content, regardless </tspan>
                <tspan x="309.536" y="1034">of your location.</tspan>
            </text>
            <text id="Cypherpunk-Privacy-e" font-family="Dosis-Medium, Dosis" font-size="16" font-weight="400" fill="#666666">
                <tspan x="660.008" y="568">Cypherpunk Privacy encrypts your online communications, </tspan>
                <tspan x="670.496" y="588">keeping it private from ISP’s, governments and hackers.</tspan>
            </text>
            <text id="Cypherpunk-Privacy-g" font-family="Dosis-Medium, Dosis" font-size="16" font-weight="400" fill="#666666">
                <tspan x="643.552" y="1014">Cypherpunk Privacy gives you private, unrestricted access to the </tspan>
                <tspan x="814.848" y="1034">internet.</tspan>
            </text>
        </g>
    </g>
</svg>