<?xml version="1.0" encoding="UTF-8" standalone="no"?>
<svg width="360px" height="890px" viewBox="0 0 360 890" version="1.1" xmlns="http://www.w3.org/2000/svg" xmlns:xlink="http://www.w3.org/1999/xlink">
    <!-- Generator: Sketch 41 (35326) - http://www.bohemiancoding.com/sketch -->
    <title>Mobile-Top-scrolled-menuopen</title>
    <desc>Created with Sketch.</desc>
    <defs>
        <rect id="path-1" x="1" y="1.42108547e-14" width="360" height="182"></rect>
        <mask id="mask-2" maskContentUnits="userSpaceOnUse" maskUnits="objectBoundingBox" x="-1" y="-1" width="362" height="184">
            <rect x="0" y="-1" width="362" height="184" fill="white"></rect>
            <use xlink:href="#path-1" fill="black"></use>
        </mask>
        <rect id="path-3" x="32" y="117" width="153.778876" height="43" rx="5"></rect>
        <filter x="-50%" y="-50%" width="200%" height="200%" filterUnits="objectBoundingBox" id="filter-4">
            <feOffset dx="0" dy="4" in="SourceAlpha" result="shadowOffsetOuter1"></feOffset>
            <feColorMatrix values="0 0 0 0 0.819607843   0 0 0 0 0.619607843   0 0 0 0 0.0705882353  0 0 0 1 0" type="matrix" in="shadowOffsetOuter1"></feColorMatrix>
        </filter>
        <text id="text-5" font-family="Dosis-Bold, Dosis" font-size="18" font-weight="bold" fill="#FFFFFF">
            <tspan x="65.449" y="146">DOWNLOAD</tspan>
        </text>
        <filter x="-50%" y="-50%" width="200%" height="200%" filterUnits="objectBoundingBox" id="filter-6">
            <feOffset dx="0" dy="2" in="SourceAlpha" result="shadowOffsetOuter1"></feOffset>
            <feColorMatrix values="0 0 0 0 0.819607843   0 0 0 0 0.619607843   0 0 0 0 0.0705882353  0 0 0 1 0" type="matrix" in="shadowOffsetOuter1"></feColorMatrix>
        </filter>
        <rect id="path-7" x="216" y="117" width="113.778876" height="46" rx="5"></rect>
        <mask id="mask-8" maskContentUnits="userSpaceOnUse" maskUnits="objectBoundingBox" x="0" y="0" width="113.778876" height="46" fill="white">
            <use xlink:href="#path-7"></use>
        </mask>
    </defs>
    <g id="_website_mobile" stroke="none" stroke-width="1" fill="none" fill-rule="evenodd">
        <g id="Mobile-Top-scrolled-menuopen">
            <g id="Group" transform="translate(0.000000, 149.000000)">
                <rect id="Rectangle-Copy-3" fill="#F2F2F2" x="0" y="0" width="360" height="686"></rect>
                <text id="Why-Use-Cypherpunk?" font-family="Dosis-Medium, Dosis" font-size="20" font-weight="400" fill="#034698">
                    <tspan x="94.13" y="52">Why Use Cypherpunk?</tspan>
                </text>
                <text id="Easy-to-Use" font-family="Dosis-Medium, Dosis" font-size="18" font-weight="400" fill="#333333">
                    <tspan x="53.463" y="99">Easy to Use</tspan>
                </text>
                <text id="Extremely-Secure" font-family="Dosis-Medium, Dosis" font-size="18" font-weight="400" fill="#333333">
                    <tspan x="31.494" y="301">Extremely Secure</tspan>
                </text>
                <text id="Fast" font-family="Dosis-Medium, Dosis" font-size="18" font-weight="400" fill="#333333">
                    <tspan x="252.14" y="99">Fast</tspan>
                </text>
                <text id="Expert-24/7-Support" font-family="Dosis-Medium, Dosis" font-size="18" font-weight="400" fill="#333333">
                    <tspan x="195.058" y="301">Expert 24/7 Support</tspan>
                </text>
                <text id="We-are-Cypherpunks" font-family="Dosis-Medium, Dosis" font-size="18" font-weight="400" fill="#333333">
                    <tspan x="108.599" y="489">We are Cypherpunks</tspan>
                </text>
                <text id="You-are-just-a-few-c" font-family="Dosis-Medium, Dosis" font-size="14" font-weight="400" fill="#666666">
                    <tspan x="29.426" y="123">You are just a few clicks </tspan>
                    <tspan x="19.213" y="140">away from being protected, </tspan>
                    <tspan x="83.48" y="157">etc.</tspan>
                </text>
                <text id="How-we-are-more-secu" font-family="Dosis-Medium, Dosis" font-size="14" font-weight="400" fill="#666666">
                    <tspan x="24.988" y="325">How we are more secure, </tspan>
                    <tspan x="34.473" y="342">protocols offered, etc.</tspan>
                </text>
                <text id="Why-our-setup-is-bet" font-family="Dosis-Medium, Dosis" font-size="14" font-weight="400" fill="#666666">
                    <tspan x="202.013" y="123">Why our setup is better, </tspan>
                    <tspan x="220.668" y="140">server locations?</tspan>
                </text>
                <text id="Expert-support-via-t" font-family="Dosis-Medium, Dosis" font-size="14" font-weight="400" fill="#666666">
                    <tspan x="196.14" y="325">Expert support via tickets, </tspan>
                    <tspan x="231.441" y="342">live chat, etc.</tspan>
                </text>
                <text id="Our-philosophies---n" font-family="Dosis-Medium, Dosis" font-size="14" font-weight="400" fill="#666666">
                    <tspan x="122.488" y="513">Our philosophies - no </tspan>
                    <tspan x="106.633" y="530">logging, we support privacy </tspan>
                    <tspan x="156.214" y="547">orgs, etc.</tspan>
                </text>
                <rect id="Rectangle-9-Copy-3" fill="#D8D8D8" x="18" y="170" width="150" height="90.5"></rect>
                <rect id="Rectangle-9-Copy-5" fill="#D8D8D8" x="18" y="356" width="150" height="90.5"></rect>
                <rect id="Rectangle-9-Copy-4" fill="#D8D8D8" x="191" y="170" width="150" height="90.5"></rect>
                <rect id="Rectangle-9-Copy-6" fill="#D8D8D8" x="191" y="356" width="150" height="90.5"></rect>
                <rect id="Rectangle-9-Copy-7" fill="#D8D8D8" x="105" y="559" width="150" height="90.5"></rect>
            </g>
            <g id="submenu" transform="translate(0.000000, 60.000000)">
                <g id="Rectangle-8">
                    <use fill="#CAD8EB" fill-rule="evenodd" xlink:href="#path-1"></use>
                    <use stroke="#76A8E7" mask="url(#mask-2)" stroke-width="2" xlink:href="#path-1"></use>
                </g>
                <path d="M0.5,49.5 L362.770617,49.5" id="Line" stroke="#F2F2F2" stroke-linecap="square"></path>
                <path d="M1.5,99.5 L363.770617,99.5" id="Line" stroke="#F2F2F2" stroke-linecap="square"></path>
                <g id="Rectangle-2-Copy-2">
                    <use fill="black" fill-opacity="1" filter="url(#filter-4)" xlink:href="#path-3"></use>
                    <use fill="#FFC933" fill-rule="evenodd" xlink:href="#path-3"></use>
                </g>
                <g id="DOWNLOAD" fill-opacity="1" fill="#FFFFFF">
                    <use filter="url(#filter-6)" xlink:href="#text-5"></use>
                    <use xlink:href="#text-5"></use>
                </g>
                <text id="LOG-IN" font-family="Dosis-Bold, Dosis" font-size="18" font-weight="bold" line-spacing="50" fill="#034698">
                    <tspan x="248.425" y="132">LOG IN</tspan>
                </text>
                <use id="Rectangle-2-Copy-3" stroke="#034698" mask="url(#mask-8)" stroke-width="2" xlink:href="#path-7"></use>
                <text id="PREMIUM-HELP" font-family="Dosis-Bold, Dosis" font-size="18" font-weight="bold" line-spacing="50" fill="#034698">
                    <tspan x="145.909" y="18">PREMIUM</tspan>
                    <tspan x="161.416" y="68">HELP</tspan>
                </text>
            </g>
            <rect id="Rectangle-7-Copy" fill="#FFFFFF" x="0" y="0" width="360" height="60"></rect>
            <g id="Group-2" transform="translate(101.000000, 15.000000)" fill="#034698">
                <g id="Page-1" transform="translate(26.616740, 0.000000)">
                    <path d="M88.4557476,12.7589316 C88.4557476,12.99794 88.3595583,13.2070724 88.1676314,13.3863287 C87.9757044,13.5655851 87.7404245,13.6552132 87.4622433,13.6552132 L87.2436724,13.6552132 C86.9785874,13.6552132 86.750533,13.5655851 86.5586061,13.3863287 C86.3662275,13.2070724 86.2700383,12.99794 86.2700383,12.7589316 L86.2700383,9.07421807 C86.2700383,8.82208227 86.3662275,8.60615987 86.5586061,8.42690354 C86.750533,8.24764721 86.9785874,8.15801904 87.2436724,8.15801904 L87.4622433,8.15801904 C87.7404245,8.15801904 87.9757044,8.24764721 88.1676314,8.42690354 C88.3595583,8.60615987 88.4557476,8.82208227 88.4557476,9.07421807 L88.4557476,12.7589316 L88.4557476,12.7589316 Z M89.4194467,7.19202659 C88.8829544,6.68096497 88.2304028,6.42520783 87.4622433,6.42520783 L87.1249035,6.42520783 C86.3824849,6.45191521 85.7565772,6.72079971 85.2471805,7.23186133 C84.7368806,7.74337561 84.4817306,8.3508554 84.4817306,9.0543007 L84.4817306,20.8634906 C84.4817306,21.3573508 84.8809387,21.7575089 85.3731749,21.7575089 C85.8658627,21.7575089 86.2650707,21.3573508 86.2650707,20.8634906 L86.2700383,15.2286855 C86.5351232,15.321935 86.7929828,15.3748971 87.0449716,15.3880244 C87.2567686,15.4016045 87.3958592,15.4083945 87.4622433,15.4083945 C88.2173066,15.4215218 88.8662455,15.1657647 89.4095117,14.641123 C89.9523263,14.1169341 90.2241852,13.4890842 90.2241852,12.7589316 L90.2241852,9.07421807 L90.2241852,9.0543007 C90.2241852,8.32414802 89.955939,7.70354087 89.4194467,7.19202659 L89.4194467,7.19202659 Z" id="Fill-1"></path>
                    <path d="M99.9081872,10.9893638 C99.4308536,10.9893638 99.0438385,11.3772998 99.0438385,11.8557694 L99.0438385,20.8910128 C99.0438385,21.3694823 99.4308536,21.7574184 99.9081872,21.7574184 C100.385521,21.7574184 100.772536,21.3694823 100.772536,20.8910128 L100.772536,11.8557694 C100.772536,11.3772998 100.385521,10.9893638 99.9081872,10.9893638" id="Fill-3"></path>
                    <path d="M99.9081872,7.85826262 C99.4308536,7.85826262 99.0438385,8.24619867 99.0438385,8.72466822 L99.0438385,9.11939429 C99.0438385,9.59786384 99.4308536,9.98579989 99.9081872,9.98579989 C100.385521,9.98579989 100.772536,9.59786384 100.772536,9.11939429 L100.772536,8.72466822 C100.772536,8.24619867 100.385521,7.85826262 99.9081872,7.85826262" id="Fill-5"></path>
                    <path d="M107.584859,10.9893638 C107.090816,10.9893638 106.690705,11.3904272 106.690705,11.8856454 L106.690705,12.7787584 C106.690705,13.1245964 106.564711,14.1268022 106.313174,15.786734 C106.034992,17.5394625 105.83584,18.4153742 105.717071,18.4153742 C105.597851,18.4153742 105.39915,17.5394625 105.120517,15.786734 C104.86898,14.1268022 104.743437,13.1245964 104.743437,12.7787584 L104.740276,11.8557694 C104.724018,11.3750365 104.332487,10.9893638 103.849283,10.9893638 C103.365627,10.9893638 102.974096,11.3750365 102.957839,11.8557694 L102.955129,12.7787584 C102.955129,13.8144616 103.253181,15.4811834 103.849283,17.7780183 C104.524866,20.3808565 105.147161,21.6818229 105.717071,21.6818229 C106.28653,21.6818229 106.908825,20.3808565 107.584859,17.7780183 C108.180962,15.4811834 108.479013,13.8144616 108.479013,12.7787584 L108.479013,11.8856454 C108.479013,11.3904272 108.078902,10.9893638 107.584859,10.9893638" id="Fill-7"></path>
                    <path d="M123.278072,11.8226341 C122.741579,11.3047825 122.089028,11.0458567 121.320868,11.0458567 C120.565805,11.0458567 119.916866,11.3047825 119.3736,11.8226341 C118.829882,12.3409384 118.558926,12.9647142 118.558926,13.6953196 L118.558926,19.0331748 C118.558926,19.7633275 118.829882,20.387556 119.3736,20.9049549 C119.916866,21.4228065 120.565805,21.6817324 121.320868,21.6817324 C122.089028,21.6817324 122.741579,21.4228065 123.278072,20.9049549 C123.814112,20.387556 124.08281,19.7633275 124.08281,19.0331748 L124.08281,18.8933005 C124.08281,18.4039669 123.686763,18.0069775 123.198591,18.0069775 C122.710419,18.0069775 122.314372,18.4039669 122.314372,18.8933005 L122.314372,19.0331748 C122.314372,19.2853106 122.217732,19.501233 122.026256,19.6800366 C121.834329,19.8597456 121.599049,19.9489211 121.320868,19.9489211 C121.055783,19.9489211 120.827277,19.8597456 120.634899,19.6800366 C120.443423,19.501233 120.347234,19.2853106 120.347234,19.0331748 L120.347234,13.6953196 C120.347234,13.4427311 120.443423,13.23043 120.634899,13.0579637 C120.827277,12.8854974 121.055783,12.7985852 121.320868,12.7985852 C121.599049,12.7985852 121.834329,12.8854974 122.026256,13.0579637 C122.217732,13.23043 122.314372,13.4427311 122.314372,13.6953196 L122.316179,13.8542059 C122.322501,14.3381074 122.714935,14.7283068 123.199043,14.7283068 C123.682699,14.7283068 124.075133,14.3381074 124.081455,13.8542059 L124.08281,13.6953196 C124.08281,12.9647142 123.814112,12.3409384 123.278072,11.8226341" id="Fill-9"></path>
                    <path d="M114.492694,19.033039 C114.492694,19.2856274 114.396505,19.4974758 114.204578,19.6699422 C114.012651,19.8428611 113.784145,19.928868 113.51906,19.928868 C113.253975,19.928868 113.025469,19.8428611 112.833542,19.6699422 C112.641163,19.4974758 112.545426,19.2856274 112.545426,19.033039 L112.545426,17.7782447 C112.545426,17.5261089 112.641163,17.3133551 112.833542,17.1404361 C113.025469,16.9679698 113.253975,16.881963 113.51906,16.881963 C113.784145,16.881963 114.012651,16.9679698 114.204578,17.1404361 C114.396505,17.3133551 114.492694,17.5261089 114.492694,17.7782447 L114.492694,19.033039 Z M115.476263,11.8329096 C114.939771,11.321848 114.287219,11.0656382 113.51906,11.0656382 C112.7509,11.0656382 112.098349,11.321848 111.561857,11.8329096 C111.025364,12.3444239 110.757118,12.9650311 110.757118,13.6951838 L110.757118,13.841848 C110.757118,14.3352556 111.155875,14.7354137 111.648111,14.7354137 C112.140347,14.7354137 112.539103,14.3352556 112.539103,13.841848 L112.545426,13.6951838 C112.545426,13.4561753 112.641163,13.2470429 112.833542,13.0673339 C113.025469,12.8885303 113.253975,12.7989021 113.51906,12.7989021 C113.784145,12.7989021 114.012651,12.8885303 114.204578,13.0673339 C114.396505,13.2470429 114.492694,13.4561753 114.492694,13.6951838 L114.492694,15.3080381 C114.174773,15.1889865 113.850077,15.1292344 113.51906,15.1292344 C112.7509,15.1292344 112.098349,15.3877076 111.561857,15.9060119 C111.025364,16.4234108 110.757118,17.048092 110.757118,17.7782447 L110.757118,19.033039 C110.757118,19.7631917 111.025364,20.3874202 111.561857,20.9052718 C112.098349,21.4226707 112.7509,21.6820492 113.51906,21.6820492 C114.274123,21.6820492 114.923062,21.4226707 115.466328,20.9052718 C116.009143,20.3874202 116.281002,19.7699817 116.281002,19.0529563 L116.281002,13.6951838 C116.281002,12.9650311 116.012756,12.3444239 115.476263,11.8329096 L115.476263,11.8329096 Z" id="Fill-11"></path>
                    <path d="M130.984594,11.0339062 C130.498228,11.0339062 130.103536,11.4295376 130.103536,11.9170605 L130.103084,19.8618279 L129.103709,19.8618279 C128.836818,19.8618279 128.606506,19.7721997 128.413224,19.5938488 C128.219942,19.4150451 128.123301,19.200028 128.123301,18.9483449 L128.12285,11.9170605 C128.12285,11.4295376 127.728609,11.0339062 127.241792,11.0339062 C126.755427,11.0339062 126.360735,11.4295376 126.360735,11.9170605 L126.360735,18.9678096 C126.360735,19.6961516 126.633045,20.3176641 127.177214,20.8341577 C127.721384,21.3501987 128.371677,21.6014291 129.128095,21.5883018 L130.103084,21.5883018 L130.103084,23.711765 C130.103084,23.9498682 130.005992,24.1585479 129.810452,24.3368989 C129.614913,24.5157025 129.382794,24.604878 129.113645,24.604878 C128.844044,24.604878 128.611473,24.5157025 128.415934,24.3368989 C128.220845,24.1585479 128.123301,23.9498682 128.123301,23.711765 L128.12285,23.5533314 C128.12285,23.0658085 127.728609,22.6701771 127.241792,22.6701771 C126.755427,22.6701771 126.360735,23.0658085 126.360735,23.5533314 L126.360735,23.711765 C126.360735,24.4396544 126.628529,25.0620722 127.163215,25.5776605 C127.697901,26.0941541 128.347743,26.3517219 129.113645,26.3517219 C129.865547,26.3517219 130.512679,26.0941541 131.054139,25.5776605 C131.595147,25.0620722 131.865651,24.4396544 131.865651,23.711765 L131.865651,11.9170605 C131.865651,11.4295376 131.471411,11.0339062 130.984594,11.0339062" id="Fill-13"></path>
                    <path d="M18.1197111,12.4018222 C17.7412763,12.4018222 17.4084524,12.5267584 17.1302712,12.7743675 C16.8403486,13.032388 16.6877102,13.36872 16.6877102,13.748508 L16.6877102,19.146568 C16.6877102,19.5268087 16.8408002,19.8635933 17.1302712,20.1211611 C17.4070976,20.3678649 17.7403731,20.4928011 18.1197111,20.4928011 C18.5125969,20.4928011 18.8526463,20.3674123 19.1294727,20.1202558 C19.4180405,19.8644987 19.5711305,19.527714 19.5711305,19.146568 L19.5711305,13.748508 C19.5711305,13.3682673 19.4180405,13.0314827 19.1285695,12.7743675 C18.8512915,12.5272111 18.5116937,12.4018222 18.1197111,12.4018222 M16.2582454,25.8985565 C16.0216108,25.8985565 15.8287806,25.7057201 15.8287806,25.4680697 L15.8287806,13.7285906 C15.8287806,13.1374069 16.0482548,12.6412833 16.5002992,12.2112491 C16.9595691,11.773067 17.4919971,11.5607659 18.1296462,11.5607659 C18.7799399,11.5607659 19.3150774,11.7726143 19.7662186,12.2085331 C20.2132955,12.6394726 20.4300601,13.1432915 20.4300601,13.748508 L20.4300601,19.146568 C20.4300601,19.7508791 20.2123923,20.254698 19.7635091,20.6860902 C19.3087551,21.122009 18.7691016,21.3338574 18.1151952,21.3338574 C17.839272,21.3338574 17.5638003,21.2836113 17.2973606,21.1835718 L16.6877102,20.9563327 L16.6877102,25.4680697 C16.6877102,25.7057201 16.4948801,25.8985565 16.2582454,25.8985565" id="Fill-16"></path>
                    <path d="M47.3952105,12.4018222 C47.0163241,12.4018222 46.6835002,12.5272111 46.4057706,12.7743675 C46.1167512,13.0314827 45.9636612,13.3682673 45.9636612,13.748508 L45.9636612,19.146568 C45.9636612,19.527714 46.1167512,19.8644987 46.4066738,20.1211611 C46.6821454,20.3674123 47.0154209,20.4928011 47.3952105,20.4928011 C47.7876447,20.4928011 48.1276941,20.3678649 48.4049721,20.1207085 C48.6939915,19.8635933 48.8470815,19.5268087 48.8470815,19.146568 L48.8470815,13.748508 C48.8470815,13.36872 48.6944431,13.032388 48.4049721,12.7743675 C48.1263393,12.5267584 47.7867415,12.4018222 47.3952105,12.4018222 M45.5337448,25.8985565 C45.2971102,25.8985565 45.1047316,25.7057201 45.1047316,25.4680697 L45.1047316,13.7285906 C45.1047316,13.1378595 45.3242057,12.6412833 45.7757986,12.2107965 C46.2350685,11.773067 46.767948,11.5607659 47.4055971,11.5607659 C48.0558908,11.5607659 48.5910283,11.7726143 49.0421696,12.2085331 C49.4892465,12.6394726 49.7060111,13.1432915 49.7060111,13.748508 L49.7060111,19.146568 C49.7060111,19.7508791 49.4883433,20.254698 49.03946,20.6860902 C48.584706,21.122009 48.0450526,21.3338574 47.3911462,21.3338574 C47.1152229,21.3338574 46.8397513,21.2836113 46.5733115,21.1835718 L45.9636612,20.9563327 L45.9632096,25.4680697 C45.9632096,25.7057201 45.7703795,25.8985565 45.5337448,25.8985565" id="Fill-18"></path>
                    <path d="M64.2139278,21.304434 C63.9714225,21.304434 63.7740764,21.1066183 63.7740764,20.8635358 L63.7754312,13.7679727 C63.7754312,13.3922587 63.6245992,13.0536634 63.3396441,12.7902109 C63.0619145,12.5326431 62.7268326,12.4018222 62.3438819,12.4018222 C61.9473833,12.4018222 61.605076,12.5326431 61.3264432,12.7906636 C61.0428429,13.0532107 60.8924625,13.391806 60.8924625,13.7679727 L60.8920109,20.8635358 C60.8920109,21.1011863 60.6991807,21.2944753 60.4620945,21.2944753 C60.2254598,21.2944753 60.0330813,21.1011863 60.0330813,20.8635358 L60.0330813,14.2011755 L60.0520482,13.748508 C60.0520482,13.1451022 60.2688128,12.6453573 60.7140833,12.2207552 C61.1656761,11.7898157 61.7021684,11.581136 62.3533653,11.581136 C62.9928208,11.581136 63.5266035,11.790721 63.9849702,12.2230185 C64.3986293,12.6123126 64.6172002,13.0649801 64.6497149,13.6032017 L64.6348123,13.7693307 L64.6542308,20.8648938 C64.6542308,21.1066183 64.4564332,21.304434 64.2139278,21.304434" id="Fill-20"></path>
                    <path d="M54.6519913,21.2743769 C54.0021492,21.2743769 53.4665601,21.0625285 53.0145157,20.6270623 C52.568342,20.1961229 52.3511258,19.6923039 52.3511258,19.0870875 L52.3511258,11.9168342 C52.3511258,11.6796364 52.543956,11.4868001 52.7805906,11.4868001 C53.0176768,11.4868001 53.210507,11.6796364 53.210507,11.9168342 L53.2109586,19.0870875 C53.2109586,19.4637068 53.361339,19.8013968 53.6458425,20.0648493 C53.9253785,20.3219644 54.2667826,20.4527853 54.6619264,20.4527853 C55.0444255,20.4527853 55.3790558,20.3219644 55.6581402,20.0648493 C55.9430953,19.8013968 56.0934757,19.4637068 56.0934757,19.0870875 L56.0934757,11.9168342 C56.0934757,11.6796364 56.2863058,11.4868001 56.5233921,11.4868001 C56.7600267,11.4868001 56.9528569,11.6796364 56.9528569,11.9168342 L56.9533084,19.1070049 C56.9533084,19.709958 56.7338343,20.2087976 56.2831447,20.632947 C55.8247779,21.0643391 55.2909952,21.2743769 54.6519913,21.2743769" id="Fill-22"></path>
                    <path d="M33.5052082,12.4221469 C33.1096129,12.4221469 32.7677571,12.5525152 32.4895759,12.8096303 C32.2046209,13.0726301 32.0537889,13.4112254 32.0537889,13.7878448 L32.0537889,15.7691705 L34.9367575,15.7691705 L34.9367575,13.7878448 C34.9367575,13.4116781 34.7863771,13.0730828 34.501422,12.8096303 C34.2223377,12.5525152 33.8877074,12.4221469 33.5052082,12.4221469 M33.5146917,21.2745127 C32.8648496,21.2745127 32.3292605,21.0626643 31.8776676,20.6271981 C31.4314939,20.1962587 31.2147294,19.6924397 31.2147294,19.0872233 L31.2147294,13.7679274 C31.2147294,13.1645216 31.4310423,12.6647767 31.8763129,12.2406273 C32.3279057,11.8096878 32.8639464,11.6010081 33.5146917,11.6010081 C34.1541472,11.6010081 34.6874783,11.8105931 35.1467482,12.2428906 C35.5969863,12.6665874 35.8160088,13.1658796 35.8160088,13.7679274 L35.8160088,16.6102267 L32.0537889,16.6102267 L32.0537889,19.0872233 C32.0537889,19.4638426 32.2046209,19.8019853 32.4900275,20.0649851 C32.7677571,20.3221002 33.1096129,20.4524685 33.5052082,20.4524685 C33.8877074,20.4524685 34.2223377,20.3221002 34.5009705,20.0649851 C34.7863771,19.8015326 34.9367575,19.46339 34.9367575,19.0872233 L34.9367575,18.7300686 C34.9367575,18.4865335 35.133652,18.2891705 35.376609,18.2891705 C35.6191143,18.2891705 35.8160088,18.4865335 35.8160088,18.7300686 L35.8160088,19.0872233 C35.8160088,19.6910817 35.5965347,20.194448 35.1444902,20.6253875 C34.6856719,21.0622116 34.1527924,21.2745127 33.5146917,21.2745127" id="Fill-24"></path>
                    <path d="M27.6838604,21.2743769 C27.4413551,21.2743769 27.244009,21.0765612 27.244009,20.8339314 L27.244009,13.7080395 C27.244009,13.3327782 27.0985961,12.9987095 26.8235761,12.7415944 C26.550814,12.4899113 26.2143773,12.3627117 25.8219431,12.3627117 C25.4448631,12.3627117 25.1142972,12.4881006 24.8379223,12.7361624 C24.5520641,12.9928249 24.4007805,13.3291568 24.4007805,13.7080395 L24.4003289,20.8339314 C24.4003289,21.0765612 24.2034344,21.2743769 23.9613806,21.2743769 C23.7188753,21.2743769 23.5215292,21.0765612 23.5215292,20.8339314 L23.5215292,7.3964965 C23.5215292,7.15386671 23.7188753,6.95605101 23.9613806,6.95605101 C24.2034344,6.95605101 24.4003289,7.15386671 24.4003289,7.3964965 L24.4007805,11.9005382 L25.011334,11.6710357 C25.2755158,11.5714489 25.5482779,11.5212028 25.8219431,11.5212028 C26.4722368,11.5212028 27.0082775,11.7330512 27.4598704,12.16897 C27.9060441,12.5999095 28.1232602,13.0973911 28.1232602,13.6885748 L28.1232602,20.8339314 C28.1232602,21.0765612 27.9259142,21.2743769 27.6838604,21.2743769" id="Fill-26"></path>
                    <path d="M39.3467874,21.2743769 C39.1047337,21.2743769 38.9073876,21.0765612 38.9073876,20.8339314 L38.9073876,13.7483269 C38.9073876,13.1449211 39.1264101,12.6456289 39.5766482,12.2228374 C40.0350149,11.7909926 40.5687977,11.5809549 41.2078015,11.5809549 C41.830548,11.5809549 42.3489766,11.7728859 42.7928924,12.1671593 C42.9518531,12.3360043 42.9491435,12.6039835 42.7838605,12.7687544 C42.703477,12.8493293 42.5959979,12.893238 42.4817449,12.893238 C42.3679435,12.893238 42.2604644,12.8493293 42.1791777,12.7692071 L41.8111296,12.4057151 L41.7415843,12.4989646 C41.5763013,12.4346858 41.3979221,12.4016411 41.2078015,12.4016411 C40.8262056,12.4016411 40.4929301,12.5329147 40.2161036,12.7927458 C39.9352129,13.0557456 39.7861873,13.3929829 39.7861873,13.7677916 L39.7866389,20.8339314 C39.7866389,21.0765612 39.5892928,21.2743769 39.3467874,21.2743769" id="Fill-28"></path>
                    <path d="M2.30118164,21.2743769 C1.65088795,21.2743769 1.11529884,21.0625285 0.663705997,20.6270623 C0.217080678,20.1961229 -0.000135477852,19.6923039 -0.000135477852,19.0870875 L-0.000135477852,9.12342303 C-0.000135477852,8.5317866 0.217080678,8.03475768 0.663705997,7.60427088 C1.11529884,7.16789941 1.65088795,6.95605101 2.30118164,6.95605101 C2.93837913,6.95605101 3.47125869,7.16880474 3.92962542,7.60608155 C4.38166985,8.03702102 4.60159557,8.53948195 4.60159557,9.1433404 L4.60159557,10.5923291 C4.60159557,10.8299795 4.40876542,11.0232685 4.17213077,11.0232685 C3.93504453,11.0232685 3.74221439,10.8299795 3.74221439,10.5923291 L3.74221439,9.1433404 C3.74221439,8.7644577 3.5900276,8.42767307 3.30100818,8.17010526 C3.022827,7.92294881 2.68955148,7.79801257 2.31066509,7.79801257 C1.91777931,7.79801257 1.5781815,7.92294881 1.3009035,8.1696526 C1.01188408,8.42722041 0.859245697,8.76355236 0.859245697,9.1433404 L0.859245697,19.0870875 C0.859245697,19.4637068 1.01007771,19.8018495 1.29503279,20.0648493 C1.57321398,20.3219644 1.91506976,20.4527853 2.31066509,20.4527853 C2.69271263,20.4527853 3.02734292,20.3219644 3.3064273,20.0648493 C3.59138238,19.8013968 3.74221439,19.4632542 3.74221439,19.0870875 L3.74221439,17.6186341 C3.74221439,17.3809837 3.93504453,17.1886 4.17213077,17.1886 C4.40876542,17.1886 4.60159557,17.3809837 4.60159557,17.6186341 L4.60159557,19.0870875 C4.60159557,19.6909459 4.38166985,20.1943122 3.92962542,20.6252517 C3.47125869,21.0620758 2.93837913,21.2743769 2.30118164,21.2743769" id="Fill-30"></path>
                    <path d="M9.98842076,25.8987376 C9.33767548,25.8987376 8.80163478,25.6868892 8.35139671,25.251423 C7.9043198,24.8204836 7.68710365,24.3171173 7.68710365,23.7119008 L7.68710365,23.5534672 C7.68710365,23.3162694 7.8794822,23.1229804 8.11611684,23.1229804 C8.35320309,23.1229804 8.54603323,23.3162694 8.54603323,23.5534672 L8.54648482,23.7132588 C8.54648482,24.0767509 8.69867161,24.4081035 8.98633625,24.671556 C9.26632381,24.9273131 9.60366366,25.0576813 9.98842076,25.0576813 C10.3727263,25.0576813 10.7096145,24.9273131 10.9896021,24.671556 C11.2772667,24.4081035 11.4294535,24.0767509 11.4294535,23.7119008 L11.4294535,21.1357701 L9.94777741,21.1362227 C9.32864362,21.1362227 8.81021504,20.9293537 8.36223494,20.5052042 C7.90838414,20.0742648 7.68710365,19.5713512 7.68710365,18.9679454 L7.68710365,11.9167437 C7.68710365,11.6795459 7.8794822,11.4867095 8.11611684,11.4867095 C8.35320309,11.4867095 8.54603323,11.6795459 8.54603323,11.9167437 L8.54648482,18.9484807 C8.54648482,19.3255527 8.69731683,19.6636953 8.98227191,19.9266952 C9.2604531,20.1838103 9.59553499,20.3141786 9.97893731,20.3141786 L11.4294535,20.3141786 L11.4294535,11.9167437 C11.4294535,11.6795459 11.6222837,11.4867095 11.8593699,11.4867095 C12.0960045,11.4867095 12.2888347,11.6795459 12.2888347,11.9167437 L12.2888347,23.7119008 C12.2888347,24.3157593 12.068909,24.8186729 11.6173161,25.2491597 C11.1598526,25.6864365 10.626973,25.8987376 9.98842076,25.8987376" id="Fill-33"></path>
                    <path d="M72.128273,21.2779077 C72.0126652,21.2779077 71.9056377,21.2145342 71.8491886,21.112684 L69.6458671,17.0925439 L68.5539156,19.2160072 L68.5539156,20.8637169 C68.5539156,21.0900507 68.3701174,21.2742863 68.1438693,21.2742863 C67.9180729,21.2742863 67.7342746,21.0900507 67.7342746,20.8637169 L67.7523384,7.35792923 C67.7523384,7.13612215 67.9320723,6.95596048 68.1529012,6.95596048 C68.3741817,6.95596048 68.5539156,7.13612215 68.5539156,7.35747656 L68.5539156,15.8128529 L68.5539156,17.5710135 L71.7828045,11.6012344 C71.836544,11.5057216 71.9449263,11.4418955 72.0614372,11.4418955 C72.1120156,11.4418955 72.1612393,11.4545701 72.2077533,11.4785615 C72.2840725,11.5179436 72.3405216,11.5853911 72.3662624,11.6682292 C72.3924548,11.750162 72.3847777,11.8379795 72.3450375,11.9140277 L70.0604294,16.3293465 L72.4123249,20.8152815 C72.4570326,20.9026463 72.4574842,21.0099285 72.4114217,21.1013673 L72.4041962,21.1144947 C72.3743911,21.1692675 72.3283286,21.2136289 72.2723311,21.2425996 C72.2271718,21.2661383 72.1783998,21.2779077 72.128273,21.2779077" id="Fill-35"></path>
                    <path d="M97.0594944,11.8430041 C97.0594944,11.8430041 97.0585912,11.8416461 97.0581396,11.8411935 C97.0572364,11.8407408 97.0572364,11.8398355 97.0563332,11.8393828 L97.0558816,11.8398355 C96.5284212,11.3654399 95.8957396,11.1282421 95.1587401,11.1282421 C94.4063865,11.1282421 93.7597055,11.3830939 93.2182457,11.8923449 C92.6767859,12.4020485 92.4067334,13.020845 92.4067334,13.7482817 L92.4067334,20.8338861 C92.4067334,21.3272937 92.8054898,21.7274518 93.297726,21.7274518 C93.7899622,21.7274518 94.1887187,21.3272937 94.1887187,20.8338861 L94.1882671,13.7677464 C94.1882671,13.5165159 94.2844564,13.3019515 94.4754802,13.1231478 C94.6669555,12.9438915 94.8941067,12.854716 95.1587401,12.854716 C95.4093742,12.854716 95.6270419,12.9343855 95.8117434,13.0932718 L95.8135497,13.0919138 C96.1576635,13.4314144 96.7104131,13.4314144 97.0536237,13.0891978 C97.3972858,12.7460758 97.3995438,12.1892948 97.0594944,11.8430041" id="Fill-37"></path>
                    <rect id="Rectangle-2" x="77.9198357" y="0" width="0.73509279" height="28"></rect>
                </g>
                <g id="Page-1" transform="translate(0.000000, 3.500000)">
                    <path d="M7.85346963,6.96133043 C7.9380901,6.96133043 8.02244487,6.96511304 8.10454133,6.97267826 C8.59632304,7.01754783 9.07203085,7.2075913 9.55876456,7.55376522 C10.1438015,7.96985217 10.6596276,8.52406957 11.1822287,9.29806957 C11.2297862,9.36876522 11.2758824,9.44037391 11.3214473,9.51250435 L11.7727122,9.3158087 C12.399063,9.04254783 13.0255467,8.76915652 13.6524288,8.49706957 C13.6339638,8.39115652 13.6162958,8.28550435 13.5984949,8.17972174 C13.5502732,7.89133043 13.5003246,7.59315652 13.4349662,7.30737391 C13.1180048,5.92398261 12.5977949,4.75150435 11.8443141,3.72263478 C11.1191287,2.73237391 10.2745182,2.01667826 9.26199515,1.53472174 C8.40423327,1.1265913 7.49001346,0.919591304 6.5444429,0.919591304 C5.99832874,0.919591304 5.42750594,0.98846087 4.84791556,1.12424348 C3.78544389,1.37298261 2.74303138,1.83576522 1.66661129,2.53737391 L1.72280352,2.62241739 C2.79085456,4.23915652 3.85890561,5.85589565 4.92961349,7.4708087 C5.11359989,7.47785217 5.29360103,7.48150435 5.46563164,7.48150435 C5.51239209,7.48150435 5.55915253,7.48124348 5.60564729,7.48072174 C5.65347047,7.4802 5.71245239,7.46911304 5.78591411,7.44667826 C5.92074891,7.40533043 6.05518519,7.36176522 6.18962146,7.31806957 C6.42036831,7.2432 6.65908569,7.16572174 6.90032707,7.10037391 C7.24571671,7.00685217 7.55736444,6.96133043 7.85346963,6.96133043 L7.85346963,6.96133043 Z M11.6983205,10.2186783 L13.0551705,9.62024348 C12.7386076,9.75824348 11.6960622,10.2137217 11.6960622,10.2137217 L11.6983205,10.2186783 Z M11.5782312,12.6792 L11.5820836,12.7122 L11.6079879,12.9880696 C11.6968593,12.9456783 11.785465,12.9030261 11.8742036,12.8603739 C12.1912978,12.7077652 12.519418,12.5500696 12.850992,12.4077652 C13.1800421,12.2667652 13.4041468,12.0439826 13.5397787,11.718287 C13.5397787,11.718287 11.5858032,12.6378522 11.5729175,12.6438522 C11.5746445,12.6555913 11.5765043,12.6675913 11.5782312,12.6792 L11.5782312,12.6792 Z M11.5932424,13.8818087 C11.5791611,13.9543304 11.5665411,14.027113 11.5537883,14.0998957 C11.5442236,14.1546783 11.5347918,14.2094609 11.5246958,14.264113 C11.730734,14.1644609 11.9342482,14.0662435 12.1386923,13.9697217 C12.4131443,13.8402 12.6016473,13.6441565 12.7267846,13.3463739 C12.3484501,13.5238957 11.9703813,13.7018087 11.5932424,13.8818087 L11.5932424,13.8818087 Z M9.86337165,11.5278522 C9.71498695,11.5278522 9.56102288,11.5993304 9.39311038,11.7464609 C9.23130861,11.8879826 9.09806792,12.0718957 8.98581628,12.3088957 C8.68625719,12.9416348 8.59526031,13.6266783 8.71561531,14.3447217 C8.78735008,14.7735913 8.92470889,15.0897652 9.14761805,15.3399391 C9.24565557,15.4498957 9.40599607,15.5809826 9.61256564,15.5809826 C9.75019013,15.5809826 9.8965822,15.5220261 10.0359336,15.4105043 C10.2144735,15.2676783 10.3566146,15.0854609 10.4703275,14.8538087 C10.8321896,14.1169826 10.9136218,13.3332 10.712366,12.524113 C10.6755687,12.3754174 10.6852662,12.1733739 10.9405888,12.0544174 C11.3829532,11.8482 11.8247863,11.6404174 12.2666193,11.4325043 C12.7344895,11.2124609 13.2026253,10.992287 13.6712924,10.7738087 C13.93339,10.6518522 14.120299,10.4682 14.243178,10.2125478 C14.2891414,10.1165478 14.32647,10.0170261 14.3548982,9.9128087 L13.3940508,10.3364609 C12.4390485,10.7578957 11.4840461,11.1792 10.5283796,11.5990696 C10.4773682,11.6215043 10.399257,11.6479826 10.3156992,11.6479826 C10.2565845,11.6479826 10.2021192,11.6349391 10.1536318,11.6092435 C10.0506791,11.5544609 9.9558298,11.5278522 9.86337165,11.5278522 L9.86337165,11.5278522 Z M1.07134553,18.5564609 C1.21601065,18.8267217 1.3601444,19.0973739 1.50228552,19.3689391 C1.56937082,19.4967652 1.67272203,19.5742435 1.84767516,19.6275913 C2.54921466,19.8416348 3.28741859,20.0127652 4.04156359,20.1366783 C4.14704027,20.1540261 4.22594852,20.1618522 4.29808182,20.1618522 C4.39332965,20.1618522 4.47436338,20.1480261 4.5528731,20.1184174 C6.02688981,19.5627652 7.52348969,18.8815043 9.00122598,18.0934174 C9.22267387,17.9753739 9.38049037,17.8231565 9.48384158,17.6280261 C9.58958394,17.4283304 9.68921557,17.2175478 9.78552614,17.0139391 C9.83520911,16.9085478 9.88502493,16.803287 9.93603632,16.6984174 L9.94201422,16.6861565 C9.96592581,16.6359391 10.0021917,16.5601565 10.0729966,16.4987217 C10.2139421,16.3762435 10.3443931,16.2409826 10.464881,16.0917652 C10.4481429,16.1035043 10.4312719,16.115113 10.4141353,16.1264609 C10.1645249,16.2917217 9.8880803,16.379113 9.61482396,16.379113 C9.31460065,16.379113 9.0211523,16.2751565 8.76622818,16.0783304 C8.47968762,15.8572435 8.26501467,15.5588087 8.10998786,15.1656783 C7.81481256,14.417113 7.77150602,13.5940696 7.98099812,12.7192435 C8.1296485,12.0988957 8.38390842,11.6156348 8.75852333,11.2415478 C9.09806792,10.9025478 9.46604073,10.7307652 9.85194723,10.7307652 C10.0037858,10.7307652 10.1598754,10.7575043 10.316762,10.8104609 C10.5258556,10.7098957 10.7348163,10.6081565 10.9465667,10.5049826 C10.6292068,9.86037391 10.2114181,9.2655913 9.70356252,8.73576522 C9.41662344,8.43654783 9.09368413,8.19054783 8.74377785,8.0048087 C8.43531834,7.84111304 8.13828324,7.76154783 7.83513741,7.76154783 C7.74958706,7.76154783 7.66191123,7.76806957 7.57463392,7.78098261 C7.31280201,7.81972174 7.04379661,7.8792 6.756459,7.96254783 C6.76974322,7.9628087 6.78289459,7.96306957 6.79617881,7.96346087 C7.00779638,7.96789565 7.18208531,8.02867826 7.34481697,8.15454783 C7.95403116,8.6262 8.45072803,9.25267826 8.86307012,10.0699826 C8.88246508,10.1085913 8.90013309,10.1477217 8.91859815,10.1886783 L9.04466537,10.4620696 C9.04466537,10.4620696 8.74922438,10.6274609 8.72557847,10.640113 C8.63365169,10.6888957 8.54238912,10.7384609 8.45099371,10.7881565 C8.24362708,10.9007217 8.02895414,11.0170696 7.81042877,11.1233739 C7.38400541,11.3306348 7.04605493,11.6551565 6.80614197,12.0880696 C6.18736315,13.205113 6.05890477,14.396113 6.42461926,15.6279391 C6.58841366,16.1794174 6.86751505,16.5849391 7.27826304,16.8675913 C7.31997548,16.8958957 7.34574686,16.9288957 7.35942961,16.9467652 L7.53292148,17.1458087 L7.31851422,17.3297217 C7.29646242,17.3491565 7.27666894,17.3653304 7.25541419,17.3791565 C7.13040971,17.4608087 7.00527238,17.5435043 6.8802679,17.6264609 C6.59186755,17.8175478 6.29363688,18.015287 5.99102242,18.1998522 C5.33597768,18.5993739 4.76714752,18.8537217 4.20070851,19.0003304 C4.07809518,19.0320261 3.94605007,19.0612435 3.81001969,19.0613739 C3.75927398,19.0613739 3.71012238,19.0570696 3.66415899,19.0487217 C3.10303366,18.9472435 2.53473486,18.8376783 1.98516681,18.7316348 C1.68055971,18.6729391 1.37608546,18.614113 1.07134553,18.5564609 L1.07134553,18.5564609 Z M4.25185274,20.9434174 C4.1083832,20.9434174 3.9625225,20.9293304 3.80576874,20.9006348 C2.94189611,20.7415043 2.23743409,20.5740261 1.58810156,20.3738087 C1.22251991,20.2607217 0.968260003,20.0623304 0.810842033,19.7670261 C0.810842033,19.7670261 0.249849552,18.7167652 0.120859806,18.474287 C0.0195012304,18.2837217 0.00648269786,18.0781565 0.0815385235,17.8632 C0.16031393,17.6375478 0.22766491,17.4154174 0.307370211,17.1484174 C0.310691265,17.1375913 0.311089792,17.1236348 0.309894212,17.1181565 C0.0922987392,16.0440261 -0.00892699377,15.0642 0.000637642412,14.1224609 C0.0133904907,12.8524174 0.218233116,11.7743739 0.626589944,10.8270261 C1.04783246,9.84967826 1.6868033,9.05611304 2.52610012,8.46876522 C2.53858729,8.46002609 2.54297108,8.45533043 2.54297108,8.45533043 C2.88530535,7.95772174 3.31996492,7.55911304 3.83539254,7.27033043 L0.600685721,2.37393913 L0.738708735,2.22511304 C0.750133161,2.21154783 0.773114856,2.18415652 0.809115084,2.15911304 C1.97307817,1.34050435 3.1091444,0.782634783 4.28094518,0.4542 C5.04771018,0.239373913 5.80464486,0.130330435 6.53062731,0.130330435 C7.24797503,0.130330435 7.95841495,0.236634783 8.64202075,0.446113043 C9.97349781,0.854243478 11.1358668,1.63163478 12.096847,2.75663478 C12.9819744,3.79267826 13.6232036,5.0175913 14.0568004,6.50128696 C14.2498201,7.1622 14.3916955,7.87163478 14.4902644,8.67028696 C14.5113863,8.8422 14.4837551,8.97354783 14.3506473,9.06172174 L15.2887787,8.66063478 L15.2887787,9.0638087 C15.2887787,9.10789565 15.2603505,9.15041739 15.260749,9.19176522 C15.2618117,9.28606957 15.248129,9.37502609 15.2442766,9.46398261 C15.2215605,9.98167826 15.0875228,10.4096348 14.8493368,10.772113 C14.759934,10.9081565 14.6415716,11.0418522 14.5050099,11.1698087 C14.4824267,11.1906783 14.4791057,11.1955043 14.4768473,11.2234174 C14.4504118,11.5515913 14.3651271,11.864113 14.2251114,12.1518522 C14.0929335,12.4236783 13.9077515,12.656113 13.6752777,12.8430261 C13.6151002,13.3480696 13.4734904,13.7400261 13.2317177,14.0739391 C13.0509195,14.3239826 12.8191099,14.5188522 12.5431967,14.6530696 L12.3658524,14.7382435 C12.231549,14.8024174 12.0928618,14.8686783 11.9608167,14.9376783 C11.7444168,15.5918087 11.461463,16.1285478 11.0960141,16.5781565 C11.0294602,16.6600696 10.9587882,16.7338957 10.8903745,16.8053739 C10.8406915,16.857287 10.7908757,16.9090696 10.7441152,16.9633304 C10.6956278,17.0196783 10.6529855,17.0812435 10.6211034,17.1416348 C10.5566749,17.2642435 10.4941063,17.3878957 10.4316705,17.5116783 C10.3280536,17.7169826 10.2208499,17.9293304 10.1040817,18.1354174 C9.96101065,18.3879391 9.74527497,18.5898522 9.44452029,18.7527652 C8.06960384,19.4975478 6.61232525,20.1685043 4.98939247,20.8042435 C4.75067509,20.8978957 4.50930087,20.9434174 4.25185274,20.9434174 L4.25185274,20.9434174 Z" id="Fill-1"></path>
                    <path d="M8.3373738,10.2384522 C8.30203779,10.2593217 8.2686944,10.2808435 8.23362407,10.2994957 C7.96182899,10.4440174 7.68897118,10.586713 7.41770747,10.7322783 C6.93044239,10.9938 6.58491991,11.3908435 6.31697725,11.8580609 C5.93850991,12.5180609 5.74881129,13.2321913 5.69859695,13.9849304 C5.64997672,14.7144522 5.74323192,15.4231043 6.0260529,16.1028 C6.17417192,16.4583652 6.37688907,16.7800174 6.65957721,17.0494957 C6.67392416,17.0631913 6.68627848,17.0789739 6.70288375,17.0973652 C6.69411617,17.1092348 6.68880248,17.1224087 6.67910501,17.1290609 C6.00918195,17.5810174 5.33035846,18.0178435 4.57275957,18.3204522 C4.5256006,18.3393652 4.47857447,18.3586696 4.43088413,18.3761478 C3.93232747,18.558887 3.90230514,18.5574522 3.26240441,18.4323652 C2.5730864,18.2976261 1.88283849,18.1675826 1.19219205,18.0392348 C1.11514359,18.024887 1.07821347,17.9958 1.0572244,17.9193652 C0.792469961,16.9605391 0.617383981,15.9869739 0.556409426,14.9947565 C0.483744759,13.8104087 0.554948162,12.6402783 0.934478239,11.5036696 C1.20215521,10.7022783 1.60825372,9.97666957 2.23712855,9.3944087 C2.65212749,9.01014783 3.0988757,8.65771304 3.63848059,8.44484348 C3.68444398,8.42671304 3.73691664,8.4138 3.7859354,8.41510435 C4.79128494,8.44145217 5.79663448,8.46884348 6.80185117,8.5011913 C6.87053057,8.5034087 6.94957166,8.53132174 7.00403695,8.5724087 C7.5791107,9.00558261 7.99278122,9.56684348 8.32156559,10.1938435 C8.32754348,10.2051913 8.33033317,10.2182348 8.3373738,10.2384522" id="Fill-4"></path>
                </g>
            </g>
            <path d="M315,36 C315,35.4477153 315.447469,35 316.000695,35 L337.999305,35 C338.551974,35 339,35.4438648 339,36 C339,36.5522847 338.552531,37 337.999305,37 L316.000695,37 C315.448026,37 315,36.5561352 315,36 Z M315,30 C315,29.4477153 315.447469,29 316.000695,29 L337.999305,29 C338.551974,29 339,29.4438648 339,30 C339,30.5522847 338.552531,31 337.999305,31 L316.000695,31 C315.448026,31 315,30.5561352 315,30 Z M315,24 C315,23.4477153 315.447469,23 316.000695,23 L337.999305,23 C338.551974,23 339,23.4438648 339,24 C339,24.5522847 338.552531,25 337.999305,25 L316.000695,25 C315.448026,25 315,24.5561352 315,24 Z" id="Combined-Shape" fill="#034698"></path>
        </g>
    </g>
</svg>