<?xml version="1.0" encoding="iso-8859-1"?>
<!-- Generator: Adobe Illustrator 19.0.0, SVG Export Plug-In . SVG Version: 6.00 Build 0)  -->
<svg version="1.1" id="icon" xmlns="http://www.w3.org/2000/svg" xmlns:xlink="http://www.w3.org/1999/xlink" x="0px" y="0px"
	 viewBox="0 0 150 150" style="enable-background:new 0 0 150 150;" xml:space="preserve">
<path id="XMLID_299_" style="fill:#010011;" d="M26,116.831V96.986l1.133-13.911l10.392-16.926l10.741-6.031
	c0,0,9.651-1.946,9.942-1.946s20.976,2.14,20.976,2.14l9.584,5.642l1.694,3.21l6.19,12.063c0,0-12.548-0.097-12.646,0.195
	c-0.097,0.292-5.642,4.669-5.739,4.961c-0.097,0.292-2.043,6.323-2.043,6.615c0,0.292,0.876,7.685,0.876,7.685l2.094,3.599
	l-29.04,9.533c0,0-11.055,4.086-11.347,4.086S26,116.831,26,116.831z"/>
<circle id="XMLID_298_" style="fill:#42B9E0;" cx="90.464" cy="94.708" r="7.7"/>
<circle id="XMLID_297_" style="fill:#42B9E0;" cx="90.464" cy="94.708" r="7.7"/>
<polygon id="XMLID_296_" style="fill:#FFFFFF;" points="35,119.165 35,135.119 23.753,133.854 24.387,117.901 34.347,117.317 "/>
<polygon id="XMLID_295_" style="fill:#42B9E0;" points="41,118.387 41,135.119 44.75,133.66 86.12,120.916 90.597,115.469 
	91.271,109.729 84.526,108.123 79.095,103.172 "/>
<polygon id="XMLID_294_" style="fill:#FFFFFF;" points="52,114.265 52,131.983 56,130.373 56,112.252 "/>
<polygon id="XMLID_293_" style="fill:#FFFFFF;" points="59,112.252 59,129.97 60,128.359 60,110.238 "/>
<polygon id="XMLID_292_" style="fill:#FFFFFF;" points="34,117.998 34,135.119 43,134.778 43,116.928 "/>
<path id="XMLID_286_" style="fill:#1987BD;" d="M111.588,68.275c-1.409-1.521-3.806-1.613-5.327-0.204l-9.743,9.023
	c-1.659-5.053-8.995-20.891-35.754-20.846c-4.642,0.008-8.851,0.987-12.643,2.297c-0.301-0.766-0.592-1.538-0.874-2.315
	c-0.319,0.754-0.952,1.273-1.334,2.007c-0.219,0.422-0.527,0.673-0.866,0.791c0.08,0.208,0.157,0.417,0.238,0.624
	c-4.418,1.969-8.172,4.769-11.227,8.392c-8.477,10.058-11.541,26.089-9.187,48.007h-2.443v20.625l19.423,1.003
	c38.457-13.943,52.755-14.362,51.301-26.993c7.849-1.121,13.517-7.823,13.517-15.978c0-0.147-0.007-0.293-0.011-0.439l2.362-2.188
	c1.521-1.408,1.613-3.805,0.204-5.327c-0.571-0.617-1.306-0.995-2.078-1.137l3.264-3.023c1.521-1.409,1.613-3.806,0.204-5.327
	c-0.548-0.591-1.246-0.964-1.983-1.119l2.752-2.549C112.904,72.193,112.997,69.796,111.588,68.275z M36.298,69.97
	c5.607-6.648,13.873-10.8,24.598-10.781c25.813,0.046,31.638,15.657,32.702,19.622c-1.014-0.2-2.061-0.308-3.133-0.308
	c-8.936,0-16.206,7.27-16.206,16.206c0,2.89,0.764,5.603,2.095,7.954l-34.421,13.877l0,0l-14.179-0.486
	C25.473,95.04,28.344,79.405,36.298,69.97z M78.376,101.89l-0.032,0.012C78.339,101.825,78.347,101.806,78.376,101.89z
	 M41.933,134.144l-16.391-0.581v-14.406l16.391,0.681c0,0,30.546-12.499,36.144-14.701c2.848,3.375,7.044,5.577,11.752,5.76
	C89.419,119.622,82.661,120.685,41.933,134.144z M90.465,107.504c-7.056,0-12.797-5.74-12.797-12.796s5.741-12.797,12.797-12.797
	s12.796,5.741,12.796,12.797S97.521,107.504,90.465,107.504z"/>
<path id="XMLID_283_" style="fill:#1987BD;" d="M132.937,89.609v-0.001c-0.389-1.997-1.725-3.588-3.42-4.436
	c1.194-71.261-56.601-83.567-89.773-66.397l6.043,22.584c0.658-0.181,1.362-0.166,2.072-0.292c0.337-0.06,0.671-0.126,1.004-0.195
	l-5.228-20.054c21.936-11.382,82.979-10.085,82.754,63.697c-0.301,0.014-0.604,0.042-0.909,0.101
	c-1.655,0.321-3.085,1.265-4.028,2.661c-0.943,1.395-1.286,3.074-0.966,4.728c0.319,1.654,1.265,3.085,2.66,4.028
	c1.287,0.869,2.815,1.229,4.341,1.029c0.129-0.017,0.293-0.038,0.422-0.063C131.323,96.337,133.715,93.023,132.937,89.609z
	 M127.444,94.766c-1.056,0.211-2.132-0.014-3.024-0.618c-0.893-0.603-1.497-1.518-1.702-2.575c-0.205-1.058,0.015-2.132,0.618-3.025
	c0.603-0.893,1.518-1.497,2.575-1.702c0.082-0.015,0.163-0.029,0.244-0.04c2.095-0.274,4.074,1.132,4.482,3.234
	C131.059,92.224,129.626,94.343,127.444,94.766z"/>
<path id="XMLID_282_" style="fill:#FFFAFF;" d="M32.467,108.512c0,0,2.028-38.695,38.256-44.587
	C71.359,63.822,26.941,58.691,32.467,108.512z"/>
<path id="XMLID_281_" style="fill:#1987BD;" d="M73.63,43.825c0.19-1.266,1.095-2.452,2.245-3.068
	c-21.347-9.349-37.67,3.299-37.67,3.299l6.836,15.969l3.469-1.644L43.025,45.39C56.157,38.326,68.106,41.551,73.63,43.825z"/>
<circle id="XMLID_280_" style="fill:#42B9E0;" cx="79.101" cy="44.779" r="2.068"/>
<circle id="XMLID_279_" style="fill:#42B9E0;" cx="126.677" cy="90.808" r="2.068"/>
<path id="XMLID_276_" style="fill:#1987BD;" d="M85.314,44.693c-0.023-1.684-0.7-3.259-1.907-4.434
	c-1.208-1.174-2.809-1.808-4.484-1.785c-1.634,0.022-3.162,0.665-4.324,1.806c-0.123-0.06-0.249-0.116-0.372-0.176
	c-0.527,0.896-1.019,1.81-1.49,2.739c0.079,0.037,0.158,0.073,0.237,0.111c-0.184,0.612-0.278,1.254-0.269,1.911
	c0.023,1.684,0.7,3.259,1.907,4.434c1.113,1.082,2.553,1.706,4.09,1.779c0.131,0.006,0.262,0.008,0.393,0.006
	c1.684-0.023,3.259-0.7,4.434-1.907C84.704,47.969,85.338,46.377,85.314,44.693z M83.211,44.733
	c-0.051,1.073-0.476,2.091-1.227,2.862c-0.751,0.772-1.8,1.204-2.879,1.218c-1.074,0.022-2.115-0.392-2.887-1.143
	c-0.772-0.751-1.216-1.758-1.231-2.837c-0.015-1.076,0.386-2.095,1.137-2.866c0.751-0.772,1.753-1.206,2.829-1.221
	c0.085-0.002,0.169,0,0.252,0.004c0.983,0.046,1.989,0.45,2.701,1.142c0.772,0.751,1.356,1.765,1.305,2.839L83.211,44.733z"/>
<path id="XMLID_275_" style="fill:#1987BD;" d="M24.983,114.459c-0.073,0.085-2.554,1.593-2.554,1.593l2.991,0.231L24.983,114.459z"
	/>
</svg>
