<?xml version="1.0" encoding="iso-8859-1"?>
<!-- Generator: Adobe Illustrator 19.0.0, SVG Export Plug-In . SVG Version: 6.00 Build 0)  -->
<svg version="1.1" id="transparent" xmlns="http://www.w3.org/2000/svg" xmlns:xlink="http://www.w3.org/1999/xlink" x="0px"
	 y="0px" viewBox="-388 563.55 64 64" style="enable-background:new -388 563.55 64 64;" xml:space="preserve">
<g id="XMLID_274_">
	<circle id="XMLID_297_" style="fill:#C6C1C1;" cx="-350.028" cy="604.915" r="3.619"/>
	<path id="XMLID_299_" style="fill:#010011;" d="M-380.171,615.311l-0.423-7.589l0.88-8.274l4.846-7.954l5.029-2.834
		c0,0,4.526-0.914,4.663-0.914c0.137,0,9.853,1.006,9.853,1.006l4.501,2.652l0.795,1.509l2.908,5.669c0,0-5.897-0.045-5.943,0.091
		c-0.046,0.137-2.652,2.194-2.697,2.332c-0.045,0.137-0.96,2.972-0.96,3.108s0.411,3.611,0.411,3.611l0.984,1.691l-13.646,4.479
		c0,0-5.12,1.92-5.257,1.92C-374.364,615.815-380.171,615.311-380.171,615.311z"/>
	<polygon id="XMLID_296_" style="fill:#FFFFFF;" points="-375.965,616.408 -375.965,623.905 -381.314,623.311 -381.049,615.814 
		-376.32,615.539 	"/>
	<polygon id="XMLID_295_" style="fill:#C6C1C1;" points="-373.771,616.042 -373.771,623.905 -371.76,623.22 -352.194,617.231 
		-350.028,614.671 -349.681,611.974 -352.834,611.219 -355.628,608.892 	"/>
	<polygon id="XMLID_294_" style="fill:#FFFFFF;" points="-367.92,614.105 -367.92,622.432 -366.092,621.675 -366.092,613.159 	"/>
	<polygon id="XMLID_293_" style="fill:#FFFFFF;" points="-364.811,613.159 -364.811,621.485 -364.08,620.728 -364.08,612.213 	"/>
	<polygon id="XMLID_292_" style="fill:#FFFFFF;" points="-376.331,615.859 -376.331,623.905 -372.492,623.745 -372.492,615.357 	"/>
	<path id="XMLID_286_" style="fill:#5E5A5A;" d="M-340.101,592.493c-0.662-0.715-1.789-0.758-2.504-0.096l-4.578,4.24
		c-0.78-2.374-4.227-9.818-16.801-9.796c-2.182,0.004-4.16,0.464-5.941,1.08c-0.141-0.36-0.278-0.723-0.41-1.087
		c-0.15,0.355-0.447,0.598-0.626,0.943c-0.103,0.199-0.248,0.317-0.407,0.371c0.038,0.098,0.074,0.196,0.112,0.293
		c-2.077,0.925-3.84,2.241-5.276,3.944c-3.984,4.726-5.424,12.26-4.317,22.56H-382v9.692l9.128,0.471
		c18.072-6.552,24.791-6.75,24.107-12.685c3.689-0.527,6.352-3.676,6.352-7.509c0-0.069-0.003-0.138-0.005-0.207l1.11-1.029
		c0.715-0.661,0.758-1.789,0.096-2.504c-0.268-0.29-0.614-0.468-0.977-0.534l1.534-1.42c0.715-0.662,0.758-1.789,0.096-2.504
		c-0.257-0.278-0.585-0.453-0.932-0.526l1.293-1.197C-339.483,594.335-339.44,593.208-340.101,592.493z M-375.483,593.29
		c2.635-3.124,6.519-5.075,11.559-5.066c12.13,0.022,14.867,7.358,15.367,9.22c-0.476-0.094-0.969-0.145-1.472-0.145
		c-4.199,0-7.616,3.416-7.616,7.616c0,1.358,0.359,2.633,0.984,3.738l-16.176,6.521l0,0l-6.663-0.228
		C-380.569,605.071-379.22,597.724-375.483,593.29z M-355.709,608.29l-0.015,0.006C-355.727,608.259-355.723,608.251-355.709,608.29
		z M-372.834,623.447l-7.703-0.274v-6.769l7.703,0.32c0,0,14.354-5.873,16.985-6.908c1.338,1.586,3.31,2.621,5.522,2.707
		C-350.52,616.623-353.695,617.122-372.834,623.447z M-350.028,610.928c-3.316,0-6.013-2.697-6.013-6.013
		c0-3.316,2.698-6.013,6.013-6.013c3.316,0,6.013,2.698,6.013,6.013C-344.015,608.231-346.712,610.928-350.028,610.928z"/>
	<path id="XMLID_283_" style="fill:#5E5A5A;" d="M-330.069,602.518L-330.069,602.518c-0.183-0.939-0.811-1.687-1.607-2.085
		c0.561-33.487-26.598-39.27-42.187-31.201l2.84,10.613c0.31-0.085,0.64-0.078,0.974-0.138c0.158-0.028,0.316-0.06,0.472-0.092
		l-2.456-9.424c10.309-5.349,38.994-4.739,38.888,29.933c-0.142,0.006-0.284,0.02-0.427,0.047c-0.778,0.151-1.449,0.595-1.893,1.251
		c-0.443,0.655-0.605,1.444-0.454,2.222c0.15,0.778,0.595,1.449,1.25,1.893c0.605,0.408,1.323,0.577,2.04,0.483
		c0.061-0.008,0.138-0.018,0.199-0.03C-330.828,605.68-329.703,604.123-330.069,602.518z M-332.65,604.942
		c-0.496,0.099-1.002-0.006-1.421-0.29c-0.42-0.283-0.704-0.713-0.799-1.211c-0.096-0.497,0.007-1.002,0.29-1.422
		c0.283-0.42,0.713-0.704,1.211-0.799c0.038-0.007,0.076-0.013,0.115-0.019c0.984-0.129,1.914,0.532,2.107,1.52
		C-330.952,603.747-331.625,604.743-332.65,604.942z"/>
	<path id="XMLID_282_" style="fill:#FFFAFF;" d="M-377.283,611.402c0,0,0.953-18.183,17.978-20.952
		C-359.006,590.4-379.879,587.989-377.283,611.402z"/>
	<path id="XMLID_281_" style="fill:#5E5A5A;" d="M-357.939,581.004c0.09-0.596,0.514-1.152,1.055-1.441
		c-10.032-4.393-17.702,1.55-17.702,1.55l3.212,7.504l1.63-0.772l-2.578-6.105C-366.15,578.419-360.535,579.935-357.939,581.004z"/>
	<circle id="XMLID_280_" style="fill:#C6C1C1;" cx="-355.368" cy="581.452" r="0.972"/>
	<circle id="XMLID_279_" style="fill:#C6C1C1;" cx="-333.01" cy="603.082" r="0.972"/>
	<path id="XMLID_276_" style="fill:#5E5A5A;" d="M-352.449,581.411c-0.01-0.791-0.329-1.532-0.896-2.084
		c-0.568-0.551-1.32-0.85-2.108-0.839c-0.768,0.01-1.485,0.313-2.033,0.849c-0.058-0.029-0.117-0.055-0.175-0.082
		c-0.248,0.421-0.478,0.851-0.7,1.287c0.037,0.018,0.074,0.034,0.111,0.052c-0.086,0.287-0.131,0.589-0.126,0.898
		c0.01,0.791,0.329,1.532,0.896,2.084c0.524,0.508,1.199,0.801,1.922,0.836c0.062,0.003,0.123,0.004,0.185,0.003
		c0.791-0.01,1.532-0.329,2.084-0.896C-352.736,582.951-352.437,582.202-352.449,581.411z M-353.474,581.43
		c0,0.504-0.205,0.982-0.557,1.344c-0.353,0.363-0.836,0.566-1.343,0.573c-0.505,0.01-0.99-0.184-1.352-0.537
		c-0.363-0.353-0.569-0.826-0.576-1.333c-0.007-0.506,0.182-0.984,0.535-1.346c0.353-0.363,0.824-0.567,1.33-0.574
		c0.04-0.001,0.079,0,0.118,0.002c0.462,0.022,0.916,0.211,1.251,0.537C-353.707,580.449-353.474,580.925-353.474,581.43
		L-353.474,581.43z"/>
	<path id="XMLID_275_" style="fill:#5E5A5A;" d="M-380.8,614.197c-0.034,0.04-1.2,0.749-1.2,0.749l1.406,0.109L-380.8,614.197z"/>
</g>
</svg>
