<?xml version="1.0" encoding="UTF-8"?>
<svg width="464px" height="88px" viewBox="0 0 464 88" version="1.1" xmlns="http://www.w3.org/2000/svg" xmlns:xlink="http://www.w3.org/1999/xlink">
    <!-- Generator: Sketch 3.8.1 (29687) - http://www.bohemiancoding.com/sketch -->
    <title>Group</title>
    <desc>Created with Sketch.</desc>
    <defs>
        <polygon id="path-1" points="57.8326148 0.0840690832 0.442453254 0.0840690832 0.442453254 57.0154567 57.8326148 57.0154567 57.8326148 0.0840690832"></polygon>
        <polygon id="path-3" points="0.304823029 16.292458 14.4337646 16.292458 14.4337646 0.608164871 0.304823029 0.608164871 0.304823029 16.292458"></polygon>
        <polygon id="path-5" points="0 86.6758764 463.022896 86.6758764 463.022896 0.0840690832 0 0.0840690832"></polygon>
    </defs>
    <g id="Page-1" stroke="none" stroke-width="1" fill="none" fill-rule="evenodd">
        <g id="Group">
            <g id="Page-1">
                <polygon id="Fill-1" fill="#FFFFFF" points="0 5.76883352 0 53.1316606 7.50101151 53.1316606 7.50101151 33.5794076 17.187026 33.5794076 17.187026 26.8141273 7.50101151 26.8141273 7.50101151 12.5360689 19.8463442 12.5360689 19.8463442 5.76883352"></polygon>
                <polygon id="Fill-2" fill="#FFFFFF" points="23.4628329 53.1316606 30.9684431 53.1316606 30.9684431 5.76883352 23.4628329 5.76883352"></polygon>
                <g id="Group-68" transform="translate(0.000000, 0.567629)">
                    <path d="M46.7213556,26.175463 L57.225925,26.175463 L57.225925,41.1958058 C57.225925,48.7770124 53.4064399,53.1075477 46.0401024,53.1075477 C38.6737648,53.1075477 34.8549367,48.7770124 34.8549367,41.1958058 L34.8549367,16.5687781 C34.8549367,8.99148171 38.6737648,4.66094638 46.0401024,4.66094638 C53.4064399,4.66094638 57.225925,8.99148171 57.225925,16.5687781 L57.225925,21.1710716 L50.133534,21.1710716 L50.133534,16.0962968 C50.133534,12.7133308 48.6317551,11.4268783 46.2444126,11.4268783 C43.8577272,11.4268783 42.3559482,12.7133308 42.3559482,16.0962968 L42.3559482,41.672849 C42.3559482,45.0538599 43.8577272,46.2712323 46.2444126,46.2712323 C48.6317551,46.2712323 50.133534,45.0538599 50.133534,41.672849 L50.133534,32.9407432 L46.7213556,32.9407432 L46.7213556,26.175463 Z" id="Fill-3" fill="#FFFFFF"></path>
                    <polygon id="Fill-5" fill="#FFFFFF" points="68.7208409 52.5637706 61.2172016 52.5637706 61.2172016 5.2009436 68.7208409 5.2009436 68.7208409 25.5019979 77.2466884 25.5019979 77.2466884 5.2009436 84.8850017 5.2009436 84.8850017 52.5637706 77.2466884 52.5637706 77.2466884 32.2672782 68.7208409 32.2672782"></polygon>
                    <polygon id="Fill-7" fill="#FFFFFF" points="88.8771323 5.2009436 112.067989 5.2009436 112.067989 11.9688306 104.225366 11.9688306 104.225366 52.5637706 96.7217266 52.5637706 96.7217266 11.9688306 88.8771323 11.9688306"></polygon>
                    <polygon id="Fill-9" fill="#FFFFFF" points="244.518063 26.196187 254.202106 26.196187 254.202106 32.9575571 244.518063 32.9575571 244.518063 52.5137202 237.01508 52.5137202 237.01508 5.15089317 256.863395 5.15089317 256.863395 11.9181285 244.518063 11.9181285"></polygon>
                    <path d="M268.255236,5.15076283 L268.255236,41.6895325 C268.255236,45.0705434 269.756358,46.2879158 272.143701,46.2879158 C274.531043,46.2879158 276.030194,45.0705434 276.030194,41.6895325 L276.030194,5.15076283 L283.122585,5.15076283 L283.122585,41.2124893 C283.122585,48.7897857 279.305728,53.1242312 271.939391,53.1242312 C264.573053,53.1242312 260.752254,48.7897857 260.752254,41.2124893 L260.752254,5.15076283 L268.255236,5.15076283 Z" id="Fill-11" fill="#FFFFFF"></path>
                    <polygon id="Fill-13" fill="#FFFFFF" points="287.082854 5.15076283 310.273711 5.15076283 310.273711 11.9186499 302.429117 11.9186499 302.429117 52.5135899 294.928105 52.5135899 294.928105 11.9186499 287.082854 11.9186499"></polygon>
                    <path d="M321.733283,5.15076283 L321.733283,41.6895325 C321.733283,45.0705434 323.233092,46.2879158 325.619777,46.2879158 C328.007119,46.2879158 329.508898,45.0705434 329.508898,41.6895325 L329.508898,5.15076283 L336.602603,5.15076283 L336.602603,41.2124893 C336.602603,48.7897857 332.781804,53.1242312 325.417438,53.1242312 C318.049129,53.1242312 314.230301,48.7897857 314.230301,41.2124893 L314.230301,5.15076283 L321.733283,5.15076283 Z" id="Fill-15" fill="#FFFFFF"></path>
                    <path d="M347.990568,11.9183892 L347.990568,26.4642957 L350.925804,26.4642957 C353.722424,26.4642957 355.426542,25.2462715 355.426542,21.4599043 L355.426542,16.7904858 C355.426542,13.4055648 354.266375,11.9183892 351.605086,11.9183892 L347.990568,11.9183892 Z M356.176775,52.5133292 C355.768154,51.2959567 355.496178,50.5510656 355.496178,46.6936632 L355.496178,39.249965 C355.496178,34.8529564 353.997027,33.2295759 350.584192,33.2295759 L347.990568,33.2295759 L347.990568,52.5133292 L340.491528,52.5133292 L340.491528,5.15050216 L351.812024,5.15050216 C359.586982,5.15050216 362.929524,8.73614631 362.929524,16.0455947 L362.929524,19.7654887 C362.929524,24.6375853 361.360737,27.8198282 358.020166,29.3715219 C361.770014,30.9284292 362.99719,34.5140733 362.99719,39.45525 L362.99719,46.7607881 C362.99719,49.0619349 363.064855,50.7563505 363.815088,52.5133292 L356.176775,52.5133292 Z" id="Fill-17" fill="#FFFFFF"></path>
                    <polygon id="Fill-19" fill="#FFFFFF" points="374.336344 25.1104576 384.637917 25.1104576 384.637917 31.8783446 374.336344 31.8783446 374.336344 45.7477883 387.295264 45.7477883 387.295264 52.5137202 366.835332 52.5137202 366.835332 5.15089317 387.295264 5.15089317 387.295264 11.9181285 374.336344 11.9181285"></polygon>
                    <polygon id="Fill-21" fill="#FFFFFF" points="122.454177 5.18002409 134.03154 5.18002409 134.03154 8.8575577 126.819585 8.8575577 126.819585 26.1164843 133.698468 26.1164843 133.698468 29.7901077 126.819585 29.7901077 126.819585 52.5637055 122.454177 52.5637055"></polygon>
                    <path d="M142.268857,44.8193137 C142.268857,47.4423994 142.798355,49.279537 145.577238,49.279537 C148.354806,49.279537 148.884305,47.4423994 148.884305,44.8193137 L148.884305,12.9245462 C148.884305,10.3014605 148.354806,8.46236784 145.577238,8.46236784 C142.798355,8.46236784 142.268857,10.3014605 142.268857,12.9245462 L142.268857,44.8193137 Z M137.903449,12.7948583 C137.903449,8.13391189 139.689686,4.78678932 145.577238,4.78678932 C151.465446,4.78678932 153.251683,8.13391189 153.251683,12.7948583 L153.251683,44.9490016 C153.251683,49.609948 151.465446,52.9570706 145.577238,52.9570706 C139.689686,52.9570706 137.903449,49.609948 137.903449,44.9490016 L137.903449,12.7948583 Z" id="Fill-23" fill="#FFFFFF"></path>
                    <path d="M164.398877,26.1166798 C166.449206,26.1166798 167.638279,25.5268928 167.638279,22.7024323 L167.638279,12.0712776 C167.638279,9.31589713 166.183143,8.85775321 163.935073,8.85775321 L161.488605,8.85775321 L161.488605,26.1166798 L164.398877,26.1166798 Z M167.838647,32.6773268 C167.838647,30.3800902 166.449206,29.7903032 164.398877,29.7903032 L161.488605,29.7903032 L161.488605,52.563901 L157.119256,52.563901 L157.119256,5.1802196 L165.259477,5.1802196 C169.426486,5.1802196 172.003029,5.90360473 172.003029,10.6277658 L172.003029,22.6379142 C172.003029,26.3134927 170.615559,27.5601916 167.241483,27.7570045 L167.241483,27.8866924 C170.350153,28.0854604 172.204055,29.0037033 172.204055,32.283701 L172.204055,52.563901 L167.838647,52.563901 L167.838647,32.6773268 Z" id="Fill-25" fill="#FFFFFF"></path>
                    <polygon id="Fill-27" fill="#FFFFFF" points="182.56876 8.96241596 177.688964 8.96241596 177.688964 5.29726462 191.796883 5.29726462 191.796883 8.96241596 186.917087 8.96241596 186.917087 52.5219316 182.56876 52.5219316"></polygon>
                    <polygon id="Fill-29" fill="#FFFFFF" points="206.636969 5.29719945 210.987924 5.29719945 210.987924 52.5218664 206.636969 52.5218664 206.636969 29.8238657 200.110209 29.8238657 200.110209 52.5218664 195.757283 52.5218664 195.757283 5.29719945 200.110209 5.29719945 200.110209 26.1626245 206.636969 26.1626245"></polygon>
                    <polygon id="Fill-31" fill="#FFFFFF" points="214.872118 5.29719945 226.411378 5.29719945 226.411378 8.96235079 219.224386 8.96235079 219.224386 26.1626245 226.082248 26.1626245 226.082248 29.8238657 219.224386 29.8238657 219.224386 48.8606253 226.411378 48.8606253 226.411378 52.5218664 214.872118 52.5218664"></polygon>
                    <g id="Group-35" transform="translate(404.678849, 0.000000)">
                        <mask id="mask-2" fill="white">
                            <use xlink:href="#path-1"></use>
                        </mask>
                        <g id="Clip-34"></g>
                        <path d="M44.5550755,25.9639869 C44.1609078,30.9657715 40.3545616,37.1334444 29.2278641,44.8736653 C18.1018236,37.1334444 14.2994191,30.9657715 13.9052514,25.9639869 L13.9052514,24.2259075 C14.3270108,18.9999386 17.7983145,16.2719295 20.8012155,15.9832271 C21.2965529,15.9330464 21.758386,15.912192 22.1886858,15.912192 C25.6580186,15.912192 27.3233772,17.3974125 29.2278641,19.6522887 C31.134322,17.3974125 32.7963958,15.912192 36.2631008,15.912192 C36.69997,15.912192 37.1618032,15.9330464 37.6551698,15.9832271 C40.6580708,16.2719295 44.1287175,18.9999386 44.5550755,24.2259075 L44.5550755,25.9639869 Z M29.1391764,0.083743234 C13.2916636,0.083743234 0.442453254,12.8283556 0.442453254,28.547319 C0.442453254,44.2708444 13.2916636,57.0154567 29.1391764,57.0154567 C44.9853753,57.0154567 57.8326148,44.2708444 57.8326148,28.547319 C57.8326148,12.8283556 44.9853753,0.083743234 29.1391764,0.083743234 L29.1391764,0.083743234 Z" id="Fill-33" fill="#EC3332" mask="url(#mask-2)"></path>
                    </g>
                    <path d="M442.333953,15.9829664 C441.840586,15.9327857 441.378753,15.9119313 440.941884,15.9119313 C437.475179,15.9119313 435.813762,17.3971518 433.907304,19.6526797 C432.002817,17.3971518 430.336801,15.9119313 426.867469,15.9119313 C426.437826,15.9119313 425.975993,15.9327857 425.479998,15.9829664 C422.477097,16.2716688 419.005794,18.999678 418.584034,24.2256468 L418.584034,25.9637262 C418.978859,30.9661625 422.780606,37.1331837 433.907304,44.8734046 C445.033345,37.1331837 448.839691,30.9661625 449.233858,25.9637262 L449.233858,24.2256468 C448.808157,18.999678 445.336854,16.2716688 442.333953,15.9829664" id="Fill-36" fill="#FFFFFF"></path>
                    <g id="Group-59">
                        <polygon id="Fill-38" fill="#FFFFFF" points="113.040992 71.3603142 113.040992 73.7644293 104.895517 73.7644293 104.895517 77.772374 112.211269 77.772374 112.211269 80.0468011 104.895517 80.0468011 104.895517 84.0977579 113.303114 84.0977579 113.303114 86.5025247 102.318974 86.5025247 102.318974 71.3603142"></polygon>
                        <path d="M131.689527,78.9204058 C131.689527,75.4546741 129.687812,73.7211566 125.684382,73.7211566 L123.107839,73.7211566 L123.107839,84.0981489 L125.968182,84.0981489 C127.816829,84.0981489 129.233205,83.6608593 130.215339,82.7875836 C131.198131,81.9136561 131.689527,80.6245969 131.689527,78.9204058 M132.083037,73.3425198 C133.552626,74.6635123 134.288406,76.5019533 134.288406,78.8552359 C134.288406,81.209822 133.574962,83.0730274 132.148075,84.4448524 C130.721188,85.8166774 128.537499,86.502264 125.597008,86.502264 L120.530639,86.502264 L120.530639,71.3600536 L125.771755,71.3600536 C128.508593,71.3600536 130.612135,72.0208757 132.083037,73.3425198" id="Fill-40" fill="#FFFFFF"></path>
                        <path d="M144.966343,83.0364672 C145.665334,83.8452248 146.611337,84.2492777 147.805008,84.2492777 C148.998679,84.2492777 149.945338,83.8452248 150.644329,83.0364672 C151.34332,82.2277096 151.692158,81.1302496 151.692158,79.7434356 L151.692158,71.3599884 L154.269358,71.3599884 L154.269358,79.8522692 C154.269358,82.0328518 153.664968,83.7116266 152.456844,84.8885938 C151.248063,86.065561 149.69767,86.6540445 147.805008,86.6540445 C145.912346,86.6540445 144.36261,86.065561 143.153829,84.8885938 C141.945048,83.7116266 141.341314,82.0328518 141.341314,79.8522692 L141.341314,71.3599884 L143.918514,71.3599884 L143.918514,79.7434356 C143.918514,81.1302496 144.26801,82.2277096 144.966343,83.0364672" id="Fill-42" fill="#FFFFFF"></path>
                        <g id="Group-46" transform="translate(160.951815, 70.383418)">
                            <mask id="mask-4" fill="white">
                                <use xlink:href="#path-3"></use>
                            </mask>
                            <g id="Clip-45"></g>
                            <path d="M8.25387184,13.8011456 C9.14206308,13.8011456 9.90609149,13.6532101 10.546614,13.3566874 C11.1871365,13.061468 11.8565647,12.5883351 12.5555554,11.9379401 L14.2156584,13.6277939 C12.5995708,15.4036718 10.6372726,16.2925883 8.3300776,16.2925883 C6.0228826,16.2925883 4.10788448,15.5555175 2.58705407,14.0826793 C1.06556671,12.6098411 0.304823029,10.7466356 0.304823029,8.49371453 C0.304823029,6.24079344 1.08067647,4.36390228 2.63041252,2.86108596 C4.18146245,1.35957303 6.13916208,0.608164871 8.50482528,0.608164871 C10.8704885,0.608164871 12.8465826,1.47492364 14.4337646,3.20778947 L12.7959977,4.98431908 C12.0681014,4.29091207 11.3796218,3.80735192 10.7318728,3.53298693 C10.0841239,3.25862193 9.32403717,3.12111359 8.45029875,3.12111359 C6.90713217,3.12111359 5.61163429,3.61640431 4.56314819,4.60503066 C3.51531902,5.59496041 2.99107597,6.85795175 2.99107597,8.39661148 C2.99107597,9.93396782 3.51137735,11.2197686 4.55263705,12.2520587 C5.5932398,13.2850006 6.82698473,13.8011456 8.25387184,13.8011456" id="Fill-44" fill="#FFFFFF" mask="url(#mask-4)"></path>
                        </g>
                        <path d="M190.999088,80.6970005 L188.225461,74.4582925 L185.452491,80.6970005 L190.999088,80.6970005 Z M184.404005,83.0581036 L182.875948,86.5023292 L180.124001,86.5023292 L186.850473,71.3601187 L189.601763,71.3601187 L196.327578,86.5023292 L193.575631,86.5023292 L192.047574,83.0581036 L184.404005,83.0581036 Z" id="Fill-47" fill="#FFFFFF"></path>
                        <polygon id="Fill-49" fill="#FFFFFF" points="206.940281 73.699846 206.940281 86.5024595 204.363738 86.5024595 204.363738 73.699846 199.733582 73.699846 199.733582 71.3602491 211.569781 71.3602491 211.569781 73.699846"></polygon>
                        <mask id="mask-6" fill="white">
                            <use xlink:href="#path-5"></use>
                        </mask>
                        <g id="Clip-52"></g>
                        <polygon id="Fill-51" fill="#FFFFFF" mask="url(#mask-6)" points="218.295333 86.5025247 220.871876 86.5025247 220.871876 71.3603142 218.295333 71.3603142"></polygon>
                        <path d="M239.925221,74.9344885 C238.883961,73.8657033 237.606857,73.3319623 236.092597,73.3319623 C234.578336,73.3319623 233.300575,73.8657033 232.259972,74.9344885 C231.21937,76.0032737 230.699068,77.2995017 230.699068,78.8231724 C230.699068,80.346843 231.21937,81.643071 232.259972,82.7118562 C233.300575,83.7806415 234.578336,84.3143824 236.092597,84.3143824 C237.606857,84.3143824 238.883961,83.7806415 239.925221,82.7118562 C240.965823,81.643071 241.486125,80.346843 241.486125,78.8231724 C241.486125,77.2995017 240.965823,76.0032737 239.925221,74.9344885 M241.813941,84.4121372 C240.270774,85.9064814 238.363659,86.6539794 236.092597,86.6539794 C233.821534,86.6539794 231.914419,85.9064814 230.371252,84.4121372 C228.827429,82.9171412 228.056831,81.0545874 228.056831,78.8231724 C228.056831,76.5917573 228.827429,74.7285518 230.371252,73.2342076 C231.914419,71.7392116 233.821534,70.9917137 236.092597,70.9917137 C238.363659,70.9917137 240.270774,71.7392116 241.813941,73.2342076 C243.357107,74.7285518 244.128362,76.5917573 244.128362,78.8231724 C244.128362,81.0545874 243.357107,82.9171412 241.813941,84.4121372" id="Fill-53" fill="#FFFFFF" mask="url(#mask-6)"></path>
                        <polygon id="Fill-54" fill="#FFFFFF" mask="url(#mask-6)" points="262.755414 71.3603142 265.331957 71.3603142 265.331957 86.5025247 262.536651 86.5025247 253.889269 75.4542831 253.889269 86.5025247 251.312726 86.5025247 251.312726 71.3603142 253.889269 71.3603142 262.755414 82.6679318"></polygon>
                        <polygon id="Fill-55" fill="#FFFFFF" mask="url(#mask-6)" points="285.989761 73.7431188 285.989761 77.9022575 292.759592 77.9022575 292.759592 80.2633605 285.989761 80.2633605 285.989761 86.5027202 283.413218 86.5027202 283.413218 71.3605097 293.589315 71.3605097 293.566979 73.7431188"></polygon>
                        <path d="M303.962101,83.0364672 C304.660435,83.8452248 305.607094,84.2492777 306.800765,84.2492777 C307.994436,84.2492777 308.940439,83.8452248 309.640087,83.0364672 C310.33842,82.2277096 310.687259,81.1302496 310.687259,79.7434356 L310.687259,71.3599884 L313.264459,71.3599884 L313.264459,79.8522692 C313.264459,82.0328518 312.660068,83.7116266 311.451944,84.8885938 C310.24382,86.065561 308.69277,86.6540445 306.800765,86.6540445 C304.908103,86.6540445 303.35771,86.065561 302.149586,84.8885938 C300.940805,83.7116266 300.336415,82.0328518 300.336415,79.8522692 L300.336415,71.3599884 L302.913615,71.3599884 L302.913615,79.7434356 C302.913615,81.1302496 303.26311,82.2277096 303.962101,83.0364672" id="Fill-56" fill="#FFFFFF" mask="url(#mask-6)"></path>
                        <polygon id="Fill-57" fill="#FFFFFF" mask="url(#mask-6)" points="332.677153 71.3603142 335.253696 71.3603142 335.253696 86.5025247 332.45839 86.5025247 323.811007 75.4542831 323.811007 86.5025247 321.234464 86.5025247 321.234464 71.3603142 323.811007 71.3603142 332.677153 82.6679318"></polygon>
                        <path d="M354.579673,78.9204058 C354.579673,75.4546741 352.577958,73.7211566 348.574528,73.7211566 L345.997985,73.7211566 L345.997985,84.0981489 L348.858328,84.0981489 C350.706975,84.0981489 352.123351,83.6608593 353.106143,82.7875836 C354.088277,81.9136561 354.579673,80.6245969 354.579673,78.9204058 M354.973184,73.3425198 C356.443429,74.6635123 357.178552,76.5019533 357.178552,78.8552359 C357.178552,81.209822 356.465108,83.0730274 355.038221,84.4448524 C353.611334,85.8166774 351.427645,86.502264 348.487811,86.502264 L343.421442,86.502264 L343.421442,71.3600536 L348.661902,71.3600536 C351.398739,71.3600536 353.502281,72.0208757 354.973184,73.3425198" id="Fill-58" fill="#FFFFFF" mask="url(#mask-6)"></path>
                    </g>
                    <g id="Group-63" transform="translate(0.000000, 77.552100)">
                        <path d="M88.8771323,0.0104271731 L0.000197083855,0.0104271731" id="Fill-60" fill="#FFFFFF"></path>
                        <path d="M88.8771323,0.0104271731 L0.000197083855,0.0104271731" id="Stroke-62" stroke="#FFFFFF"></path>
                    </g>
                    <g id="Group-67" transform="translate(373.802378, 77.552100)">
                        <path d="M89.2201895,0.0104271731 L0.34325438,0.0104271731" id="Fill-64" fill="#FFFFFF"></path>
                        <path d="M89.2201895,0.0104271731 L0.34325438,0.0104271731" id="Stroke-66" stroke="#FFFFFF"></path>
                    </g>
                </g>
            </g>
        </g>
    </g>
</svg>