<?xml version="1.0" encoding="UTF-8"?>
<svg width="463px" height="88px" viewBox="0 0 463 88" version="1.1" xmlns="http://www.w3.org/2000/svg" xmlns:xlink="http://www.w3.org/1999/xlink">
    <!-- Generator: Sketch 3.8.1 (29687) - http://www.bohemiancoding.com/sketch -->
    <title>Page 1</title>
    <desc>Created with Sketch.</desc>
    <defs>
        <polygon id="path-1" points="57.8142518 0.0847164179 0.442312766 0.0847164179 0.442312766 57.4544776 57.8142518 57.4544776 57.8142518 0.0847164179"></polygon>
        <polygon id="path-3" points="0.304726241 16.4179104 14.4291816 16.4179104 14.4291816 0.612847761 0.304726241 0.612847761 0.304726241 16.4179104"></polygon>
        <polygon id="path-5" points="0 87.3432836 462.875877 87.3432836 462.875877 0.0847164179 0 0.0847164179"></polygon>
    </defs>
    <g id="Page-1" stroke="none" stroke-width="1" fill="none" fill-rule="evenodd">
        <g id="Artboard-1-Copy" transform="translate(-113.000000, -97.000000)">
            <g id="Group">
                <g id="Page-1" transform="translate(113.000000, 97.000000)">
                    <polygon id="Fill-1" fill="#11354E" points="0 5.81325373 0 53.5407761 7.49862979 53.5407761 7.49862979 33.8379701 17.1815688 33.8379701 17.1815688 27.020597 7.49862979 27.020597 7.49862979 12.632597 19.8400426 12.632597 19.8400426 5.81325373"></polygon>
                    <polygon id="Fill-2" fill="#11354E" points="23.455383 53.5407761 30.9586099 53.5407761 30.9586099 5.81325373 23.455383 5.81325373"></polygon>
                    <g id="Group-68" transform="translate(0.000000, 0.572000)">
                        <path d="M46.7065206,26.3770149 L57.2077546,26.3770149 L57.2077546,41.5130149 C57.2077546,49.152597 53.3894823,53.5164776 46.0254837,53.5164776 C38.6614851,53.5164776 34.8438695,49.152597 34.8438695,41.5130149 L34.8438695,16.6963582 C34.8438695,9.06071642 38.6614851,4.69683582 46.0254837,4.69683582 C53.3894823,4.69683582 57.2077546,9.06071642 57.2077546,16.6963582 L57.2077546,21.3340896 L50.1176156,21.3340896 L50.1176156,16.2202388 C50.1176156,12.8112239 48.6163135,11.5148657 46.2297291,11.5148657 C43.8438014,11.5148657 42.3424993,12.8112239 42.3424993,16.2202388 L42.3424993,41.9937313 C42.3424993,45.4007761 43.8438014,46.6275224 46.2297291,46.6275224 C48.6163135,46.6275224 50.1176156,45.4007761 50.1176156,41.9937313 L50.1176156,33.1943881 L46.7065206,33.1943881 L46.7065206,26.3770149 Z" id="Fill-3" fill="#11354E"></path>
                        <polygon id="Fill-5" fill="#11354E" points="68.6990206 52.9685134 61.1977638 52.9685134 61.1977638 5.24099104 68.6990206 5.24099104 68.6990206 25.6983642 77.222161 25.6983642 77.222161 5.24099104 84.8580489 5.24099104 84.8580489 52.9685134 77.222161 52.9685134 77.222161 32.5157373 68.6990206 32.5157373"></polygon>
                        <polygon id="Fill-7" fill="#11354E" points="88.8489119 5.24099104 112.032406 5.24099104 112.032406 12.060991 104.192272 12.060991 104.192272 52.9685134 96.6910155 52.9685134 96.6910155 12.060991 88.8489119 12.060991"></polygon>
                        <polygon id="Fill-9" fill="#11354E" points="244.440423 26.3978985 254.121392 26.3978985 254.121392 33.2113313 244.440423 33.2113313 244.440423 52.9180776 236.939823 52.9180776 236.939823 5.19055522 256.781836 5.19055522 256.781836 12.0098985 244.440423 12.0098985"></polygon>
                        <path d="M268.17006,5.19042388 L268.17006,42.0105433 C268.17006,45.4175881 269.670705,46.6443343 272.05729,46.6443343 C274.443874,46.6443343 275.942549,45.4175881 275.942549,42.0105433 L275.942549,5.19042388 L283.032688,5.19042388 L283.032688,41.5298269 C283.032688,49.1654687 279.217043,53.5332896 271.853044,53.5332896 C264.489046,53.5332896 260.66946,49.1654687 260.66946,41.5298269 L260.66946,5.19042388 L268.17006,5.19042388 Z" id="Fill-11" fill="#11354E"></path>
                        <polygon id="Fill-13" fill="#11354E" points="286.991699 5.19042388 310.175193 5.19042388 310.175193 12.0104239 302.333089 12.0104239 302.333089 52.9179463 294.83446 52.9179463 294.83446 12.0104239 286.991699 12.0104239"></polygon>
                        <path d="M321.631126,5.19042388 L321.631126,42.0105433 C321.631126,45.4175881 323.130458,46.6443343 325.516386,46.6443343 C327.90297,46.6443343 329.404272,45.4175881 329.404272,42.0105433 L329.404272,5.19042388 L336.495725,5.19042388 L336.495725,41.5298269 C336.495725,49.1654687 332.676139,53.5332896 325.314111,53.5332896 C317.948142,53.5332896 314.130526,49.1654687 314.130526,41.5298269 L314.130526,5.19042388 L321.631126,5.19042388 Z" id="Fill-15" fill="#11354E"></path>
                        <path d="M347.880074,12.0101612 L347.880074,26.6680716 L350.814378,26.6680716 C353.61011,26.6680716 355.313687,25.4406687 355.313687,21.6251463 L355.313687,16.9197731 C355.313687,13.5087881 354.153888,12.0101612 351.493444,12.0101612 L347.880074,12.0101612 Z M356.063681,52.9176836 C355.65519,51.6909373 355.383301,50.9403104 355.383301,47.053206 L355.383301,39.552191 C355.383301,35.1213254 353.884626,33.4854448 350.472874,33.4854448 L347.880074,33.4854448 L347.880074,52.9176836 L340.383414,52.9176836 L340.383414,5.19016119 L351.700317,5.19016119 C359.472806,5.19016119 362.814287,8.80341493 362.814287,16.1691463 L362.814287,19.9176836 C362.814287,24.8272955 361.245997,28.0340418 357.906487,29.5976836 C361.655145,31.1665791 362.881931,34.7798328 362.881931,39.7590567 L362.881931,47.1208478 C362.881931,49.4397134 362.949575,51.1471761 363.699569,52.9176836 L356.063681,52.9176836 Z" id="Fill-17" fill="#11354E"></path>
                        <polygon id="Fill-19" fill="#11354E" points="374.217484 25.303809 384.515786 25.303809 384.515786 32.123809 374.217484 32.123809 374.217484 46.1000478 387.17229 46.1000478 387.17229 52.9180776 366.718854 52.9180776 366.718854 5.19055522 387.17229 5.19055522 387.17229 12.0098985 374.217484 12.0098985"></polygon>
                        <polygon id="Fill-21" fill="#11354E" points="122.415295 5.21991045 133.988982 5.21991045 133.988982 8.92576119 126.779317 8.92576119 126.779317 26.3175821 133.656016 26.3175821 133.656016 30.0194925 126.779317 30.0194925 126.779317 52.9684478 122.415295 52.9684478"></polygon>
                        <path d="M142.223683,45.1644239 C142.223683,47.8077075 142.753014,49.658991 145.531014,49.658991 C148.3077,49.658991 148.837031,47.8077075 148.837031,45.1644239 L148.837031,13.0240657 C148.837031,10.3807821 148.3077,8.52752836 145.531014,8.52752836 C142.753014,8.52752836 142.223683,10.3807821 142.223683,13.0240657 L142.223683,45.1644239 Z M137.859662,12.8933791 C137.859662,8.19654328 139.645331,4.82364776 145.531014,4.82364776 C151.417353,4.82364776 153.203022,8.19654328 153.203022,12.8933791 L153.203022,45.2951104 C153.203022,49.9919463 151.417353,53.3648418 145.531014,53.3648418 C139.645331,53.3648418 137.859662,49.9919463 137.859662,45.2951104 L137.859662,12.8933791 Z" id="Fill-23" fill="#11354E"></path>
                        <path d="M164.346677,26.3177791 C166.396355,26.3177791 167.58505,25.7234507 167.58505,22.8772418 L167.58505,12.1642269 C167.58505,9.38762985 166.130376,8.92595821 163.88302,8.92595821 L161.43733,8.92595821 L161.43733,26.3177791 L164.346677,26.3177791 Z M167.785355,32.9289433 C167.785355,30.6140179 166.396355,30.0196896 164.346677,30.0196896 L161.43733,30.0196896 L161.43733,52.9686448 L157.069368,52.9686448 L157.069368,5.22010746 L165.207003,5.22010746 C169.37269,5.22010746 171.948415,5.94906269 171.948415,10.7096 L171.948415,22.8122269 C171.948415,26.5161075 170.561385,27.772406 167.188381,27.9707343 L167.188381,28.1014209 C170.296063,28.3017194 172.149376,29.2270328 172.149376,32.5322866 L172.149376,52.9686448 L167.785355,52.9686448 L167.785355,32.9289433 Z" id="Fill-25" fill="#11354E"></path>
                        <polygon id="Fill-27" fill="#11354E" points="182.510791 9.03142687 177.632544 9.03142687 177.632544 5.33805373 191.735984 5.33805373 191.735984 9.03142687 186.857737 9.03142687 186.857737 52.9263522 182.510791 52.9263522"></polygon>
                        <polygon id="Fill-29" fill="#11354E" points="206.571358 5.33798806 210.920931 5.33798806 210.920931 52.9262866 206.571358 52.9262866 206.571358 30.0535104 200.04667 30.0535104 200.04667 52.9262866 195.695126 52.9262866 195.695126 5.33798806 200.04667 5.33798806 200.04667 26.3640776 206.571358 26.3640776"></polygon>
                        <polygon id="Fill-31" fill="#11354E" points="214.803892 5.33798806 226.339487 5.33798806 226.339487 9.03136119 219.154778 9.03136119 219.154778 26.3640776 226.010462 26.3640776 226.010462 30.0535104 219.154778 30.0535104 219.154778 49.2368537 226.339487 49.2368537 226.339487 52.9262866 214.803892 52.9262866"></polygon>
                        <g id="Group-35" transform="translate(404.550355, 0.000000)">
                            <mask id="mask-2" fill="white">
                                <use xlink:href="#path-1"></use>
                            </mask>
                            <g id="Clip-34"></g>
                            <path d="M44.5409284,26.1639104 C44.1468858,31.204209 40.3417482,37.4193731 29.2185837,45.219194 C18.0960759,37.4193731 14.2948787,31.204209 13.9008362,26.1639104 L13.9008362,24.4124478 C14.3224617,19.1462388 17.7926631,16.3972239 20.7946106,16.1062985 C21.2897908,16.0557313 21.7514773,16.0347164 22.1816404,16.0347164 C25.6498716,16.0347164 27.3147014,17.5313731 29.2185837,19.8036119 C31.1244362,17.5313731 32.7859823,16.0347164 36.2515865,16.0347164 C36.688317,16.0347164 37.1500035,16.0557313 37.6432135,16.1062985 C40.645161,16.3972239 44.1147057,19.1462388 44.5409284,24.4124478 L44.5409284,26.1639104 Z M29.1299241,0.0843880597 C13.2874433,0.0843880597 0.442312766,12.9271343 0.442312766,28.7671343 C0.442312766,44.6117313 13.2874433,57.4544776 29.1299241,57.4544776 C44.9710915,57.4544776 57.8142518,44.6117313 57.8142518,28.7671343 C57.8142518,12.9271343 44.9710915,0.0843880597 29.1299241,0.0843880597 L29.1299241,0.0843880597 Z" id="Fill-33" fill="#EC3332" mask="url(#mask-2)"></path>
                        </g>
                        <path d="M442.193502,16.1060358 C441.700292,16.0554687 441.238606,16.0344537 440.801875,16.0344537 C437.336271,16.0344537 435.675382,17.5311104 433.769529,19.804006 C431.865647,17.5311104 430.200161,16.0344537 426.731929,16.0344537 C426.302423,16.0344537 425.840736,16.0554687 425.3449,16.1060358 C422.342952,16.3969612 418.872751,19.1459761 418.451125,24.4121851 L418.451125,26.1636478 C418.845824,31.204603 422.646365,37.4191104 433.769529,45.2189313 C444.892037,37.4191104 448.697175,31.204603 449.091217,26.1636478 L449.091217,24.4121851 C448.665651,19.1459761 445.19545,16.3969612 442.193502,16.1060358" id="Fill-36" fill="#FFFFFF"></path>
                        <g id="Group-59">
                            <polygon id="Fill-38" fill="#11354E" points="113.0051 71.909791 113.0051 74.3324179 104.86221 74.3324179 104.86221 78.3712239 112.17564 78.3712239 112.17564 80.6631642 104.86221 80.6631642 104.86221 84.7453134 113.267138 84.7453134 113.267138 87.168597 102.286485 87.168597 102.286485 71.909791"></polygon>
                            <path d="M131.647712,79.5280955 C131.647712,76.0356776 129.646633,74.2888119 125.644474,74.2888119 L123.068749,74.2888119 L123.068749,84.7457075 L125.928185,84.7457075 C127.776244,84.7457075 129.192171,84.3050507 130.173993,83.4250507 C131.156473,82.544394 131.647712,81.245409 131.647712,79.5280955 M132.041098,73.9072597 C133.51022,75.2384239 134.245766,77.0910209 134.245766,79.4624239 C134.245766,81.8351403 133.532549,83.7126925 132.106115,85.0950806 C130.679681,86.4774687 128.496686,87.1683343 125.557128,87.1683343 L120.492368,87.1683343 L120.492368,71.9095284 L125.73182,71.9095284 C128.467789,71.9095284 130.570663,72.5754388 132.041098,73.9072597" id="Fill-40" fill="#11354E"></path>
                            <path d="M144.920313,83.6758507 C145.619082,84.4908358 146.564784,84.898 147.758077,84.898 C148.951369,84.898 149.897728,84.4908358 150.596496,83.6758507 C151.295265,82.8608657 151.643993,81.7549552 151.643993,80.3574627 L151.643993,71.9094627 L154.220374,71.9094627 L154.220374,80.4671343 C154.220374,82.6645075 153.616176,84.356209 152.408435,85.5422388 C151.200038,86.7282687 149.650138,87.3212836 147.758077,87.3212836 C145.866016,87.3212836 144.316772,86.7282687 143.108374,85.5422388 C141.899977,84.356209 141.296435,82.6645075 141.296435,80.4671343 L141.296435,71.9094627 L143.872817,71.9094627 L143.872817,80.3574627 C143.872817,81.7549552 144.222201,82.8608657 144.920313,83.6758507" id="Fill-42" fill="#11354E"></path>
                            <g id="Group-46" transform="translate(160.900709, 70.925373)">
                                <mask id="mask-4" fill="white">
                                    <use xlink:href="#path-3"></use>
                                </mask>
                                <g id="Clip-45"></g>
                                <path d="M8.25125106,13.9074149 C9.13916028,13.9074149 9.9029461,13.7583403 10.5432652,13.4595343 C11.1835844,13.1620418 11.8528,12.6852657 12.5515688,12.0298627 L14.2111447,13.7327284 C12.5955702,15.5222806 10.633895,16.4180418 8.32743262,16.4180418 C6.02097021,16.4180418 4.10658014,15.6752955 2.58623262,14.1911164 C1.06522837,12.7069373 0.304726241,10.8293851 0.304726241,8.55911642 C0.304726241,6.28884776 1.08033333,4.39750448 2.6295773,2.88311642 C4.18013475,1.37004179 6.13721277,0.612847761 8.50212482,0.612847761 C10.8670369,0.612847761 12.8425035,1.4862806 14.4291816,3.23248955 L12.7919348,5.02269851 C12.0642695,4.32395224 11.3760085,3.83666866 10.7284652,3.56019104 C10.080922,3.28371343 9.3210766,3.14514627 8.4476156,3.14514627 C6.90493901,3.14514627 5.60985248,3.64425075 4.56169929,4.64048955 C3.51420284,5.63804179 2.99012624,6.91075821 2.99012624,8.46126567 C2.99012624,10.0104597 3.51026241,11.3061612 4.55119149,12.3464 C5.59146383,13.3872955 6.82481702,13.9074149 8.25125106,13.9074149" id="Fill-44" fill="#11354E" mask="url(#mask-4)"></path>
                            </g>
                            <path d="M190.938442,81.3183701 L188.165696,75.0316239 L185.393606,81.3183701 L190.938442,81.3183701 Z M184.345453,83.6976537 L182.817881,87.1684 L180.066808,87.1684 L186.791144,71.909594 L189.541561,71.909594 L196.26524,87.1684 L193.514167,87.1684 L191.986595,83.6976537 L184.345453,83.6976537 Z" id="Fill-47" fill="#11354E"></path>
                            <polygon id="Fill-49" fill="#11354E" points="206.874573 74.2673373 206.874573 87.1685313 204.298849 87.1685313 204.298849 74.2673373 199.670162 74.2673373 199.670162 71.9097254 211.502603 71.9097254 211.502603 74.2673373"></polygon>
                            <mask id="mask-6" fill="white">
                                <use xlink:href="#path-5"></use>
                            </mask>
                            <g id="Clip-52"></g>
                            <polygon id="Fill-51" fill="#11354E" mask="url(#mask-6)" points="218.22602 87.168597 220.801745 87.168597 220.801745 71.909791 218.22602 71.909791"></polygon>
                            <path d="M239.849039,75.5114866 C238.80811,74.4344716 237.531412,73.8966209 236.017632,73.8966209 C234.503852,73.8966209 233.226497,74.4344716 232.186225,75.5114866 C231.145953,76.5885015 230.625817,77.8947104 230.625817,79.4301134 C230.625817,80.9655164 231.145953,82.2717254 232.186225,83.3487403 C233.226497,84.4257552 234.503852,84.963606 236.017632,84.963606 C237.531412,84.963606 238.80811,84.4257552 239.849039,83.3487403 C240.889312,82.2717254 241.409448,80.9655164 241.409448,79.4301134 C241.409448,77.8947104 240.889312,76.5885015 239.849039,75.5114866 M241.73716,85.0621134 C240.194483,86.5679642 238.287974,87.3212179 236.017632,87.3212179 C233.74729,87.3212179 231.840781,86.5679642 230.298105,85.0621134 C228.754771,83.555606 227.984418,81.6787104 227.984418,79.4301134 C227.984418,77.1815164 228.754771,75.3039642 230.298105,73.7981134 C231.840781,72.291606 233.74729,71.5383522 236.017632,71.5383522 C238.287974,71.5383522 240.194483,72.291606 241.73716,73.7981134 C243.279836,75.3039642 244.050846,77.1815164 244.050846,79.4301134 C244.050846,81.6787104 243.279836,83.555606 241.73716,85.0621134" id="Fill-53" fill="#11354E" mask="url(#mask-6)"></path>
                            <polygon id="Fill-54" fill="#11354E" mask="url(#mask-6)" points="262.671984 71.909791 265.247709 71.909791 265.247709 87.168597 262.45329 87.168597 253.808653 76.0352836 253.808653 87.168597 251.232929 87.168597 251.232929 71.909791 253.808653 71.909791 262.671984 83.3044776"></polygon>
                            <polygon id="Fill-55" fill="#11354E" mask="url(#mask-6)" points="285.898954 74.3109433 285.898954 78.5021075 292.666634 78.5021075 292.666634 80.881391 285.898954 80.881391 285.898954 87.168794 283.323229 87.168794 283.323229 71.9099881 293.496094 71.9099881 293.473765 74.3109433"></polygon>
                            <path d="M303.865587,83.6758507 C304.563699,84.4908358 305.510057,84.898 306.70335,84.898 C307.896642,84.898 308.842344,84.4908358 309.54177,83.6758507 C310.239882,82.8608657 310.588609,81.7549552 310.588609,80.3574627 L310.588609,71.9094627 L313.164991,71.9094627 L313.164991,80.4671343 C313.164991,82.6645075 312.560792,84.356209 311.353052,85.5422388 C310.145311,86.7282687 308.594754,87.3212836 306.70335,87.3212836 C304.811289,87.3212836 303.261388,86.7282687 302.053648,85.5422388 C300.84525,84.356209 300.241052,82.6645075 300.241052,80.4671343 L300.241052,71.9094627 L302.817433,71.9094627 L302.817433,80.3574627 C302.817433,81.7549552 303.166818,82.8608657 303.865587,83.6758507" id="Fill-56" fill="#11354E" mask="url(#mask-6)"></path>
                            <polygon id="Fill-57" fill="#11354E" mask="url(#mask-6)" points="332.571521 71.909791 335.147246 71.909791 335.147246 87.168597 332.352827 87.168597 323.70819 76.0352836 323.70819 87.168597 321.132466 87.168597 321.132466 71.909791 323.70819 71.909791 332.571521 83.3044776"></polygon>
                            <path d="M354.467086,79.5280955 C354.467086,76.0356776 352.466007,74.2888119 348.463848,74.2888119 L345.888123,74.2888119 L345.888123,84.7457075 L348.747559,84.7457075 C350.595618,84.7457075 352.011545,84.3050507 352.994024,83.4250507 C353.975847,82.544394 354.467086,81.245409 354.467086,79.5280955 M354.860472,73.9072597 C356.330251,75.2384239 357.06514,77.0910209 357.06514,79.4624239 C357.06514,81.8351403 356.351923,83.7126925 354.925489,85.0950806 C353.499055,86.4774687 351.316059,87.1683343 348.377159,87.1683343 L343.312398,87.1683343 L343.312398,71.9095284 L348.551194,71.9095284 C351.287163,71.9095284 353.390037,72.5754388 354.860472,73.9072597" id="Fill-58" fill="#11354E" mask="url(#mask-6)"></path>
                        </g>
                        <g id="Group-63" transform="translate(0.000000, 78.149254)">
                            <path d="M88.8489119,0.0105074627 L0.000197021277,0.0105074627" id="Fill-60" fill="#11354E"></path>
                            <path d="M88.8489119,0.0105074627 L0.000197021277,0.0105074627" id="Stroke-62" stroke="#11354E"></path>
                        </g>
                        <g id="Group-67" transform="translate(373.683688, 78.149254)">
                            <path d="M89.1918603,0.0105074627 L0.34314539,0.0105074627" id="Fill-64" fill="#11354E"></path>
                            <path d="M89.1918603,0.0105074627 L0.34314539,0.0105074627" id="Stroke-66" stroke="#11354E"></path>
                        </g>
                    </g>
                </g>
            </g>
        </g>
    </g>
</svg>