<?xml version="1.0" encoding="UTF-8"?>
<svg width="553px" height="70px" viewBox="0 0 553 70" version="1.1" xmlns="http://www.w3.org/2000/svg" xmlns:xlink="http://www.w3.org/1999/xlink">
    <!-- Generator: Sketch 3.8.1 (29687) - http://www.bohemiancoding.com/sketch -->
    <title>Group</title>
    <desc>Created with Sketch.</desc>
    <defs>
        <polygon id="path-1" points="0.528332738 69.2535682 69.0574426 69.2535682 69.0574426 0.505236259 0.528332738 0.505236259"></polygon>
    </defs>
    <g id="Page-1" stroke="none" stroke-width="1" fill="none" fill-rule="evenodd">
        <g id="Group" transform="translate(-1.000000, 0.000000)">
            <g id="Page-1" transform="translate(1.000000, 0.000000)">
                <polygon id="Fill-1" fill="#231F1F" points="0 6.96596459 0 64.1599682 8.95694611 64.1599682 8.95694611 40.5500103 20.5230009 40.5500103 20.5230009 32.3804502 8.95694611 32.3804502 8.95694611 15.1386726 23.6984885 15.1386726 23.6984885 6.96596459"></polygon>
                <polygon id="Fill-2" fill="#231F1F" points="28.0169321 64.1598895 36.9793694 64.1598895 36.9793694 6.96588589 28.0169321 6.96588589"></polygon>
                <g id="Group-38" transform="translate(41.576296, 0.282130)">
                    <path d="M14.2136019,32.0121471 L26.7570919,32.0121471 L26.7570919,50.1502862 C26.7570919,59.3051357 22.1962507,64.5345671 13.4001185,64.5345671 C4.6039864,64.5345671 0.0439296709,59.3051357 0.0439296709,50.1502862 L0.0439296709,20.4113875 C0.0439296709,11.2612598 4.6039864,6.03182839 13.4001185,6.03182839 C22.1962507,6.03182839 26.7570919,11.2612598 26.7570919,20.4113875 L26.7570919,25.9689863 L18.2880789,25.9689863 L18.2880789,19.8408325 C18.2880789,15.7556589 16.494807,14.2021755 13.6440851,14.2021755 C10.7941477,14.2021755 9.00087578,15.7556589 9.00087578,19.8408325 L9.00087578,50.72635 C9.00087578,54.8091626 10.7941477,56.279227 13.6440851,56.279227 C16.494807,56.279227 18.2880789,54.8091626 18.2880789,50.72635 L18.2880789,40.1817072 L14.2136019,40.1817072 L14.2136019,32.0121471 Z" id="Fill-3" fill="#231F1F"></path>
                    <polygon id="Fill-5" fill="#231F1F" points="40.4831529 63.8779173 31.5230689 63.8779173 31.5230689 6.6839137 40.4831529 6.6839137 40.4831529 31.1988899 50.6638541 31.1988899 50.6638541 6.6839137 59.784752 6.6839137 59.784752 63.8779173 50.6638541 63.8779173 50.6638541 39.36845 40.4831529 39.36845"></polygon>
                    <polygon id="Fill-7" fill="#231F1F" points="64.5517488 6.6839137 92.2439151 6.6839137 92.2439151 14.8566217 82.8790506 14.8566217 82.8790506 63.8779173 73.9189667 63.8779173 73.9189667 14.8566217 64.5517488 14.8566217"></polygon>
                    <polygon id="Fill-9" fill="#231F1F" points="250.40234 32.0371728 261.966042 32.0371728 261.966042 40.2020111 250.40234 40.2020111 250.40234 63.8174779 241.443041 63.8174779 241.443041 6.62347422 265.143883 6.62347422 265.143883 14.7953953 250.40234 14.7953953"></polygon>
                    <path d="M278.746862,6.62331682 L278.746862,50.7464964 C278.746862,54.8293091 280.53935,56.2993735 283.390071,56.2993735 C286.240793,56.2993735 288.030927,54.8293091 288.030927,50.7464964 L288.030927,6.62331682 L296.49994,6.62331682 L296.49994,50.1704327 C296.49994,59.3205604 291.942237,64.5547136 283.146105,64.5547136 C274.349973,64.5547136 269.787563,59.3205604 269.787563,50.1704327 L269.787563,6.62331682 L278.746862,6.62331682 Z" id="Fill-11" fill="#231F1F"></path>
                    <polygon id="Fill-13" fill="#231F1F" points="301.228891 6.62331682 328.921057 6.62331682 328.921057 14.7960248 319.553839 14.7960248 319.553839 63.8173205 310.596893 63.8173205 310.596893 14.7960248 301.228891 14.7960248"></polygon>
                    <path d="M342.604914,6.62331682 L342.604914,50.7464964 C342.604914,54.8293091 344.395833,56.2993735 347.24577,56.2993735 C350.096492,56.2993735 351.889764,54.8293091 351.889764,50.7464964 L351.889764,6.62331682 L360.360346,6.62331682 L360.360346,50.1704327 C360.360346,59.3205604 355.797936,64.5547136 347.004157,64.5547136 C338.205672,64.5547136 333.645615,59.3205604 333.645615,50.1704327 L333.645615,6.62331682 L342.604914,6.62331682 Z" id="Fill-15" fill="#231F1F"></path>
                    <path d="M373.958697,14.7957101 L373.958697,32.3609333 L377.463657,32.3609333 C380.803097,32.3609333 382.837982,30.8900819 382.837982,26.3177725 L382.837982,20.6791155 C382.837982,16.591581 381.452628,14.7957101 378.274787,14.7957101 L373.958697,14.7957101 Z M383.733833,63.8170057 C383.2459,62.3469413 382.921134,61.4474319 382.921134,56.7893425 L382.921134,47.8005441 C382.921134,42.4908415 381.131,40.5304934 377.055739,40.5304934 L373.958697,40.5304934 L373.958697,63.8170057 L365.004104,63.8170057 L365.004104,6.62300203 L378.521892,6.62300203 C387.805957,6.62300203 391.797281,10.952924 391.797281,19.779606 L391.797281,24.2716443 C391.797281,30.1550497 389.923995,33.9978358 385.935024,35.871617 C390.412712,37.751694 391.878081,42.0816159 391.878081,48.0484404 L391.878081,56.8704006 C391.878081,59.6492 391.95888,61.6953282 392.854731,63.8170057 L383.733833,63.8170057 Z" id="Fill-17" fill="#231F1F"></path>
                    <polygon id="Fill-19" fill="#231F1F" points="405.418147 30.7260769 417.719239 30.7260769 417.719239 38.8987849 405.418147 38.8987849 405.418147 55.6471308 420.892373 55.6471308 420.892373 63.8174779 396.4612 63.8174779 396.4612 6.62347422 420.892373 6.62347422 420.892373 14.7953953 405.418147 14.7953953"></polygon>
                    <polygon id="Fill-21" fill="#231F1F" points="104.646046 6.65865188 118.470556 6.65865188 118.470556 11.0995369 109.858772 11.0995369 109.858772 31.9409261 118.072836 31.9409261 118.072836 36.3770893 109.858772 36.3770893 109.858772 63.8778386 104.646046 63.8778386"></polygon>
                    <path d="M128.306723,54.5259312 C128.306723,57.693495 128.938997,59.9119701 132.257256,59.9119701 C135.573946,59.9119701 136.206219,57.693495 136.206219,54.5259312 L136.206219,16.0107167 C136.206219,12.8431529 135.573946,10.6223169 132.257256,10.6223169 C128.938997,10.6223169 128.306723,12.8431529 128.306723,16.0107167 L128.306723,54.5259312 Z M123.093997,15.8541092 C123.093997,10.2256828 125.22694,6.18379276 132.257256,6.18379276 C139.288357,6.18379276 141.421299,10.2256828 141.421299,15.8541092 L141.421299,54.6825387 C141.421299,60.3109651 139.288357,64.3528552 132.257256,64.3528552 C125.22694,64.3528552 123.093997,60.3109651 123.093997,54.6825387 L123.093997,15.8541092 Z" id="Fill-23" fill="#231F1F"></path>
                    <path d="M154.732146,31.9411622 C157.180441,31.9411622 158.600311,31.2289522 158.600311,27.818214 L158.600311,14.9803338 C158.600311,11.6530146 156.862735,11.099773 154.178318,11.099773 L151.256995,11.099773 L151.256995,31.9411622 L154.732146,31.9411622 Z M158.83957,39.863613 C158.83957,37.0895354 157.180441,36.3773254 154.732146,36.3773254 L151.256995,36.3773254 L151.256995,63.8780747 L146.039562,63.8780747 L146.039562,6.65888797 L155.759787,6.65888797 C160.735606,6.65888797 163.812252,7.5324273 163.812252,13.23719 L163.812252,27.7403037 C163.812252,32.1788278 162.155476,33.684306 158.126498,33.9219716 L158.126498,34.0785791 C161.838555,34.3186057 164.052296,35.4274498 164.052296,39.3882817 L164.052296,63.8780747 L158.83957,63.8780747 L158.83957,39.863613 Z" id="Fill-25" fill="#231F1F"></path>
                    <polygon id="Fill-27" fill="#231F1F" points="176.428775 11.2261608 170.601818 11.2261608 170.601818 6.80022821 187.448062 6.80022821 187.448062 11.2261608 181.621105 11.2261608 181.621105 63.8273937 176.428775 63.8273937"></polygon>
                    <polygon id="Fill-29" fill="#231F1F" points="205.168586 6.80014951 210.364054 6.80014951 210.364054 63.827315 205.168586 63.827315 205.168586 36.4178545 197.374991 36.4178545 197.374991 63.827315 192.17717 63.827315 192.17717 6.80014951 197.374991 6.80014951 197.374991 31.9966437 205.168586 31.9966437"></polygon>
                    <polygon id="Fill-31" fill="#231F1F" points="215.002164 6.80014951 228.781176 6.80014951 228.781176 11.2260821 220.199201 11.2260821 220.199201 31.9966437 228.388162 31.9966437 228.388162 36.4178545 220.199201 36.4178545 220.199201 59.4061043 228.781176 59.4061043 228.781176 63.827315 215.002164 63.827315"></polygon>
                    <g id="Group-35" transform="translate(441.650084, 0.000000)">
                        <mask id="mask-2" fill="white">
                            <use xlink:href="#path-1"></use>
                        </mask>
                        <g id="Clip-34"></g>
                        <path d="M53.2031459,31.7567746 C52.7324709,37.7967875 48.1873189,45.243907 34.9009468,54.5915647 C21.6153592,45.243907 17.0749139,37.7967875 16.6042389,31.7567746 L16.6042389,29.6579193 C17.1078612,23.3471879 21.2529394,20.0529215 24.8386988,19.7042928 C25.4301805,19.6436959 25.9816547,19.6185128 26.495475,19.6185128 C30.6381998,19.6185128 32.6268019,21.4120228 34.9009468,24.1349472 C37.1774451,21.4120228 39.1621249,19.6185128 43.3017119,19.6185128 C43.8233768,19.6185128 44.374851,19.6436959 44.9639793,19.7042928 C48.5497387,20.0529215 52.6940324,23.3471879 53.2031459,29.6579193 L53.2031459,31.7567746 Z M34.7950449,0.504527984 C15.8715547,0.504527984 0.528332738,15.8945596 0.528332738,34.876333 C0.528332738,53.8636153 15.8715547,69.2536469 34.7950449,69.2536469 C53.7169662,69.2536469 69.0578348,53.8636153 69.0578348,34.876333 C69.0578348,15.8945596 53.7169662,0.504527984 34.7950449,0.504527984 L34.7950449,0.504527984 Z" id="Fill-33" fill="#231F1F" mask="url(#mask-2)"></path>
                    </g>
                    <path d="M486.613985,19.703978 C486.024856,19.6433811 485.473382,19.618198 484.951717,19.618198 C480.81213,19.618198 478.828235,21.411708 476.551737,24.1354194 C474.277592,21.411708 472.288205,19.618198 468.14548,19.618198 C467.632445,19.618198 467.08097,19.6433811 466.488704,19.703978 C462.902945,20.0526068 458.757867,23.3468731 458.254244,29.6576045 L458.254244,31.7564598 C458.725704,37.7972597 463.265365,45.2443792 476.551737,54.5912499 C489.837324,45.2443792 494.382476,37.7972597 494.853151,31.7564598 L494.853151,29.6576045 C494.344822,23.3468731 490.199744,20.0526068 486.613985,19.703978" id="Fill-36" fill="#FFFFFF"></path>
                </g>
            </g>
        </g>
    </g>
</svg>